<svg width="100" height="100" viewBox="0 0 100 100" fill="none" xmlns="http://www.w3.org/2000/svg">
<rect width="100" height="100" rx="1.33333" stroke="#E4E4E7"/>
<path fill-rule="evenodd" clip-rule="evenodd" d="M48.7133 22.3241C55.0109 23.0728 61.8083 8.63318 65.5005 13.8284C70.5504 20.9341 58.2304 30.9151 60.7601 39.275C62.1479 43.8614 72.3353 38.7146 74.3461 43.0604C76.1071 46.8663 70.1752 50.2616 67.2076 53.2097C65.0879 55.3154 59.746 54.7109 59.6027 57.7069C59.1593 66.9838 68.6057 75.7057 65.7106 84.5232C63.7885 90.3775 54.0204 93.943 48.7133 90.873C41.792 86.8693 44.9007 74.6175 39.0783 69.1174C35.5398 65.7746 27.3582 72.3362 24.7372 68.2236C21.9497 63.8495 27.8774 58.5153 29.1041 53.4661C29.8065 50.5754 29.8302 47.665 30.4397 44.753C31.058 41.7997 32.782 39.1342 32.736 36.1163C32.5987 27.1135 23.1181 15.4542 29.9038 9.59659C35.7121 4.58266 41.1179 21.4211 48.7133 22.3241Z" fill="#B6D3E1"/>
<path fill-rule="evenodd" clip-rule="evenodd" d="M18.5182 62.3866C18.4842 62.4032 18.4455 62.4366 18.4368 62.4466L18.4755 62.4032C18.5415 62.3312 18.5435 62.2972 18.6395 62.1546C18.6748 62.0912 18.7028 62.0219 18.7228 61.9479C18.7602 61.8819 18.7842 61.8059 18.7882 61.7246L18.7875 61.6626C18.7008 63.3859 18.7622 62.1399 18.7422 62.5246H18.7402H18.7355L18.7262 62.5239L18.6902 62.5232L18.6175 62.5206L18.4728 62.5152L18.1748 62.5232C17.7722 62.5439 17.3508 62.6086 16.9182 62.7006C16.0488 62.8826 15.1415 63.1786 14.1475 63.4199C13.7462 63.5039 13.3188 63.6759 12.7315 63.8079C12.4415 63.8692 12.1142 63.9232 11.7168 63.8959C11.3288 63.8739 10.8228 63.7219 10.4555 63.3846C10.3708 63.3026 10.2888 63.2166 10.2115 63.1272C10.1168 62.9952 10.0315 62.8572 9.96483 62.6992C9.90616 62.5032 9.8515 62.2892 9.87816 62.0892C9.89683 61.8779 9.95483 61.6766 10.0288 61.5506C10.3408 60.9939 10.6475 60.8452 10.9048 60.6586C11.4242 60.3399 11.8935 60.1486 12.3648 59.9552L13.5775 59.4759C13.7415 59.4019 13.9515 59.3279 14.0735 59.1559C14.1255 59.0692 14.1115 58.9606 14.0562 58.9099C14.0022 58.8559 13.9282 58.8452 13.8575 58.8432C13.5688 58.8466 13.2355 58.9679 12.8168 59.0579C12.6995 59.0826 12.6342 59.0959 12.4422 59.1272C12.1575 59.1719 11.7768 59.2206 11.4188 59.2192C11.0502 59.2152 10.6448 59.1712 10.2322 58.9899C9.81483 58.8079 9.44483 58.4699 9.23616 58.0379C9.12216 57.8172 9.0455 57.5006 9.10083 57.1759C9.16616 56.8572 9.33883 56.5899 9.5055 56.4352C9.84816 56.1006 10.1815 55.9499 10.5028 55.8026C11.1468 55.5446 11.7702 55.3912 12.3888 55.2499C13.4635 55.0252 14.5415 54.7986 15.6168 54.5732L16.0042 54.4819C16.1422 54.4459 16.1542 54.4399 16.2315 54.4146C16.3555 54.3726 16.4775 54.3259 16.5868 54.2586C16.6935 54.2006 16.8068 54.0786 16.7355 53.9499C16.6995 53.8232 16.5895 53.7359 16.4815 53.6752C16.3375 53.5952 16.1748 53.5699 16.0195 53.5492C15.7662 53.5146 15.3935 53.5039 15.0755 53.5079C14.4068 53.5192 13.7342 53.5939 13.0342 53.6739C11.6222 53.7966 10.2895 53.9519 8.96683 54.2419C8.14216 54.3832 8.13016 54.1166 8.74483 53.5446C9.35616 52.9819 10.7288 52.3579 12.3868 52.2166C13.0622 52.1586 13.8088 52.0572 14.5695 52.0292C14.9548 52.0199 15.3388 52.0106 15.7455 52.0439C15.8462 52.0499 15.9468 52.0566 16.0522 52.0719L16.2255 52.0946C16.3102 52.1046 16.3962 52.1152 16.4828 52.1359C16.8102 52.2339 17.1768 52.2892 17.4482 52.4499C18.0515 52.7119 18.4095 53.1526 18.5615 53.6646L18.6508 54.0632C18.6235 54.1986 18.6468 54.3392 18.6088 54.4706C18.5222 54.7219 18.4068 54.9392 18.2128 55.1312C17.8342 55.5232 17.1568 55.7652 16.5222 56.0132C16.1495 56.1366 15.7908 56.2379 15.4335 56.3312C14.0135 56.6506 12.5795 56.8746 11.3922 57.2812C11.1068 57.3786 10.8375 57.4979 10.7228 57.5759C10.7108 57.5839 10.7115 57.5872 10.7022 57.5912L10.6908 57.5952C10.6955 57.5999 10.6795 57.5939 10.6635 57.5772L10.6302 57.5452C10.5835 57.5039 10.5275 57.4686 10.4628 57.4419C10.4042 57.4179 10.4208 57.4159 10.3868 57.4066C10.3748 57.4032 10.3615 57.4006 10.3462 57.3999C10.3562 57.4019 10.3702 57.4032 10.3808 57.4032C10.4102 57.4032 10.4015 57.3986 10.4482 57.3926C10.5775 57.3986 10.7328 57.2726 10.7008 57.3246C10.7295 57.4079 10.7842 57.4846 10.9375 57.5512C11.1022 57.6146 11.3715 57.6439 11.6655 57.6312C11.7562 57.6232 11.8435 57.6239 11.9382 57.6106C12.0455 57.5952 12.0875 57.5999 12.2828 57.5586C12.5915 57.5052 12.9822 57.4066 13.3482 57.3046C14.0848 57.0992 14.8588 56.8506 15.4922 56.7112C16.1315 56.5672 16.5742 56.5426 16.9402 56.5392C17.3042 56.5412 17.5942 56.5706 17.8862 56.6512C18.1782 56.7319 18.5168 56.8832 18.7662 57.3652C18.8588 57.5999 18.9075 57.8592 18.8568 58.0612C18.8242 58.2626 18.7488 58.4232 18.6568 58.5652C18.3008 59.1146 17.7648 59.5699 16.6922 60.1312C16.0695 60.4266 15.3542 60.7246 14.6088 61.0139L13.4842 61.4419L12.7835 61.7219C12.3755 61.8952 11.9322 62.1046 11.7108 62.2872C11.6902 62.3059 11.6495 62.3319 11.6515 62.3386C11.6442 62.3426 11.6535 62.3846 11.5428 62.2879C11.4995 62.2579 11.4488 62.2339 11.3935 62.2172C11.3222 62.1999 11.3522 62.1972 11.3195 62.1906C11.3108 62.1852 11.2562 62.1859 11.2748 62.1872C11.2962 62.1872 11.3128 62.1826 11.3255 62.1759C11.7542 61.9119 11.6048 62.0646 11.6955 62.0672C11.7928 62.1379 12.2035 62.1099 12.6195 61.9852L13.3128 61.7826L14.0355 61.6006C14.9482 61.3686 15.8928 61.0659 16.9075 60.8812C17.5448 60.7686 18.1548 60.6986 18.8888 60.7506C19.3342 60.8312 19.4608 60.9859 19.6535 61.1446C19.8275 61.3026 19.9615 61.5059 20.0635 61.7412C20.1575 61.9832 20.1988 62.2819 20.1308 62.5579C20.0708 62.8392 19.9215 63.0672 19.7702 63.2332C19.1268 63.8652 18.4795 64.0226 17.8575 64.1992C17.5428 64.2906 17.2348 64.3339 16.9242 64.3946C16.6248 64.4486 16.3922 64.4912 16.1188 64.5712C15.3268 64.8032 14.5242 65.1279 13.8828 65.5939C13.5655 65.8246 13.2915 66.0919 13.1262 66.3706C13.0522 66.5112 12.9968 66.6439 12.9715 66.7872C12.9562 66.8632 12.9548 66.9272 12.9568 66.9586C12.9588 66.9646 12.9588 66.9699 12.9575 66.9766C12.9568 66.9819 12.9582 66.9779 12.9582 66.9779C12.9475 66.9792 12.9242 66.9852 12.9082 66.9912C12.8162 67.0319 12.8108 67.0319 12.7822 67.0552C12.7968 67.0412 12.7815 67.0606 12.8288 66.9899C12.8482 66.9572 12.8435 66.9486 12.8668 66.8966C12.8762 66.8792 12.8742 66.8912 12.8775 66.8899C12.8975 66.8959 12.9575 66.9012 13.0295 66.8972C13.1782 66.8879 13.3675 66.8492 13.5595 66.7926C13.9462 66.6812 14.3502 66.5192 14.7515 66.3446C15.5695 65.9966 16.3328 65.5792 17.2682 65.2339C17.9735 65.0032 18.6442 64.8072 19.3728 64.6586C19.7375 64.5879 20.1075 64.5266 20.5182 64.5119C20.7255 64.5079 20.9428 64.5126 21.1928 64.5619C21.4408 64.6246 21.7568 64.6979 22.0522 65.0399C22.1682 65.1772 22.2015 65.2532 22.2775 65.3652C22.3395 65.4792 22.3968 65.6112 22.4442 65.7459C22.5315 66.0372 22.5488 66.4066 22.4295 66.7299C22.1782 67.3646 21.7575 67.6366 21.4248 67.8746C20.7288 68.3206 20.0702 68.5772 19.4208 68.8492C18.8682 69.0812 18.3268 69.3086 17.7695 69.5426C15.7788 70.4159 15.4028 70.6519 14.6982 70.6572C14.5422 70.6592 14.3695 70.7119 14.2328 70.7032C14.0108 70.6992 13.9362 70.4366 14.1428 69.9612C14.3468 69.4892 14.8735 68.8819 15.6488 68.3819C16.8068 67.6679 18.0288 67.1972 19.1348 66.7019C19.6668 66.4652 20.2355 66.1826 20.4622 65.9679C20.4995 65.9412 20.4955 65.9279 20.5128 65.9132C20.5255 65.9052 20.5155 65.9006 20.5168 65.9072C20.5762 65.9606 20.6435 66.0092 20.7155 66.0519C20.8802 66.1919 21.0802 66.2012 20.9648 66.1906C20.9795 66.1939 20.8235 66.1932 20.7615 66.2266C20.7388 66.2412 20.6195 66.2626 20.5602 66.2906C20.4928 66.3152 20.3935 66.3686 20.4275 66.3579C20.4155 66.3492 20.4002 66.3332 20.3935 66.3179L20.3915 66.3152V66.3146C21.8362 65.2826 20.7895 66.0292 21.1115 65.7999L21.1048 65.8032L21.0815 65.8199C21.0662 65.8319 21.0542 65.8446 21.0442 65.8572C21.0242 65.8832 21.0228 65.8979 20.9602 65.9779C20.9155 66.0432 20.8835 66.1119 20.8628 66.1826C20.8542 66.2392 20.7755 66.3859 20.7528 66.4859C20.7068 66.6452 20.7275 66.5992 20.7288 66.6046L20.6915 66.6052C20.6548 66.5992 20.5442 66.6032 20.4435 66.6099C20.2302 66.6219 19.9602 66.6666 19.6895 66.7219C19.1435 66.8326 18.5602 67.0026 17.9882 67.1892C17.5802 67.3312 16.9568 67.6419 16.3688 67.9026C15.7615 68.1746 15.1428 68.4572 14.4048 68.6979C14.1288 68.7866 13.8328 68.8699 13.4615 68.9252C13.2762 68.9526 13.0575 68.9699 12.7982 68.9559C12.5182 68.9272 12.1748 68.8852 11.7562 68.6186C11.3295 68.3446 11.0448 67.8546 10.9602 67.4712C10.8828 67.1166 10.8942 66.8312 10.9215 66.6106C10.9695 66.1852 11.1308 65.7499 11.3228 65.4006C11.7255 64.7006 12.2422 64.2672 12.7422 63.9086C13.2482 63.5559 13.7628 63.2946 14.2862 63.0772C14.8095 62.8566 15.3448 62.6992 15.9108 62.5919C16.5482 62.4732 16.9335 62.4646 17.3442 62.3812C17.7568 62.3186 18.1262 62.1872 18.3288 62.0872L18.3948 62.0499C18.4008 62.0406 18.3988 62.0372 18.4055 62.0346C18.5102 62.1012 18.6468 62.2386 18.7488 62.2566C18.7622 62.2672 18.8048 62.2772 18.8215 62.2772C18.8002 62.2746 18.7935 62.2772 18.7822 62.2806C18.7328 62.2832 18.6962 62.2959 18.6622 62.3139C18.6055 62.3306 18.5582 62.3572 18.5215 62.3852L18.5182 62.3866Z" fill="#231F20"/>
<path fill-rule="evenodd" clip-rule="evenodd" d="M79.4259 24.2668C79.4892 24.2068 79.5079 24.1948 79.5439 24.1368C79.5825 24.0822 79.5452 24.0162 79.4899 24.0028C79.4379 23.9802 79.3725 23.9815 79.3072 24.0028L79.2172 24.0402C79.1785 24.0582 79.0665 24.1308 78.9939 24.1728C78.8305 24.2795 78.6659 24.3968 78.5039 24.5282C77.8539 25.0548 77.2419 25.7182 76.6772 26.4188C76.1205 27.1368 75.5125 27.9595 74.7259 28.6828C74.4172 28.9475 74.1312 29.2222 73.6085 29.4475C73.4872 29.5042 73.2999 29.5448 73.1452 29.5782C72.9712 29.6062 72.7285 29.5875 72.5305 29.5495C72.3285 29.4762 72.0825 29.3662 71.9505 29.2355C71.8192 29.1002 71.6799 28.9668 71.5925 28.7975C71.3979 28.4528 71.3512 28.0655 71.3845 27.7662C71.4145 27.4555 71.5005 27.2235 71.5865 26.9962C71.7719 26.5715 71.9972 26.2422 72.2279 25.9255C72.7165 25.2908 73.2439 24.7475 73.7612 24.2315C74.0265 23.9615 74.2639 23.7515 74.4859 23.5008C74.7259 23.2388 74.9592 22.9768 75.1852 22.7115C75.6359 22.1822 76.0665 21.6368 76.4052 21.0828C76.5712 20.8095 76.7232 20.5242 76.7945 20.2822C76.8319 20.1648 76.8519 20.0528 76.8499 19.9948C76.8552 19.9255 76.8379 19.9368 76.8545 19.9208L77.1245 19.9268C77.1119 19.9535 77.1225 19.9362 77.1139 19.9748C77.1039 20.0122 77.1005 20.0488 77.1012 20.0835C77.1012 20.1028 77.1132 20.0775 77.1005 20.0882C77.0839 20.0948 77.0725 20.0902 77.0485 20.0942C77.0185 20.1062 76.9872 20.1162 76.9552 20.1248C76.8105 20.1908 76.6339 20.2848 76.4605 20.4228C76.1119 20.6835 75.7645 21.0135 75.4285 21.3542C74.7552 22.0422 74.1059 22.7882 73.4552 23.5402L72.3865 24.7775C72.0039 25.2035 71.7299 25.5468 71.0825 26.1462C70.7839 26.4162 70.4679 26.6455 70.1539 26.7548C69.9972 26.8182 69.8399 26.8422 69.6725 26.8488C69.5005 26.8388 69.3319 26.7728 69.1645 26.7182C68.8372 26.5902 68.5472 26.3495 68.3939 26.0408C68.2425 25.7335 68.1999 25.3928 68.2512 25.0295C68.3039 24.5808 68.5032 24.0268 68.7125 23.6228C68.9019 23.2288 69.0599 22.9568 69.2479 22.6368C69.6165 22.0255 70.0079 21.4468 70.3952 20.8755C70.7825 20.3055 71.1692 19.7455 71.5219 19.1888C71.6932 18.9082 71.8712 18.6375 72.0199 18.3708C72.1725 18.1088 72.2845 17.8275 72.3312 17.6368C72.4185 17.4382 72.3645 17.3202 72.4765 17.2242C72.5579 17.1515 72.8879 17.1348 73.1185 17.6055C73.3432 18.0668 73.3052 18.7395 73.1579 19.4335C72.9885 20.1248 72.6472 20.8248 72.2052 21.5028L71.0505 23.2468L70.5239 24.0855C70.3219 24.4308 70.3179 24.4528 70.3199 24.4415C70.3165 24.4428 70.3039 24.4562 70.3112 24.4708C70.3145 24.4795 70.3212 24.4808 70.3285 24.4808C70.3439 24.4722 70.3179 24.5075 70.4232 24.4055C71.3419 23.4475 72.2479 22.3435 73.2179 21.2822C73.7052 20.7482 74.2119 20.2188 74.7832 19.7088C75.0739 19.4548 75.3779 19.2035 75.7452 18.9675C75.9319 18.8488 76.1305 18.7308 76.3925 18.6315C76.6332 18.5355 77.0005 18.4448 77.4312 18.5322C77.5625 18.5702 77.6939 18.6208 77.8212 18.6835L77.9539 18.7502L78.0505 18.8702C78.3379 19.2255 78.4699 19.7028 78.4385 20.0362C78.4305 20.3928 78.3452 20.6662 78.2585 20.9228C78.0732 21.4228 77.8345 21.8275 77.5879 22.2202C77.0892 22.9942 76.5345 23.6835 75.9685 24.3568C75.7039 24.6795 75.3532 25.0662 75.0619 25.3522C74.7592 25.6548 74.4692 25.9515 74.1959 26.2542C73.9252 26.5555 73.6619 26.8622 73.4539 27.1675C73.2452 27.4608 73.0859 27.7975 73.0745 27.9382C73.0699 27.9682 73.0912 27.9735 73.0432 27.9808C72.9852 28.0168 73.1445 27.8828 73.0085 28.0055C72.9819 28.0295 72.9319 28.1142 72.9352 28.1028C72.9305 28.1035 72.9259 28.1075 72.9199 28.1142C72.9072 28.1222 72.8965 28.1862 72.9205 28.0848C72.9339 28.0195 72.9132 27.9762 72.9085 27.9168C72.9192 27.9088 72.9299 27.9055 72.9425 27.9062C73.1199 27.8655 73.4985 27.5675 73.7879 27.2762C74.4219 26.6562 74.9372 25.9268 75.5759 25.1342C76.2132 24.3715 76.9019 23.6388 77.7492 23.0168C77.9679 22.8588 78.1752 22.7242 78.4419 22.5775C78.7412 22.4055 79.0872 22.2642 79.4432 22.1748C80.1485 21.9862 80.8539 22.1375 81.3772 22.4655C81.6832 22.6822 81.9252 23.0702 81.9045 23.4575C81.9092 23.8348 81.7859 24.2168 81.5612 24.5888C81.4499 24.7728 81.3305 24.9588 81.1905 25.1328L80.9812 25.3942L80.8065 25.5922C80.5772 25.8475 80.3745 26.0475 80.1525 26.2668C79.2792 27.1122 78.3679 27.8715 77.4772 28.6348C76.8225 29.2182 76.0872 29.7768 75.6719 30.3728C75.5639 30.5295 75.4585 30.6968 75.3945 30.8462C75.3639 30.9182 75.3399 30.9882 75.3319 31.0262C75.2932 31.0608 75.4145 31.0228 75.2039 31.0528C75.1459 31.0602 75.1292 31.0528 75.0872 31.0675C75.0465 31.0808 75.0112 31.1088 75.0265 31.0948C75.0265 31.0948 75.0232 31.0915 75.0179 31.0962C75.0485 31.0655 75.0692 31.0302 75.0799 30.9955C75.0892 30.9615 75.0852 30.9368 75.1179 30.8442C75.1352 30.7748 75.1272 30.8228 75.1332 30.8095C75.1465 30.8148 75.2332 30.8062 75.3025 30.7942C75.3892 30.7688 75.4652 30.7648 75.5619 30.7262C75.6552 30.6928 75.7545 30.6655 75.7992 30.6428C75.8839 30.6055 76.0692 30.4582 76.2299 30.3302L76.7299 29.9102L77.7372 29.0368C78.4145 28.4522 79.0965 27.8688 79.8332 27.3242C80.1205 27.1128 80.4132 26.9055 80.7345 26.7155C81.0605 26.5288 81.3872 26.3388 81.8665 26.2388C82.1025 26.2022 82.4385 26.1668 82.7859 26.3935C83.1065 26.6075 83.2639 26.9642 83.3005 27.1882C83.3379 27.3215 83.3425 27.4282 83.3519 27.5395C83.3545 27.6015 83.3645 27.6368 83.3599 27.7215C83.3539 27.8108 83.3419 27.9122 83.3225 27.9902C83.2412 28.2782 83.1299 28.4588 83.0245 28.6342C82.5925 29.2982 82.1239 29.7942 81.6545 30.3102C81.1839 30.8168 80.7065 31.3055 80.2319 31.7902C79.8225 32.2188 79.4212 32.6388 79.0085 33.0708C78.2472 33.8622 77.7679 34.3615 77.3959 34.6668C77.0419 34.9855 76.7845 35.0962 76.4885 35.2048C76.3572 35.2548 76.2319 35.3642 76.1379 35.4308C76.0505 35.4835 75.9812 35.4748 75.9152 35.3588C75.8492 35.2428 75.8165 35.0195 75.8485 34.7615C75.8992 34.2188 76.2512 33.5802 76.7619 32.8855C77.5572 31.8862 78.4225 30.9882 79.2805 30.0902C79.6999 29.6475 80.1212 29.2028 80.5445 28.7562C80.7479 28.5348 80.9445 28.3135 81.1212 28.0975C81.2945 27.8882 81.4679 27.6548 81.5339 27.5215L81.5485 27.4875C81.5505 27.4835 81.5552 27.4748 81.5552 27.4748C81.5599 27.4788 81.5372 27.4728 81.5645 27.4862L81.6665 27.5302C81.7872 27.5875 81.9919 27.6188 82.0652 27.6508C82.1112 27.6662 82.1592 27.6755 82.2085 27.6808L82.2845 27.6835L82.3225 27.6815L82.3325 27.6808C82.5145 27.6815 80.7899 27.6742 81.5192 27.6762V27.6735C81.5125 27.6435 81.5099 27.6135 81.5099 27.5835C81.5099 27.5662 81.5045 27.5808 81.5045 27.5808C81.5599 27.5722 81.7065 27.5308 81.8005 27.4902C82.1065 27.4388 82.2525 27.1888 82.1745 27.3148C82.1812 27.3062 82.1365 27.4015 82.1372 27.4382C82.1325 27.4835 82.1345 27.5288 82.1219 27.6382C82.1172 27.7288 82.1245 27.8182 82.1432 27.9028C82.1505 27.9215 82.1599 28.0662 82.1565 28.0402L82.1499 28.0442C82.0972 28.0535 81.8632 28.1575 81.6539 28.2855C81.4359 28.4128 81.1999 28.5808 80.9672 28.7502C80.0225 29.4515 79.0885 30.2988 78.1199 31.1542L77.5619 31.6395L77.2552 31.8922L77.0819 32.0262L76.9879 32.0962L76.8445 32.1902C76.6572 32.3182 76.3845 32.4255 76.2619 32.4615C76.1252 32.5122 75.9719 32.5615 75.7872 32.6022C75.6385 32.6475 75.3812 32.6782 75.1472 32.6895C74.9659 32.6815 74.7972 32.6642 74.6072 32.6162C74.4745 32.5748 74.3412 32.5162 74.2179 32.4455C74.1005 32.3855 73.9719 32.2828 73.8505 32.1442C73.5945 31.8588 73.5165 31.5982 73.4599 31.3182C73.4399 31.1908 73.4439 31.1188 73.4419 31.0155C73.4432 30.9242 73.4485 30.8088 73.4612 30.7555C73.5072 30.4695 73.5805 30.2702 73.6525 30.0948C73.7999 29.7482 73.9579 29.4908 74.1319 29.2355C74.3005 28.9875 74.5172 28.7248 74.7199 28.5168C74.9192 28.3102 75.1032 28.1355 75.2925 27.9628C76.0419 27.2915 76.7719 26.6908 77.4785 26.0695C77.8305 25.7608 78.1759 25.4515 78.5065 25.1388L78.9852 24.6688L79.2112 24.4328L79.3852 24.2395L79.4259 24.2668Z" fill="#231F20"/>
<path fill-rule="evenodd" clip-rule="evenodd" d="M39.2025 44.7574C40.0278 43.0361 40.9058 41.3314 41.8698 39.6688C42.1251 39.2421 42.3278 38.8674 42.6405 38.4048C42.9685 37.9168 43.3545 37.5494 43.7438 37.2081C44.5311 36.5394 45.3625 36.0108 46.2031 35.5194C47.4298 34.8041 48.6671 34.1534 49.9278 33.5614C52.1511 32.5228 54.4011 31.5894 56.6218 30.6188C57.7311 30.1314 58.8325 29.6328 59.9071 29.0948C60.9785 28.5574 62.0351 27.9814 62.9631 27.2888C64.5871 25.9808 66.0425 24.3554 67.3858 22.7214C68.2531 21.6661 69.0785 20.5674 69.9278 19.4794C70.3558 18.9388 70.7738 18.3868 71.2365 17.8694C71.7038 17.3554 72.1805 16.8494 72.6751 16.3601C73.3011 15.7574 73.3345 15.9521 73.0245 16.6408C72.8691 16.9854 72.6425 17.4634 72.3585 18.0281C72.2131 18.3074 72.0638 18.6174 71.8785 18.9261C71.6858 19.2281 71.4738 19.5441 71.2378 19.8608C69.5738 22.1101 67.8958 24.4261 65.8525 26.4754C65.3451 26.9901 64.8158 27.4854 64.2705 27.9654C63.6898 28.4748 63.0551 28.8948 62.4291 29.2714C61.1685 30.0274 59.8725 30.6354 58.5685 31.2248C55.4531 32.6214 52.2271 34.0441 49.1551 35.5688C47.4905 36.4194 45.7858 37.3054 44.4791 38.4901C44.1391 38.7914 43.9098 39.0854 43.6745 39.4574L42.9551 40.6748C42.4851 41.4928 42.0365 42.3254 41.6031 43.1661C40.5331 45.2341 39.5638 47.3681 38.6065 49.5028C37.8945 51.1181 37.2198 52.7481 36.7845 54.4328C36.5758 55.2701 36.3198 56.1768 36.7338 56.6088C37.1691 57.1208 37.9605 57.0768 38.6851 56.7074C39.8211 56.1508 40.8025 55.1988 41.6811 54.2268C42.5638 53.2481 43.3065 52.1601 43.9645 51.0181C44.2531 50.5154 44.4965 50.0041 44.7418 49.4781C45.1965 48.5021 45.4245 47.8354 45.6418 47.3828C45.8651 46.9321 46.0425 46.6788 46.2571 46.4841C46.3538 46.3954 46.4565 46.2701 46.5411 46.2214C46.6845 46.1394 46.7585 46.3294 46.7765 46.7621C46.7818 47.1894 46.7258 47.8654 46.4565 48.6748C45.6738 51.0841 44.3525 53.3481 42.5591 55.3168C41.6518 56.2794 40.6958 57.2194 39.3565 57.9134C39.0218 58.0841 38.6465 58.2334 38.2151 58.3161C37.9938 58.3521 37.7831 58.3988 37.5265 58.3741L37.1591 58.3488C37.0351 58.3268 36.9078 58.2821 36.7838 58.2434C36.5245 58.1761 36.3065 58.0421 36.0971 57.8888C35.8831 57.7521 35.6871 57.5608 35.5245 57.3274C35.1878 56.8548 35.0945 56.2781 35.1065 55.8421C35.1285 55.1661 35.2705 54.7114 35.3765 54.2194C35.4951 53.7328 35.6331 53.2534 35.7818 52.7801C36.0838 51.8354 36.4345 50.9161 36.8098 50.0188C37.5711 48.2241 38.3538 46.5021 39.1678 44.7461L39.2025 44.7574Z" fill="#231F20"/>
<path fill-rule="evenodd" clip-rule="evenodd" d="M68.9332 44.2157C70.0446 42.5823 71.2146 40.9997 72.3979 39.4357C72.8299 38.8643 73.2319 38.2717 73.6719 37.7097C74.4472 36.7243 75.2266 35.725 76.0512 34.7577C76.8712 33.7937 77.7226 32.8597 78.5806 31.931C79.3419 31.107 80.1026 30.2737 80.8799 29.4697C81.8792 28.4437 82.8952 27.3783 84.2772 26.7357C84.7106 26.5377 84.7452 26.7977 84.5599 27.2077C84.3652 27.5957 84.0266 28.2217 83.4626 28.7577C81.4292 30.6763 79.5312 32.8517 77.5812 34.995C76.3986 36.2643 75.3786 37.7597 74.2939 39.1837C73.1079 40.7463 71.9346 42.3157 70.8186 43.923C70.1319 44.9123 69.4619 45.913 68.8292 46.935C67.8692 48.4923 66.8979 50.0537 66.0619 51.6577C65.4099 52.9037 64.9019 54.1863 64.3879 55.463C64.2819 55.7457 64.1772 56.0243 64.0712 56.3103C63.6646 57.3637 63.4452 57.6637 63.0506 57.793C62.9639 57.8237 62.8772 57.873 62.8072 57.8843C62.5952 57.9343 62.4606 57.3923 62.6606 56.547C62.9779 55.305 63.3879 54.0457 63.9432 52.8397C64.4892 51.6283 65.1212 50.4443 65.7812 49.2817C66.7686 47.561 67.8012 45.8703 68.9026 44.199L68.9332 44.2157Z" fill="#231F20"/>
<path fill-rule="evenodd" clip-rule="evenodd" d="M25.2188 50.4354C23.6342 50.7828 22.0442 51.1154 20.4502 51.4314C19.8688 51.5468 19.2928 51.6928 18.7108 51.7961C16.6588 52.1648 14.6008 52.4981 12.5415 52.8161C11.6275 52.9568 10.7122 53.1208 9.80683 53.2761C9.22617 53.3814 8.6415 53.4734 8.05417 53.5481C7.47417 53.6901 6.85017 53.4681 6.26683 53.5401C5.89817 53.5481 5.93617 53.4228 6.23017 53.2541C6.3755 53.1621 6.5895 53.0974 6.83617 52.9288C6.97283 52.8454 7.1055 52.7654 7.2375 52.6848C7.30883 52.6388 7.38417 52.6081 7.4575 52.5514C7.53617 52.5328 7.61617 52.5141 7.69883 52.5001C10.0388 52.0721 12.3975 51.7254 14.7875 51.3794C16.2182 51.1821 17.6802 50.8194 19.1215 50.5101C20.7055 50.1721 22.2882 49.8108 23.8668 49.4294L26.7802 48.7068C28.2475 48.3254 29.7282 47.9608 31.1848 47.5661C32.3188 47.2594 33.4095 46.8821 34.5595 46.5934C34.8135 46.5308 35.0608 46.4581 35.3275 46.4134C36.3008 46.2301 36.7668 46.4021 36.9148 46.8368C36.9508 46.9308 36.9842 47.0181 36.9802 47.0801C36.9668 47.1881 36.8595 47.2394 36.7282 47.3588C36.5948 47.4841 36.3835 47.5608 36.0728 47.6294C35.1482 47.8434 34.1348 48.1608 33.1155 48.4441C32.0808 48.7301 31.0362 49.0188 29.9875 49.3088C28.4175 49.7221 26.8202 50.0868 25.2295 50.4668L25.2188 50.4354Z" fill="#231F20"/>
<path fill-rule="evenodd" clip-rule="evenodd" d="M64.5817 64.2523C64.6124 64.1743 64.6244 64.093 64.6517 64.0136C64.6677 63.9456 64.6704 63.8136 64.683 63.8036C64.681 63.7736 64.7017 63.795 64.6337 63.6416C64.5704 63.513 64.489 63.3676 64.3944 63.2196C64.207 62.9236 63.9877 62.6196 63.7584 62.321C63.2997 61.7203 62.7977 61.1303 62.2877 60.5496C61.8537 60.0576 61.379 59.6023 60.9344 59.1176C59.361 57.405 57.7397 55.7456 56.047 54.129C55.297 53.3943 54.5497 52.6756 53.7737 52.0256C52.7724 51.1836 51.7184 50.497 50.6464 49.8403C50.315 49.6156 50.3757 49.507 50.793 49.391C51.2177 49.233 52.0177 49.235 52.735 49.6483C54.0117 50.3556 55.041 51.3203 56.043 52.237C56.5317 52.6956 57.0204 53.155 57.511 53.6156C58.017 54.0856 58.4937 54.5796 58.9617 55.0836C60.0797 56.2883 61.3464 57.4296 62.4984 58.655C63.1304 59.3303 63.7517 60.0163 64.351 60.7323C64.651 61.0903 64.9457 61.455 65.229 61.8383C65.5104 62.2303 65.7897 62.6003 66.025 63.119C66.1077 63.2956 66.1717 63.5396 66.1764 63.7563C66.1577 65.0123 65.4377 66.025 64.6017 66.6956C64.235 66.995 63.835 67.2396 63.413 67.4383C62.9757 67.6256 62.5784 67.8143 62.0197 67.8536C61.7504 67.9056 61.5037 67.8356 61.247 67.8223C61.0137 67.7563 60.763 67.711 60.5484 67.6163C60.1064 67.4436 59.6977 67.2276 59.323 66.9836C58.7277 66.615 58.1877 66.2043 57.6697 65.7763C57.1497 65.3496 56.6464 64.911 56.183 64.4343C55.9824 64.221 55.781 64.0183 55.5937 63.7923C54.8637 62.9843 54.8724 62.533 54.913 62.1923C54.9284 62.111 54.9284 62.019 54.9504 61.9596C54.9884 61.8583 55.1084 61.865 55.3164 61.943C55.519 62.0263 55.8504 62.1436 56.1584 62.3916C56.6124 62.7556 57.069 63.1216 57.5297 63.4903C57.9684 63.8683 58.401 64.2576 58.8477 64.6103C59.2924 64.9656 59.7417 65.309 60.1857 65.597C60.6264 65.8863 61.0884 66.1276 61.4644 66.2023C61.541 66.2343 61.5964 66.2203 61.6597 66.231C61.719 66.2336 61.7904 66.261 61.8337 66.2403C61.883 66.2316 61.9324 66.229 61.9844 66.231C62.0584 66.2116 62.1377 66.1963 62.221 66.1663C62.5537 66.0596 62.901 65.8976 63.2144 65.7056C63.8517 65.329 64.3597 64.807 64.5444 64.243L64.5817 64.2523Z" fill="#231F20"/>
<path fill-rule="evenodd" clip-rule="evenodd" d="M54.5588 68.9685C55.1915 69.4439 55.8635 69.8665 56.5548 70.1439C56.8081 70.2465 57.0675 70.2752 57.3088 70.3305C57.7448 70.4152 58.1121 70.4185 58.4528 70.2379C58.9135 69.9872 59.3528 69.7052 59.7675 69.3965C60.1361 69.1225 60.4581 68.7919 60.7221 68.4392C61.0495 67.9699 61.2948 67.4992 61.5781 66.9932C61.6675 66.8359 61.8835 66.8979 62.0748 67.1219C62.2641 67.3392 62.4335 67.7605 62.2981 68.1632C62.0655 68.8732 61.5928 69.4452 61.1148 69.9405C60.6281 70.4399 60.0648 70.8225 59.4748 71.1345C59.1788 71.2952 58.6535 71.6245 58.1595 71.6965C57.6648 71.7885 57.1901 71.7632 56.7568 71.6732C55.8048 71.4625 55.0015 71.0365 54.2388 70.5819C53.7721 70.2972 53.3288 69.9845 52.8961 69.6652C52.2395 69.1792 51.6308 68.6385 51.0128 68.1225C50.5321 67.7205 50.0121 67.3719 49.5308 66.9532C49.4255 66.8605 49.3095 66.7805 49.2115 66.6765C48.8475 66.2939 48.8348 66.0765 49.1275 65.7232C49.1935 65.6425 49.2555 65.5565 49.3295 65.4852C49.5848 65.2452 49.9228 65.2339 50.2141 65.4292C51.0775 66.0172 51.8901 66.7105 52.6981 67.4319C53.3048 67.9572 53.9215 68.4852 54.5781 68.9352L54.5588 68.9685Z" fill="#231F20"/>
<path fill-rule="evenodd" clip-rule="evenodd" d="M49.0407 72.8997C49.7053 73.3944 50.4007 73.8511 51.1167 74.1811C51.376 74.2997 51.6487 74.3691 51.8973 74.4431C52.1153 74.5057 52.3287 74.5484 52.5127 74.5531C52.5993 74.5497 52.6833 74.5451 52.7533 74.5277C52.8507 74.5017 52.9913 74.4404 53.1087 74.3984C53.596 74.2044 54.074 73.9764 54.498 73.6757C54.8747 73.4111 55.1987 73.0751 55.4473 72.7077C55.7573 72.2264 55.9653 71.7164 56.16 71.2184C56.2127 71.0777 56.478 71.0571 56.742 71.2611C57 71.4571 57.2253 71.9144 57.0947 72.3511C56.88 73.1211 56.3853 73.7457 55.8473 74.2511C55.3007 74.7564 54.6693 75.1317 54.012 75.3911C53.8147 75.4717 53.6207 75.5511 53.4253 75.6311L53.2747 75.6964L53.066 75.7671C52.9253 75.8164 52.7927 75.8271 52.6547 75.8537C52.1213 75.9064 51.6493 75.8257 51.2207 75.6971C50.2807 75.4031 49.5 74.9131 48.7453 74.4137C48.2833 74.1011 47.842 73.7671 47.4073 73.4284C46.7493 72.9144 46.132 72.3517 45.5087 71.8097C45.028 71.3851 44.498 71.0204 44.0367 70.5564C43.9333 70.4571 43.8273 70.3591 43.7313 70.2491C43.3827 69.8284 43.3633 69.6011 43.594 69.3211C43.6467 69.2564 43.6953 69.1864 43.7547 69.1331C43.9613 68.9551 44.246 69.0017 44.524 69.2157C45.3873 69.8377 46.2107 70.5877 47.0753 71.3177C47.7187 71.8571 48.372 72.3951 49.0593 72.8697L49.0407 72.8997Z" fill="#231F20"/>
<path fill-rule="evenodd" clip-rule="evenodd" d="M38.1117 71.3593C38.9544 72.1246 39.8044 72.8913 40.7057 73.5839C41.0277 73.8486 41.389 74.0493 41.717 74.3019C42.303 74.7326 42.903 75.1339 43.5164 75.4979C44.1457 75.8393 44.7237 76.0873 45.4564 76.2419C46.073 76.3833 46.7084 76.4306 47.2837 76.3306C48.0304 76.1893 48.6044 75.8173 49.081 75.2239C49.2337 75.0466 49.427 75.1473 49.517 75.4633C49.6224 75.7713 49.5604 76.3626 49.083 76.7953C48.6677 77.1719 48.131 77.3753 47.6257 77.4886C47.1137 77.5979 46.6117 77.6093 46.133 77.5733C45.6537 77.5359 45.195 77.4486 44.7564 77.3399C44.5477 77.2919 44.307 77.2139 44.0704 77.1173C43.827 77.0313 43.6144 76.9226 43.4157 76.8033C42.443 76.2539 41.4824 75.7226 40.6044 75.0839C39.639 74.3893 38.7237 73.6399 37.837 72.8619C37.2864 72.3893 36.759 71.8913 36.225 71.4019C35.4277 70.6479 34.6537 69.8639 33.8924 69.0813C33.2937 68.4799 32.6784 67.9093 32.0984 67.2766C31.975 67.1319 31.847 66.9939 31.7284 66.8413C31.287 66.2799 31.269 65.9826 31.491 65.7006C31.5437 65.6333 31.591 65.5579 31.6524 65.5046C31.859 65.3266 32.197 65.4513 32.4964 65.7953C33.4724 66.8106 34.539 67.8946 35.6317 68.9713C36.445 69.7699 37.2784 70.5646 38.1317 71.3333L38.1117 71.3593Z" fill="#231F20"/>
<path fill-rule="evenodd" clip-rule="evenodd" d="M20.7446 68.0197L23.7833 66.9643C24.1546 66.8363 24.51 66.669 24.8846 66.549C26.202 66.1163 27.55 65.7543 28.914 65.4377C29.5233 65.3063 30.124 65.1363 30.744 65.0183C31.1393 64.943 31.5446 64.8497 31.9666 64.8477C32.39 64.8703 32.8273 64.9303 33.238 65.1437C33.4946 65.275 33.3533 65.4583 33.0986 65.6497C32.8433 65.8237 32.5113 66.107 32.14 66.2017C30.7753 66.3763 29.252 66.7603 27.7173 67.097C26.792 67.3023 25.8806 67.6883 24.964 68.013L21.9266 69.089L20.0546 69.767C19.106 70.111 18.1533 70.4563 17.2113 70.7977C16.478 71.0697 15.784 71.415 15.014 71.657C14.84 71.7003 14.6793 71.7643 14.4946 71.7923C13.8233 71.9097 13.5326 71.7803 13.412 71.4403C13.3833 71.3623 13.3486 71.285 13.3386 71.2083C13.322 71.079 13.384 70.963 13.4833 70.865C13.5786 70.7737 13.7233 70.6823 13.9153 70.6103C15.0553 70.0917 16.3893 69.6263 17.7193 69.113C18.7206 68.739 19.7266 68.363 20.7306 67.987L20.7446 68.0197Z" fill="#231F20"/>
<path fill-rule="evenodd" clip-rule="evenodd" d="M19.4471 62.2961C19.0018 61.3681 18.6218 60.4088 18.3131 59.4254C18.1931 59.0701 18.0631 58.7148 17.9711 58.3494C17.6831 57.0501 17.5338 55.7068 17.6564 54.3734C17.6931 53.7828 17.7664 53.1914 17.8631 52.6081C17.9371 52.2374 17.9984 51.8554 18.1264 51.4941C18.2524 51.1314 18.4511 50.7974 18.6918 50.4961C18.8418 50.3061 19.0691 50.4714 19.2551 50.7708C19.4418 51.0741 19.5964 51.4901 19.5431 51.8594C19.1418 53.1074 19.0224 54.4181 18.9784 55.8141C18.9524 56.6554 19.2064 57.5088 19.4378 58.3408C19.6938 59.2601 20.0238 60.1701 20.4238 61.0528C20.6684 61.5974 20.9384 62.1328 21.2378 62.6521C21.6904 63.4374 22.1818 64.2141 22.7591 64.9054C23.2071 65.4428 23.7358 65.8934 24.2578 66.3074L24.6084 66.5561C25.0198 66.8741 25.0404 67.0148 25.0104 67.3621C25.0064 67.4428 25.0184 67.5274 25.0164 67.6048C25.0538 67.8661 24.6038 68.0094 24.1238 67.8021C23.4338 67.4981 22.9118 67.0428 22.3991 66.5648C21.8958 66.0801 21.4424 65.5441 21.0318 64.9774C20.4191 64.1381 19.8944 63.2361 19.4164 62.3141L19.4471 62.2961Z" fill="#231F20"/>
<path fill-rule="evenodd" clip-rule="evenodd" d="M73.1935 31.6856C73.0122 31.3236 72.8548 30.9409 72.6182 30.6022L72.2888 30.0756L71.8988 29.5882C71.7122 29.3449 71.4842 29.1429 71.2615 28.9316L70.6948 28.3436L70.0682 27.8089C69.6715 27.4176 69.1888 27.1329 68.7335 26.8042C68.3222 26.5216 67.8462 26.3442 67.3995 26.1349C66.8155 25.8822 66.1968 25.7136 65.6415 25.3516C65.4675 25.2402 65.5575 25.0289 65.7948 24.8522C66.0308 24.6782 66.4288 24.5182 66.8148 24.6002C67.1495 24.6922 67.5088 24.7189 67.8235 24.8762C68.1462 25.0096 68.4675 25.1489 68.7862 25.2956C69.1095 25.4302 69.4082 25.6209 69.7062 25.8122C70.0008 26.0089 70.3028 26.1902 70.5742 26.4229C70.8975 26.7036 71.2382 26.9669 71.5908 27.2196C71.9208 27.5036 72.2568 27.7876 72.5735 28.0849C72.8968 28.4389 73.2108 28.8042 73.5075 29.1782C73.7675 29.5836 74.0735 29.9542 74.2882 30.3849C74.4262 30.6462 74.5715 30.9016 74.6988 31.1662L75.0388 31.9796C75.3408 32.8162 75.5575 33.6822 75.6795 34.5562C75.8068 35.2296 75.8902 35.9089 75.9008 36.6136C75.8902 36.7682 75.8948 36.9229 75.8742 37.0796C75.8462 37.2242 75.8248 37.3409 75.7755 37.4369C75.7242 37.5316 75.6542 37.6002 75.5928 37.6536C75.4648 37.7596 75.3282 37.7982 75.1522 37.8049C75.0715 37.8082 74.9922 37.8189 74.9208 37.8116C74.6902 37.7876 74.5142 37.5062 74.4008 37.1389C74.2622 36.0789 74.1248 35.0469 73.9222 33.9922C73.7742 33.2096 73.5068 32.4409 73.1588 31.7056L73.1935 31.6856Z" fill="#231F20"/>
<path fill-rule="evenodd" clip-rule="evenodd" d="M72.5827 70.5427C72.484 70.5594 72.4894 70.4201 72.5607 70.1934C72.5834 70.1207 72.702 69.9287 72.736 69.9114C72.8027 69.8774 72.868 69.8447 72.9247 69.8267C72.9587 69.8187 73.352 69.8987 73.4927 69.9041C73.6267 69.9161 73.7467 69.9554 73.8627 70.0027C74.102 70.0954 74.348 70.1727 74.596 70.2501C74.6507 70.2674 74.7014 70.2967 74.7487 70.3354C74.91 70.4714 75.1 70.5361 75.3007 70.5707C75.3334 70.5767 75.364 70.5934 75.408 70.5627C75.48 70.5121 76.0074 70.6554 76.064 70.7187C76.2087 70.8507 76.3654 70.9527 76.5194 71.0661C76.5407 71.0821 76.572 71.0747 76.5807 71.1287C76.6014 71.2534 76.66 71.2507 76.7107 71.2754C76.7814 71.3087 76.8487 71.3567 76.912 71.4167C76.9434 71.4474 76.962 71.5187 76.9847 71.5774C77.0047 71.6301 76.944 71.7767 76.9274 71.7907C76.88 71.8294 76.8867 71.9094 76.872 71.9734C76.8667 71.9954 76.8607 72.0241 76.854 72.0407C76.8407 72.0741 76.3214 72.2647 76.276 72.2434C76.2707 72.2427 76.1047 72.2221 75.9254 72.2001C75.748 72.1787 75.5614 72.1574 75.5214 72.1581C75.48 72.1587 75.4494 72.1221 75.416 72.0954C75.4007 72.0887 74.866 71.9994 74.846 71.9874C74.7454 71.9381 74.626 71.9374 74.5547 71.8041C74.5407 71.7781 74.5174 71.7754 74.496 71.7694C74.3107 71.7154 74.144 71.6074 73.9747 71.5101C73.888 71.4614 73.7927 71.4321 73.702 71.3921C73.686 71.3847 73.6747 71.3641 73.6614 71.3507C73.6434 71.3347 73.628 71.3127 73.6074 71.3047C73.3887 71.2161 73.1987 71.0694 72.9714 70.9961C72.9167 70.9801 72.7394 70.7581 72.6794 70.7394C72.644 70.7301 72.6214 70.5361 72.5827 70.5427Z" fill="#231F20"/>
<path fill-rule="evenodd" clip-rule="evenodd" d="M64.1934 78.3013C64.1147 78.236 64.2587 78.1787 64.5354 78.118C64.6234 78.0987 64.8934 78.092 64.9321 78.1107C65.0074 78.148 65.0807 78.186 65.1327 78.226C65.1654 78.2487 65.3034 78.6453 65.3561 78.782C65.4101 78.914 65.4167 79.0453 65.4154 79.1767C65.4114 79.442 65.4174 79.708 65.4067 79.97C65.4041 80.0287 65.3881 80.086 65.3587 80.142C65.2581 80.3333 65.2387 80.5293 65.2467 80.7287C65.2487 80.7613 65.2374 80.794 65.2794 80.83C65.3487 80.8907 65.3061 81.4213 65.2594 81.4847C65.1527 81.644 65.0807 81.8067 64.9934 81.9673C64.9807 81.99 64.9954 82.0173 64.9401 82.0333C64.8114 82.0707 64.8261 82.1247 64.8114 82.176C64.7901 82.246 64.7634 82.316 64.7147 82.3833C64.6907 82.4167 64.6167 82.444 64.5574 82.4733C64.5034 82.5 64.3214 82.464 64.3027 82.4507C64.2487 82.4127 64.1594 82.43 64.0821 82.4253C64.0567 82.4227 64.0234 82.4193 64.0021 82.4173C63.9567 82.41 63.6801 81.9587 63.6867 81.9133C63.6861 81.9087 63.6767 81.7533 63.6661 81.586C63.6541 81.422 63.6394 81.25 63.6307 81.2153C63.6207 81.178 63.6541 81.1453 63.6761 81.1113C63.6867 81.0947 63.6354 80.6067 63.6394 80.5887C63.6647 80.4913 63.6267 80.3893 63.7454 80.3013C63.7681 80.284 63.7641 80.2633 63.7641 80.2433C63.7614 80.0733 63.8181 79.9087 63.8574 79.7427C63.8781 79.658 63.8674 79.5713 63.8747 79.4853C63.8754 79.47 63.8934 79.456 63.9014 79.4407C63.9114 79.422 63.9274 79.4033 63.9274 79.384C63.9254 79.1813 63.9941 78.9807 63.9481 78.7787C63.9394 78.732 64.0687 78.512 64.0501 78.4587C64.0414 78.4287 64.2254 78.328 64.1934 78.3013Z" fill="#231F20"/>
<path fill-rule="evenodd" clip-rule="evenodd" d="M23.8358 30.0487C23.7478 30.0627 23.7598 29.9374 23.8291 29.7294C23.8511 29.6627 23.9611 29.4881 23.9931 29.4734C24.0545 29.4441 24.1158 29.4167 24.1691 29.4027C24.2011 29.3954 24.5725 29.4961 24.7051 29.5207C24.8318 29.5454 24.9418 29.5987 25.0478 29.6587C25.2651 29.7747 25.4851 29.8927 25.7025 30.0094C25.7505 30.0354 25.7931 30.0721 25.8291 30.1174C25.9545 30.2727 26.1151 30.3714 26.2891 30.4474C26.3178 30.4601 26.3425 30.4814 26.3878 30.4654C26.4625 30.4381 26.8958 30.7081 26.9365 30.7687C27.0378 30.9187 27.1538 31.0447 27.2638 31.1821C27.2791 31.2014 27.3078 31.2021 27.3025 31.2521C27.2911 31.3681 27.3431 31.3801 27.3818 31.4134C27.4358 31.4607 27.4878 31.5121 27.5291 31.5794C27.5498 31.6127 27.5485 31.6821 27.5531 31.7414C27.5571 31.7947 27.4618 31.9201 27.4445 31.9287C27.3918 31.9541 27.3758 32.0314 27.3445 32.0887C27.3338 32.1081 27.3191 32.1327 27.3098 32.1481C27.2871 32.1801 26.8025 32.1981 26.7658 32.1727C26.7618 32.1714 26.6245 32.1107 26.4751 32.0454C26.3285 31.9821 26.1751 31.9174 26.1411 31.9087C26.1051 31.8994 26.0878 31.8594 26.0658 31.8281C26.0558 31.8127 25.6038 31.6427 25.5918 31.6267C25.5165 31.5614 25.4138 31.5401 25.3798 31.4074C25.3731 31.3814 25.3538 31.3741 25.3365 31.3647C25.1878 31.2841 25.0658 31.1601 24.9365 31.0474C24.8705 30.9901 24.7925 30.9521 24.7205 30.9041C24.7078 30.8954 24.7018 30.8754 24.6918 30.8614C24.6791 30.8447 24.6691 30.8234 24.6525 30.8134C24.4765 30.7087 24.3305 30.5554 24.1398 30.4761C24.0965 30.4567 23.9605 30.2481 23.9085 30.2301C23.8791 30.2194 23.8711 30.0427 23.8358 30.0487Z" fill="#231F20"/>
<path fill-rule="evenodd" clip-rule="evenodd" d="M35.9804 19.9598C35.919 19.8358 36.0904 19.7765 36.401 19.7498C36.5004 19.7418 36.787 19.7985 36.8217 19.8371C36.8897 19.9125 36.955 19.9885 36.9977 20.0611C37.0237 20.1051 37.0504 20.7371 37.071 20.9518C37.091 21.1618 37.0637 21.3605 37.0284 21.5578L36.8344 22.7565C36.8197 22.8445 36.7904 22.9305 36.7484 23.0125C36.603 23.2958 36.5477 23.5958 36.5297 23.8998C36.5264 23.9498 36.511 24.0005 36.551 24.0558C36.6117 24.1485 36.501 24.9511 36.4517 25.0505C36.3177 25.2958 36.227 25.5498 36.127 25.8045C36.1124 25.8405 36.127 25.8811 36.069 25.9111C35.9344 25.9811 35.9497 26.0645 35.933 26.1445C35.9084 26.2565 35.8844 26.3685 35.8364 26.4798C35.8124 26.5351 35.739 26.5885 35.6804 26.6425C35.627 26.6925 35.4437 26.6611 35.4244 26.6425C35.3684 26.5885 35.279 26.6291 35.2024 26.6325C35.1764 26.6331 35.1424 26.6345 35.1217 26.6318C35.0757 26.6291 34.763 25.9251 34.769 25.8458C34.7684 25.8291 34.719 24.8331 34.7117 24.6885C34.705 24.6271 34.7437 24.5711 34.7697 24.5145C34.7777 24.4865 34.7757 23.6738 34.7884 23.6431C34.8304 23.4818 34.8104 23.3098 34.9557 23.1678C34.9844 23.1405 34.9837 23.1065 34.987 23.0731C35.019 22.7911 35.117 22.5225 35.201 22.2531C35.243 22.1151 35.2557 21.9725 35.285 21.8318C35.2897 21.8071 35.313 21.7851 35.325 21.7611C35.3417 21.7311 35.3637 21.7031 35.369 21.6711C35.4224 21.3378 35.5537 21.0211 35.5677 20.6825C35.5717 20.6051 35.7797 20.2718 35.7777 20.1811C35.7777 20.1305 36.0057 20.0091 35.9804 19.9598Z" fill="#231F20"/>
<path fill-rule="evenodd" clip-rule="evenodd" d="M45.1739 52.4427C44.8506 52.9227 44.5119 53.3914 44.1446 53.8354C44.0146 54.0007 43.8832 54.1654 43.7432 54.322C43.2432 54.8687 42.7126 55.3854 42.1492 55.8594C41.8992 56.0734 41.6539 56.2827 41.4059 56.4947C41.0826 56.756 40.7406 56.9974 40.3752 57.1974C40.2619 57.26 40.2459 57.206 40.2979 57.0907C40.3506 56.9767 40.4619 56.792 40.6366 56.6347C40.9352 56.3407 41.2492 56.0727 41.5646 55.804C41.8772 55.5327 42.1892 55.258 42.4946 54.9727C42.8686 54.6387 43.1879 54.224 43.5099 53.828C43.8619 53.3894 44.2032 52.9414 44.5132 52.47C44.7072 52.182 44.8899 51.8867 45.0626 51.5847C45.3232 51.1274 45.5712 50.6587 45.7752 50.1767C45.9286 49.7994 46.0492 49.4187 46.1792 49.0387C46.2059 48.9554 46.2332 48.8687 46.2599 48.7867C46.3746 48.4774 46.4592 48.3954 46.5959 48.3654C46.6279 48.3594 46.6606 48.3474 46.6892 48.3467C46.7852 48.3454 46.8166 48.4994 46.7852 48.75C46.7312 49.12 46.6232 49.4847 46.5139 49.8554C46.3846 50.2187 46.2252 50.5754 46.0512 50.9274C45.7959 51.4507 45.4979 51.956 45.1859 52.4494L45.1739 52.4427Z" fill="#231F20"/>
</svg>
