<svg width="59" height="61" viewBox="0 0 59 61" fill="none" xmlns="http://www.w3.org/2000/svg">
<path fill-rule="evenodd" clip-rule="evenodd" d="M21.9723 43.3135C21.8608 43.191 21.7487 43.0671 21.6388 42.9461C21.5991 42.9031 21.5395 42.8869 21.5036 42.8401C21.3737 42.6764 21.2629 42.4964 21.1391 42.3359C21.0841 42.2648 21.0089 42.2183 20.9299 42.1781C20.8282 42.1261 20.6881 42.1176 20.6825 41.9492C20.6807 41.845 21.4818 41.0629 21.5742 41.126C21.7469 41.2463 21.8788 41.4158 21.9497 41.6729C21.9929 41.8272 22.1302 41.8675 22.2212 41.9637C22.3195 42.0695 22.4197 42.178 22.5195 42.2847C22.5815 42.3511 22.6434 42.4118 22.7108 42.4692C22.8123 42.5506 22.91 42.6459 23.0277 42.6818C23.1137 42.7054 23.2376 42.6715 23.2952 42.627C23.3099 42.6187 23.3247 42.6004 23.3363 42.5988C23.3475 42.5747 23.328 42.6572 23.3735 42.9658L23.4061 43.1756C23.4478 43.4114 23.4182 43.6126 23.2742 43.6779C22.8825 43.8477 22.6044 43.7421 22.3852 43.6371C22.2244 43.553 22.0888 43.4401 21.9573 43.3379L21.9723 43.3135Z" fill="#0B1F2A"/>
<path fill-rule="evenodd" clip-rule="evenodd" d="M21.0221 18.4683C20.325 20.6316 19.7341 22.8289 19.3117 25.0529C19.0967 26.1644 18.9432 27.2841 18.8235 28.4051C18.7253 29.5266 18.6706 30.6509 18.7025 31.7696C18.7482 33.4015 19.0158 35.0168 19.527 36.5286C19.9748 37.8615 20.6629 39.1063 21.6107 40.1255C22.5482 41.1475 23.735 41.9046 25.0871 42.1854C26.4383 42.4626 27.8775 42.2778 29.2426 41.8694C30.6144 41.4586 31.9237 40.8094 33.1706 40.0622C35.3894 38.7328 37.4021 37.0327 39.2655 35.2513C41.6396 32.942 43.8178 30.3742 45.7504 27.738C46.0587 27.3375 46.1657 27.18 46.2319 27.2078C46.2896 27.2365 46.2827 27.5019 46.1628 27.9587C46.0397 28.4059 45.808 29.0248 45.4197 29.6958C45.0331 30.3663 44.522 31.1134 43.8958 31.8619C41.6597 34.4978 39.199 36.9431 36.4327 39.0584C35.0475 40.11 33.5795 41.0759 31.9872 41.8459C30.3975 42.5999 28.6823 43.2303 26.8433 43.3124C25.7501 43.3772 24.6131 43.1914 23.5662 42.7727C23.03 42.5835 22.5552 42.2688 22.0753 41.9708C21.6358 41.6183 21.1846 41.2725 20.8204 40.8517C20.4149 40.4652 20.1054 39.9973 19.7655 39.5559C19.4803 39.0789 19.1707 38.6129 18.9537 38.1024C18.6957 37.6091 18.5315 37.0822 18.3384 36.5666C18.1977 36.0378 18.0239 35.5147 17.9383 34.978C17.6929 33.8064 17.6015 32.6172 17.582 31.4365C17.5536 30.2538 17.6336 29.0775 17.7544 27.9099C18.0044 25.5743 18.4873 23.2811 19.0882 21.0285C19.8338 18.2551 20.7832 15.5454 21.856 12.8938L22.1025 12.2905L22.1992 12.0576C22.2138 12.0062 22.2583 11.9501 22.2446 11.9011L22.1327 11.7453L21.9294 11.4591C21.7904 11.2654 21.6479 11.0758 21.5017 10.8904C21.2054 10.5239 20.9006 10.1654 20.5612 9.85183C20.2215 9.54462 19.8645 9.24818 19.4676 9.05936C19.0777 8.86161 18.6579 8.73032 18.2443 8.76737C17.4093 8.77275 16.6484 9.40431 16.0617 10.0783C15.4736 10.7769 15.0444 11.6194 14.7275 12.498C14.1907 14.0256 13.932 15.642 13.8584 17.2532C13.7776 18.8652 13.875 20.484 14.1333 22.0697C14.2549 22.7661 14.4031 23.4421 14.604 24.1168C14.9749 25.3687 15.361 26.1141 15.6509 26.5959C15.9501 27.0749 16.1408 27.3103 16.3077 27.5713C16.3833 27.6876 16.5284 27.7925 16.5864 27.8869C16.6363 27.9631 16.6094 28.0096 16.4914 28.0223C16.3761 28.0325 16.155 28.0278 15.8959 27.9009C15.3586 27.6769 14.6983 27.0295 14.2339 26.0825C13.5224 24.6808 13.1689 23.1653 12.9301 21.6326C12.7116 20.0957 12.6415 18.526 12.7371 16.9455C12.8385 15.3669 13.0847 13.7683 13.6309 12.2114C13.9098 11.4355 14.2605 10.6684 14.7407 9.95009C15.2227 9.23485 15.8366 8.56373 16.6529 8.08895C17.2758 7.70208 18.1169 7.53486 18.8711 7.66492C19.6326 7.79036 20.2754 8.14928 20.8107 8.55174C21.3401 8.96477 21.7893 9.42929 22.1909 9.916C22.3939 10.1579 22.5807 10.4087 22.7603 10.6581L23.0229 11.0309L23.5082 11.6922C23.435 11.948 23.3665 12.2113 23.2603 12.4713L23.0808 12.9094L22.7634 13.6943C22.5559 14.2189 22.3505 14.7442 22.1548 15.2735C21.7613 16.3307 21.3925 17.3974 21.051 18.4717L21.0221 18.4683Z" fill="#0B1F2A"/>
<path fill-rule="evenodd" clip-rule="evenodd" d="M45.865 38.1582C47.1043 37.5155 48.2853 36.7524 49.3429 35.8605C49.724 35.5294 50.0703 35.1648 50.4103 34.803C51.0131 34.1667 51.5366 33.4632 51.8965 32.6926C52.0843 32.3083 52.1898 31.9006 52.2644 31.4872C52.2695 31.2887 52.2966 31.084 52.2711 30.8891C52.2293 30.6991 52.2136 30.4981 52.116 30.3256C51.9985 29.9954 51.7369 29.7314 51.4701 29.486C51.1718 29.2655 50.8483 29.0688 50.4899 28.9284C50.0382 28.7345 49.5463 28.6165 49.053 28.5098C48.8069 28.4539 48.5562 28.4087 48.3056 28.357C48.0532 28.3063 47.8033 28.2667 47.5483 28.1464C47.2092 27.9437 47.3144 27.8846 47.613 27.6843C47.9169 27.4563 48.4692 27.2781 49.0972 27.4051C49.6504 27.5144 50.2059 27.6712 50.7525 27.8942C51.2975 28.1116 51.8403 28.4262 52.3072 28.8767C52.5485 29.0892 52.7409 29.3749 52.9152 29.6587C52.9864 29.8129 53.0544 29.9692 53.1188 30.1254C53.1783 30.2831 53.1955 30.4525 53.2312 30.616C53.245 30.6981 53.2646 30.7806 53.271 30.8622L53.2685 31.1055C53.2657 31.2662 53.2713 31.4316 53.2551 31.5867C53.1999 31.8855 53.1616 32.1906 53.0549 32.4706C52.8388 33.1529 52.5323 33.8029 52.1408 34.3876C51.7572 34.9776 51.3174 35.5267 50.828 36.0084C49.7576 37.0773 48.5243 37.9277 47.2523 38.6794C46.468 39.1417 45.6512 39.5426 44.8246 39.9146C43.5758 40.489 42.2619 40.9231 40.937 41.2697C39.905 41.5293 38.8676 41.7577 37.7492 41.7325C37.5003 41.7037 37.2569 41.7148 37.0003 41.6428C36.7644 41.5976 36.5697 41.5191 36.4118 41.4394C36.252 41.3736 36.1368 41.2672 36.0502 41.1837C35.8712 41.023 35.8435 40.8325 35.8727 40.6685C35.8871 40.591 35.8957 40.5079 35.9295 40.4494C35.9863 40.3506 36.1151 40.3318 36.2609 40.3549C36.4006 40.3855 36.5864 40.4372 36.8244 40.503C37.1743 40.6083 37.5892 40.6248 38.0086 40.6116C38.4275 40.6072 38.8684 40.5381 39.3077 40.469C40.1891 40.3138 41.0913 40.0764 41.9813 39.7858C42.6437 39.5693 43.2945 39.3097 43.9508 39.0559C44.5932 38.7708 45.2352 38.4774 45.8497 38.1341L45.865 38.1582Z" fill="#0B1F2A"/>
<path fill-rule="evenodd" clip-rule="evenodd" d="M23.2632 43.1762L23.3086 43.1344C23.3161 43.1222 23.3691 43.0845 23.3351 43.0912C23.3229 43.0878 23.3087 43.0837 23.2934 43.0754L23.2694 43.0632C23.2521 43.0541 23.2833 43.0661 23.1899 43.0263C22.9265 42.9099 22.6871 42.7773 22.4533 42.6399C21.9892 42.3633 21.5561 42.0619 21.1331 41.7489L20.9559 41.6168L20.8745 41.7691L20.6155 42.318L20.3494 42.9236C20.1781 43.3317 20.0055 43.7394 19.8428 44.1533C19.5121 44.9783 19.1978 45.8128 18.892 46.651C18.6205 47.3949 18.3778 48.1548 18.1417 48.9056C17.83 49.8738 17.5981 50.8495 17.0908 51.7955C16.8763 52.1356 16.7327 51.8995 16.6346 51.5857C16.5275 51.2577 16.4849 50.7477 16.6692 50.1978C17.3246 48.2588 17.9935 46.2936 18.8202 44.3684C19.0679 43.7922 19.2991 43.1964 19.537 42.5964C19.663 42.2973 19.7745 41.9953 19.9108 41.6968L20.0099 41.4725L20.0734 41.3296L20.1579 41.1507L20.5138 40.4406C20.552 40.369 20.588 40.2844 20.6279 40.2241L21.273 40.7352L21.7949 41.1249C22.0506 41.3087 22.3085 41.4907 22.5727 41.6573C22.8358 41.8232 23.1029 41.986 23.3741 42.1163C23.4414 42.1524 23.5092 42.1826 23.5763 42.2099C23.6782 42.2499 23.7945 42.3114 23.953 42.3179C24.108 42.3335 24.2404 42.3586 24.4114 42.3671C24.5713 42.3745 24.7656 42.3907 24.8945 42.3908L24.8864 42.4555C24.8799 42.4794 24.8946 42.4894 24.8545 42.536C24.2457 43.3707 23.6364 44.2061 23.0277 45.0398C22.2611 46.0959 21.4798 47.1496 20.7418 48.214C20.1674 49.0413 19.6491 49.8841 19.1074 50.7202C18.9877 50.9045 18.8782 51.0894 18.7541 51.2724C18.293 51.9502 18.0914 52.127 17.7882 52.128C17.7192 52.1279 17.6431 52.1387 17.5834 52.1251C17.3826 52.079 17.447 51.7153 17.7482 51.1936C18.6411 49.6451 19.7064 48.0994 20.7947 46.5611C21.6093 45.4313 22.4277 44.2962 23.2439 43.1639L23.2632 43.1762Z" fill="#0B1F2A"/>
<path fill-rule="evenodd" clip-rule="evenodd" d="M12.0532 52.4658C12.291 52.8782 7.70789 49.8573 8.79275 49.6874C10.976 49.3461 12.8319 51.1008 13.0005 50.9164C13.0005 50.9164 12.0874 51.851 12.0532 52.4658Z" fill="#0B1F2A"/>
<path fill-rule="evenodd" clip-rule="evenodd" d="M32.2565 24.0429C32.4026 23.848 32.6789 23.8179 32.9707 23.9901C33.0596 24.0506 33.0719 24.3145 33.0828 24.3491C33.0484 24.4393 32.9853 24.5576 32.9162 24.6631C32.878 24.7047 31.9768 25.5709 31.6077 25.8839C31.5297 25.951 31.4478 26.0167 31.3572 26.0811L31.2826 26.1325C31.2419 26.1584 31.2023 26.1824 31.1625 26.2043C31.0822 26.2486 31.0015 26.2932 30.9175 26.3261C30.7502 26.398 30.5758 26.4356 30.3996 26.4274C30.2193 26.4207 30.0689 26.3404 29.9112 26.2496L29.7189 26.1123C29.5537 25.9996 29.4201 25.9159 29.2648 25.8219L29.0368 25.6891L28.9399 25.635C28.9375 25.634 28.9366 25.6345 28.9366 25.6345C28.9315 25.6354 28.9312 25.6393 28.9325 25.6421L28.9339 25.644C28.9339 25.644 28.9166 25.6273 28.8875 25.6177C28.8629 25.6097 28.8483 25.617 28.8414 25.6316C28.8381 25.6387 28.8362 25.6477 28.8361 25.6578L28.8367 25.6734C28.8386 25.6811 28.8333 25.6723 28.8525 25.7206C28.9628 26.0044 29.0969 26.2859 29.243 26.5469C29.2867 26.6299 29.3396 26.7227 29.3931 26.8087C29.46 26.8938 29.5339 26.9771 29.5844 27.0648C29.6062 27.0989 29.6343 27.1801 29.6442 27.275C29.6571 27.3428 29.6456 27.5028 29.5798 27.6428C29.5165 27.792 29.3769 27.9499 29.2178 28.108C29.1397 28.1867 29.0493 28.268 28.976 28.3364L28.8353 28.4636C28.458 28.7976 28.0746 29.1049 27.9791 29.1664C27.8616 29.2433 27.7458 29.3188 27.631 29.3937L27.4729 29.5027C27.4496 29.5184 27.4263 29.5367 27.4214 29.5363C27.4169 29.5304 27.4341 29.5455 27.4109 29.5227L27.3311 29.449C27.2771 29.4003 27.2216 29.3532 27.165 29.3079C27.0938 29.2557 27.0981 29.238 27.0547 29.2085C27.0224 29.1832 26.9803 29.1624 26.9473 29.1484C26.9372 29.1224 26.9172 29.1569 26.9343 29.113C26.9357 29.0991 26.9317 29.085 26.9243 29.0729C26.9204 29.0669 26.9158 29.0611 26.9102 29.0561C26.8358 28.8274 27.0746 29.5654 26.7426 28.5429L26.7436 28.543L26.7446 28.5431L26.7472 28.5421L26.7883 28.5338C27.0175 28.487 27.1435 28.491 27.3033 28.4805L27.7451 28.4729C27.8275 28.4735 27.9133 28.4493 27.9922 28.4889C28.1738 28.5797 28.3462 28.5469 28.5222 28.5413C28.7661 28.5336 29.01 28.5334 29.2539 28.553C29.3747 28.5629 29.4966 28.6161 29.6173 28.6579C29.7274 28.6953 29.6779 28.8585 29.6417 28.8779C29.5363 28.9348 29.6285 29.0049 29.6427 29.0705C29.6475 29.0927 29.6535 29.1218 29.6494 29.1401C29.6384 29.1765 28.2845 29.5521 28.1418 29.5705C28.133 29.5717 28.0038 29.5902 27.8116 29.6174C27.6297 29.6458 27.3497 29.6894 27.1691 29.7414L27.15 29.7486L27.14 29.7516L27.1374 29.7525L27.1263 29.7209L27.1192 29.7018L27.1159 29.6922C27.0946 29.6299 27.1433 29.7653 27.128 29.7554C27.0081 29.7954 26.8433 29.7967 26.7159 29.7518C26.6731 29.7337 26.6834 29.7477 26.584 29.6894C26.5051 29.6407 26.3977 29.544 26.3357 29.3995C26.1924 29.1083 26.3803 28.786 26.3455 28.8586C26.3612 28.8271 26.3795 28.7956 26.3991 28.766C26.4537 28.6892 26.4502 28.6998 26.4666 28.6788L26.5294 28.6101C26.5859 28.5543 26.6418 28.4985 26.6964 28.4441C26.7942 28.3515 26.8881 28.2627 26.9716 28.1833C27.1331 28.0297 27.2564 27.9127 27.2992 27.8718C27.3833 27.7856 27.491 27.7275 27.5911 27.6618C27.603 27.6539 27.6845 27.5788 27.7976 27.4702C27.8531 27.4158 27.9172 27.3534 27.9855 27.2865C28.0328 27.2408 28.0175 27.2508 28.0246 27.2409C28.0258 27.2355 28.0256 27.2318 28.0253 27.2281C28.024 27.1953 27.9742 27.2029 27.9836 27.2041C27.9926 27.2193 27.9657 27.1653 27.9458 27.1257L27.8847 27.0055L27.7679 26.7646C27.6952 26.6028 27.635 26.4355 27.6102 26.2544C27.6078 26.2367 27.6039 26.219 27.5991 26.2019C27.5876 26.171 27.577 26.1426 27.5662 26.1137L27.4938 25.9364C27.2999 25.4614 27.1471 24.9506 27.1806 24.5868C27.1983 24.4051 27.2485 24.2632 27.331 24.1349C27.3691 24.0684 27.4358 24.0066 27.5115 23.9452C27.5865 23.8971 27.6588 23.8687 27.7292 23.8473L27.8492 23.8354C28.1725 23.7725 28.6526 23.9117 29.1376 24.1564C29.2247 24.1975 29.3079 24.2616 29.3911 24.3114C29.483 24.3696 29.5758 24.4279 29.6618 24.4825C29.8194 24.5677 29.9713 24.6606 30.1224 24.7565L30.3461 24.9054L30.4542 24.9802L30.4747 24.9973C30.5002 25.0296 30.5419 25.0378 30.576 25.0135C30.5966 25.0022 30.6002 24.9989 30.6307 24.9764C30.6932 24.9348 30.7569 24.888 30.8205 24.837C30.9309 24.7578 31.598 24.3959 31.7387 24.2646C31.8147 24.1933 32.1953 24.1223 32.2565 24.0429Z" fill="#0B1F2A"/>
<path fill-rule="evenodd" clip-rule="evenodd" d="M26.9425 30.1513C26.809 30.1738 26.346 30.2309 26.0425 30.1784C25.7302 30.1235 25.5114 29.9425 25.4187 29.6523C25.3583 29.3889 25.4706 29.1098 25.7001 28.8317C25.9674 28.5082 26.0612 28.4411 26.2171 28.2866C26.5084 28.0144 26.8058 27.7631 27.1075 27.518L27.5632 27.1563C27.7714 26.9942 27.724 27.0353 27.7791 26.9958C27.784 26.972 27.7616 26.943 27.751 26.9163L27.5764 26.6048C27.2482 26.0163 26.9297 25.3605 26.8532 24.6243C26.8443 24.5218 26.8327 24.4254 26.8359 24.3171C26.8305 24.1499 26.8459 24.0018 26.8612 23.8472C26.9014 23.7474 26.9244 23.635 26.9777 23.5478C27.0378 23.4612 27.1453 23.3974 27.2472 23.3744C27.4533 23.3181 27.7025 23.3755 27.9377 23.4609C28.0752 23.51 28.117 23.533 28.1971 23.5682L28.4088 23.6712C28.5474 23.7418 28.6815 23.8156 28.813 23.892C29.0768 24.0452 29.3313 24.2069 29.5814 24.376L29.953 24.6367L30.0423 24.7025L30.0747 24.7284L30.14 24.7835L30.2613 24.7155L30.5691 24.531L31.1885 24.1674C31.6042 23.9275 32.0205 23.691 32.4548 23.4696C32.5754 23.4078 32.6773 23.3574 32.8257 23.2932C32.9906 23.2179 33.1654 23.1653 33.3496 23.1647C33.6318 23.223 33.798 23.4901 33.8713 23.7655C33.9049 23.919 33.9144 23.9964 33.9237 24.1092C33.936 24.2153 33.9352 24.3138 33.941 24.4164C33.9484 24.8179 33.9294 25.2044 33.9152 25.5872L33.8896 26.487L33.8865 26.9339L33.8867 27.0133L33.8886 27.0591C33.8904 27.0886 33.8884 27.1209 33.8935 27.1474L33.9971 27.1732L34.1948 27.2336C34.3685 27.2891 34.541 27.3508 34.7115 27.4216C35.0514 27.5649 35.3909 27.7263 35.7002 28.0118C35.8812 28.1941 35.8856 28.3588 35.8166 28.3729C35.7425 28.4002 35.6115 28.347 35.4387 28.3175C35.0906 28.2515 34.5103 28.1749 33.8217 27.9692C33.6189 27.9056 33.3264 27.835 33.079 27.7721L33.0807 26.8592L33.0958 26.3337L33.149 25.3C33.1669 24.9616 33.1853 24.6235 33.1769 24.3158C33.1773 24.2363 33.1698 24.1672 33.1637 24.0965C33.1625 24.0587 33.1558 24.0307 33.1509 24.0013C33.1507 23.9941 33.152 23.9954 33.1514 23.993C33.1524 23.9855 33.1503 23.974 33.1413 23.9696C33.1362 23.9664 33.1332 23.9646 33.0709 23.99C32.9483 24.0461 32.8237 24.1054 32.6972 24.1703C32.445 24.2988 32.1903 24.4346 31.9365 24.5749L31.1747 25.0013L30.7941 25.2185L30.584 25.3403L30.2521 25.5411C30.2025 25.5707 30.1527 25.6007 30.1009 25.6314L29.8016 25.3885L29.5612 25.2045C29.4483 25.1202 29.3322 25.0376 29.2143 24.9573C28.9781 24.7972 28.7342 24.6445 28.4856 24.5032C28.3617 24.4325 28.2362 24.3654 28.1099 24.3029L27.9211 24.2139L27.7655 24.1487C27.7209 24.1327 27.6747 24.1161 27.627 24.1169C27.5654 24.1097 27.5623 24.1779 27.5617 24.2212C27.5599 24.2383 27.559 24.2556 27.5595 24.2731L27.5607 24.3475C27.5636 24.4432 27.5782 24.5389 27.5868 24.6345C27.6202 24.8256 27.6603 25.0167 27.7246 25.2047C27.82 25.5012 27.9524 25.7913 28.1048 26.0785L28.3467 26.5133C28.3972 26.5959 28.4737 26.7442 28.529 26.8572C28.576 26.9754 28.6379 27.1025 28.6634 27.2202L28.1266 27.6282L27.7949 27.8885C27.5752 28.0634 27.3582 28.2415 27.1463 28.4236C26.9349 28.6057 26.7272 28.7919 26.5354 28.9844L26.4254 29.0969L26.3627 29.1672C26.3237 29.216 26.2808 29.2679 26.2663 29.3322C26.2615 29.3999 26.3243 29.4459 26.3852 29.4542C26.4463 29.4672 26.5102 29.4666 26.5757 29.4624C26.6138 29.4624 26.7689 29.4404 26.8993 29.4197C27.0319 29.3971 27.1651 29.372 27.299 29.3431C27.8352 29.2302 28.374 29.0889 28.9119 28.9482L29.6723 28.7484L29.8108 29.1438L29.937 29.484L30.1401 30.0037C30.2799 30.3481 30.4274 30.6891 30.5872 31.0224C30.7466 31.3555 30.9182 31.6818 31.112 31.9861C31.2084 32.139 31.3125 32.2843 31.4236 32.4157C31.4787 32.4824 31.5371 32.544 31.5971 32.5969C31.648 32.6448 31.682 32.6682 31.7313 32.6947C31.7717 32.7159 31.8168 32.7292 31.8619 32.7294C31.9088 32.7225 31.9401 32.6828 31.9708 32.6518C31.999 32.6147 32.023 32.5796 32.0442 32.5392C32.0795 32.4781 32.1102 32.4105 32.1404 32.3437C32.2555 32.0698 32.3309 31.7712 32.3792 31.4696C32.4291 31.1681 32.4449 30.8599 32.4438 30.5526C32.4445 30.3986 32.4374 30.245 32.4255 30.091L32.3805 29.3947C32.5271 29.2762 32.7685 29.2126 32.9748 29.1518C33.0967 29.1177 33.1478 29.1104 33.2301 29.0922C33.3066 29.08 33.3831 29.0653 33.4607 29.058C34.0395 28.995 34.428 29.0787 34.6792 29.1677C34.9319 29.2618 35.0558 29.3731 35.1294 29.5085C35.1626 29.5704 35.2096 29.6372 35.219 29.6892C35.2423 29.8811 34.8258 29.7667 34.1323 29.7433C33.8739 29.7366 33.6137 29.7619 33.3604 29.8141L33.2659 29.8366L33.2213 29.8474L33.2066 29.8531C33.1855 29.861 33.1765 29.8667 33.1656 29.8728C33.1361 29.8796 33.1442 29.9079 33.1544 29.9319C33.1597 29.894 33.1719 30.1183 33.1811 30.2635C33.1885 30.4209 33.1887 30.5799 33.1868 30.7392C33.1783 31.0579 33.146 31.3799 33.0873 31.7025C33.0257 32.0259 32.9358 32.3481 32.792 32.673C32.7498 32.7554 32.7161 32.8353 32.6637 32.9195C32.5867 33.0644 32.488 33.162 32.3904 33.2718C32.1889 33.4777 31.8895 33.5247 31.6221 33.4439C31.3516 33.3639 31.0808 33.1175 30.9866 33.0133C30.856 32.8781 30.7509 32.7412 30.6524 32.6033C30.4577 32.3279 30.295 32.0492 30.1452 31.7677C29.9247 31.3511 29.7306 30.9293 29.5505 30.5039C29.3859 30.122 29.1374 29.4622 29.209 29.6391L29.2026 29.6387L29.2007 29.6385L29.1573 29.6496L28.9917 29.693L28.3252 29.8654C27.877 29.9773 27.4292 30.0894 26.9478 30.1693L26.9425 30.1513Z" fill="#0B1F2A"/>
<path fill-rule="evenodd" clip-rule="evenodd" d="M33.9077 46.805C33.9079 46.7839 33.9259 46.7735 33.9557 46.7689C33.965 46.7669 33.989 46.7766 33.9906 46.7831C33.9934 46.796 33.9958 46.8087 33.9966 46.8208C33.9971 46.8282 33.9712 46.9337 33.9632 46.97C33.9556 47.0049 33.9443 47.0391 33.9321 47.0723C33.9073 47.1404 33.8834 47.2085 33.8591 47.2765C33.8533 47.2917 33.8468 47.3065 33.8392 47.3207C33.813 47.3701 33.7939 47.4214 33.7766 47.4738C33.7737 47.4827 33.77 47.4911 33.7705 47.5011C33.7715 47.5169 33.7203 47.6572 33.7106 47.6746C33.6872 47.7172 33.6661 47.7607 33.6442 47.8041C33.6411 47.8099 33.6397 47.8171 33.6333 47.8218C33.6181 47.8318 33.6149 47.8461 33.6088 47.8602C33.6007 47.8786 33.592 47.8977 33.5813 47.916C33.5765 47.9247 33.5673 47.9323 33.5594 47.9402C33.5523 47.947 33.5387 47.9367 33.5383 47.9333C33.5366 47.9227 33.5271 47.9275 33.5204 47.926C33.5183 47.9252 33.5151 47.9247 33.5138 47.9235C33.5105 47.9214 33.5247 47.8001 33.5291 47.7881C33.5303 47.7853 33.581 47.6193 33.5855 47.6002C33.5881 47.5901 33.5942 47.5811 33.5992 47.572C33.6013 47.5677 33.6397 47.4343 33.6419 47.429C33.6526 47.4025 33.6583 47.3741 33.6772 47.3506C33.6811 47.3459 33.6823 47.3405 33.684 47.3344C33.6993 47.2879 33.7195 47.2424 33.7385 47.1972C33.7483 47.1737 33.7554 47.1496 33.7638 47.1258C33.7654 47.1217 33.7686 47.1181 33.7707 47.1138C33.7733 47.1087 33.7762 47.1039 33.7783 47.0981C33.7975 47.0418 33.8227 46.9872 33.8385 46.9298C33.8422 46.9163 33.8753 46.8588 33.8797 46.8433C33.8814 46.8347 33.9078 46.8132 33.9077 46.805Z" fill="#0B1F2A"/>
<path fill-rule="evenodd" clip-rule="evenodd" d="M33.2032 47.2007C33.1815 47.2006 33.1704 47.1822 33.165 47.152C33.1634 47.1429 33.1731 47.1188 33.18 47.1175C33.1929 47.1147 33.2055 47.1123 33.2184 47.112C33.2262 47.1117 33.3355 47.1389 33.3731 47.1472C33.4097 47.1553 33.4447 47.1671 33.4796 47.1798C33.5497 47.2054 33.6209 47.2301 33.6916 47.2556C33.7071 47.261 33.7227 47.268 33.7375 47.276C33.7885 47.3031 33.8418 47.3231 33.8965 47.3407C33.9058 47.3439 33.9146 47.3477 33.9245 47.3472C33.941 47.3461 34.0869 47.3998 34.1047 47.4096C34.1493 47.4339 34.1945 47.4554 34.2394 47.4783C34.2458 47.4812 34.2534 47.4828 34.2577 47.489C34.2683 47.5041 34.2837 47.5079 34.2978 47.514C34.3175 47.5225 34.337 47.5313 34.3557 47.5423C34.3651 47.5476 34.3729 47.5564 34.381 47.5648C34.3885 47.5725 34.378 47.5854 34.3745 47.5863C34.3637 47.5873 34.3683 47.5972 34.3667 47.6039C34.3666 47.6058 34.3657 47.6088 34.3648 47.6103C34.3628 47.6137 34.2374 47.5979 34.2246 47.5931C34.2217 47.5919 34.0495 47.5389 34.0295 47.5343C34.0191 47.5314 34.0097 47.5252 34.0003 47.5205C33.9959 47.5178 33.8574 47.4778 33.8521 47.4756C33.8245 47.4643 33.7947 47.4583 33.7703 47.4393C33.7653 47.4357 33.7592 47.434 33.754 47.4318C33.7051 47.4162 33.6579 47.3954 33.611 47.3759C33.5865 47.366 33.5614 47.3582 33.5368 47.3493C33.5323 47.3476 33.5285 47.3447 33.5242 47.3426C33.5188 47.3398 33.5138 47.3363 33.5084 47.3345C33.4494 47.3147 33.3929 47.2883 33.3329 47.2719C33.3194 47.2682 33.2591 47.2339 33.2433 47.2298C33.2342 47.2273 33.2121 47.2011 33.2032 47.2007Z" fill="#0B1F2A"/>
<path fill-rule="evenodd" clip-rule="evenodd" d="M33.5219 46.8757C33.5076 46.8624 33.5136 46.8427 33.5319 46.8194C33.5374 46.8121 33.5608 46.802 33.5666 46.805C33.5769 46.8113 33.5876 46.8179 33.596 46.825C33.6018 46.8296 33.6546 46.9152 33.6735 46.944C33.6918 46.9714 33.7066 47.0013 33.7203 47.031C33.7488 47.0916 33.7781 47.1517 33.8066 47.2122C33.8126 47.2256 33.8179 47.2394 33.8221 47.2542C33.8365 47.3036 33.8574 47.3499 33.881 47.3953C33.8848 47.4032 33.8876 47.411 33.8947 47.4169C33.9061 47.4264 33.9644 47.5519 33.9694 47.5697C33.981 47.6129 33.9957 47.6553 34.0089 47.6985C34.011 47.7043 34.0151 47.7099 34.0134 47.7169C34.0092 47.7337 34.0168 47.7454 34.0217 47.7581C34.0289 47.7762 34.0352 47.7942 34.04 47.8129C34.0425 47.8221 34.0408 47.8332 34.0405 47.8437C34.0399 47.853 34.0235 47.8556 34.0206 47.8538C34.0123 47.8483 34.0086 47.8577 34.0028 47.8613C34.0009 47.8627 33.9985 47.8642 33.9965 47.864C33.9927 47.8653 33.9209 47.7777 33.916 47.7666C33.9151 47.7639 33.839 47.6225 33.8291 47.6073C33.8239 47.5991 33.8225 47.589 33.8199 47.5799C33.8186 47.5755 33.7556 47.4634 33.7536 47.4591C33.7435 47.4341 33.7285 47.4122 33.7258 47.3842C33.7251 47.3787 33.7224 47.374 33.7203 47.3692C33.6992 47.3289 33.6832 47.2861 33.666 47.2436C33.6568 47.2222 33.6455 47.2016 33.636 47.1806C33.6338 47.1767 33.6337 47.172 33.6324 47.1682C33.6311 47.1628 33.6298 47.1575 33.6277 47.1526C33.6029 47.1035 33.5841 47.0513 33.5567 47.0031C33.5502 46.992 33.5355 46.9322 33.5274 46.9197C33.5232 46.9125 33.5278 46.8808 33.5219 46.8757Z" fill="#0B1F2A"/>
<path fill-rule="evenodd" clip-rule="evenodd" d="M33.3154 47.5978C33.3022 47.6111 33.284 47.6035 33.2622 47.5835C33.2556 47.5769 33.2471 47.5535 33.2505 47.5479C33.2566 47.5379 33.263 47.5282 33.2702 47.5199C33.2747 47.515 33.3583 47.4696 33.3865 47.4534C33.4135 47.4374 33.4421 47.4254 33.4709 47.4141C33.5296 47.3911 33.5881 47.3669 33.6465 47.3437C33.6593 47.3384 33.6729 47.3345 33.687 47.3314C33.7347 47.3215 33.7797 47.3043 33.8235 47.2849C33.8306 47.2816 33.8386 47.2794 33.8446 47.2729C33.854 47.2625 33.9755 47.2149 33.9924 47.2114C34.0339 47.2033 34.0751 47.1925 34.1165 47.1828C34.1221 47.1811 34.1276 47.1779 34.1344 47.18C34.1499 47.1854 34.1616 47.1788 34.1739 47.1752C34.1911 47.1695 34.2085 47.1644 34.2267 47.1612C34.2354 47.1595 34.2458 47.1623 34.2556 47.1637C34.2647 47.1647 34.2668 47.1812 34.2646 47.1839C34.2589 47.1916 34.2678 47.1961 34.2708 47.202C34.272 47.2042 34.2735 47.2067 34.2734 47.2086C34.2742 47.2122 34.1883 47.2764 34.1774 47.2799C34.1752 47.2811 34.0378 47.3448 34.0225 47.3532C34.0147 47.3576 34.0051 47.3584 33.9964 47.3601C33.9922 47.3612 33.8831 47.4143 33.8791 47.4159C33.8552 47.4241 33.8331 47.437 33.8064 47.4375C33.8014 47.4374 33.7969 47.4398 33.7921 47.4419C33.7528 47.4595 33.7114 47.4717 33.6705 47.4854C33.6495 47.4923 33.6301 47.5017 33.6093 47.5099C33.6059 47.5114 33.6014 47.5112 33.5976 47.5124C33.5925 47.5133 33.5876 47.5139 33.583 47.5156C33.535 47.536 33.4845 47.5504 33.4378 47.5736C33.4272 47.5793 33.37 47.589 33.3574 47.5955C33.3505 47.5994 33.3207 47.5924 33.3154 47.5978Z" fill="#0B1F2A"/>
<path fill-rule="evenodd" clip-rule="evenodd" d="M16.4963 51.9095C15.7983 51.5513 15.0026 51.3421 14.2101 51.3196C13.9208 51.3118 13.6352 51.3555 13.3663 51.41C13.1575 51.4524 12.9489 51.5097 12.7847 51.6013C12.7034 51.6455 12.6242 51.6945 12.5724 51.7492C12.525 51.7862 12.5103 51.8118 12.4889 51.855C12.3367 52.026 13.0497 52.3538 13.5779 52.5985C14.0262 52.8005 14.497 52.9746 14.9567 53.1845C15.2511 53.3199 15.5541 53.4614 15.8281 53.6767C16.0949 53.8815 16.3772 54.1988 16.3999 54.6143C16.3861 54.8744 16.2501 54.7887 16.103 54.6597C15.9373 54.5213 15.7217 54.457 15.4796 54.2974C15.0377 54.0079 14.4519 53.7685 13.8636 53.5389C13.5674 53.4213 13.2652 53.3019 12.9594 53.1643C12.805 53.0937 12.6526 53.0199 12.4972 52.9279C12.4194 52.8839 12.3409 52.8338 12.2617 52.7798L12.1427 52.6929C12.1106 52.6641 12.0273 52.6035 11.986 52.558C11.7713 52.3511 11.6292 52.0555 11.7089 51.7615L11.773 51.5818L11.8684 51.4167C11.9259 51.296 12.0167 51.2206 12.085 51.1471C12.16 51.0776 12.2393 51.0226 12.3183 50.9632C12.3985 50.9168 12.4799 50.8675 12.5616 50.8251C12.8905 50.6626 13.2283 50.5792 13.5617 50.5348C14.5087 50.4166 15.4436 50.5652 16.3085 50.8828C16.8409 51.0809 17.3445 51.3527 17.8021 51.6863C18.5025 52.1866 19.059 52.8701 19.4791 53.6032C19.7989 54.1755 20.0906 54.7697 20.2241 55.4118C20.2645 55.5508 20.2862 55.6889 20.3084 55.832C20.3447 56.0989 20.3229 56.2775 20.2804 56.4034C20.2411 56.5291 20.1794 56.6026 20.0942 56.6622C20.0558 56.6895 20.0196 56.7237 19.985 56.7396C19.8741 56.7922 19.7197 56.5906 19.5959 56.2448C19.2443 55.2246 18.92 54.222 18.2796 53.3933C17.813 52.7821 17.2007 52.2722 16.4879 51.9298L16.4963 51.9095Z" fill="#0B1F2A"/>
<path fill-rule="evenodd" clip-rule="evenodd" d="M48.7553 17.1566C48.7556 17.1354 48.7736 17.1251 48.8033 17.1204C48.8126 17.1185 48.8367 17.1281 48.8383 17.1347C48.8411 17.1476 48.8437 17.1598 48.8442 17.1723C48.8447 17.1798 48.8188 17.2853 48.8109 17.3215C48.8032 17.3565 48.7919 17.3907 48.7798 17.4239C48.7549 17.492 48.731 17.5601 48.7071 17.6283C48.7014 17.6435 48.6945 17.6581 48.6869 17.6722C48.6607 17.7217 48.6415 17.773 48.6242 17.8253C48.6217 17.8345 48.6177 17.8427 48.6182 17.8526C48.6194 17.8681 48.5679 18.0088 48.5585 18.0258C48.5348 18.0687 48.5138 18.1122 48.4918 18.1557C48.4888 18.1614 48.4874 18.1687 48.481 18.1734C48.4657 18.1834 48.4626 18.1977 48.4565 18.2118C48.4483 18.2301 48.4397 18.2492 48.4292 18.2672C48.4242 18.2763 48.415 18.2839 48.4071 18.2917C48.3999 18.2985 48.3864 18.2882 48.3859 18.2849C48.3843 18.2742 48.3747 18.2791 48.3681 18.2775C48.366 18.2768 48.3631 18.2765 48.3612 18.2754C48.3581 18.273 48.3724 18.1517 48.3767 18.1396C48.3779 18.1368 48.4286 17.9708 48.4332 17.9518C48.4358 17.9417 48.4418 17.9327 48.4469 17.9236C48.449 17.9193 48.4874 17.7859 48.4896 17.7806C48.5002 17.7541 48.5059 17.7256 48.5249 17.7021C48.5288 17.6974 48.5302 17.6917 48.5317 17.686C48.5469 17.6395 48.5671 17.594 48.5862 17.5487C48.596 17.5252 48.6031 17.5012 48.6115 17.4774C48.613 17.4732 48.6163 17.4696 48.6184 17.4653C48.6209 17.4603 48.6245 17.4554 48.6263 17.4499C48.6451 17.3933 48.6704 17.3387 48.6862 17.2813C48.6898 17.2679 48.7233 17.2106 48.7274 17.1948C48.7291 17.1862 48.7554 17.1648 48.7553 17.1566Z" fill="#0B1F2A"/>
<path fill-rule="evenodd" clip-rule="evenodd" d="M48.0508 17.5407C48.029 17.5406 48.0179 17.5222 48.0129 17.4922C48.011 17.4829 48.0206 17.4588 48.0275 17.4575C48.0404 17.4547 48.0531 17.4523 48.0659 17.452C48.0737 17.4517 48.1834 17.4791 48.2206 17.4872C48.2572 17.4953 48.292 17.5074 48.3271 17.5198C48.3972 17.5454 48.4684 17.5701 48.5392 17.5956C48.5547 17.601 48.5702 17.608 48.5851 17.6161C48.636 17.6432 48.6894 17.6631 48.744 17.6808C48.7533 17.6839 48.7621 17.6877 48.7721 17.6872C48.7885 17.6861 48.9344 17.7398 48.9522 17.7497C48.9968 17.7739 49.042 17.7954 49.087 17.8183C49.0933 17.8212 49.101 17.8228 49.1053 17.829C49.1159 17.8441 49.1313 17.8479 49.1453 17.854C49.165 17.8625 49.1845 17.8713 49.2034 17.8819C49.2127 17.8876 49.2205 17.8964 49.2285 17.9049C49.236 17.9125 49.2256 17.9254 49.222 17.9263C49.2112 17.9273 49.2158 17.9372 49.2143 17.9439C49.2141 17.9458 49.2133 17.9489 49.2124 17.9503C49.2103 17.9537 49.0849 17.9379 49.0721 17.9331C49.0693 17.9319 48.8971 17.8789 48.877 17.8743C48.8666 17.8715 48.8572 17.8652 48.8479 17.8605C48.8435 17.8578 48.7049 17.8178 48.6997 17.8156C48.6721 17.8043 48.6426 17.7985 48.6178 17.7793C48.6131 17.7754 48.6068 17.774 48.6015 17.7718C48.5527 17.7562 48.5055 17.7355 48.4585 17.7159C48.4343 17.7057 48.4089 17.6982 48.3844 17.6893C48.3799 17.6876 48.376 17.6847 48.3717 17.6826C48.3663 17.6798 48.3614 17.6763 48.3559 17.6745C48.2969 17.6547 48.2405 17.6283 48.181 17.6117C48.1669 17.6082 48.1067 17.5739 48.0909 17.5698C48.0817 17.5673 48.0597 17.5411 48.0508 17.5407Z" fill="#0B1F2A"/>
<path fill-rule="evenodd" clip-rule="evenodd" d="M48.3695 17.2272C48.3553 17.214 48.3612 17.1942 48.3796 17.1709C48.3851 17.1636 48.4085 17.1536 48.4142 17.1566C48.4246 17.1629 48.4353 17.1695 48.4436 17.1766C48.4495 17.1812 48.5022 17.2667 48.5212 17.2956C48.5394 17.323 48.5542 17.3528 48.568 17.3826C48.5965 17.4432 48.6258 17.5032 48.6542 17.5638C48.6607 17.5774 48.6655 17.591 48.6697 17.6057C48.6842 17.6552 48.7051 17.7015 48.7286 17.7469C48.7324 17.7548 48.7353 17.7626 48.7424 17.7685C48.7538 17.778 48.8121 17.9035 48.817 17.9212C48.8287 17.9644 48.8433 18.0069 48.8568 18.0497C48.8586 18.0558 48.8628 18.0614 48.861 18.0685C48.8569 18.0852 48.8644 18.097 48.8694 18.1096C48.8766 18.1278 48.883 18.1454 48.8876 18.1645C48.8902 18.1736 48.8884 18.1848 48.8881 18.1952C48.8875 18.2045 48.8712 18.2072 48.8682 18.2054C48.8599 18.1998 48.8562 18.2092 48.8505 18.2128C48.8488 18.2139 48.8461 18.2158 48.8442 18.2156C48.8404 18.2168 48.7685 18.1292 48.7637 18.1181C48.7627 18.1155 48.6867 17.9741 48.677 17.9585C48.672 17.9509 48.6701 17.9406 48.6676 17.9314C48.6662 17.927 48.6033 17.8149 48.6013 17.8107C48.5912 17.7857 48.5761 17.7638 48.5735 17.7358C48.5728 17.7303 48.57 17.7256 48.5679 17.7207C48.5469 17.6804 48.5309 17.6376 48.5137 17.5952C48.5044 17.5738 48.4938 17.553 48.4837 17.5321C48.4815 17.5282 48.4813 17.5236 48.4803 17.5194C48.4786 17.5148 48.4775 17.509 48.4754 17.5042C48.4506 17.455 48.4317 17.4029 48.4043 17.3546C48.3979 17.3436 48.3832 17.2838 48.3751 17.2713C48.3708 17.2641 48.3755 17.2324 48.3695 17.2272Z" fill="#0B1F2A"/>
<path fill-rule="evenodd" clip-rule="evenodd" d="M48.167 17.9494C48.1538 17.9626 48.1356 17.955 48.1141 17.9353C48.1071 17.9285 48.0989 17.9047 48.102 17.8995C48.1081 17.8895 48.1146 17.8798 48.1217 17.8714C48.1262 17.8665 48.2098 17.8212 48.238 17.8049C48.2651 17.789 48.2937 17.777 48.3225 17.7657C48.3812 17.7427 48.4396 17.7185 48.498 17.6953C48.5109 17.69 48.5245 17.6861 48.5385 17.683C48.5862 17.6731 48.6313 17.6559 48.6751 17.6365C48.6822 17.6332 48.6902 17.631 48.6962 17.6245C48.7058 17.6136 48.8271 17.5664 48.8439 17.563C48.8854 17.5549 48.9266 17.544 48.9681 17.5343C48.9737 17.5327 48.9792 17.5294 48.986 17.5316C49.0015 17.537 49.0131 17.5304 49.0255 17.5268C49.0427 17.5211 49.0601 17.5159 49.0782 17.5128C49.0869 17.511 49.0974 17.5139 49.1072 17.5153C49.1162 17.5162 49.1183 17.5328 49.1161 17.5355C49.1107 17.5428 49.1194 17.5476 49.1224 17.5535C49.1236 17.5558 49.1251 17.5582 49.1249 17.5602C49.1262 17.564 49.0398 17.6279 49.029 17.6315C49.0268 17.6327 48.8893 17.6964 48.874 17.7048C48.8663 17.7092 48.857 17.7102 48.848 17.7117C48.8438 17.7127 48.7347 17.7658 48.7306 17.7674C48.7068 17.7757 48.6851 17.7888 48.658 17.789C48.653 17.789 48.6485 17.7913 48.6436 17.7934C48.6044 17.8111 48.5631 17.8229 48.5221 17.8369C48.5011 17.8439 48.4816 17.8533 48.4609 17.8615C48.4575 17.8629 48.453 17.8627 48.4494 17.8636C48.4441 17.8649 48.4392 17.8654 48.4345 17.8672C48.3865 17.8876 48.3361 17.902 48.2894 17.9252C48.2788 17.9309 48.2216 17.9406 48.2094 17.9473C48.202 17.951 48.1723 17.944 48.167 17.9494Z" fill="#0B1F2A"/>
<path fill-rule="evenodd" clip-rule="evenodd" d="M45.5258 22.3757C45.919 22.7624 46.3078 23.1539 46.6839 23.5768C46.8862 23.8081 47.3026 24.279 47.4765 24.6473C47.5789 24.8419 47.6073 25.0147 47.6061 25.1769C47.605 25.3281 47.5459 25.5286 47.3924 25.6551C47.2001 25.8294 46.9886 25.9403 46.698 25.9804C46.4185 26.034 46.0701 25.985 45.7397 25.9333L45.4873 25.8795L45.3386 25.8419L45.0483 25.7604C44.8563 25.7039 44.6693 25.6419 44.4845 25.5771C43.7458 25.3179 43.0414 25.0142 42.346 24.6942C41.4754 24.2919 40.6114 23.8855 39.7739 23.4308C36.8262 21.8201 34.0162 19.9899 31.3333 17.9876C30.1448 17.097 28.9628 16.1809 27.8398 15.2191C26.3972 13.9908 24.989 12.6551 23.9507 11.0246C23.6375 10.5072 23.8696 10.4648 24.3278 10.7418C24.791 11.0189 25.5133 11.5682 26.2561 12.3173C28.8901 14.9919 31.9456 17.3008 35.1023 19.4932C36.9983 20.8011 39.102 21.966 41.1966 23.0272C42.1197 23.4931 43.0552 23.9361 44.006 24.3168C44.4812 24.5053 44.9614 24.6801 45.4404 24.815L45.7473 24.8935C45.799 24.9053 45.8521 24.9174 45.9061 24.9246C46.0127 24.9379 46.1327 24.9534 46.2355 24.9015C46.2557 24.8834 46.2874 24.8723 46.2957 24.8454C46.3018 24.8187 46.2937 24.7914 46.2839 24.7666C46.2635 24.7161 46.2335 24.6698 46.2026 24.624C46.1339 24.5262 46.0847 24.463 45.9635 24.325C44.912 23.1647 43.7158 22.0866 42.5127 21.0423C40.6787 19.4661 38.7726 17.9463 36.8094 16.5623C35.2827 15.4867 33.7049 14.551 32.0966 13.6845C31.7423 13.4933 31.3898 13.3199 31.0285 13.1427C29.6834 12.4934 29.2552 12.3525 28.9905 12.0688C28.9299 12.0084 28.8427 11.9434 28.8077 11.8895C28.6753 11.7182 29.3675 11.6489 30.4731 12.0115C32.1015 12.5471 33.6541 13.3394 35.1399 14.261C36.6318 15.1752 38.0828 16.1862 39.5015 17.244C41.596 18.8343 43.6183 20.5236 45.5415 22.3543L45.5258 22.3757Z" fill="#0B1F2A"/>
</svg>
