<svg width="37" height="29" viewBox="0 0 37 29" fill="none" xmlns="http://www.w3.org/2000/svg">
<path fill-rule="evenodd" clip-rule="evenodd" d="M3.43611 12.1071L4.06302 10.9997C4.1384 10.8641 4.19842 10.7213 4.27442 10.5861C4.54326 10.1098 4.81412 9.633 5.07446 9.15104C5.18868 8.93666 5.29555 8.71706 5.39937 8.49956C5.53246 8.22028 5.65509 7.93296 5.8383 7.67817C5.89547 7.59865 5.97038 7.65175 6.01676 7.76681C6.06266 7.88128 6.0846 8.05915 6.01617 8.22249C5.89461 8.51221 5.77039 8.80113 5.63753 9.08687C5.50017 9.37064 5.35396 9.65112 5.19387 9.92714C5.00182 10.2569 4.86107 10.6289 4.69235 10.98C4.50634 11.3662 4.31193 11.7489 4.11146 12.1289L3.74033 12.8302C3.55504 13.1853 3.35382 13.5346 3.17667 13.8913C3.03656 14.1676 2.93247 14.4574 2.80481 14.7404C2.77732 14.803 2.75279 14.8655 2.71745 14.9246C2.58715 15.1435 2.50409 15.1879 2.32963 15.1421C2.2899 15.1317 2.24843 15.1244 2.21157 15.1095C2.08761 15.0593 2.04648 14.9136 2.10052 14.7357C2.25271 14.2041 2.53958 13.7225 2.80578 13.2181C3.01065 12.8466 3.21668 12.4733 3.4222 12.1009L3.43611 12.1071Z" fill="#0B1F2A"/>
<path fill-rule="evenodd" clip-rule="evenodd" d="M6.2828 17.2359C6.94793 17.6895 7.61093 18.1468 8.28375 18.5891L9.02875 19.0583C9.89252 19.6281 10.7575 20.1979 11.642 20.7332C12.0359 20.9672 12.4372 21.194 12.8375 21.4074C13.0951 21.5429 13.3568 21.6729 13.6168 21.7987C13.8753 21.9218 14.1399 22.0594 14.3852 22.1506C14.5347 22.2086 14.5202 22.3053 14.3408 22.3671C14.2956 22.3826 14.2396 22.3955 14.1738 22.4046C14.1137 22.4086 14.047 22.4085 13.9745 22.4035C13.8266 22.3957 13.6632 22.3621 13.5051 22.2944C12.9353 22.0602 12.3945 21.7923 11.8619 21.506C11.3371 21.2065 10.8232 20.8892 10.3195 20.5512C9.71605 20.149 9.05647 19.785 8.42815 19.3939C7.73903 18.9615 7.05504 18.5205 6.37471 18.0746L5.12292 17.2451C4.4918 16.8252 3.86369 16.3959 3.23139 15.9856C2.74037 15.6663 2.23858 15.3813 1.75729 15.0489C1.65368 14.9725 1.54953 14.9015 1.44834 14.8194C1.07516 14.5121 0.988942 14.3713 1.00116 14.1995C1.00391 14.1601 1.00096 14.1165 1.01098 14.0843C1.04533 13.9762 1.24751 14.0356 1.54792 14.2053C2.46094 14.6777 3.3433 15.2878 4.25995 15.8787C4.9353 16.3252 5.61381 16.7739 6.29068 17.2216L6.2828 17.2359Z" fill="#0B1F2A"/>
<path fill-rule="evenodd" clip-rule="evenodd" d="M19.165 17.6428L18.3746 18.9283C18.2797 19.0852 18.1997 19.2505 18.1038 19.4068C17.766 19.9586 17.4246 20.5087 17.0959 21.0655C16.9509 21.313 16.8169 21.5684 16.69 21.8228C16.5304 22.1458 16.3641 22.4913 16.1677 22.7693C16.1543 22.7877 16.1378 22.7988 16.1191 22.8042C16.1099 22.807 16.1001 22.8083 16.0902 22.8081C16.0796 22.8066 16.093 22.811 16.0624 22.8035C16.0368 22.7974 16.0286 22.7954 16.0368 22.7974C16.0368 22.7974 16.0587 22.8029 16.0519 22.8009L16.0443 22.7975L16.0289 22.7895C16.0185 22.7832 16.0086 22.7752 15.9986 22.7655C15.9792 22.746 15.9611 22.7193 15.946 22.6844C15.8911 22.5381 15.8675 22.3293 15.9557 22.1333C16.1074 21.7877 16.2861 21.459 16.4725 21.1332C16.6578 20.8072 16.8546 20.4868 17.0634 20.1711C17.3141 19.7944 17.5166 19.3702 17.746 18.97L18.5147 17.6561L18.9912 16.8495C19.2288 16.4407 19.4781 16.0364 19.7064 15.6256C19.8826 15.306 20.0289 14.977 20.1938 14.6525C20.2304 14.5813 20.2608 14.5078 20.3054 14.4404C20.4673 14.1875 20.5604 14.128 20.7099 14.1523C20.744 14.1575 20.7797 14.1585 20.8092 14.1682C20.9055 14.1997 20.9229 14.3561 20.8458 14.5565C20.6244 15.1638 20.2833 15.748 19.9516 16.3411C19.7034 16.781 19.434 17.2118 19.1774 17.6492L19.165 17.6428Z" fill="#0B1F2A"/>
<path fill-rule="evenodd" clip-rule="evenodd" d="M21.1697 21.9952C21.4853 21.9433 21.8021 21.8946 22.1207 21.852C22.2428 21.8273 22.1555 21.8895 22.2911 21.7028L22.5505 21.3051L22.91 20.7126C23.345 20.0231 23.7644 19.3214 24.1795 18.6165C24.3643 18.3037 24.5396 17.9835 24.7125 17.6676C24.9338 17.2607 25.1471 16.8472 25.4072 16.462C25.5669 16.2208 25.6208 16.6713 25.3848 17.1485C24.9509 17.9865 24.5268 18.8308 24.0167 19.6401C23.715 20.1252 23.4421 20.6542 23.1422 21.1569C22.9763 21.4327 22.8082 21.7071 22.6348 21.9787L22.5611 22.095C22.5263 22.1481 22.4941 22.2054 22.4543 22.2511L22.1393 22.3025L21.6673 22.3809C21.2799 22.4476 20.8921 22.5175 20.5049 22.5916C19.9167 22.702 19.3256 22.8132 18.7418 22.9229C18.2874 23.01 17.8437 23.1169 17.3889 23.1965C17.2885 23.2133 17.1913 23.2368 17.0891 23.2484C16.9003 23.2744 16.7741 23.2769 16.6836 23.2499C16.5937 23.2287 16.5401 23.1868 16.4959 23.1266C16.4759 23.0996 16.4503 23.0745 16.4384 23.0497C16.3984 22.9709 16.5442 22.8608 16.8086 22.7949C17.5972 22.6371 18.4292 22.4897 19.2729 22.3316C19.9028 22.2159 20.5353 22.0998 21.1665 21.9837L21.1697 21.9952Z" fill="#0B1F2A"/>
<path fill-rule="evenodd" clip-rule="evenodd" d="M25.0056 15.0479C25.4353 15.095 25.8674 15.1316 26.2962 15.1446C26.3744 15.1471 26.452 15.1444 26.5292 15.142L26.6362 15.1371L26.7096 15.1202C26.9242 15.0729 27.1451 14.9296 27.331 14.7525C27.52 14.5756 27.6808 14.3593 27.8021 14.1229C27.9096 13.9132 27.982 13.6816 28.0014 13.4507C28.0312 13.1522 27.979 12.862 27.8895 12.5813C27.8654 12.4924 27.9366 12.4617 28.0421 12.5074C28.0951 12.5305 28.1573 12.5736 28.2181 12.6368C28.2678 12.7033 28.3172 12.7904 28.343 12.8916C28.4921 13.6231 28.2255 14.3644 27.7513 14.8887C27.6124 15.0498 27.4462 15.1948 27.2658 15.3273C27.0803 15.4555 26.8681 15.5631 26.605 15.5806C26.1511 15.5932 25.7087 15.5702 25.2645 15.5401C24.992 15.5215 24.7199 15.4953 24.4484 15.4702C24.0369 15.431 23.6257 15.3742 23.2181 15.3318C22.9013 15.2967 22.5862 15.2909 22.2703 15.2621C22.2008 15.2556 22.1319 15.2544 22.0621 15.2451C21.8044 15.2067 21.7292 15.1563 21.701 15.0088C21.6947 14.9751 21.6847 14.9409 21.6836 14.908C21.6802 14.7973 21.8001 14.7287 21.9892 14.7314C22.551 14.7352 23.1251 14.8202 23.7065 14.8904C24.1378 14.9432 24.5716 14.9985 25.006 15.036L25.0056 15.0479Z" fill="#0B1F2A"/>
<path fill-rule="evenodd" clip-rule="evenodd" d="M11.3102 3.2488C11.589 3.35079 11.8717 3.44399 12.1577 3.52954C12.2623 3.55972 12.3697 3.57695 12.4746 3.6076C12.8462 3.71442 13.2193 3.8214 13.5905 3.92796C13.7565 3.97446 13.9258 4.00928 14.0933 4.04293C14.3087 4.08357 14.5278 4.11387 14.7298 4.21854C14.793 4.24959 14.7702 4.30939 14.6983 4.36896C14.6271 4.42468 14.5023 4.50146 14.3763 4.49143C13.9348 4.4293 13.4932 4.36858 13.0609 4.22538C12.8029 4.13968 12.522 4.10657 12.2516 4.04149C11.9544 3.9699 11.6591 3.88626 11.3653 3.79948L10.8261 3.6296C10.5548 3.5418 10.2874 3.43899 10.0176 3.3556C9.80785 3.29093 9.59486 3.2478 9.3881 3.1807C9.3426 3.16574 9.29679 3.15491 9.25223 3.13711C9.08605 3.0709 9.04478 3.01921 9.04899 2.90103C9.05016 2.87414 9.04847 2.84632 9.05264 2.82105C9.06718 2.73615 9.16088 2.69352 9.29421 2.70472C9.69128 2.73703 10.0854 2.81955 10.4631 2.9553C10.7456 3.0487 11.0298 3.1426 11.3132 3.23631L11.3102 3.2488Z" fill="#0B1F2A"/>
<path fill-rule="evenodd" clip-rule="evenodd" d="M24.7084 9.35195C24.9026 9.51038 25.0971 9.66928 25.291 9.82725C25.3624 9.88415 25.4415 9.92959 25.5123 9.98752C25.7608 10.1929 26.0106 10.3995 26.2583 10.6044C26.3689 10.6953 26.4868 10.7768 26.6038 10.8562C26.7552 10.9562 26.9141 11.0463 27.0326 11.1966C27.0703 11.242 27.0308 11.2886 26.9528 11.3205C26.8767 11.3495 26.7506 11.3809 26.6552 11.3352C26.3326 11.15 26.0126 10.9607 25.7333 10.7047C25.5664 10.5514 25.3612 10.439 25.175 10.3052L24.5666 9.85586L24.1924 9.57934C24.0034 9.44001 23.8173 9.2942 23.6209 9.16888C23.4691 9.06981 23.3042 8.99663 23.1531 8.90057C23.1194 8.8798 23.0843 8.86284 23.0521 8.8396C22.9326 8.75337 22.9121 8.70016 22.9469 8.59324C22.9548 8.5689 22.9605 8.54345 22.9708 8.5212C23.005 8.44615 23.0941 8.42219 23.2025 8.45417C23.5271 8.54567 23.8322 8.69567 24.1055 8.89462C24.3135 9.03585 24.5155 9.18741 24.715 9.34146L24.7084 9.35195Z" fill="#0B1F2A"/>
<path fill-rule="evenodd" clip-rule="evenodd" d="M9.34254 9.09257C9.85517 9.42956 10.3806 9.7522 10.9126 10.0649L11.5023 10.3948C12.187 10.7982 12.8724 11.2041 13.565 11.5979C13.8719 11.7729 14.1847 11.9416 14.4931 12.1092C14.8891 12.3244 15.2905 12.5369 15.6622 12.7964C15.7782 12.8769 15.7314 12.9164 15.599 12.9074C15.4669 12.8974 15.2465 12.8441 15.0181 12.7244C14.2075 12.2998 13.3863 11.8897 12.5818 11.4281C12.1013 11.1509 11.5768 10.9068 11.0804 10.6298C10.5336 10.3277 9.9912 10.015 9.4559 9.68933C9.12594 9.48939 8.80082 9.28043 8.4776 9.06893C7.9903 8.74421 7.51324 8.39691 7.06565 8.013C6.8938 7.86063 6.71916 7.71313 6.56181 7.53828C6.40483 7.36511 6.24762 7.17912 6.15263 6.92746C6.12623 6.87682 6.11681 6.81389 6.10022 6.75593L6.06878 6.62039C6.04251 6.49991 5.98256 6.37398 5.98393 6.24709C5.98307 6.11736 6.05017 6.02713 6.13175 6.0105C6.16746 5.99999 6.20915 5.99411 6.23902 6.00149C6.2925 6.01429 6.31334 6.06918 6.34309 6.10496C6.37673 6.14004 6.40106 6.14707 6.46543 6.26919C6.5107 6.35506 6.56988 6.47447 6.591 6.61586C6.61457 6.69464 6.62845 6.74916 6.66848 6.82193C6.73901 6.95888 6.84169 7.10233 6.96843 7.23913C7.21637 7.51555 7.52182 7.77883 7.84065 8.0287C8.31614 8.40033 8.82686 8.74992 9.34769 9.08259L9.34254 9.09257Z" fill="#0B1F2A"/>
<path fill-rule="evenodd" clip-rule="evenodd" d="M24.768 15.8216C24.5849 15.8017 24.4041 15.7654 24.2249 15.7335C24.1599 15.7207 24.0933 15.7191 24.0287 15.7042C23.8043 15.6501 23.5773 15.5955 23.3537 15.5413C23.2546 15.5155 23.1544 15.4988 23.055 15.4832C22.927 15.4639 22.7982 15.4529 22.6746 15.4062C22.597 15.3792 22.7239 15.1985 22.8765 15.1969C23.1438 15.2084 23.4088 15.2292 23.664 15.3102C23.8176 15.3555 23.9827 15.3601 24.1417 15.3808C24.3166 15.4045 24.4913 15.4258 24.6668 15.4417C24.7747 15.4509 24.883 15.463 24.9914 15.4654C25.1556 15.4728 25.3215 15.4775 25.4847 15.4624C25.6118 15.457 25.734 15.4163 25.8582 15.401C25.8857 15.397 25.9122 15.3905 25.9402 15.3886C26.0434 15.3825 26.0791 15.4042 26.111 15.4808C26.1183 15.4983 26.1271 15.5154 26.1322 15.5328C26.1496 15.5909 26.1132 15.647 26.0389 15.6835C25.929 15.7386 25.8132 15.7863 25.6927 15.8079C25.573 15.8367 25.4488 15.8506 25.3244 15.8516C25.1392 15.8551 24.9529 15.8458 24.7678 15.831L24.768 15.8216Z" fill="#0B1F2A"/>
<path fill-rule="evenodd" clip-rule="evenodd" d="M10.3192 15.3716L10.8476 14.4638C10.9129 14.3537 10.9638 14.2362 11.0303 14.1269C11.2673 13.7419 11.5089 13.3597 11.754 12.9783C11.861 12.8068 11.9678 12.6361 12.0738 12.466C12.2163 12.2497 12.339 12.0179 12.5742 11.8498C12.6446 11.797 12.6853 11.8705 12.7 11.9788C12.7124 12.0867 12.7147 12.2197 12.6475 12.3427C12.524 12.5504 12.4096 12.7784 12.2882 13.0003C12.1683 13.2247 12.023 13.4372 11.8791 13.6544C11.7024 13.9113 11.5791 14.2123 11.4313 14.4944L10.9301 15.4202L10.6221 15.9918C10.4697 16.2819 10.3082 16.5694 10.169 16.8646C10.0583 17.093 9.98941 17.3372 9.88562 17.5697C9.86318 17.6211 9.84659 17.6742 9.8211 17.7246C9.72439 17.9126 9.64173 17.9432 9.48921 17.9032C9.45561 17.8949 9.42209 17.8901 9.39404 17.8799C9.30688 17.8498 9.23833 17.7115 9.27389 17.5643C9.38208 17.1268 9.58835 16.7108 9.80539 16.2933C9.96578 15.9826 10.1394 15.676 10.3062 15.3657L10.3192 15.3716Z" fill="#0B1F2A"/>
<path fill-rule="evenodd" clip-rule="evenodd" d="M12.2094 15.2513C11.6541 14.9026 11.0946 14.559 10.5308 14.2234C10.325 14.101 10.1115 13.9923 9.90668 13.8688C9.18298 13.4347 8.45911 12.999 7.72271 12.5867C7.39563 12.405 7.06061 12.2327 6.72614 12.0722C6.30011 11.8645 5.84943 11.678 5.45454 11.452C5.33393 11.3869 5.36623 11.2972 5.52071 11.2458C5.59868 11.2194 5.71128 11.2051 5.82675 11.2113C5.94473 11.2154 6.08027 11.2395 6.20487 11.2996C7.10455 11.7089 7.96713 12.1687 8.8111 12.6843C9.31436 12.9938 9.86614 13.2643 10.3905 13.5632C10.9659 13.8933 11.5366 14.2327 12.1053 14.5747L13.1516 15.2122C13.6778 15.5378 14.2063 15.8647 14.7285 16.1879C15.1371 16.4347 15.5527 16.6548 15.9608 16.8972C16.0507 16.9503 16.1409 16.9987 16.2281 17.0584C16.5529 17.2764 16.6335 17.3788 16.6175 17.5448C16.6139 17.5823 16.6153 17.6234 16.6049 17.6566C16.5702 17.7684 16.3868 17.754 16.1355 17.6231C15.7654 17.4271 15.386 17.2221 15.0174 16.9923C14.6408 16.7724 14.2694 16.5342 13.8902 16.3037C13.3312 15.9564 12.77 15.6042 12.2034 15.263L12.2094 15.2513Z" fill="#0B1F2A"/>
<path fill-rule="evenodd" clip-rule="evenodd" d="M22.7294 18.4793L22.2149 19.2987C22.1534 19.3991 22.1012 19.5045 22.0375 19.6035C21.8118 19.9528 21.5842 20.301 21.3667 20.6552C21.2706 20.8126 21.1778 20.9732 21.0902 21.1336C20.9826 21.3433 20.8474 21.5372 20.7055 21.7312C20.6125 21.8451 20.5387 21.5826 20.6348 21.3328C20.7928 20.8771 21.0259 20.4591 21.2901 20.053C21.4503 19.811 21.5706 19.5342 21.7127 19.2748C21.8694 18.99 22.0386 18.7114 22.2036 18.4304L22.5106 17.9132C22.6634 17.651 22.8254 17.392 22.9705 17.1269C23.0828 16.9206 23.1731 16.7063 23.2813 16.4959C23.3054 16.4496 23.3243 16.4011 23.3566 16.3596C23.469 16.1982 23.5548 16.1776 23.6646 16.2096C23.6898 16.2166 23.7157 16.2206 23.737 16.2303C23.7732 16.2463 23.7925 16.2798 23.8029 16.329C23.8125 16.3779 23.8163 16.4448 23.793 16.5086C23.7435 16.7144 23.6451 16.8959 23.5543 17.0888C23.4613 17.2795 23.3523 17.4661 23.2421 17.6528C23.0752 17.9294 22.9075 18.2075 22.7401 18.4847L22.7294 18.4793Z" fill="#0B1F2A"/>
<path fill-rule="evenodd" clip-rule="evenodd" d="M21.3318 18.8413C21.5454 18.8406 21.7621 18.8328 21.9795 18.8111C22.0587 18.8042 22.1361 18.7855 22.2158 18.7769C22.4981 18.7468 22.7823 18.7164 23.064 18.6864C23.1896 18.6711 23.3154 18.6488 23.439 18.6256C23.5982 18.5965 23.7584 18.5619 23.9236 18.5691C24.0256 18.5703 23.9235 18.7823 23.7497 18.8324C23.4358 18.913 23.1211 19.0007 22.79 19.038C22.5905 19.054 22.3903 19.1122 22.1881 19.1453C21.9653 19.1796 21.7403 19.2069 21.5135 19.2238C21.3742 19.2353 21.234 19.2405 21.0935 19.2437C20.8805 19.2507 20.6666 19.2337 20.4536 19.226C20.2883 19.2139 20.1215 19.222 19.9525 19.2012C19.915 19.1986 19.877 19.1996 19.8423 19.1831C19.776 19.1605 19.7366 19.1321 19.7164 19.0926C19.6949 19.0566 19.6889 19.0197 19.6906 18.9733C19.6915 18.9523 19.69 18.9314 19.6929 18.9132C19.7018 18.854 19.7751 18.8095 19.878 18.7769C20.1591 18.746 20.4133 18.8072 20.6964 18.8169C20.9032 18.8311 21.1158 18.8398 21.3306 18.8314L21.3318 18.8413Z" fill="#0B1F2A"/>
<path fill-rule="evenodd" clip-rule="evenodd" d="M6.61565 3.66604C6.78375 3.45063 6.99211 3.25892 7.22865 3.09683C7.4639 2.9345 7.75125 2.81402 8.0596 2.78277C8.10074 2.77914 8.12975 2.77101 8.18085 2.77166C8.2393 2.77523 8.29872 2.78229 8.35633 2.7931C8.44415 2.81667 8.51058 2.84313 8.58325 2.87064C8.70851 2.92738 8.82985 2.98624 8.93954 3.04896C9.16506 3.17194 9.37507 3.30354 9.58516 3.43548C10.4169 3.96956 11.213 4.53319 12.0119 5.09459C12.5953 5.50219 13.1784 5.90933 13.7611 6.31621C15.8033 7.76565 17.839 9.22678 19.9747 10.5175C20.4489 10.8023 20.9318 11.0753 21.4247 11.321C21.5471 11.3851 21.6715 11.4422 21.7958 11.5006C21.8556 11.5275 21.9249 11.5644 21.977 11.5826C22.0003 11.5867 22.0144 11.5939 22.0444 11.5993L22.1391 11.6137C22.4 11.6486 22.6782 11.6662 22.9511 11.6848C24.3618 11.7723 25.7974 11.818 27.203 12.1397C27.6412 12.2526 27.5485 12.3456 27.1638 12.3775C26.7776 12.4126 26.0959 12.4273 25.2887 12.3679C24.5729 12.3117 23.8544 12.275 23.1301 12.2246C22.7632 12.1973 22.4136 12.1814 22.0148 12.1218C21.9431 12.12 21.7158 12.0485 21.6719 12.0161L21.4208 11.8963C21.2532 11.8163 21.0916 11.7288 20.927 11.6451C19.6275 10.952 18.4063 10.1514 17.1984 9.32394C15.7571 8.33087 14.2479 7.31535 12.7852 6.29095C11.9812 5.72805 11.1784 5.16364 10.3692 4.61302C9.96428 4.3392 9.55742 4.06792 9.1449 3.81379C8.93923 3.68579 8.73045 3.56591 8.52294 3.45948L8.3687 3.38759C8.32242 3.37158 8.26901 3.35048 8.23165 3.34039C8.21913 3.3388 8.20776 3.33996 8.1953 3.33007C8.17532 3.33528 8.14631 3.33794 8.12231 3.34176C8.07212 3.35061 8.02046 3.34903 7.97156 3.36905C7.47348 3.50335 7.05563 3.94819 6.78457 4.43891C6.64852 4.68783 6.54357 4.95583 6.47844 5.23002C6.4602 5.29847 6.44629 5.36737 6.438 5.43693C6.42666 5.5063 6.41633 5.57545 6.4151 5.6443C6.41044 5.71358 6.40579 5.78285 6.41202 5.85038L6.41673 5.95262C6.41875 5.98584 6.42925 6.00427 6.43335 6.03103C6.47709 6.18988 6.61339 6.36754 6.75381 6.52593C6.89733 6.68715 7.0634 6.83729 7.2318 6.98373C7.57168 7.27539 7.93735 7.54538 8.30899 7.8059C9.05376 8.32645 9.82795 8.80863 10.6055 9.2742C11.8147 9.99802 13.0396 10.6439 14.254 11.3359C14.5219 11.488 14.7865 11.6325 15.0539 11.7912C16.0452 12.3795 16.332 12.6192 16.4524 12.8884C16.4797 12.9499 16.5221 13.0208 16.5295 13.0692C16.5525 13.2339 16.1091 13.0624 15.3756 12.6583C13.1922 11.4654 10.88 10.2108 8.64334 8.75268C8.22889 8.47977 7.81786 8.1978 7.41519 7.89349C7.01377 7.58538 6.61715 7.26878 6.25222 6.85425L6.1188 6.68705C6.07583 6.62622 6.03466 6.55934 5.99356 6.49509C5.95382 6.42595 5.91877 6.34165 5.88457 6.26421C5.87058 6.21624 5.85831 6.16647 5.84732 6.11694C5.83554 6.06547 5.82713 6.01642 5.82791 5.98469C5.79996 5.68706 5.83955 5.40594 5.89711 5.13417C6.02098 4.5927 6.26044 4.09552 6.60246 3.65915L6.61565 3.66604Z" fill="#0B1F2A"/>
<path fill-rule="evenodd" clip-rule="evenodd" d="M23.6055 20.2448C23.6055 20.2448 26.0489 21.7651 25.7549 23.1469C25.4006 24.8113 20.4847 24.5377 16.8695 23.0383L22.3476 22.0827L23.6055 20.2448Z" fill="#0B1F2A"/>
<path fill-rule="evenodd" clip-rule="evenodd" d="M23.3216 1.76523C23.4498 1.65577 23.6427 1.67099 23.7522 1.79916C24.2951 2.43466 22.654 2.3353 23.3216 1.76523Z" fill="#0B1F2A"/>
<path fill-rule="evenodd" clip-rule="evenodd" d="M29.6614 5.76914C29.7896 5.65968 29.9824 5.67476 30.092 5.80307C30.6349 6.43857 28.9938 6.33921 29.6614 5.76914Z" stroke="#0B1F2A" stroke-width="0.243213"/>
<path fill-rule="evenodd" clip-rule="evenodd" d="M15.2168 3.58565C15.2856 3.23006 15.4037 2.88577 15.6024 2.56192C15.7988 2.24702 16.1067 1.92166 16.5381 1.80942C16.8509 1.72975 17.1397 1.73076 17.4296 1.82796C17.6796 1.9158 17.8954 2.06831 18.0642 2.24234C18.2343 2.41715 18.3644 2.61223 18.4685 2.81179C18.6726 3.21303 18.7923 3.62995 18.8686 4.04731C18.9383 4.41734 18.9883 4.78933 19.0151 5.16074C19.046 5.63434 19.0712 6.13392 18.8674 6.60418C18.8006 6.75182 18.6412 6.66434 18.5074 6.50639C18.3728 6.34617 18.2489 6.12976 18.2689 5.89466C18.3307 5.05127 18.259 4.14452 17.9976 3.33733C17.9178 3.09616 17.7823 2.87672 17.6144 2.7136C17.4444 2.55147 17.2482 2.45678 17.0345 2.43303C16.7836 2.4002 16.5895 2.46336 16.3992 2.63053C16.2171 2.80169 16.0751 3.05406 15.9826 3.32594C15.8629 3.66373 15.8249 4.02294 15.859 4.38459C15.9065 4.93343 16.1056 5.48424 16.3913 5.97554C16.6139 6.35939 16.9069 6.68964 17.2054 7.01179C17.273 7.081 17.3393 7.14943 17.4074 7.21923C17.6516 7.48575 17.6988 7.59763 17.6188 7.78209C17.6007 7.8239 17.5868 7.87005 17.5636 7.90664C17.4865 8.02997 17.2935 8.00174 17.0756 7.81973C16.4328 7.28078 15.8695 6.56014 15.4999 5.69957C15.2235 5.06677 15.0817 4.32374 15.1999 3.58383L15.2168 3.58565Z" fill="#0B1F2A"/>
<path fill-rule="evenodd" clip-rule="evenodd" d="M23.1858 6.84764C23.4608 6.63562 23.7188 6.37402 23.8339 6.12825C23.8932 6.00346 23.896 5.91837 23.8765 5.85771C23.8589 5.79364 23.7716 5.70561 23.641 5.63403C23.5436 5.58424 23.4283 5.53987 23.3089 5.51903L23.1322 5.47757L22.9453 5.45607C22.5025 5.40179 22.0236 5.44893 21.5538 5.54618C21.0827 5.64428 20.6141 5.79433 20.1628 5.98755C19.7623 6.15856 19.3743 6.36961 19.0171 6.61284C18.5543 6.92307 18.1442 7.29282 17.7088 7.62155C17.5721 7.72272 17.4547 7.58927 17.4419 7.3605C17.4255 7.12973 17.5312 6.80058 17.8037 6.58013C18.7677 5.81439 19.8727 5.25926 21.0785 4.99048C21.4405 4.9175 21.8063 4.83364 22.1902 4.79665C22.5696 4.74815 22.9715 4.75187 23.3667 4.83801C23.5857 4.88896 23.7961 4.95348 24.0062 5.07677C24.2096 5.19295 24.4381 5.39036 24.5215 5.68502C24.6057 5.97878 24.5224 6.2553 24.4181 6.46161C24.3098 6.67253 24.1721 6.84585 24.0247 7.00126C23.6583 7.38141 23.2364 7.67062 22.7825 7.90533C22.4387 8.07503 22.08 8.21654 21.7078 8.31506C21.3366 8.41565 20.955 8.46589 20.5792 8.49277C19.9949 8.53403 19.4261 8.53761 18.8692 8.54292C18.7473 8.54555 18.6275 8.54839 18.5046 8.55124C18.0516 8.55005 17.9121 8.51255 17.8085 8.32965C17.7851 8.28838 17.7539 8.2471 17.7394 8.20542C17.6891 8.06656 17.8775 7.93965 18.2263 7.90087C19.2658 7.78396 20.3114 7.92784 21.2429 7.72597C21.591 7.65401 21.9301 7.54057 22.2599 7.39025C22.5915 7.24656 22.896 7.05839 23.1741 6.8351L23.1858 6.84764Z" fill="#0B1F2A"/>
</svg>
