<svg width="50" height="56" viewBox="0 0 50 56" fill="none" xmlns="http://www.w3.org/2000/svg">
<path fill-rule="evenodd" clip-rule="evenodd" d="M27.9172 26.7654C27.7802 26.3826 27.9444 25.9748 28.3876 25.6973C28.5341 25.6194 28.8721 25.8062 28.9213 25.8317C29.0038 25.9674 29.1076 26.169 29.1893 26.3641C29.2098 26.4628 29.6547 28.5273 29.7573 29.3444C29.7766 29.4912 29.7932 29.6402 29.8002 29.8013C29.807 29.8598 29.8015 30.0216 29.7965 30.1436C29.7919 30.273 29.7744 30.4011 29.7557 30.5282C29.7115 30.7817 29.6194 31.0163 29.4768 31.222C29.3362 31.4357 29.1128 31.5478 28.8971 31.6801L28.4981 31.8536L28.2853 31.9541C27.9843 32.0984 27.6832 32.2555 27.3879 32.419C27.2436 32.4997 27.0873 32.5888 26.9586 32.6663C26.9513 32.6719 26.9543 32.6717 26.9526 32.6745C26.9495 32.6822 26.9598 32.6839 26.964 32.6821C26.964 32.6821 26.9379 32.6932 26.9273 32.7268C26.9229 32.7411 26.9249 32.7545 26.9314 32.7672C26.9345 32.7737 26.9553 32.7829 26.9679 32.79L26.9801 32.796L27.027 32.8069L27.1211 32.8284C27.3724 32.8853 27.6283 32.9313 27.8854 32.9681C28.1426 33.0049 28.4015 33.0328 28.6569 33.0503C28.7289 33.057 29.0461 33.075 29.2921 33.0702C29.5665 33.0258 29.8198 33.0732 29.9968 33.1581C30.0582 33.1842 30.1087 33.2172 30.1451 33.2374C30.1959 33.2698 30.2561 33.3299 30.2992 33.3773C30.3911 33.4785 30.4709 33.5936 30.5507 33.7161C30.6243 33.8077 30.7458 34.2364 30.8196 34.8726C30.8308 34.9582 30.843 35.0493 30.8558 35.1449C30.8622 35.1855 30.8618 35.1596 30.8643 35.1697C30.8686 35.1731 30.871 35.175 30.8726 35.1771C30.8781 35.1818 30.8684 35.2111 30.8511 35.2818C30.8317 35.3554 30.8135 35.4387 30.8021 35.529C30.794 35.5816 30.7925 35.6081 30.801 35.6303C30.8165 35.6704 30.858 35.6668 30.9253 35.6341L30.9675 35.6108C30.9939 35.5939 31.0057 35.537 31.0576 35.5805C31.1836 35.6731 31.2748 35.4939 31.3929 35.3442C31.6408 35.0162 31.8976 34.6949 32.177 34.3923C32.3158 34.2426 32.504 34.132 32.679 34.0122C32.8375 33.9034 32.9686 34.1208 32.9524 34.1867C32.9047 34.3784 33.0812 34.3224 33.17 34.3657C33.2001 34.3801 33.239 34.3998 33.2554 34.422C33.2735 34.4466 33.0244 34.9914 32.7598 35.5582C32.6931 35.6996 32.6262 35.8427 32.5621 35.9788L32.5142 36.0798C32.501 36.1094 32.4825 36.1457 32.4531 36.1989C32.4003 36.2958 32.3496 36.3885 32.3019 36.4758C32.116 36.8126 31.9188 37.1638 31.8596 37.2497C31.8539 37.2587 31.8179 37.3146 31.7111 37.4802C31.6051 37.6614 31.4283 37.9356 31.1388 38.4501C31.0734 38.5668 30.9802 38.7326 30.8663 38.9355C30.8387 38.9798 30.8057 39.0549 30.7782 39.0802C30.7502 39.1065 30.7213 39.134 30.691 39.1629C30.6306 39.2192 30.5661 39.2796 30.4991 39.3426C30.4664 39.3719 30.4276 39.412 30.398 39.4336L30.315 39.4822C30.2586 39.5143 30.2002 39.547 30.1408 39.581C30.0578 39.5948 29.9592 39.6078 29.9161 39.59C29.8816 39.5832 29.8788 39.5789 29.865 39.5722C29.8314 39.5616 29.7761 39.566 29.7428 39.5588C29.6664 39.548 29.5943 39.5175 29.5295 39.4661C29.4639 39.4184 29.4113 39.3381 29.3629 39.2815C29.3153 39.2247 29.268 39.1985 29.2465 39.1693C29.1239 39.0517 29.0553 38.7222 29.0412 38.3172C29.0319 38.2256 28.8972 36.9034 28.7618 35.573L28.7337 35.3438L28.7149 35.218C28.7094 35.1851 28.7001 35.1177 28.6978 35.1137L28.6912 35.1098C28.6826 35.1052 28.6749 35.1048 28.6685 35.1065C28.6558 35.1095 28.6498 35.1191 28.6498 35.1191C28.6526 35.1155 28.6502 35.1176 28.6502 35.1176L28.6492 35.1197C28.6492 35.1197 28.6501 35.1198 28.648 35.1201L28.5534 35.1128C28.251 35.0866 27.956 35.0385 27.6708 34.9351C27.5587 34.8945 27.4379 34.8869 27.3197 34.8749L26.939 34.8274L26.7484 34.7983L26.5 34.755C26.0816 34.6781 25.5975 34.573 25.2035 34.4336C24.7976 34.2956 24.468 34.11 24.2523 33.8968C24.153 33.7867 24.0586 33.6784 23.9969 33.5506C23.9649 33.4866 23.9359 33.4185 23.9111 33.341C23.8855 33.2634 23.9088 33.1616 23.8798 33.0922C23.8804 32.9276 23.9091 32.7975 23.9791 32.6581C24.0079 32.5901 24.0423 32.5206 24.0758 32.451C24.1136 32.3812 24.1291 32.312 24.1981 32.2417L24.3706 32.032C24.4298 31.9616 24.5181 31.8939 24.5905 31.8247C24.732 31.6842 24.9188 31.5551 25.0996 31.4254C25.2265 31.3287 25.3888 31.2583 25.5313 31.1774C25.6952 31.0883 25.8604 30.9992 26.021 30.9122C26.3259 30.7277 26.6367 30.5606 26.9537 30.4038L27.434 30.1731L27.679 30.062L27.7794 30.0206C27.8029 30.0095 27.8327 30.0064 27.8497 29.9851C27.8656 29.9634 27.8703 29.9358 27.8723 29.9095C27.875 29.8826 27.8728 29.8569 27.8693 29.8299C27.8665 29.7432 27.8602 29.6241 27.8486 29.5153C27.8403 29.2925 27.8805 28.0167 27.8157 27.6995C27.7821 27.5277 27.9719 26.923 27.9172 26.7654Z" fill="#0B1F2A"/>
<path fill-rule="evenodd" clip-rule="evenodd" d="M30.5117 39.9568C30.4174 39.9943 30.3204 40.0275 30.2241 40.0551C30.1277 40.0788 30.0286 40.0673 29.9308 40.0752C29.8331 40.0755 29.7364 40.0465 29.6395 40.0338C29.5467 40.002 29.4637 39.9462 29.381 39.8978C29.2279 39.7774 29.1025 39.6141 29.0075 39.4253C28.9558 39.3346 28.9225 39.2371 28.8789 39.1432L28.8113 38.9517C28.6584 38.4646 28.5754 38.0065 28.4988 37.5453C28.4259 37.0859 28.3695 36.6297 28.3225 36.1738L28.259 35.4904L28.2482 35.3518L28.2473 35.3208L28.2464 35.255C28.2372 35.2396 28.2081 35.2421 28.1884 35.2374L28.1546 35.234C28.1317 35.2325 28.1589 35.2325 28.089 35.2304L27.3876 35.2075C26.9101 35.1874 26.4226 35.147 25.9357 35.0636C25.475 34.988 25.0124 34.8751 24.5632 34.7043C24.3358 34.6283 24.1191 34.5164 23.9007 34.4126L23.5828 34.2264C23.4358 34.1432 23.2748 34.0087 23.1222 33.9014C23.0101 33.759 22.8585 33.6403 22.8228 33.4626C22.7404 33.1171 22.9223 32.7971 23.1796 32.5276C23.4908 32.2132 23.6355 32.1364 23.8389 31.9875C24.225 31.7234 24.6166 31.5 25.0136 31.2872C25.4101 31.0754 25.8111 30.8784 26.2186 30.6924C26.4223 30.5998 26.6272 30.5095 26.8347 30.4231L27.0655 30.331L27.1799 30.2919L27.2086 27.9562C27.2333 27.0709 27.2514 26.197 27.3632 25.2854L27.3879 25.1218C27.3981 25.0483 27.4173 24.9769 27.4338 24.9052C27.4638 24.7583 27.526 24.6335 27.6119 24.52C27.8045 24.3682 28.0322 24.2335 28.2923 24.2521C28.4167 24.2395 28.5497 24.2676 28.671 24.2976C28.7791 24.3174 28.8628 24.3558 28.9551 24.3886C29.3124 24.5278 29.6221 24.7026 29.9215 24.8836C30.5203 25.2456 31.0814 25.6302 31.6448 26.0008C31.994 26.2322 32.3452 26.4576 32.6984 26.6788L33.2303 27.005C33.3306 27.0611 33.4131 27.1118 33.5005 27.1559L33.6242 27.033L33.9171 26.7698C34.1392 26.5762 34.3673 26.389 34.607 26.2123C35.0879 25.8633 35.5907 25.527 36.2383 25.3484C36.4207 25.3071 36.5625 25.3067 36.6608 25.3418C36.7536 25.3709 36.7872 25.4136 36.7783 25.4638C36.7575 25.5718 36.5873 25.6785 36.4011 25.8673C36.0202 26.2342 35.4307 26.8997 34.609 27.627L34.4631 27.7571L34.2461 27.9578C34.047 28.1435 33.8508 28.3419 33.6543 28.5351L32.9964 28.1369L32.6673 27.9374L32.4887 27.8248C32.2509 27.6757 32.0164 27.5236 31.784 27.3695L30.413 26.4386C29.9632 26.1323 29.515 25.8255 29.0777 25.5749C28.859 25.4443 28.645 25.3482 28.4651 25.2846C28.4097 25.2735 28.4281 25.273 28.4238 25.2709L28.4121 25.2674C28.4031 25.2657 28.3939 25.267 28.3849 25.2719C28.3797 25.2759 28.3766 25.2822 28.3732 25.2891L28.3685 25.2999L28.3494 25.4193C28.3234 25.5947 28.3039 25.7838 28.2872 25.9733C28.2538 26.354 28.2312 26.7442 28.2121 27.1355C28.174 27.9188 28.1506 28.7099 28.1306 29.5024C28.1278 29.6797 28.1241 29.8572 28.1212 30.0367C28.1226 30.3297 28.1238 30.6258 28.1253 30.9267C27.2316 31.2477 27.0039 31.3612 26.5526 31.5675C26.1402 31.7609 25.7318 31.9701 25.3337 32.1939C24.9385 32.4185 24.5466 32.6578 24.2042 32.9194L24.081 33.0179L24.0338 33.0592C24.0059 33.0846 23.9807 33.1126 23.9585 33.1431C23.9374 33.1728 23.9172 33.2118 23.9319 33.2482C23.9479 33.2833 23.9857 33.2999 24.0137 33.3238C24.0593 33.3567 24.0518 33.358 24.1601 33.4196C24.2631 33.4783 24.3593 33.5472 24.4696 33.5941C25.0936 33.9122 25.801 34.0868 26.5317 34.1706C26.8975 34.2121 27.269 34.2341 27.6483 34.2454L28.2747 34.2653C28.5852 34.2764 28.8831 34.319 29.1561 34.3932L29.2069 35.1219L29.2497 35.6233C29.2771 35.9201 29.3076 36.2169 29.3431 36.5114C29.4154 37.1006 29.5018 37.6898 29.6362 38.2493C29.6813 38.4379 29.744 38.6509 29.7989 38.7934C29.8375 38.8856 29.8729 38.9854 29.9648 39.0324C30.0621 39.0696 30.164 39.0198 30.243 38.9633C30.2642 38.9468 30.2829 38.9395 30.3062 38.9148L30.4001 38.8272C30.4673 38.7698 30.5268 38.6874 30.5911 38.6191C31.0859 38.0141 31.469 37.2645 31.8012 36.5102C31.9789 36.1097 32.1358 35.6973 32.2873 35.2833L32.5009 34.6577L32.7815 33.7487L33.6734 33.9405L34.284 34.0639C34.6915 34.1446 35.0992 34.2184 35.5068 34.288C35.9143 34.3545 36.3218 34.4188 36.7279 34.4659C36.9309 34.4925 37.1325 34.51 37.3342 34.5274C37.4358 34.5372 37.534 34.5384 37.634 34.5448L37.7799 34.5513L37.8758 34.5494C37.9548 34.551 38.025 34.5438 38.0915 34.5334C38.1524 34.5183 38.2429 34.5134 38.2454 34.4319C38.2685 34.2957 38.2231 34.1539 38.1753 34.0411C38.0123 33.6403 37.7392 33.249 37.4481 32.8884C37.1516 32.5266 36.827 32.1828 36.4796 31.86C36.3076 31.6972 36.1284 31.5403 35.9493 31.3839C35.8857 31.3294 35.688 31.1674 35.5609 31.0469L35.4562 30.9483C35.4247 30.9141 35.3698 30.8875 35.3947 30.834L35.439 30.55L35.493 30.298L35.5466 30.0924C35.5801 29.9818 35.6103 29.8702 35.6497 29.7624C35.7225 29.5436 35.8129 29.3311 35.9159 29.1205C36.3104 28.3449 36.7139 27.9139 37.0265 27.6643C37.3429 27.4156 37.5749 27.3349 37.7985 27.3356C37.8997 27.335 38.0186 27.3207 38.0893 27.3433C38.3445 27.4438 37.8545 27.8796 37.2445 28.7611C37.0203 29.0911 36.8334 29.4481 36.6879 29.8217C36.6136 30.0079 36.5534 30.1991 36.5006 30.3903L36.4833 30.4619L36.4818 30.4769L36.4808 30.5037C36.479 30.5215 36.4803 30.5369 36.5017 30.5441L36.5254 30.5581C36.5329 30.5621 36.5307 30.558 36.5903 30.6086C36.6805 30.6818 36.7661 30.7609 36.8531 30.8387C37.0287 30.9915 37.1997 31.1525 37.368 31.3188C37.7035 31.6518 38.0318 32.001 38.33 32.3939C38.4799 32.5899 38.6233 32.7956 38.7577 33.0145C38.8243 33.1243 38.8869 33.2404 38.949 33.3576L39.0356 33.5426C39.0498 33.5739 39.0651 33.603 39.0769 33.6377L39.1273 33.7721C39.2718 34.2039 39.3306 34.6518 39.1656 35.0017L39.1089 35.1388C39.099 35.1615 39.0909 35.1868 39.0791 35.2076L39.0182 35.2447C38.9338 35.2894 38.8644 35.3532 38.7671 35.3829C38.568 35.4321 38.3811 35.5224 38.1636 35.5113C37.6644 35.5449 37.5134 35.5185 37.2478 35.5044C37.0052 35.4846 36.7653 35.4609 36.53 35.4312C36.0572 35.3734 35.5916 35.303 35.1292 35.2239L33.9912 35.0172L33.4738 34.9138L33.4707 34.9113L33.178 35.7592C33.0062 36.2428 32.8075 36.7196 32.596 37.1929C32.3753 37.665 32.1373 38.1315 31.8511 38.5885C31.7057 38.8167 31.5498 39.0427 31.3655 39.2652C31.2682 39.3765 31.1792 39.4871 31.0572 39.5958C31.0043 39.6408 30.9351 39.7257 30.8251 39.7858L30.5252 39.9782L30.5117 39.9568Z" fill="#0B1F2A"/>
<path fill-rule="evenodd" clip-rule="evenodd" d="M46.7511 15.7416C46.7584 15.822 46.66 15.8371 46.4994 15.8198C46.448 15.814 46.3154 15.7496 46.305 15.7218C46.2854 15.6682 46.2669 15.6141 46.259 15.564C46.2531 15.5338 46.3604 15.1349 46.3996 14.9981C46.4328 14.8634 46.4931 14.7432 46.5567 14.6249C46.6895 14.3869 46.8198 14.1467 46.967 13.9175C46.9993 13.8663 47.0384 13.8195 47.0854 13.7792C47.2448 13.6396 47.3665 13.4747 47.478 13.2995C47.4968 13.2706 47.5218 13.2457 47.5197 13.2011C47.5091 13.1223 47.8655 12.6849 47.9373 12.6516C48.1045 12.5592 48.2436 12.4428 48.414 12.3586C48.4375 12.3462 48.4515 12.3211 48.4931 12.3294C48.5897 12.3492 48.6214 12.304 48.6673 12.272C48.7254 12.2226 48.8084 12.1987 48.8894 12.174C48.9298 12.162 48.9847 12.1666 49.031 12.1627C49.0737 12.16 49.1107 12.2258 49.1092 12.2408C49.1028 12.2826 49.1487 12.2917 49.1727 12.313C49.1805 12.3204 49.1915 12.3294 49.1965 12.3374C49.2021 12.3461 49.1669 12.4648 49.1475 12.6027C49.1185 12.732 49.0761 12.8514 49.0637 12.8707C49.0666 12.8908 48.7044 13.3769 48.6744 13.44C48.6577 13.4722 48.6199 13.4868 48.5878 13.5062C48.5739 13.5171 48.3042 13.9169 48.293 13.9317C48.2205 14.0006 48.1817 14.0958 48.0639 14.1304C48.0412 14.1373 48.0315 14.1555 48.0198 14.1714C47.9225 14.3122 47.7964 14.432 47.6819 14.5611C47.622 14.6269 47.5812 14.7048 47.5295 14.7753C47.5203 14.7882 47.5027 14.796 47.4899 14.8065C47.4738 14.8199 47.4558 14.8318 47.4453 14.8486C47.3357 15.0244 47.1926 15.1818 47.1123 15.3749C47.0916 15.4177 46.9151 15.582 46.8984 15.6362C46.8872 15.6652 46.7473 15.7086 46.7511 15.7416Z" fill="#0B1F2A"/>
<path fill-rule="evenodd" clip-rule="evenodd" d="M49.5884 24.3621C49.5298 24.4333 49.4472 24.35 49.3301 24.1829C49.2928 24.1291 49.2372 23.9512 49.2541 23.9194C49.2861 23.8569 49.3215 23.7954 49.3632 23.7473C49.3843 23.7083 49.8691 23.5166 50.0406 23.4729C50.2058 23.4134 50.3707 23.4099 50.5377 23.4008C50.8716 23.403 51.2045 23.4086 51.5277 23.4506C51.6002 23.4576 51.671 23.4765 51.7382 23.5069C51.9708 23.6072 52.2078 23.6548 52.4488 23.6945C52.4887 23.7016 52.5274 23.717 52.5737 23.695C52.6518 23.6515 53.2868 23.8359 53.359 23.8884C53.544 24.0031 53.7176 24.1447 53.8915 24.2743C53.9163 24.2927 53.9491 24.296 53.9615 24.3399C53.9896 24.4426 54.052 24.4565 54.1075 24.49C54.1842 24.5365 54.259 24.5889 54.3283 24.6512C54.3627 24.6821 54.3858 24.7381 54.4123 24.7846C54.4357 24.8273 54.3767 24.91 54.36 24.9153C54.3112 24.9298 54.3213 24.9863 54.3079 25.0257C54.3033 25.0395 54.2974 25.057 54.2912 25.0671C54.2795 25.0768 53.7368 25.1187 53.6865 25.1107C53.6832 25.1101 53.637 25.1025 53.5669 25.0908C53.4976 25.0815 53.4053 25.068 53.3104 25.0547C53.1178 25.0403 52.9338 24.9816 52.8912 24.986C52.849 24.9824 52.8158 24.9497 52.78 24.9249C52.7624 24.9097 52.2087 24.8368 52.1883 24.8337C52.08 24.7953 51.9625 24.8051 51.8687 24.7019C51.8502 24.6813 51.8266 24.6806 51.8041 24.6768C51.6106 24.6509 51.4251 24.5838 51.2355 24.5385C51.1383 24.5118 51.0395 24.5156 50.9417 24.5041C50.9243 24.5021 50.9077 24.4884 50.8904 24.4815C50.8686 24.4731 50.8471 24.4593 50.8248 24.4585C50.5944 24.4536 50.3622 24.4034 50.14 24.4547C50.0897 24.4622 49.8343 24.3997 49.7781 24.4273C49.7477 24.4377 49.6125 24.3296 49.5884 24.3621Z" fill="#0B1F2A"/>
<path fill-rule="evenodd" clip-rule="evenodd" d="M13.2878 49.0671C13.2754 49.1701 13.1464 49.1383 12.939 49.0317C12.8732 48.9978 12.7162 48.8478 12.7116 48.8088C12.702 48.7328 12.6951 48.6572 12.7014 48.592C12.704 48.5479 12.981 48.1364 13.0721 47.9929C13.1595 47.8541 13.2715 47.7409 13.388 47.6342L14.0924 46.984C14.145 46.9369 14.2047 46.8975 14.2707 46.8662C14.4969 46.7571 14.6807 46.6013 14.8518 46.43C14.8804 46.4017 14.9152 46.3797 14.9231 46.3294C14.9361 46.2461 15.4319 45.8223 15.5124 45.7868C15.7127 45.6985 15.8974 45.5918 16.087 45.4917C16.1167 45.4806 16.1364 45.4545 16.1842 45.4677C16.2953 45.4976 16.3376 45.4488 16.3954 45.4167C16.4746 45.3711 16.5573 45.3296 16.6473 45.2962C16.6918 45.2796 16.7537 45.2827 16.8083 45.2773C16.8578 45.2727 16.9048 45.3549 16.9022 45.373C16.8938 45.423 16.9494 45.4348 16.979 45.4609C16.9887 45.4699 17.0021 45.482 17.0083 45.4914C17.0157 45.5038 16.8129 46.0605 16.781 46.1115C16.7948 46.1491 16.2589 46.6919 16.212 46.7674C16.1846 46.8046 16.1366 46.8188 16.0946 46.8389C16.0745 46.8484 15.6748 47.3098 15.6559 47.3242C15.556 47.4007 15.4857 47.5097 15.3391 47.5307C15.3102 47.5349 15.2942 47.5554 15.2768 47.5728C15.1262 47.7265 14.9452 47.8452 14.7734 47.9731C14.685 48.0382 14.6122 48.1203 14.5314 48.1933C14.5169 48.2063 14.4936 48.2103 14.4756 48.2195C14.4526 48.2309 14.4267 48.2389 14.4089 48.2564C14.2259 48.4379 14.0062 48.5791 13.8484 48.7838C13.813 48.8311 13.5416 48.9525 13.5056 49.0107C13.4852 49.0428 13.2925 49.0254 13.2878 49.0671Z" fill="#0B1F2A"/>
<path fill-rule="evenodd" clip-rule="evenodd" d="M11.1681 37.0867C11.2252 37.0359 11.2795 37.124 11.3327 37.2949C11.3494 37.3491 11.3559 37.5174 11.3405 37.5421C11.3097 37.59 11.279 37.6367 11.2469 37.6706C11.2269 37.6906 10.9069 37.7934 10.8032 37.8394C10.7008 37.8815 10.5986 37.8984 10.4957 37.9106C10.2887 37.9369 10.0852 37.9743 9.88994 38.0181C9.84622 38.0269 9.80033 38.0267 9.75493 38.0215C9.59546 37.9985 9.44676 38.0379 9.30913 38.0942C9.28639 38.1037 9.2603 38.106 9.24632 38.1399C9.21861 38.189 8.86007 38.3274 8.80791 38.3347C8.67093 38.3375 8.53699 38.3595 8.40114 38.39C8.38219 38.3952 8.37125 38.4135 8.33896 38.3976C8.2647 38.3609 8.23673 38.3938 8.1985 38.4122C8.14449 38.4359 8.09514 38.4669 8.0333 38.4845C8.00344 38.4938 7.95576 38.4832 7.91274 38.4799C7.87369 38.4765 7.81874 38.3957 7.81916 38.3814C7.81963 38.3403 7.7707 38.3209 7.74121 38.2926C7.73124 38.2828 7.71822 38.2705 7.71196 38.2612C7.69245 38.2454 7.86831 37.8433 7.91069 37.8152C7.90807 37.7998 8.36471 37.403 8.43255 37.3772C8.46139 37.3546 8.50148 37.3559 8.53784 37.3514C8.55068 37.3399 8.9702 37.1066 8.9913 37.1078C9.08605 37.082 9.17387 37.0308 9.2842 37.0764C9.30576 37.0853 9.32363 37.077 9.34191 37.0712C9.49953 37.0244 9.66473 37.0216 9.8249 37.0158C9.90689 37.012 9.98574 36.9939 10.0661 36.984C10.0805 36.9822 10.0962 36.9909 10.1113 36.9937C10.1298 36.9975 10.1491 37.005 10.1671 37.0024C10.3548 36.9752 10.5445 36.9976 10.7269 36.9564C10.7698 36.9466 10.9761 37.0162 11.0236 37.0031C11.0506 36.9956 11.1456 37.1072 11.1681 37.0867Z" fill="#0B1F2A"/>
<path fill-rule="evenodd" clip-rule="evenodd" d="M11.5574 30.5352C11.6537 30.5217 11.6789 30.6404 11.6479 30.8321C11.638 30.8932 11.5536 31.0538 11.5238 31.0684C11.4652 31.0968 11.4092 31.1239 11.3596 31.1387C11.3353 31.1435 10.9296 31.0821 10.7883 31.0735C10.6486 31.0658 10.5222 31.0275 10.3914 30.9889C10.13 30.9073 9.85965 30.8411 9.59194 30.7682C9.53261 30.7519 9.47506 30.728 9.42022 30.6952C9.23198 30.5828 9.02662 30.5248 8.8164 30.486C8.78167 30.4798 8.7478 30.4658 8.70695 30.4855C8.64059 30.5157 8.07925 30.3793 8.01387 30.3312C7.84863 30.2255 7.67684 30.1432 7.50697 30.0523C7.48274 30.0395 7.45256 30.0427 7.4371 30.0039C7.40108 29.914 7.34225 29.9121 7.28777 29.8919C7.21173 29.8642 7.13699 29.8324 7.06544 29.7882C7.02967 29.766 7.00198 29.7147 6.97185 29.6716C6.94439 29.6326 6.98933 29.5269 7.0043 29.5178C7.04774 29.4915 7.0316 29.4326 7.03942 29.3859C7.04193 29.3701 7.04547 29.3495 7.04973 29.3374C7.05942 29.3116 7.55939 29.2183 7.60919 29.2299C7.61474 29.2306 7.78646 29.2521 7.96913 29.2747C8.15008 29.2962 8.33974 29.3186 8.37957 29.3191C8.4211 29.3194 8.45573 29.3472 8.4919 29.3692C8.50872 29.3785 9.05295 29.4507 9.07384 29.4589C9.18055 29.4965 9.29804 29.4973 9.38767 29.5958C9.40522 29.6149 9.42845 29.6171 9.45064 29.6214C9.64136 29.6624 9.82103 29.7407 10.0034 29.8127C10.0965 29.8492 10.1948 29.8672 10.2905 29.897C10.3078 29.9026 10.3215 29.9182 10.3375 29.9277C10.3577 29.9402 10.3764 29.9563 10.3982 29.962C10.6273 30.0225 10.8414 30.1331 11.0789 30.1797C11.1347 30.1919 11.3546 30.3595 11.42 30.3755C11.4571 30.3835 11.5198 30.5423 11.5574 30.5352Z" fill="#0B1F2A"/>
<path fill-rule="evenodd" clip-rule="evenodd" d="M15.1409 12.1484C15.6719 12.6187 16.2054 13.0761 16.7638 13.5105C17.3234 13.9423 17.91 14.3433 18.5072 14.7252C19.1056 15.1068 19.7169 15.4667 20.3222 15.8335C20.9318 16.1936 21.5503 16.5383 22.1746 16.8603C22.5274 17.053 22.567 17.4268 22.431 17.7055C22.2959 17.9821 21.9631 18.1739 21.5819 17.9817C20.9329 17.6289 20.3037 17.25 19.6899 16.8482C19.0731 16.4514 18.4855 16.0102 17.9137 15.5504C17.3409 15.0918 16.783 14.6136 16.2536 14.1014C15.7244 13.5922 15.211 13.0507 14.8209 12.4125C14.7301 12.2188 14.9626 12.0393 15.1409 12.1484Z" fill="#0B1F2A"/>
<path fill-rule="evenodd" clip-rule="evenodd" d="M28.2649 7.26092C28.2038 7.80532 28.1447 8.35921 28.1526 8.92761C28.1565 9.49341 28.188 10.0639 28.2458 10.6324C28.3588 11.7647 28.5374 12.9124 28.814 13.9768C28.8828 14.2758 28.5511 14.5148 28.1798 14.6197C27.8139 14.7236 27.3872 14.6395 27.3226 14.2804C27.1514 13.0513 27.1205 11.8641 27.1597 10.6626C27.1807 10.0641 27.226 9.46427 27.3157 8.86558C27.4161 8.27248 27.4955 7.65396 27.828 7.09653C27.953 6.9529 28.2385 7.09062 28.2649 7.26092Z" fill="#0B1F2A"/>
<path fill-rule="evenodd" clip-rule="evenodd" d="M35.5848 6.02136C35.5524 6.72827 35.575 7.45163 35.5957 8.17607L35.6612 10.3645C35.6755 11.0986 35.6816 11.8369 35.651 12.5854C35.6162 13.3355 35.5587 14.0915 35.3801 14.884C35.3329 15.1082 35.1618 15.2574 34.9923 15.3145C34.817 15.374 34.6195 15.3507 34.4398 15.2773C34.0799 15.1179 33.7866 14.818 33.8863 14.4768C34.0816 13.861 34.2033 13.1663 34.3008 12.468C34.3963 11.7664 34.4617 11.0491 34.524 10.3289L34.7005 8.15114C34.7656 7.42117 34.8319 6.68816 34.9616 5.94754C35.0076 5.74056 35.5671 5.81988 35.5848 6.02136Z" fill="#0B1F2A"/>
<path fill-rule="evenodd" clip-rule="evenodd" d="M19.0628 41.5391C22.381 45.4033 27.615 47.6585 32.7389 47.3033C34.6072 47.1727 36.4267 46.6441 38.1114 45.8333C41.0886 44.4039 43.6181 42.0308 45.3143 39.1669C47.0144 36.3079 47.8637 32.9152 47.4777 29.5897C47.1367 26.6432 46.0258 23.7457 44.267 21.3852C43.1474 19.862 41.7507 18.5491 40.17 17.5281C38.5954 16.4888 36.8095 15.8139 34.9763 15.3729C33.8366 15.094 34.0096 14.8088 35.0857 14.7172C35.3552 14.6947 35.6818 14.6844 36.0579 14.6903C36.4276 14.7199 36.8404 14.7942 37.2954 14.8788C37.5206 14.9266 37.7623 14.9634 38.0008 15.037C38.2363 15.1173 38.4802 15.2044 38.7305 15.2987C38.981 15.3933 39.2377 15.4945 39.499 15.6027C39.7535 15.7245 40.0011 15.8752 40.2579 16.0218C42.0708 17.0683 43.6643 18.4827 44.9427 20.1274C46.2234 21.7726 47.1995 23.6392 47.8504 25.609C48.4979 27.5791 48.8317 29.6587 48.7559 31.7522C48.6716 33.8425 48.176 35.9055 47.3177 37.7955C46.2813 40.0477 44.8347 42.1635 42.9762 43.8926C41.1509 45.6495 38.9057 46.9953 36.4967 47.7884C35.1652 48.2132 33.7779 48.4323 32.39 48.5203C30.9978 48.5652 29.6082 48.4525 28.2461 48.1923C26.8928 47.8944 25.5638 47.4872 24.3049 46.9115C23.0581 46.318 21.8437 45.6416 20.7562 44.7857C19.4078 43.7497 18.2052 42.5211 17.2171 41.135C16.2259 39.749 15.4645 38.2074 14.952 36.5909C14.5462 35.3692 14.3307 34.0892 14.2301 32.8086C14.172 32.167 14.1883 31.5238 14.1983 30.8814L14.2765 29.9205C14.2987 29.6 14.3655 29.285 14.4075 28.967C14.6174 27.7015 14.961 26.4612 15.4304 25.2727C15.9125 24.0894 16.5128 22.9593 17.2145 21.9002C18.3138 20.2614 19.6374 18.7861 21.1828 17.5809C22.7167 16.3651 24.4519 15.3912 26.3311 14.7757C26.5376 14.7068 26.7429 14.6384 26.9478 14.5701L27.575 14.4081C27.7846 14.3572 27.9928 14.2948 28.2064 14.2544C28.4203 14.2174 28.6355 14.1805 28.8522 14.1429C29.253 14.065 29.6255 14.0381 29.9665 14.011C30.3073 13.9804 30.617 13.9569 30.9006 13.968C31.1839 13.9729 31.4393 13.9777 31.6717 13.982C31.9034 13.9909 32.11 14.0278 32.2965 14.0513C33.0447 14.1441 33.4563 14.3233 33.7708 14.5317C33.9141 14.6273 34.1036 14.7291 34.1783 14.815C34.3051 14.9603 34.0408 15.0392 33.4757 15.053C33.3345 15.0563 33.1743 15.0556 32.996 15.0509C32.8175 15.0546 32.6208 15.0593 32.4064 15.0638C32.1929 15.0645 31.9623 15.0654 31.7159 15.0663C31.4691 15.0793 31.2064 15.0933 30.9286 15.1081C27.6316 15.2723 24.3707 16.5678 21.7251 18.7043C20.3941 19.7635 19.2398 21.0558 18.2735 22.4741C17.7819 23.1798 17.3736 23.9394 16.9873 24.7082C16.6348 25.4933 16.3032 26.2906 16.0702 27.1198C15.7068 28.3448 15.4775 29.6117 15.418 30.8888C15.3622 32.1656 15.4652 33.4479 15.7247 34.6993C15.986 35.9496 16.3887 37.1767 16.9672 38.3248C17.5487 39.4612 18.2175 40.5616 19.0816 41.5142L19.0628 41.5391Z" fill="#0B1F2A"/>
<path fill-rule="evenodd" clip-rule="evenodd" d="M9.03293 15.4466C9.6992 15.9918 10.4077 16.4864 11.1066 16.9878C11.8078 17.4884 12.5362 17.951 13.25 18.4302C14.6866 19.3752 16.154 20.2775 17.6467 21.0989C18.4856 21.5833 17.591 23.157 16.7203 22.612C15.2548 21.6187 13.8586 20.5559 12.5023 19.4424C11.8209 18.8905 11.1721 18.2971 10.5269 17.7028C9.87984 17.1106 9.26711 16.4783 8.66527 15.8393C8.50402 15.6525 8.82712 15.3125 9.03293 15.4466Z" fill="#0B1F2A"/>
<path fill-rule="evenodd" clip-rule="evenodd" d="M12.5483 19.4796C13.4049 19.9487 14.2694 20.4023 15.1431 20.7871C15.5788 20.9814 16.0259 21.1498 16.4884 21.3372C16.9504 21.5261 17.41 21.7373 17.8565 21.9619C18.3626 22.241 17.7998 23.1702 17.332 22.8886C16.9282 22.6327 16.5211 22.392 16.0991 22.1656C15.6767 21.9394 15.2296 21.7129 14.7976 21.4587C14.3625 21.2095 13.9562 20.9205 13.5523 20.6364C13.1467 20.3547 12.762 20.0455 12.3708 19.7492C12.2651 19.6606 12.4196 19.4253 12.5483 19.4796Z" fill="#0B1F2A"/>
<path fill-rule="evenodd" clip-rule="evenodd" d="M28.215 7.38851C28.2098 7.47267 28.1212 7.49326 27.9748 7.49043C27.9281 7.4892 27.8152 7.4335 27.8113 7.40399C27.8031 7.34643 27.7966 7.2874 27.8004 7.23146C27.7924 7.19539 28.0074 6.73631 28.1216 6.6012C28.211 6.4552 28.3352 6.34177 28.4614 6.23123C28.7253 6.02113 29.0051 5.82897 29.3063 5.69427C29.3715 5.66054 29.4412 5.63627 29.5129 5.62188C29.7578 5.56462 29.989 5.48954 30.2216 5.41708C30.2601 5.40478 30.301 5.39788 30.334 5.36809C30.3872 5.30715 31.0358 5.18457 31.1224 5.2021C31.3592 5.21809 31.5463 5.23037 31.7548 5.2446C31.7847 5.24714 31.8155 5.23925 31.8439 5.26172C31.9095 5.31422 31.972 5.30386 32.0355 5.3064C32.1236 5.30889 32.2119 5.31837 32.2995 5.33511C32.343 5.34361 32.3859 5.37123 32.4287 5.39319C32.4671 5.41268 32.4473 5.48509 32.4339 5.49363C32.3955 5.51779 32.4277 5.5513 32.4317 5.58121C32.433 5.59135 32.4345 5.60492 32.4329 5.61298C32.4272 5.62594 31.946 5.79222 31.8961 5.80354C31.8903 5.80464 31.7143 5.83526 31.528 5.86768C31.3446 5.90613 31.156 5.94859 31.1189 5.9639C31.0793 5.977 31.0367 5.97218 30.9951 5.97052C30.9713 5.96147 30.4459 6.12479 30.4283 6.13389C30.3164 6.15321 30.2175 6.20816 30.0961 6.19458C30.0722 6.19173 30.0512 6.20112 30.0304 6.20867C29.8523 6.28058 29.6687 6.33275 29.4936 6.40714C29.4008 6.43977 29.326 6.50192 29.2414 6.54714C29.2267 6.55569 29.2076 6.55781 29.1906 6.56361C29.1692 6.5705 29.1477 6.57739 29.1307 6.59071C28.9498 6.72396 28.7502 6.84152 28.6216 7.02606C28.585 7.06063 28.3905 7.21877 28.3642 7.27581C28.3454 7.30206 28.2156 7.35171 28.215 7.38851Z" fill="#0B1F2A"/>
<path fill-rule="evenodd" clip-rule="evenodd" d="M15.2632 12.4007C15.3427 12.4193 15.3606 12.5079 15.3276 12.6241C15.3174 12.6611 15.2423 12.7418 15.2179 12.744C15.1701 12.7471 15.1247 12.7511 15.0857 12.7491C15.0633 12.7365 14.7699 12.6349 14.6647 12.6585C14.5697 12.65 14.4697 12.6617 14.374 12.6548C14.1722 12.659 13.9612 12.7171 13.7506 12.7829C13.7035 12.8012 13.6547 12.813 13.6037 12.8199C13.4274 12.8392 13.2586 12.9075 13.0993 12.9945C13.0729 13.0088 13.0433 13.0189 13.0254 13.0489C12.9962 13.095 12.5552 13.326 12.4905 13.3481C12.3051 13.404 12.1654 13.4464 12.0057 13.4949C11.9822 13.5011 11.9628 13.5179 11.9324 13.5089C11.8624 13.4883 11.8206 13.518 11.7722 13.5377C11.7059 13.5656 11.6361 13.5882 11.5637 13.6059C11.5283 13.6144 11.485 13.609 11.4452 13.6085C11.4093 13.608 11.3975 13.549 11.4038 13.5376C11.4232 13.5054 11.3868 13.4931 11.3729 13.4732C11.368 13.4665 11.3619 13.4576 11.36 13.4508C11.3579 13.4435 11.4308 13.3627 11.5041 13.2755C11.5781 13.1889 11.6561 13.0975 11.6743 13.0851C11.6764 13.0835 11.7072 13.0588 11.7536 13.0218C11.7989 12.983 11.8628 12.9378 11.9274 12.8897C12.0567 12.7922 12.1963 12.6964 12.2255 12.6763C12.2545 12.654 12.2928 12.6476 12.3284 12.6367C12.342 12.6303 12.7591 12.3603 12.7825 12.3563C12.8793 12.3175 12.9646 12.2522 13.0818 12.2575C13.1046 12.2585 13.1234 12.2477 13.1423 12.2386C13.3058 12.1598 13.488 12.1191 13.673 12.088C13.7671 12.0708 13.8582 12.0419 13.9571 12.031C13.9748 12.0285 13.9931 12.0332 14.0109 12.0338C14.0336 12.0344 14.0565 12.038 14.0782 12.0346C14.3099 12.006 14.5499 12.0337 14.7914 12.0776C14.8192 12.0831 14.8955 12.1178 14.9693 12.1521C15.0402 12.1984 15.109 12.2449 15.1393 12.2562C15.1773 12.2656 15.2358 12.3902 15.2632 12.4007Z" fill="#0B1F2A"/>
<path fill-rule="evenodd" clip-rule="evenodd" d="M21.0346 39.8793C23.8215 43.1227 28.2149 45.0148 32.5164 44.716C34.0846 44.6061 35.6124 44.1626 37.026 43.482C39.5249 42.2813 41.6473 40.2888 43.0703 37.885C44.4961 35.4855 45.2086 32.638 44.8843 29.8471C44.5974 27.3747 43.6659 24.9438 42.1901 22.9625C41.2506 21.684 40.0793 20.5818 38.7525 19.7248C37.431 18.8524 35.9321 18.286 34.3932 17.9171C33.4362 17.6842 33.5813 17.4512 34.4822 17.3808C34.7081 17.3635 34.9815 17.3564 35.2961 17.3626C35.606 17.3888 35.9511 17.452 36.3318 17.5241C36.5205 17.5644 36.7227 17.5962 36.9222 17.658C37.1198 17.7293 37.3234 17.8029 37.533 17.8784C37.7426 17.9579 37.9577 18.043 38.1765 18.1339C38.3894 18.2361 38.5969 18.3621 38.8116 18.4848C41.8682 20.2395 44.0941 23.2225 45.1717 26.5152C45.7147 28.1654 45.9945 29.9082 45.9316 31.6616C45.8616 33.4124 45.4474 35.1409 44.729 36.7248C43.8614 38.6122 42.6493 40.3852 41.0924 41.834C39.5625 43.3067 37.6812 44.4341 35.6627 45.0986C34.5471 45.4549 33.3852 45.6384 32.222 45.7125C31.0557 45.7504 29.8909 45.6559 28.7492 45.4381C27.6151 45.1886 26.5016 44.8474 25.4462 44.3652C24.4015 43.8679 23.3836 43.301 22.4717 42.5838C20.2072 40.8594 18.4505 38.4369 17.607 35.7168C17.2667 34.6931 17.0859 33.6202 17.0016 32.5473C16.918 31.4725 16.9693 30.3877 17.1501 29.3273C17.3257 28.2669 17.614 27.2271 18.0071 26.2308C18.4111 25.2391 18.9143 24.2915 19.5025 23.4043C20.4239 22.0303 21.5337 20.7947 22.8295 19.7846C24.1154 18.7664 25.5701 17.9505 27.1447 17.4351C27.3176 17.3777 27.4898 17.3207 27.6616 17.2637L28.1871 17.1277C28.536 17.0282 28.8927 16.9631 29.2576 16.9063C30.6091 16.7077 31.5206 16.7328 32.1436 16.8279C32.7704 16.9044 33.1158 17.0525 33.3798 17.224C33.5002 17.3027 33.6593 17.3867 33.7226 17.4572C33.829 17.5763 33.6081 17.6404 33.1341 17.65C32.8977 17.6506 32.5966 17.6438 32.237 17.6566C32.0578 17.657 31.8641 17.6576 31.657 17.6578C31.4505 17.6685 31.2297 17.6801 30.9967 17.6919C28.229 17.8277 25.4906 18.9141 23.2687 20.7071C22.1511 21.5963 21.1817 22.6808 20.3704 23.8717C19.5575 25.0631 18.9245 26.3838 18.5204 27.7721C18.215 28.8006 18.0227 29.8649 17.9727 30.937C17.926 32.0093 18.0124 33.0858 18.2306 34.1367C18.6595 36.2432 19.6396 38.2388 21.05 39.8587L21.0346 39.8793Z" fill="#0B1F2A"/>
</svg>
