<svg width="103" height="96" viewBox="0 0 103 96" fill="none" xmlns="http://www.w3.org/2000/svg">
<path fill-rule="evenodd" clip-rule="evenodd" d="M77.4517 14.7586C77.7038 14.3234 78.2606 14.1746 78.6958 14.4267C80.8521 15.6735 76.1415 17.0232 77.4517 14.7586Z" fill="#0B1F2A" stroke="#231F20" stroke-width="0.752981"/>
<path fill-rule="evenodd" clip-rule="evenodd" d="M97.1824 35.2642C97.4338 34.8288 97.9911 34.6809 98.4258 34.9322C100.583 36.1792 95.8713 37.5294 97.1824 35.2642Z" fill="#0B1F2A" stroke="#231F20" stroke-width="0.752981"/>
<path fill-rule="evenodd" clip-rule="evenodd" d="M53.6353 20.7645C53.8874 20.3292 54.4442 20.1804 54.8794 20.4326C57.0357 21.6794 52.325 23.0298 53.6353 20.7645Z" fill="#0B1F2A" stroke="#231F20" stroke-width="0.752981"/>
<path fill-rule="evenodd" clip-rule="evenodd" d="M20.5522 58.2636C20.9244 56.6378 21.2906 55.0075 21.6345 53.3699C21.7607 52.7723 21.8312 52.1651 21.9625 51.5687C22.4246 49.4637 22.9095 47.3601 23.4078 45.2588C23.6229 44.3254 23.8007 43.3797 23.9684 42.4441L24.2922 40.6374C24.4356 40.0422 24.6293 39.4569 24.8603 38.884C25.0095 38.5272 25.3113 38.6501 25.5823 39.0401C25.849 39.4284 26.125 40.0913 26.0573 40.788C25.6327 43.2197 25.156 45.6395 24.5115 48.0636C24.1086 49.5094 23.934 51.0613 23.6457 52.5664L22.6513 57.5319C22.4459 58.5516 22.2203 59.5683 21.9941 60.584C21.6556 62.1233 21.2741 63.6612 20.9528 65.1928C20.7206 66.384 20.4909 67.5612 20.2598 68.7442C20.2074 69.0048 20.1658 69.2618 20.08 69.5164C19.7819 70.4648 19.5837 70.7378 19.1969 70.8527C19.1092 70.8783 19.0187 70.9195 18.9383 70.9266C18.6694 70.951 18.5524 70.5019 18.5953 69.7719C18.737 67.6085 19.1138 65.4069 19.5419 63.1968C19.8624 61.5538 20.1836 59.9041 20.5042 58.2573L20.5522 58.2636Z" fill="#0B1F2A"/>
<path fill-rule="evenodd" clip-rule="evenodd" d="M30.438 75.3243C31.8268 76.1869 33.2439 77.0243 34.6779 77.8347C35.2 78.1328 35.7576 78.3665 36.2793 78.6662C38.1222 79.7257 39.9499 80.8351 41.7946 81.9237C42.6143 82.4002 43.4519 82.8691 44.2806 83.3299C44.8034 83.6553 45.3541 83.9159 45.8614 84.2926C46.1162 84.4758 46.3712 84.6583 46.6099 84.861C46.8413 85.0859 47.0558 85.341 47.2586 85.5896C47.5109 85.909 47.2103 86.086 46.7278 86.1359C46.4871 86.1621 46.2017 86.1604 45.9223 86.1191C45.6543 86.075 45.3112 86.0114 45.0503 85.8315C43.0879 84.6219 40.8715 83.5745 38.7697 82.2891C37.5075 81.521 36.0656 80.9622 34.7212 80.2603C33.2395 79.4962 31.7689 78.6976 30.3047 77.8842L27.6183 76.3443C26.267 75.5536 24.9384 74.7078 23.6139 73.8815C23.1036 73.552 22.5775 73.2544 22.045 72.9647C21.5217 72.6585 21.0032 72.338 20.4827 72.0123C20.2534 71.8697 20.0151 71.7466 19.8058 71.5669C19.0286 70.9039 18.9412 70.5149 19.1872 69.9508C19.2449 69.8195 19.2906 69.6801 19.363 69.5661C19.6056 69.1827 20.1708 69.1594 20.8189 69.4469C21.7242 69.9306 22.639 70.4503 23.5277 71.0136C24.4472 71.5537 25.3503 72.1319 26.2839 72.7015C27.6443 73.5738 29.0396 74.4456 30.4637 75.2723L30.438 75.3243Z" fill="#0B1F2A"/>
<path fill-rule="evenodd" clip-rule="evenodd" d="M63.5881 85.2607C67.8487 85.0071 72.13 84.5512 76.4011 84.0652C77.9601 83.8869 79.511 83.6458 81.0674 83.4553L85.1806 82.9303L85.5018 82.89C85.5514 82.8789 85.6216 82.8895 85.6579 82.8591C85.674 82.8087 85.6938 82.7592 85.7056 82.704L85.8052 82.3451L86.3679 80.3442L88.6176 72.3417C89.2788 69.9732 89.9015 67.5804 90.5117 65.2188C91.2926 62.1826 92.0447 59.1273 92.9597 56.1263C93.2455 55.1913 93.4409 55.3741 93.4765 56.234C93.5092 57.0933 93.4031 58.6361 92.9995 60.3969C91.5495 66.6355 90.0806 72.8659 88.3269 79.0817C88.0626 80.0107 87.8079 80.952 87.5592 81.9008C87.4189 82.445 87.2783 82.9906 87.1366 83.5376C87.0959 83.7499 86.9758 83.877 86.8991 84.0511L86.8342 84.173L86.8302 84.1805L86.8277 84.1846C86.8453 84.2056 86.6701 84.012 86.7431 84.095L86.7311 84.1039L86.7055 84.1212L86.6556 84.157L86.4406 84.3111L86.3263 84.3923L86.1749 84.4227L85.8781 84.4779L85.4249 84.5553C83.464 84.8775 81.4947 85.1954 79.5358 85.4718C75.2285 86.0824 70.9053 86.5897 66.5617 86.9804C63.8851 87.2067 61.2118 87.4182 58.4787 87.3806C58.1593 87.3726 57.839 87.3614 57.5135 87.3359C57.1882 87.3096 56.8939 87.2927 56.3947 87.1928C55.9497 87.1053 55.529 86.9584 55.2284 86.6783C55.0734 86.5449 54.9602 86.3368 54.9548 86.144C54.9307 85.9617 54.9824 85.7279 54.9977 85.5221C55.3193 84.0739 55.641 82.6289 55.9612 81.1867C56.2774 79.82 56.5928 78.457 56.9068 77.0998C57.6086 74.0516 58.2208 71.0441 58.9832 68.0453C59.1514 67.3855 59.2945 66.7338 59.4794 66.0717C60.2204 63.6341 60.612 62.9024 61.1008 62.4724C61.2127 62.3744 61.3326 62.238 61.4249 62.1887C61.7252 62.0201 61.6936 63.0871 61.3963 64.93C61.1874 66.3004 60.9043 67.6677 60.6253 69.0506C60.3383 70.4317 60.0804 71.8341 59.7643 73.2309C59.1532 76.0302 58.5341 78.8678 57.9136 81.7121C57.6509 82.8879 57.3871 84.0657 57.1228 85.2489C57.1255 85.2572 57.1023 85.2643 57.1525 85.2742C57.7833 85.3531 58.4973 85.3784 59.2104 85.3803C60.6439 85.3835 62.1124 85.3105 63.579 85.2123L63.5881 85.2607Z" fill="#0B1F2A"/>
<path fill-rule="evenodd" clip-rule="evenodd" d="M38.5181 44.4713C40.2638 45.5303 42.0288 46.569 43.8141 47.573C44.4667 47.9387 45.1487 48.2433 45.7948 48.6207C48.0774 49.9434 50.3725 51.2521 52.7007 52.4964C53.7265 53.0646 54.7838 53.5829 55.8278 54.092C56.5002 54.4151 57.1751 54.7405 57.8488 55.0647C58.5136 55.4109 59.1587 55.7927 59.7992 56.1982C60.2095 56.4717 60.0452 56.5995 59.5963 56.6377C59.1462 56.671 58.3514 56.6613 57.5242 56.3971C54.6728 55.2899 51.8335 54.1391 49.1637 52.5806C47.5595 51.6665 45.7855 50.9247 44.1032 50.0685C42.2651 49.1066 40.4443 48.1061 38.6329 47.0877L35.3032 45.1787C33.6231 44.2111 31.9781 43.1642 30.3308 42.1547C29.0466 41.3715 27.7339 40.6761 26.5054 39.7535C26.2372 39.541 25.9533 39.3735 25.697 39.1259C24.6963 38.2745 24.7947 37.5177 24.9532 37.1275C24.9968 37.0278 25.0259 36.9202 25.0764 36.8544C25.1613 36.7433 25.3232 36.7678 25.5608 36.8436C25.772 36.9304 26.1661 36.997 26.505 37.204C27.5167 37.8478 28.6387 38.516 29.797 39.1639C30.9431 39.8584 32.1012 40.5611 33.2636 41.2655C35.0156 42.2966 36.7541 43.4011 38.5428 44.4205L38.5181 44.4713Z" fill="#0B1F2A"/>
<path fill-rule="evenodd" clip-rule="evenodd" d="M91.0079 51.7661C87.371 49.2766 83.5964 46.8932 79.8368 44.5287L75.6831 41.9924L68.3859 37.4823L64.7191 35.2594L64.1452 34.9177C63.9086 34.7734 63.6544 34.6382 63.4359 34.4888L63.842 33.0429C64.0384 32.361 64.2186 31.6753 64.3878 30.9872C64.9921 28.5431 65.365 26.0363 65.6423 23.5394C66.006 20.3346 66.2445 17.0658 66.9546 13.8898C67.1691 12.8984 67.438 13.084 67.6109 13.9753C67.7807 14.8666 67.8947 16.4604 67.6686 18.2994C67.2755 21.5585 67.0135 24.8659 66.4174 28.1822C66.1214 29.8362 65.7442 31.4809 65.2934 33.1027L65.118 33.7061C65.1054 33.731 65.0912 33.7594 65.0805 33.7894C65.0535 33.8265 65.1091 33.8299 65.1235 33.8548C65.1451 33.8682 65.1306 33.8642 65.1819 33.8967L65.4494 34.0581L67.5828 35.3646C70.9732 37.4681 74.5825 39.5196 78.0715 41.6348C81.9053 43.9653 85.7237 46.3224 89.5051 48.7537C90.4152 49.3419 91.3154 49.9294 92.2217 50.5477C92.8211 50.9739 93.6468 51.4819 93.9742 51.9596C94.1275 52.1815 94.3073 52.4364 94.0929 52.6416L93.4294 53.1638C92.631 53.5154 91.6763 53.8075 91.198 53.9611C87.128 55.1502 82.9797 55.8765 78.8783 56.5866C75.689 57.1277 72.5672 57.6942 69.3787 58.1026C68.6774 58.1945 67.9908 58.296 67.2742 58.3535C64.6237 58.5563 63.7079 58.3931 63.1577 57.7881C63.0393 57.6538 62.8914 57.5166 62.8449 57.3917C62.7389 56.959 63.6454 56.8243 65.5252 56.611C68.2991 56.3135 71.1841 55.9084 74.0958 55.4809C77.0101 55.0486 79.9639 54.5821 82.9018 54.0362C83.7048 53.8879 84.5084 53.7374 85.3047 53.5676C86.1068 53.4098 86.9031 53.2369 87.6928 53.0485C88.4911 52.8768 89.2666 52.6628 90.0486 52.458C90.4448 52.3629 90.8139 52.2309 91.1955 52.1155L91.2685 52.0935C91.2735 52.0916 91.2814 52.0911 91.2814 52.0911C91.2911 52.0925 91.2952 52.088 91.3026 52.0859C91.3355 52.0841 91.3683 52.0722 91.335 52.0523L91.3069 52.0266C91.3069 52.0266 91.3012 52.0176 90.989 51.8051L91.0079 51.7661Z" fill="#0B1F2A"/>
<path fill-rule="evenodd" clip-rule="evenodd" d="M30.8252 37.5435C29.904 37.6308 28.9832 37.7198 28.0327 37.7765L27.6725 37.7948L27.201 37.8101C26.7804 37.8193 26.3547 37.8095 25.9936 37.7202C25.6357 37.6201 25.3542 37.4795 25.1475 37.1799C25.0433 37.0511 25.0878 36.8627 25.0585 36.7031L25.022 36.2059C25.3835 34.7082 25.5374 34.1147 25.7656 33.2422L26.4683 30.3797C27.3501 27.0366 28.1838 23.6911 28.7483 20.2896C29.0053 18.7827 29.1854 17.2545 29.328 15.7447C29.4898 13.8014 29.5666 11.8488 29.7432 9.90192C29.805 9.2951 30.0634 9.37794 30.3203 9.90066C30.5676 10.4219 30.8625 11.3912 30.8339 12.5331C30.8085 14.5554 30.6839 16.579 30.4541 18.5932C30.2115 20.6061 29.8407 22.6053 29.3834 24.5878C28.8289 26.9559 28.3597 29.4377 27.7852 31.8429L26.831 35.7472L26.7803 35.9325C26.7433 35.9967 26.7759 36.0706 26.8446 36.0808C26.9626 36.1185 27.0905 36.1199 27.2209 36.1241C27.2789 36.1304 27.6585 36.1119 27.9521 36.0908L28.8744 36.0153C30.5238 35.8607 32.1902 35.6683 33.8529 35.489C36.3751 35.212 38.9204 34.9991 41.4393 34.8111C43.396 34.6563 45.321 34.4718 47.276 34.4533C47.7066 34.448 48.1284 34.4306 48.5625 34.4439C49.3695 34.444 49.8935 34.6152 50.2588 34.7201C50.6233 34.8457 50.8272 34.9879 50.9827 35.1763C51.0543 35.2621 51.1494 35.3464 51.1882 35.4232C51.3178 35.6782 50.6538 35.8466 49.4982 36.0071C47.7889 36.1674 46.0485 36.2333 44.2802 36.3916C42.5123 36.4937 40.7162 36.6179 38.9139 36.7724C36.2357 36.999 33.5451 37.2831 30.8334 37.5855L30.8252 37.5435Z" fill="#0B1F2A"/>
<path fill-rule="evenodd" clip-rule="evenodd" d="M39.9678 8.29464C41.2474 8.34924 42.5298 8.39831 43.8139 8.42304C44.2824 8.43099 44.7503 8.39091 45.2185 8.40343C46.8737 8.46024 48.5322 8.51626 50.186 8.57274C50.9221 8.59227 51.6606 8.56445 52.3918 8.545C53.3293 8.49769 54.2783 8.47461 55.223 8.65675C55.5167 8.71365 55.4636 8.98035 55.2085 9.25583C54.951 9.53154 54.5074 9.82429 53.9741 9.88034C52.0902 10.034 50.185 10.0576 48.2564 9.96323C47.1023 9.90017 45.9061 10.0252 44.7254 10.0248C43.4273 10.0309 42.1268 10.0171 40.8264 9.9925L38.4248 9.94084C37.2125 9.91626 35.9941 9.84704 34.7872 9.83604C33.849 9.8083 32.9236 9.87692 31.9842 9.85431C31.7772 9.85114 31.5733 9.87494 31.3673 9.82334C30.6039 9.66244 30.3771 9.49875 30.2634 9.12995C30.237 9.04592 30.1996 8.9625 30.1898 8.88379C30.1544 8.62241 30.4933 8.42628 31.0507 8.32241C31.879 8.12741 32.7046 8.1511 33.5494 8.11431C34.3936 8.08666 35.249 8.1017 36.1095 8.1349C37.3911 8.17375 38.6805 8.2128 39.966 8.25175L39.9678 8.29464Z" fill="#0B1F2A"/>
<path fill-rule="evenodd" clip-rule="evenodd" d="M20.3014 63.3606C19.8236 63.366 8.88118 59.9534 3.24606 63.7497C-2.96731 67.9348 29.4565 80.39 45.5455 84.8191L19.2876 69.6238L20.3014 63.3606Z" fill="#0B1F2A"/>
<path fill-rule="evenodd" clip-rule="evenodd" d="M81.8013 37.8862C80.8468 39.0649 79.9192 40.2745 79.0376 41.5201C78.7081 41.9693 78.4412 42.4591 78.1245 42.9168C76.9965 44.5247 75.9045 46.1641 74.8733 47.842C74.4246 48.5907 74.0194 49.3688 73.6545 50.1498C73.1908 51.1438 72.7696 52.2124 72.3281 53.1088C72.1913 53.3804 71.8435 53.3204 71.5812 52.9401C71.4545 52.7606 71.3363 52.4456 71.3099 52.1585C71.2789 51.8641 71.3049 51.5333 71.4219 51.2094C72.3058 49.016 73.4021 46.9814 74.7201 45.0515C75.5227 43.9092 76.1991 42.6292 76.9789 41.4377C77.8409 40.1328 78.7469 38.855 79.6832 37.6003C80.2546 36.8247 80.8689 36.0781 81.4534 35.3132L82.8594 33.6273C83.3491 33.0817 83.8405 32.5388 84.3076 31.9803C85.0858 31.1514 85.7526 30.2422 86.5949 29.4403C86.7777 29.2619 86.9349 29.0668 87.1463 28.9119C87.9451 28.3487 88.2853 28.2926 88.715 28.63C88.8134 28.7065 88.9212 28.7759 89.0015 28.8637C89.2694 29.1626 89.1414 29.6563 88.7144 30.1096C87.4817 31.5029 86.0667 32.8516 84.751 34.4091C83.7588 35.536 82.7732 36.7022 81.8409 37.9122L81.8013 37.8862Z" fill="#0B1F2A"/>
<path fill-rule="evenodd" clip-rule="evenodd" d="M91.6099 26.3724C91.6143 26.3363 91.6056 26.3035 91.5806 26.2707C91.567 26.256 91.5503 26.2445 91.5309 26.2347C91.5185 26.2249 91.4816 26.2173 91.3655 26.2148C90.9114 26.2217 90.3884 26.3002 89.8968 26.4175C89.5308 26.5016 89.1843 26.6698 88.8182 26.7887C87.5239 27.2288 86.2305 27.8615 84.9482 28.547C84.3792 28.8443 83.8049 29.1853 83.2575 29.51C82.5541 29.9358 81.9281 30.3955 81.2414 30.7618C81.0299 30.8765 80.8129 30.6155 80.7553 30.2077C80.6956 29.8056 80.8238 29.2363 81.2336 28.9189C81.9569 28.3616 82.6909 27.9266 83.3809 27.5016C84.0817 27.0597 84.8548 26.6868 85.6547 26.3386C86.6143 25.9341 87.5424 25.3417 88.5843 24.9621C89.1554 24.7572 89.7509 24.5909 90.3656 24.4862C90.6761 24.4319 90.9635 24.3908 91.3197 24.3763C91.7052 24.3522 92.2082 24.4221 92.572 24.6455C93.0405 24.9215 93.3263 25.4392 93.455 25.9149C93.5749 26.3987 93.543 26.8131 93.5053 27.2053C93.4391 27.7972 93.2923 28.3329 93.1608 28.8521C93.0951 29.1097 93.0303 29.3637 92.9857 29.5999C92.9407 29.8445 92.8979 30.1205 92.8623 30.375C92.7509 31.1821 92.7807 31.9797 92.8522 32.7228C92.8666 32.8867 92.9081 33.0436 92.9213 33.2027C92.9927 33.7835 92.839 33.9601 92.3095 34.1854C92.1877 34.2356 92.0682 34.2987 91.946 34.3404C91.5406 34.4858 91.1115 34.2575 90.916 33.7024C90.6762 32.884 90.6512 32.0318 90.7156 31.2309C90.7485 30.8291 90.8026 30.436 90.8656 30.0542L90.9635 29.4895C90.9918 29.3246 91.0475 29.05 91.0943 28.8614C91.24 28.2698 91.392 27.7654 91.4898 27.2957C91.5978 26.8392 91.5831 26.4188 91.5677 26.3952L91.6099 26.3724Z" fill="#0B1F2A"/>
<path fill-rule="evenodd" clip-rule="evenodd" d="M59.6423 41.0156C59.6962 42.0226 59.7137 43.0298 59.7248 44.0348C59.7286 44.401 59.7675 44.7659 59.7603 45.1326C59.7272 46.4264 59.6147 47.716 59.4641 48.9969C59.3961 49.566 59.3606 50.1387 59.3147 50.7059C59.2496 51.4317 59.2311 52.1804 58.9239 52.8773C58.8327 53.0944 58.5326 52.9881 58.2629 52.7382C57.995 52.4872 57.7485 52.1081 57.7834 51.7145C57.93 50.3192 58.0019 48.896 58.1914 47.4517C58.3085 46.5857 58.2216 45.6793 58.194 44.791C58.1745 43.8127 58.131 42.8312 58.0625 41.851C58.0209 41.2476 57.9623 40.6442 57.8971 40.0424C57.7824 39.1328 57.6751 38.2148 57.4698 37.3262C57.3073 36.6365 57.0358 35.9846 56.7943 35.3264C56.7385 35.1816 56.6769 35.0417 56.6353 34.8924C56.4849 34.3392 56.5615 34.1319 56.9776 33.8954C57.0726 33.8414 57.1641 33.7788 57.2618 33.7362C57.5896 33.5924 57.9332 33.7487 58.153 34.1394C58.4929 34.715 58.7297 35.3397 58.9036 35.9895C59.0947 36.6354 59.2175 37.306 59.3337 37.9789C59.4985 38.9803 59.5951 39.9963 59.6833 41.0088L59.6423 41.0156Z" fill="#0B1F2A"/>
<path fill-rule="evenodd" clip-rule="evenodd" d="M55.3237 29.1038C55.6181 28.5338 55.9948 28.1045 56.4329 27.8461C56.6225 27.7495 56.8217 27.6783 57.0447 27.6658C57.2753 27.6535 57.4831 27.7179 57.6594 27.8152C58.0158 28.003 58.3385 28.3731 58.5877 28.8416C58.7232 29.0941 58.8861 29.3992 58.9883 29.6148C59.0682 29.7759 59.1436 29.9368 59.2049 30.1013C59.633 31.2624 59.9839 32.4027 60.4522 33.4926C60.6526 33.9785 60.9016 34.4415 61.1767 34.871C61.5392 35.4217 61.9562 35.9029 62.3044 36.4287C62.4105 36.5934 62.2081 36.8137 61.8649 36.91C61.5214 37.0109 61.0247 36.954 60.7196 36.6289C59.6807 35.4707 59.0127 34.1561 58.6133 32.7745C58.3656 31.9535 57.9526 31.1736 57.6148 30.4162L57.5551 30.2852C57.5398 30.2539 57.5428 30.2476 57.534 30.2286L57.4955 30.1264C57.4672 30.0574 57.437 29.9833 57.396 29.9091C57.3552 29.8372 57.3084 29.7547 57.2319 29.7072C57.15 29.6568 57.0698 29.7104 57.0085 29.7559C56.9634 29.7873 56.923 29.8291 56.8864 29.8748C56.8096 29.9708 56.7441 30.0856 56.6846 30.2142C56.6115 30.379 56.512 30.7038 56.4401 30.9585C56.3217 31.3694 56.2123 31.8117 56.0432 32.2659C55.8925 32.6764 55.7483 33.0953 55.6136 33.5203C55.403 34.1797 55.2765 34.8737 55.0171 35.5645C54.9616 35.7163 54.9156 35.8742 54.8409 36.0224C54.5642 36.5788 54.2767 36.6406 53.8217 36.4381C53.7151 36.3906 53.6056 36.3494 53.5083 36.2917C53.1815 36.089 53.0656 35.7297 53.143 35.3666C53.4412 34.3295 53.8034 33.259 54.2372 32.0573L54.4646 31.4427L54.6633 30.8083L54.8889 30.0929L55.0248 29.7138C55.0996 29.4937 55.2023 29.2908 55.2872 29.0808L55.3237 29.1038Z" fill="#0B1F2A"/>
<path fill-rule="evenodd" clip-rule="evenodd" d="M40.3637 37.8074C39.2171 37.8364 38.0702 37.8808 36.9236 37.9337L35.6701 38.0156C34.1943 38.0761 32.7162 38.1369 31.2396 38.2282C30.5829 38.2801 29.9278 38.3315 29.2764 38.3838C28.4335 38.4465 27.6185 38.5797 26.7189 38.4503C26.4249 38.3949 26.5242 38.2407 26.7502 38.086C26.9634 37.94 27.3448 37.7373 27.8138 37.682C28.6569 37.5815 29.4969 37.4811 30.3433 37.3798C31.1937 37.2979 32.0505 37.2492 32.9133 37.2211C33.9459 37.1908 35.0102 37.038 36.0626 36.9575C37.219 36.865 38.3802 36.8123 39.5398 36.7562L41.6821 36.6653C42.7631 36.6151 43.8504 36.602 44.9229 36.5352C45.7566 36.4928 46.5727 36.3823 47.398 36.3426C47.5803 36.3324 47.7578 36.3126 47.9417 36.309C48.6219 36.3196 48.8403 36.4628 48.9877 36.6664C49.0213 36.7157 49.0654 36.7628 49.085 36.809C49.1508 36.9607 48.8763 37.1144 48.3839 37.2655C47.6526 37.4347 46.9021 37.4915 46.1411 37.5844C45.3789 37.6347 44.6062 37.667 43.8306 37.7018C42.6791 37.7459 41.5221 37.7903 40.3666 37.8351L40.3637 37.8074Z" fill="#0B1F2A"/>
<path fill-rule="evenodd" clip-rule="evenodd" d="M77.11 56.4846C78.4799 56.3907 79.8496 56.2836 81.2145 56.1367L82.7022 55.9391C84.4563 55.7451 86.207 55.5155 87.9371 55.1893C88.7057 55.0464 89.4632 54.8437 90.2025 54.6261C91.142 54.3228 92.0655 53.9641 92.9523 53.628C93.2366 53.5329 93.3296 53.738 93.2063 54.069C93.1438 54.2347 93.0265 54.4342 92.852 54.6369C92.675 54.8344 92.4371 54.9802 92.1578 55.1042C90.1681 55.9018 88.1353 56.3088 86.068 56.5859C84.8306 56.7355 83.568 57.013 82.3104 57.1905C80.9283 57.3821 79.5425 57.5427 78.1559 57.683L75.5953 57.9257C74.3022 58.0387 73.0043 58.1521 71.7207 58.2642C70.7247 58.3715 69.753 58.5416 68.7687 58.6856C68.5523 58.7166 68.34 58.757 68.1209 58.7797C67.3076 58.8514 67.0424 58.7647 66.8472 58.3742C66.8033 58.2855 66.7455 58.1966 66.7183 58.1062C66.6248 57.8015 66.9424 57.5263 67.5283 57.4019C69.267 57.0453 71.11 56.9048 72.9639 56.7643C74.3407 56.6604 75.7244 56.5564 77.1044 56.4517L77.11 56.4846Z" fill="#0B1F2A"/>
<path fill-rule="evenodd" clip-rule="evenodd" d="M39.6018 9.31518C40.6118 9.35622 41.6241 9.38772 42.6375 9.40403C43.0084 9.39976 43.3746 9.39596 43.7455 9.3917C45.049 9.42242 46.357 9.45414 47.6591 9.48453C48.2385 9.49071 48.8202 9.46963 49.3942 9.44524C50.132 9.40337 50.8725 9.37368 51.6133 9.45066C51.8436 9.47691 51.8172 9.64697 51.6271 9.83068C51.4374 10.0122 51.0848 10.2206 50.6619 10.2633C49.1599 10.402 47.6536 10.427 46.1309 10.3749C45.2201 10.3387 44.2751 10.4191 43.3435 10.4199C42.3201 10.4237 41.2951 10.4109 40.27 10.395L38.3782 10.353C37.4219 10.3266 36.4626 10.3002 35.5142 10.2732C34.776 10.2555 34.0491 10.2937 33.3152 10.2809C33.1535 10.2788 32.9942 10.2934 32.833 10.2621C32.2336 10.1641 32.0501 10.0612 31.9449 9.82794C31.9201 9.77439 31.8872 9.7221 31.8754 9.6723C31.8352 9.50637 32.0927 9.37971 32.5329 9.31171C33.188 9.18224 33.8453 9.20232 34.517 9.17936C35.1875 9.16538 35.8681 9.17457 36.5484 9.20221C37.5628 9.23111 38.5834 9.25988 39.6003 9.28781L39.6018 9.31518Z" fill="#0B1F2A"/>
</svg>
