<svg width="111" height="115" viewBox="0 0 111 115" fill="none" xmlns="http://www.w3.org/2000/svg">
<path fill-rule="evenodd" clip-rule="evenodd" d="M25.2697 99.9948C25.0124 99.7121 24.7536 99.4261 24.5 99.1468C24.4084 99.0475 24.2707 99.0101 24.1879 98.9021C23.888 98.5241 23.6321 98.1087 23.3464 97.7383C23.2195 97.5739 23.0459 97.4667 22.8635 97.3739C22.6287 97.2538 22.3054 97.2343 22.2924 96.8454C22.2882 96.6049 24.1375 94.7994 24.3508 94.9451C24.7495 95.2228 25.0541 95.6142 25.2175 96.2076C25.3173 96.5639 25.6343 96.6569 25.8443 96.8791C26.0712 97.1233 26.3025 97.3737 26.5329 97.62C26.676 97.7732 26.8189 97.9133 26.9746 98.046C27.209 98.2338 27.4344 98.4537 27.7061 98.5366C27.9047 98.5912 28.1906 98.5128 28.3237 98.4102C28.3576 98.3911 28.3918 98.3486 28.4185 98.3451C28.4444 98.2894 28.3994 98.4799 28.5043 99.1922L28.5796 99.6766C28.676 100.221 28.6076 100.685 28.2752 100.836C27.371 101.228 26.7289 100.984 26.223 100.742C25.8518 100.548 25.5388 100.287 25.2353 100.051L25.2697 99.9948Z" fill="#0B1F2A"/>
<path fill-rule="evenodd" clip-rule="evenodd" d="M23.0783 42.6373C21.4691 47.6312 20.1051 52.7034 19.1299 57.8375C18.6336 60.4033 18.2794 62.988 18.003 65.5758C17.7763 68.1647 17.6501 70.7598 17.7237 73.3425C17.8292 77.1096 18.447 80.8383 19.6268 84.3281C20.6606 87.4051 22.249 90.2785 24.437 92.6312C26.6011 94.9905 29.3407 96.7381 32.4619 97.3863C35.581 98.0263 38.9033 97.5996 42.0547 96.6571C45.2214 95.7086 48.2438 94.2101 51.1221 92.4853C56.2439 89.4163 60.8902 85.4917 65.1917 81.3797C70.6721 76.0487 75.7002 70.1212 80.1615 64.0358C80.8732 63.1113 81.1201 62.7477 81.2731 62.8119C81.4061 62.878 81.3902 63.4907 81.1136 64.5452C80.8293 65.5775 80.2945 67.0063 79.398 68.5551C78.5057 70.1029 77.3258 71.8276 75.8803 73.5553C70.7185 79.6402 65.0381 85.285 58.6524 90.168C55.4547 92.5954 52.0661 94.8252 48.3902 96.6028C44.7206 98.3432 40.7611 99.7985 36.516 99.988C33.9924 100.138 31.3679 99.7086 28.9512 98.7422C27.7133 98.3053 26.6173 97.5789 25.5094 96.8911C24.4949 96.0774 23.4535 95.279 22.6126 94.3078C21.6766 93.4155 20.9622 92.3353 20.1775 91.3163C19.5191 90.2153 18.8044 89.1395 18.3034 87.9612C17.708 86.8224 17.3288 85.606 16.8832 84.4159C16.5583 83.1951 16.1572 81.9876 15.9595 80.7486C15.3931 78.0441 15.182 75.2989 15.1372 72.5733C15.0716 69.8433 15.2561 67.1279 15.5349 64.4326C16.112 59.041 17.227 53.7474 18.614 48.5474C20.3352 42.1452 22.5268 35.89 25.0032 29.7691L25.5722 28.3764L25.7954 27.8389C25.8293 27.7201 25.9319 27.5906 25.9003 27.4775L25.6419 27.118L25.1727 26.4572C24.8517 26.0102 24.5228 25.5723 24.1854 25.1445C23.5013 24.2984 22.7977 23.4709 22.0143 22.747C21.23 22.0378 20.406 21.3535 19.4899 20.9176C18.5898 20.4611 17.6206 20.158 16.6658 20.2436C14.7383 20.256 12.982 21.7139 11.6275 23.2698C10.27 24.8825 9.27916 26.8272 8.54778 28.8555C7.30845 32.3817 6.71141 36.1132 6.54134 39.8325C6.35497 43.5537 6.57973 47.2905 7.17592 50.951C7.45666 52.5584 7.79885 54.119 8.26249 55.6766C9.11875 58.5665 10.0101 60.2871 10.6792 61.3994C11.3699 62.505 11.8101 63.0484 12.1954 63.6508C12.37 63.9193 12.7048 64.1615 12.8388 64.3794C12.954 64.5553 12.8918 64.6627 12.6196 64.692C12.3532 64.7155 11.8429 64.7047 11.2449 64.4118C10.0044 63.8948 8.48021 62.4003 7.40816 60.2141C5.76586 56.9784 4.94982 53.4801 4.3984 49.942C3.89406 46.394 3.73232 42.7707 3.95291 39.122C4.187 35.4781 4.75541 31.7878 6.01623 28.1938C6.66005 26.4027 7.46955 24.6319 8.57825 22.9738C9.69083 21.3227 11.108 19.7735 12.9924 18.6775C14.4303 17.7844 16.3717 17.3984 18.1127 17.6987C19.8708 17.9882 21.3545 18.8168 22.5903 19.7458C23.8124 20.6993 24.8493 21.7716 25.7763 22.8951C26.2449 23.4535 26.6762 24.0325 27.0907 24.6082L27.6969 25.4687L28.8171 26.9952C28.6482 27.5858 28.49 28.1935 28.2449 28.7938L27.8305 29.8051L27.0979 31.617C26.6189 32.8279 26.1447 34.0406 25.6931 35.2625C24.7847 37.7029 23.9332 40.1653 23.1449 42.6453L23.0783 42.6373Z" fill="#0B1F2A"/>
<path fill-rule="evenodd" clip-rule="evenodd" d="M80.4203 88.0924C83.2812 86.6088 86.0073 84.8472 88.4487 82.7884C89.3285 82.0241 90.1279 81.1825 90.9128 80.3473C92.3043 78.8785 93.5128 77.2544 94.3437 75.4757C94.7771 74.5885 95.0207 73.6474 95.1928 72.693C95.2045 72.2349 95.2673 71.7622 95.2082 71.3124C95.1119 70.8737 95.0756 70.4097 94.8502 70.0116C94.579 69.2493 93.9753 68.6398 93.3593 68.0734C92.6707 67.5644 91.9239 67.1103 91.0966 66.7861C90.0539 66.3385 88.9183 66.0661 87.7795 65.82C87.2115 65.6907 86.6328 65.5866 86.0542 65.4672C85.4717 65.3502 84.8946 65.2588 84.3061 64.981C83.5233 64.513 83.7661 64.3766 84.4555 63.9143C85.157 63.388 86.4318 62.9765 87.8817 63.2699C89.1586 63.522 90.4411 63.8841 91.7028 64.3988C92.9607 64.9007 94.2139 65.627 95.2917 66.6668C95.8486 67.1574 96.2928 67.8169 96.6952 68.472C96.8596 68.828 97.0164 69.1888 97.1652 69.5493C97.3025 69.9134 97.3423 70.3046 97.4245 70.6819C97.4564 70.8713 97.5016 71.0619 97.5165 71.2503L97.5108 71.8118C97.5043 72.1828 97.5171 72.5646 97.4798 72.9227C97.3523 73.6124 97.2639 74.3168 97.0176 74.9632C96.5187 76.5382 95.8113 78.0385 94.9076 79.3883C94.0221 80.7503 93.0068 82.0179 91.877 83.1298C89.4061 85.5972 86.5591 87.5604 83.6229 89.2956C81.8123 90.3628 79.9268 91.2882 78.0187 92.147C75.1358 93.4729 72.1028 94.4749 69.0444 95.2751C66.662 95.8744 64.2674 96.4017 61.6857 96.3435C61.111 96.2769 60.5491 96.3026 59.9569 96.1363C59.4124 96.032 58.9629 95.8509 58.5984 95.6667C58.2294 95.515 57.9636 95.2692 57.7636 95.0767C57.3505 94.7057 57.2866 94.2658 57.3539 93.8873C57.3871 93.7084 57.4071 93.5166 57.485 93.3814C57.6162 93.1534 57.9135 93.1101 58.25 93.1635C58.5725 93.2341 59.0013 93.3532 59.5508 93.5051C60.3586 93.7482 61.3163 93.7864 62.2844 93.7558C63.2516 93.7459 64.2692 93.5863 65.2833 93.4268C67.3179 93.0685 69.4006 92.5204 71.4552 91.8496C72.9843 91.3499 74.4866 90.7505 76.0015 90.1647C77.4845 89.5067 78.9665 88.8292 80.3851 88.0368L80.4203 88.0924Z" fill="#0B1F2A"/>
<path fill-rule="evenodd" clip-rule="evenodd" d="M28.2514 99.6747L28.3561 99.5781C28.3733 99.55 28.4957 99.463 28.4171 99.4783C28.3891 99.4705 28.3562 99.461 28.3211 99.4418L28.2656 99.4137C28.2256 99.3928 28.2977 99.4205 28.0821 99.3285C27.4739 99.0599 26.9215 98.7537 26.3817 98.4366C25.3104 97.7981 24.3105 97.1024 23.334 96.3799L22.9251 96.0748L22.7371 96.4264L22.1393 97.6936L21.525 99.0914C21.1296 100.033 20.7311 100.975 20.3556 101.93C19.5921 103.835 18.8667 105.761 18.1608 107.696C17.5341 109.413 16.9737 111.167 16.4287 112.901C15.7093 115.135 15.1738 117.388 14.0027 119.572C13.5076 120.357 13.1762 119.812 12.9498 119.087C12.7025 118.33 12.604 117.153 13.0296 115.884C14.5426 111.408 16.0867 106.871 17.995 102.427C18.5667 101.097 19.1005 99.7212 19.6496 98.3363C19.9405 97.6457 20.1979 96.9486 20.5126 96.2595L20.7412 95.7418L20.8878 95.4118L21.0828 94.9989L21.9045 93.3598C21.9926 93.1945 22.0757 92.9992 22.1679 92.8599L23.6571 94.0399L24.8618 94.9393C25.4521 95.3636 26.0474 95.7837 26.6573 96.1683C27.2647 96.5514 27.8812 96.9272 28.5072 97.2279C28.6626 97.3111 28.8191 97.3811 28.974 97.4441C29.2094 97.5364 29.4778 97.6783 29.8437 97.6933C30.2015 97.7292 30.5071 97.7872 30.9018 97.8069C31.271 97.8241 31.7194 97.8614 32.0169 97.8617L31.9984 98.0109C31.9833 98.0662 32.0173 98.0892 31.9246 98.1967C30.5192 100.124 29.1128 102.052 27.7076 103.977C25.9381 106.415 24.1345 108.847 22.4307 111.304C21.1049 113.214 19.9084 115.159 18.658 117.089C18.3816 117.515 18.1288 117.942 17.8423 118.364C16.778 119.929 16.3127 120.337 15.6128 120.339C15.4535 120.339 15.2776 120.364 15.1398 120.332C14.6763 120.226 14.8251 119.386 15.5203 118.182C17.5815 114.608 20.0408 111.039 22.5529 107.488C24.4334 104.88 26.3225 102.26 28.2067 99.6462L28.2514 99.6747Z" fill="#0B1F2A"/>
<path fill-rule="evenodd" clip-rule="evenodd" d="M2.36853 121.133C2.91748 122.086 -7.66235 115.112 -5.15803 114.72C-0.118159 113.932 4.16608 117.982 4.55516 117.557C4.55516 117.557 2.44741 119.714 2.36853 121.133Z" fill="#0B1F2A"/>
<path fill-rule="evenodd" clip-rule="evenodd" d="M49.0117 55.5028C49.349 55.0527 49.9869 54.9832 50.6603 55.3809C50.8657 55.5205 50.894 56.1298 50.9191 56.2095C50.8398 56.4178 50.694 56.6908 50.5345 56.9344C50.4465 57.0305 48.3661 59.0299 47.514 59.7526C47.3339 59.9073 47.145 60.0591 46.9357 60.2078L46.7636 60.3264C46.6696 60.3861 46.5782 60.4416 46.4864 60.4921C46.3008 60.5944 46.1148 60.6974 45.9207 60.7733C45.5344 60.9392 45.132 61.0261 44.7252 61.0071C44.3091 60.9918 43.9618 60.8064 43.5977 60.5967L43.1539 60.2797C42.7726 60.0196 42.4642 59.8263 42.1056 59.6095L41.5793 59.3029L41.3556 59.1779C41.35 59.1756 41.3481 59.1768 41.3481 59.1768C41.3362 59.1789 41.3355 59.1878 41.3385 59.1944L41.3417 59.1987C41.3417 59.1987 41.3019 59.1603 41.2347 59.1379C41.1779 59.1196 41.1442 59.1365 41.1283 59.1701C41.1206 59.1865 41.1161 59.2073 41.1159 59.2306L41.1174 59.2666C41.1217 59.2845 41.1095 59.2641 41.1538 59.3757C41.4086 60.0307 41.718 60.6805 42.0553 61.2829C42.1561 61.4746 42.2783 61.6888 42.4019 61.8874C42.5561 62.0837 42.7269 62.276 42.8434 62.4785C42.8937 62.5573 42.9585 62.7446 42.9815 62.9638C43.0113 63.1203 42.9847 63.4897 42.8328 63.8129C42.6867 64.1573 42.3643 64.5216 41.997 64.8866C41.8168 65.0683 41.6082 65.256 41.439 65.414L41.1141 65.7076C40.2432 66.4785 39.3581 67.188 39.1378 67.3299C38.8663 67.5074 38.5992 67.6816 38.334 67.8547L37.9692 68.1063C37.9154 68.1426 37.8615 68.1847 37.8504 68.1837C37.8398 68.1702 37.8795 68.205 37.8261 68.1525L37.6418 67.9823C37.5172 67.8698 37.3891 67.7611 37.2584 67.6565C37.0941 67.5362 37.1039 67.4952 37.0038 67.427C36.9293 67.3686 36.832 67.3208 36.7557 67.2883C36.7326 67.2284 36.6863 67.3079 36.7259 67.2067C36.7291 67.1747 36.7197 67.142 36.7028 67.1141C36.6937 67.1003 36.6832 67.0868 36.6702 67.0754C36.4985 66.5473 37.0497 68.251 36.2834 65.8907L36.2856 65.8909L36.2878 65.8911L36.2939 65.8889L36.3889 65.8696C36.9178 65.7617 37.2088 65.7708 37.5776 65.7466L38.5975 65.729C38.7877 65.7304 38.9859 65.6746 39.1679 65.766C39.5872 65.9755 39.9851 65.8999 40.3915 65.887C40.9545 65.869 41.5174 65.8686 42.0804 65.9139C42.3594 65.9368 42.6407 66.0596 42.9193 66.156C43.1736 66.2424 43.0593 66.6191 42.9756 66.664C42.7323 66.7954 42.9452 66.9572 42.978 67.1085C42.9889 67.1597 43.003 67.2269 42.9935 67.2692C42.968 67.3532 39.8428 68.2204 39.5133 68.2627C39.4929 68.2655 39.1948 68.3083 38.7509 68.3709C38.331 68.4366 37.6847 68.5372 37.2678 68.6574L37.2237 68.6738L37.2007 68.6808L37.1947 68.683L37.169 68.6099L37.1526 68.5658L37.1451 68.5437C37.0958 68.3999 37.2083 68.7124 37.173 68.6897C36.8963 68.7819 36.5159 68.7849 36.2217 68.6812C36.123 68.6396 36.1467 68.6717 35.9171 68.5372C35.7351 68.4247 35.4871 68.2016 35.3441 67.868C35.0132 67.1957 35.4469 66.4517 35.3666 66.6195C35.4029 66.5467 35.445 66.474 35.4904 66.4056C35.6163 66.2283 35.6084 66.2528 35.6462 66.2044L35.7913 66.0457C35.9216 65.9168 36.0507 65.7882 36.1767 65.6625C36.4023 65.4488 36.6191 65.2438 36.812 65.0605C37.1847 64.7059 37.4695 64.4357 37.5682 64.3414C37.7624 64.1425 38.0109 64.0084 38.2419 63.8567C38.2695 63.8384 38.4576 63.665 38.7186 63.4144C38.8469 63.2889 38.9948 63.1448 39.1525 62.9904C39.2616 62.8848 39.2264 62.9079 39.2427 62.885C39.2455 62.8727 39.2449 62.8641 39.2443 62.8555C39.2413 62.7799 39.1263 62.7974 39.148 62.8002C39.1689 62.8352 39.1068 62.7105 39.0607 62.619L38.9196 62.3417L38.6502 61.7855C38.4823 61.4121 38.3434 61.026 38.2861 60.6077C38.2807 60.5668 38.2716 60.5261 38.2606 60.4866C38.2339 60.4152 38.2094 60.3498 38.1846 60.283L38.0175 59.8738C37.5698 58.7773 37.217 57.5981 37.2945 56.7583C37.3352 56.3389 37.4511 56.0113 37.6416 55.7151C37.7296 55.5615 37.8836 55.4189 38.0582 55.2772C38.2315 55.1663 38.3982 55.1006 38.5609 55.0512L38.8379 55.0236C39.5841 54.8786 40.6923 55.1998 41.812 55.7648C42.013 55.8596 42.2051 56.0075 42.3972 56.1226C42.6093 56.257 42.8236 56.3915 43.022 56.5175C43.3858 56.7141 43.7365 56.9285 44.0852 57.1499L44.6017 57.4938L44.8513 57.6664L44.8987 57.7059C44.9574 57.7804 45.0536 57.7994 45.1325 57.7433C45.18 57.7173 45.1883 57.7095 45.2587 57.6576C45.4029 57.5617 45.5499 57.4535 45.6968 57.3359C45.9517 57.153 47.4915 56.3175 47.8163 56.0144C47.9919 55.8499 48.8704 55.686 49.0117 55.5028Z" fill="#0B1F2A"/>
<path fill-rule="evenodd" clip-rule="evenodd" d="M36.7427 69.6051C36.4344 69.6569 35.3657 69.7888 34.6651 69.6675C33.9443 69.541 33.4391 69.1231 33.2251 68.4531C33.0858 67.8452 33.345 67.2008 33.8746 66.5588C34.4917 65.812 34.7083 65.6572 35.0681 65.3006C35.7407 64.6722 36.4271 64.092 37.1235 63.5262L38.1754 62.6913C38.6562 62.3172 38.5466 62.4119 38.6738 62.3209C38.6852 62.2658 38.6335 62.199 38.6091 62.1372L38.2059 61.4183C37.4484 60.0597 36.713 58.5459 36.5367 56.8463C36.516 56.6098 36.4892 56.3872 36.4966 56.1373C36.4842 55.7512 36.5196 55.4095 36.555 55.0526C36.6478 54.8221 36.7009 54.5628 36.824 54.3614C36.9627 54.1614 37.2109 54.0142 37.4462 53.9611C37.9218 53.8312 38.4971 53.9637 39.04 54.1608C39.3575 54.2741 39.454 54.3272 39.6387 54.4085L40.1274 54.6463C40.4475 54.8092 40.757 54.9797 41.0606 55.1559C41.6696 55.5095 42.2572 55.8828 42.8343 56.2731L43.6923 56.8751L43.8984 57.0268L43.9731 57.0866L44.1239 57.214L44.4039 57.057L45.1144 56.631L46.5442 55.7916C47.5039 55.2379 48.4647 54.6919 49.4675 54.181C49.7458 54.0382 49.9811 53.9218 50.3236 53.7738C50.7042 53.5998 51.1078 53.4784 51.5329 53.477C52.1844 53.6116 52.5681 54.2282 52.7374 54.8639C52.8148 55.2183 52.8369 55.3971 52.8582 55.6574C52.8867 55.9022 52.8848 56.1296 52.8982 56.3664C52.9152 57.2933 52.8714 58.1855 52.8387 59.0691L52.7795 61.1463L52.7723 62.178L52.7729 62.3611L52.7773 62.467C52.7813 62.5351 52.7768 62.6097 52.7886 62.6708L53.0277 62.7303L53.484 62.8697C53.8851 62.9978 54.2831 63.1403 54.6768 63.3036C55.4614 63.6345 56.2451 64.007 56.9591 64.6662C57.377 65.087 57.3872 65.4671 57.2278 65.4997C57.0568 65.5628 56.7544 65.4401 56.3554 65.3719C55.5519 65.2194 54.2124 65.0428 52.6228 64.5678C52.1546 64.4211 51.4795 64.258 50.9084 64.1128L50.9122 62.0054L50.947 60.7925L51.0698 58.4061C51.1113 57.6251 51.1537 56.8446 51.1344 56.1342C51.1352 55.9507 51.1178 55.7913 51.1039 55.628C51.1011 55.5407 51.0855 55.4761 51.0742 55.4083C51.0738 55.3916 51.0767 55.3946 51.0754 55.3891C51.0778 55.3718 51.0728 55.3453 51.0522 55.335C51.0402 55.3277 51.0334 55.3235 50.8897 55.3822C50.6067 55.5116 50.319 55.6486 50.027 55.7983C49.4447 56.0951 48.8569 56.4085 48.2709 56.7324L46.5123 57.7166L45.6338 58.218L45.1489 58.4993L44.3827 58.9627C44.2682 59.031 44.1533 59.1002 44.0336 59.1713L43.3427 58.6105L42.7878 58.1857C42.527 57.9911 42.2592 57.8004 41.9868 57.6151C41.4416 57.2455 40.8788 56.8931 40.3047 56.5668C40.0188 56.4037 39.729 56.2488 39.4375 56.1046L39.0017 55.8991L38.6424 55.7486C38.5397 55.7115 38.433 55.6733 38.3229 55.6751C38.1806 55.6585 38.1735 55.8159 38.1722 55.9158C38.1679 55.9554 38.1658 55.9952 38.1669 56.0357L38.1697 56.2074C38.1765 56.4283 38.2101 56.6493 38.2299 56.87C38.3072 57.3111 38.3997 57.7521 38.548 58.1862C38.7684 58.8707 39.0739 59.5404 39.4258 60.2032L39.9843 61.2069C40.1009 61.3977 40.2772 61.74 40.4049 62.0009C40.5136 62.2736 40.6564 62.5672 40.7154 62.8389L39.4761 63.7807L38.7103 64.3815C38.2032 64.7853 37.7023 65.1963 37.2131 65.6169C36.7253 66.0371 36.2456 66.467 35.8028 66.9113L35.5491 67.1711L35.4042 67.3333C35.3142 67.4459 35.2151 67.5659 35.1818 67.7143C35.1707 67.8704 35.3156 67.9766 35.4563 67.9958C35.5973 68.0258 35.7447 68.0244 35.8959 68.0149C35.9838 68.0147 36.3418 67.964 36.6431 67.9161C36.9491 67.8641 37.2566 67.806 37.5657 67.7394C38.8034 67.4788 40.0471 67.1526 41.2889 66.8277L43.0442 66.3666L43.364 67.2794L43.6552 68.0646L44.1242 69.2644C44.4468 70.0594 44.7872 70.8465 45.1561 71.6159C45.5241 72.3847 45.9203 73.138 46.3676 73.8404C46.5902 74.1934 46.8304 74.529 47.0869 74.8322C47.2142 74.9863 47.3488 75.1284 47.4874 75.2506C47.605 75.3612 47.6835 75.415 47.7972 75.4763C47.8904 75.5251 47.9946 75.556 48.0987 75.5564C48.2069 75.5405 48.2793 75.4488 48.3501 75.3772C48.4153 75.2916 48.4707 75.2106 48.5195 75.1174C48.6011 74.9762 48.6718 74.8202 48.7415 74.6659C49.0073 74.0338 49.1815 73.3444 49.2929 72.6483C49.408 71.9521 49.4444 71.2407 49.4421 70.5313C49.4437 70.176 49.4273 69.8213 49.3997 69.4658L49.2958 67.8586C49.6342 67.5849 50.1916 67.4381 50.6677 67.2979C50.9491 67.2191 51.0672 67.2022 51.2571 67.1601C51.4336 67.1321 51.6102 67.0982 51.7894 67.0812C53.1254 66.9357 54.0223 67.1289 54.6022 67.3346C55.1856 67.5518 55.4716 67.8087 55.6415 68.1212C55.7182 68.2642 55.8266 68.4184 55.8483 68.5383C55.902 68.9814 54.9407 68.7172 53.3398 68.6632C52.7433 68.6477 52.1427 68.706 51.5579 68.8267L51.3398 68.8786L51.2367 68.9034L51.2028 68.9167C51.1542 68.935 51.1333 68.948 51.1083 68.962C51.0401 68.9778 51.0588 69.0431 51.0823 69.0985C51.0947 69.0111 51.1228 69.5288 51.144 69.8641C51.1611 70.2273 51.1616 70.5945 51.1572 70.9622C51.1375 71.698 51.0629 72.4411 50.9275 73.1859C50.7853 73.9323 50.5778 74.6763 50.2458 75.4262C50.1484 75.6163 50.0707 75.8009 49.9495 75.9952C49.772 76.3297 49.5441 76.5549 49.3186 76.8086C48.8535 77.2837 48.1625 77.3922 47.5451 77.2057C46.9208 77.021 46.2956 76.4524 46.0782 76.2117C45.7768 75.8996 45.534 75.5835 45.3066 75.2652C44.8573 74.6295 44.4817 73.9861 44.1359 73.3363C43.6268 72.3746 43.1789 71.401 42.7631 70.4189C42.3832 69.5373 41.8093 68.0144 41.9747 68.4226L41.96 68.4218L41.9555 68.4214L41.8555 68.447L41.473 68.5472L39.9346 68.9451C38.9 69.2034 37.8662 69.4621 36.7549 69.6465L36.7427 69.6051Z" fill="#0B1F2A"/>
<path fill-rule="evenodd" clip-rule="evenodd" d="M52.8191 108.06C52.8197 108.011 52.8612 107.987 52.9299 107.976C52.9514 107.972 53.007 107.994 53.0106 108.009C53.017 108.039 53.0226 108.068 53.0243 108.096C53.0255 108.113 52.9657 108.357 52.9473 108.441C52.9297 108.521 52.9036 108.6 52.8756 108.677C52.8182 108.834 52.763 108.991 52.707 109.148C52.6937 109.183 52.6786 109.217 52.661 109.25C52.6006 109.364 52.5564 109.483 52.5164 109.604C52.5097 109.624 52.5013 109.644 52.5025 109.666C52.5048 109.703 52.3865 110.027 52.3642 110.067C52.3101 110.165 52.2615 110.266 52.2108 110.366C52.2038 110.379 52.2006 110.396 52.1858 110.407C52.1506 110.43 52.1433 110.463 52.1293 110.496C52.1104 110.538 52.0905 110.582 52.0658 110.624C52.0546 110.644 52.0334 110.662 52.0152 110.68C51.9986 110.696 51.9675 110.672 51.9663 110.664C51.9626 110.64 51.9405 110.651 51.9251 110.647C51.9203 110.646 51.9128 110.644 51.9099 110.642C51.9022 110.637 51.9351 110.357 51.9451 110.329C51.9479 110.323 52.065 109.939 52.0755 109.895C52.0815 109.872 52.0954 109.851 52.107 109.83C52.1119 109.82 52.2006 109.512 52.2057 109.5C52.2302 109.439 52.2434 109.373 52.2871 109.319C52.2961 109.308 52.299 109.296 52.3028 109.282C52.338 109.174 52.3847 109.069 52.4286 108.965C52.4512 108.911 52.4676 108.855 52.4871 108.8C52.4906 108.791 52.4981 108.782 52.5029 108.772C52.5089 108.761 52.5157 108.75 52.5204 108.736C52.5647 108.606 52.623 108.48 52.6595 108.348C52.668 108.317 52.7443 108.184 52.7546 108.148C52.7585 108.128 52.8193 108.079 52.8191 108.06Z" fill="#0B1F2A"/>
<path fill-rule="evenodd" clip-rule="evenodd" d="M51.1885 108.962C51.1383 108.962 51.1127 108.919 51.1003 108.85C51.0967 108.829 51.1189 108.773 51.1349 108.77C51.1646 108.764 51.1938 108.758 51.2235 108.757C51.2415 108.757 51.4938 108.82 51.5806 108.839C51.6652 108.857 51.7459 108.885 51.8264 108.914C51.9883 108.973 52.1527 109.03 52.316 109.089C52.3517 109.101 52.3876 109.118 52.4219 109.136C52.5396 109.199 52.6627 109.245 52.7889 109.285C52.8103 109.293 52.8306 109.302 52.8536 109.3C52.8915 109.298 53.2283 109.422 53.2695 109.445C53.3724 109.5 53.4768 109.55 53.5805 109.603C53.5952 109.61 53.6128 109.613 53.6228 109.628C53.6472 109.663 53.6828 109.671 53.7153 109.685C53.7607 109.705 53.8057 109.725 53.8489 109.751C53.8707 109.763 53.8887 109.783 53.9072 109.803C53.9246 109.82 53.9005 109.85 53.8923 109.852C53.8674 109.855 53.878 109.878 53.8744 109.893C53.874 109.897 53.8721 109.904 53.87 109.908C53.8653 109.915 53.5758 109.879 53.5462 109.868C53.5397 109.865 53.1422 109.743 53.0959 109.732C53.0718 109.726 53.0501 109.711 53.0286 109.7C53.0184 109.694 52.6986 109.602 52.6865 109.597C52.6227 109.571 52.5539 109.557 52.4975 109.513C52.4861 109.505 52.472 109.501 52.4599 109.496C52.3472 109.46 52.2382 109.412 52.1298 109.367C52.0734 109.344 52.0152 109.326 51.9586 109.305C51.9482 109.301 51.9393 109.295 51.9294 109.29C51.917 109.283 51.9056 109.275 51.8929 109.271C51.7568 109.225 51.6264 109.164 51.4878 109.126C51.4567 109.118 51.3175 109.039 51.2811 109.029C51.26 109.024 51.2091 108.963 51.1885 108.962Z" fill="#0B1F2A"/>
<path fill-rule="evenodd" clip-rule="evenodd" d="M51.9266 108.228C51.8938 108.197 51.9075 108.152 51.9498 108.098C51.9625 108.081 52.0165 108.058 52.0299 108.065C52.0537 108.08 52.0785 108.095 52.0977 108.111C52.1112 108.122 52.233 108.319 52.2767 108.386C52.3189 108.449 52.353 108.518 52.3848 108.587C52.4505 108.726 52.5182 108.865 52.5839 109.005C52.5979 109.036 52.6099 109.068 52.6196 109.102C52.653 109.216 52.7013 109.323 52.7556 109.428C52.7644 109.446 52.7709 109.464 52.7873 109.477C52.8137 109.499 52.9483 109.789 52.9596 109.83C52.9866 109.93 53.0204 110.028 53.051 110.127C53.0557 110.141 53.0653 110.154 53.0612 110.17C53.0517 110.209 53.0691 110.236 53.0805 110.265C53.0972 110.307 53.1116 110.348 53.1227 110.392C53.1285 110.413 53.1245 110.438 53.1238 110.463C53.1224 110.484 53.0847 110.49 53.0778 110.486C53.0587 110.473 53.0501 110.495 53.0369 110.503C53.0325 110.506 53.0269 110.51 53.0224 110.51C53.0136 110.512 52.8478 110.31 52.8365 110.285C52.8343 110.279 52.6588 109.952 52.6358 109.917C52.6239 109.898 52.6205 109.875 52.6147 109.854C52.6115 109.843 52.4662 109.585 52.4617 109.575C52.4383 109.517 52.4036 109.467 52.3974 109.402C52.3958 109.389 52.3895 109.378 52.3847 109.367C52.336 109.274 52.2991 109.175 52.2595 109.077C52.2381 109.028 52.2121 108.98 52.1902 108.932C52.1851 108.923 52.1847 108.912 52.1819 108.903C52.1789 108.891 52.1759 108.879 52.171 108.867C52.1138 108.754 52.0702 108.633 52.007 108.522C51.9921 108.497 51.9581 108.359 51.9395 108.33C51.9297 108.313 51.9404 108.24 51.9266 108.228Z" fill="#0B1F2A"/>
<path fill-rule="evenodd" clip-rule="evenodd" d="M51.4512 109.898C51.4208 109.929 51.3787 109.911 51.3283 109.865C51.313 109.85 51.2934 109.796 51.3012 109.783C51.3153 109.76 51.3303 109.738 51.3467 109.718C51.3571 109.707 51.55 109.602 51.6152 109.565C51.6776 109.528 51.7437 109.5 51.8101 109.474C51.9457 109.421 52.0806 109.365 52.2153 109.312C52.2451 109.299 52.2764 109.29 52.3089 109.283C52.419 109.26 52.5229 109.221 52.6241 109.176C52.6405 109.168 52.6589 109.163 52.6727 109.148C52.6945 109.124 52.975 109.014 53.0138 109.006C53.1097 108.988 53.2047 108.963 53.3004 108.94C53.3133 108.936 53.3261 108.929 53.3418 108.934C53.3776 108.946 53.4045 108.931 53.433 108.923C53.4727 108.91 53.5128 108.898 53.5547 108.891C53.5748 108.886 53.5989 108.893 53.6215 108.896C53.6424 108.898 53.6473 108.937 53.6422 108.943C53.6291 108.961 53.6497 108.971 53.6566 108.985C53.6593 108.99 53.6629 108.995 53.6625 109C53.6645 109.008 53.466 109.156 53.4411 109.165C53.4359 109.167 53.1186 109.314 53.0833 109.334C53.0654 109.344 53.0432 109.346 53.0231 109.35C53.0135 109.352 52.7616 109.475 52.7523 109.478C52.6973 109.497 52.6462 109.527 52.5847 109.528C52.573 109.528 52.5627 109.533 52.5515 109.538C52.4609 109.579 52.3652 109.607 52.2709 109.639C52.2224 109.655 52.1775 109.677 52.1296 109.695C52.1217 109.699 52.1114 109.698 52.1027 109.701C52.0908 109.703 52.0795 109.705 52.0688 109.709C51.958 109.756 51.8416 109.789 51.7338 109.842C51.7093 109.856 51.5772 109.878 51.5481 109.893C51.5321 109.902 51.4635 109.886 51.4512 109.898Z" fill="#0B1F2A"/>
<path fill-rule="evenodd" clip-rule="evenodd" d="M12.6283 119.834C11.017 119.007 9.18028 118.525 7.35075 118.473C6.68307 118.455 6.02365 118.556 5.40295 118.681C4.92107 118.779 4.43941 118.911 4.06051 119.123C3.87272 119.225 3.68981 119.338 3.57042 119.464C3.46081 119.55 3.42704 119.609 3.37768 119.709C3.02624 120.103 4.67221 120.86 5.89153 121.425C6.92628 121.891 8.01319 122.293 9.07419 122.778C9.75401 123.09 10.4533 123.417 11.0859 123.914C11.7018 124.386 12.3534 125.119 12.4058 126.078C12.3739 126.679 12.0599 126.481 11.7204 126.183C11.3379 125.863 10.8402 125.715 10.2815 125.347C9.26125 124.678 7.90891 124.126 6.55107 123.596C5.86731 123.324 5.16952 123.049 4.46368 122.731C4.10728 122.568 3.75557 122.398 3.39667 122.185C3.21726 122.084 3.03592 121.968 2.8531 121.843L2.57848 121.643C2.50426 121.576 2.31196 121.436 2.2168 121.331C1.72118 120.854 1.39295 120.171 1.57696 119.493L1.72499 119.078L1.94512 118.697C2.07796 118.418 2.28762 118.244 2.44527 118.074C2.61828 117.914 2.80148 117.787 2.98373 117.65C3.16882 117.543 3.3567 117.429 3.54549 117.331C4.3046 116.956 5.08449 116.764 5.85403 116.661C8.04024 116.388 10.1982 116.731 12.1949 117.464C13.4239 117.922 14.5862 118.549 15.6426 119.319C17.2596 120.474 18.5442 122.052 19.5139 123.744C20.2522 125.065 20.9256 126.437 21.2336 127.919C21.3269 128.24 21.3769 128.559 21.4282 128.889C21.5121 129.505 21.4617 129.917 21.3637 130.208C21.273 130.498 21.1306 130.668 20.9339 130.806C20.8451 130.868 20.7616 130.948 20.6817 130.984C20.4258 131.106 20.0692 130.64 19.7836 129.842C18.9719 127.487 18.2232 125.173 16.745 123.26C15.6679 121.849 14.2544 120.671 12.609 119.881L12.6283 119.834Z" fill="#0B1F2A"/>
<path fill-rule="evenodd" clip-rule="evenodd" d="M87.0965 39.6027C87.0971 39.5538 87.1386 39.53 87.2073 39.5192C87.2287 39.5148 87.2843 39.537 87.2879 39.5522C87.2944 39.5819 87.3005 39.6102 87.3016 39.6391C87.3029 39.6562 87.243 39.8998 87.2247 39.9835C87.207 40.0641 87.181 40.1431 87.1529 40.2197C87.0955 40.3769 87.0404 40.5342 86.9852 40.6915C86.9719 40.7267 86.956 40.7604 86.9384 40.793C86.8779 40.9072 86.8337 41.0255 86.7938 41.1465C86.7879 41.1675 86.7787 41.1865 86.7799 41.2095C86.7827 41.2452 86.6638 41.5699 86.6421 41.6093C86.5874 41.7083 86.5389 41.8088 86.4881 41.909C86.4812 41.9223 86.4779 41.9391 86.4631 41.95C86.4279 41.973 86.4206 42.006 86.4066 42.0385C86.3878 42.0809 86.3678 42.125 86.3437 42.1664C86.332 42.1874 86.3107 42.2049 86.2926 42.2231C86.276 42.2388 86.2448 42.215 86.2437 42.2073C86.2399 42.1827 86.2179 42.1939 86.2025 42.1903C86.1977 42.1885 86.191 42.188 86.1867 42.1854C86.1796 42.1798 86.2124 41.8998 86.2225 41.872C86.2252 41.8655 86.3423 41.4823 86.3528 41.4383C86.3588 41.415 86.3727 41.3942 86.3844 41.3732C86.3893 41.3633 86.4779 41.0553 86.483 41.0432C86.5075 40.982 86.5208 40.9163 86.5644 40.8621C86.5734 40.8512 86.5768 40.838 86.5802 40.8248C86.6154 40.7174 86.662 40.6123 86.706 40.5079C86.7285 40.4537 86.745 40.3981 86.7644 40.3432C86.768 40.3337 86.7754 40.3253 86.7803 40.3154C86.7862 40.3038 86.7944 40.2924 86.7986 40.2797C86.842 40.1492 86.9004 40.0231 86.9368 39.8907C86.9453 39.8596 87.0225 39.7275 87.0319 39.691C87.0359 39.6711 87.0967 39.6216 87.0965 39.6027Z" fill="#0B1F2A"/>
<path fill-rule="evenodd" clip-rule="evenodd" d="M85.4734 40.5076C85.4232 40.5073 85.3976 40.4647 85.386 40.3955C85.3816 40.374 85.4038 40.3185 85.4198 40.3154C85.4495 40.3089 85.4787 40.3033 85.5084 40.3027C85.5264 40.302 85.7795 40.3654 85.8655 40.3839C85.95 40.4028 86.0302 40.4307 86.1113 40.4592C86.2732 40.5183 86.4376 40.5754 86.6009 40.6343C86.6366 40.6467 86.6725 40.6628 86.7068 40.6814C86.8244 40.744 86.9475 40.79 87.0738 40.8308C87.0952 40.838 87.1155 40.8469 87.1385 40.8457C87.1764 40.8431 87.5132 40.967 87.5544 40.9898C87.6573 41.0457 87.7617 41.0955 87.8654 41.1483C87.8801 41.155 87.8977 41.1587 87.9077 41.173C87.9321 41.2079 87.9677 41.2167 88.0002 41.2307C88.0456 41.2503 88.0906 41.2708 88.1343 41.2951C88.1556 41.3082 88.1736 41.3286 88.1921 41.3481C88.2095 41.3657 88.1854 41.3956 88.1771 41.3975C88.1523 41.3999 88.1629 41.4228 88.1593 41.4382C88.1589 41.4427 88.157 41.4497 88.1549 41.4531C88.1502 41.4608 87.8607 41.4244 87.8311 41.4134C87.8246 41.4106 87.427 41.2882 87.3808 41.2775C87.3567 41.271 87.335 41.2566 87.3135 41.2458C87.3033 41.2395 86.9835 41.1472 86.9714 41.1421C86.9076 41.116 86.8396 41.1026 86.7824 41.0582C86.7715 41.0492 86.7569 41.0461 86.7448 41.0411C86.6321 41.005 86.5231 40.9571 86.4147 40.9119C86.3588 40.8883 86.3001 40.8712 86.2435 40.8506C86.2331 40.8466 86.2242 40.84 86.2143 40.8351C86.2019 40.8287 86.1904 40.8205 86.1778 40.8163C86.0417 40.7706 85.9113 40.7096 85.7741 40.6714C85.7416 40.6633 85.6024 40.5841 85.566 40.5747C85.5449 40.5689 85.494 40.5084 85.4734 40.5076Z" fill="#0B1F2A"/>
<path fill-rule="evenodd" clip-rule="evenodd" d="M86.2079 39.7729C86.175 39.7423 86.1888 39.6968 86.2311 39.643C86.2437 39.6261 86.2978 39.6029 86.3111 39.6098C86.335 39.6244 86.3597 39.6396 86.379 39.656C86.3924 39.6666 86.5143 39.8642 86.558 39.9307C86.6002 39.994 86.6342 40.0629 86.6661 40.1316C86.7318 40.2714 86.7994 40.41 86.8651 40.5498C86.88 40.5812 86.8912 40.6127 86.9009 40.6467C86.9342 40.7609 86.9825 40.8678 87.0369 40.9725C87.0457 40.9907 87.0522 41.0088 87.0685 41.0223C87.0949 41.0443 87.2296 41.3341 87.2409 41.375C87.2678 41.4747 87.3017 41.5727 87.3327 41.6714C87.3369 41.6857 87.3466 41.6986 87.3425 41.7149C87.3329 41.7536 87.3504 41.7807 87.3618 41.8099C87.3784 41.8517 87.3933 41.8925 87.4039 41.9365C87.4098 41.9576 87.4058 41.9833 87.4051 42.0075C87.4037 42.0289 87.3659 42.0351 87.3591 42.031C87.34 42.0181 87.3314 42.0398 87.3181 42.0481C87.3143 42.0505 87.3081 42.0549 87.3037 42.0545C87.2949 42.0573 87.129 41.8551 87.1177 41.8295C87.1156 41.8235 86.9401 41.497 86.9176 41.461C86.9061 41.4434 86.9018 41.4197 86.896 41.3985C86.8928 41.3884 86.7475 41.1296 86.7429 41.1198C86.7195 41.0621 86.6848 41.0116 86.6787 40.9469C86.677 40.9342 86.6708 40.9233 86.6659 40.9121C86.6173 40.8191 86.5804 40.7203 86.5407 40.6223C86.5194 40.5729 86.4947 40.525 86.4714 40.4768C86.4664 40.4678 86.466 40.457 86.4636 40.4474C86.4596 40.4367 86.4571 40.4235 86.4523 40.4123C86.3951 40.2988 86.3515 40.1784 86.2883 40.0671C86.2734 40.0415 86.2394 39.9035 86.2208 39.8746C86.2109 39.858 86.2217 39.7849 86.2079 39.7729Z" fill="#0B1F2A"/>
<path fill-rule="evenodd" clip-rule="evenodd" d="M85.7364 41.4412C85.7059 41.4719 85.6639 41.4544 85.6143 41.4088C85.5982 41.3931 85.5791 41.3381 85.5864 41.3261C85.6005 41.3031 85.6154 41.2806 85.6319 41.2613C85.6422 41.2501 85.8352 41.1454 85.9003 41.1078C85.9627 41.071 86.0288 41.0434 86.0952 41.0172C86.2308 40.9641 86.3658 40.9083 86.5005 40.8547C86.5303 40.8424 86.5615 40.8334 86.594 40.8263C86.7041 40.8034 86.8081 40.7638 86.9093 40.719C86.9256 40.7114 86.944 40.7063 86.9579 40.6913C86.9802 40.6663 87.2602 40.5573 87.299 40.5494C87.3948 40.5306 87.4899 40.5055 87.5856 40.4832C87.5985 40.4793 87.6113 40.4719 87.627 40.4768C87.6627 40.4893 87.6896 40.4741 87.7182 40.4658C87.7579 40.4525 87.7979 40.4407 87.8398 40.4335C87.8599 40.4294 87.8841 40.4359 87.9067 40.4392C87.9276 40.4414 87.9324 40.4795 87.9274 40.4859C87.9147 40.5027 87.9349 40.5139 87.9418 40.5275C87.9445 40.5326 87.948 40.5383 87.9477 40.5428C87.9505 40.5516 87.7512 40.6993 87.7263 40.7075C87.7211 40.7102 87.4038 40.8573 87.3685 40.8767C87.3505 40.8868 87.3293 40.8891 87.3083 40.8927C87.2987 40.895 87.0467 41.0176 87.0375 41.0213C86.9824 41.0403 86.9323 41.0706 86.8698 41.0711C86.8582 41.071 86.8478 41.0764 86.8366 41.0813C86.7461 41.1221 86.6508 41.1494 86.5561 41.1817C86.5076 41.1978 86.4626 41.2195 86.4148 41.2383C86.4069 41.2417 86.3966 41.2413 86.3883 41.2433C86.376 41.2462 86.3646 41.2475 86.354 41.2516C86.2431 41.2986 86.1267 41.3318 86.0189 41.3854C85.9945 41.3986 85.8624 41.421 85.8341 41.4366C85.8173 41.445 85.7486 41.4288 85.7364 41.4412Z" fill="#0B1F2A"/>
<path fill-rule="evenodd" clip-rule="evenodd" d="M79.6404 51.6532C80.5481 52.5457 81.4455 53.4495 82.3137 54.4257C82.7807 54.9597 83.7419 56.0467 84.1433 56.8969C84.3797 57.3462 84.4453 57.7449 84.4425 58.1195C84.4401 58.4685 84.3037 58.9313 83.9494 59.2233C83.5052 59.6257 83.0171 59.8817 82.3462 59.9743C81.701 60.0979 80.8969 59.9849 80.1342 59.8655L79.5514 59.7413L79.2083 59.6546L78.5381 59.4664C78.095 59.3361 77.6633 59.1929 77.2366 59.0434C75.5314 58.445 73.9053 57.7439 72.3 57.0051C70.2904 56.0765 68.2959 55.1384 66.3625 54.0888C59.558 50.3705 53.0714 46.1457 46.8781 41.5235C44.1346 39.4676 41.4061 37.3529 38.8136 35.1326C35.4837 32.2973 32.2327 29.2139 29.8361 25.4501C29.113 24.2556 29.6488 24.1577 30.7064 24.7973C31.7757 25.437 33.4432 26.7049 35.1579 28.4342C41.2381 34.6083 48.2916 39.938 55.5785 44.9991C59.9552 48.0184 64.8116 50.7074 69.6467 53.1571C71.7776 54.2325 73.9372 55.2552 76.132 56.1341C77.2291 56.5692 78.3374 56.9726 79.4433 57.2841L80.1518 57.4653C80.2711 57.4925 80.3935 57.5205 80.5182 57.537C80.7642 57.5678 81.0413 57.6036 81.2786 57.4838C81.3253 57.442 81.3984 57.4163 81.4176 57.3543C81.4318 57.2926 81.413 57.2295 81.3904 57.1724C81.3434 57.0557 81.274 56.9488 81.2026 56.8431C81.0442 56.6173 80.9305 56.4716 80.6507 56.1528C78.2234 53.4745 75.4621 50.9857 72.6848 48.5751C68.4511 44.9365 64.0511 41.4283 59.5193 38.2333C55.995 35.7504 52.3529 33.5905 48.6402 31.5902C47.8223 31.1488 47.0086 30.7486 46.1746 30.3395C43.0694 28.8407 42.081 28.5154 41.4699 27.8605C41.3301 27.7211 41.1288 27.571 41.0479 27.4465C40.7423 27.0511 42.3403 26.8912 44.8924 27.7283C48.6514 28.9646 52.2355 30.7937 55.6654 32.9211C59.1093 35.0313 62.4587 37.3651 65.7338 39.807C70.5689 43.478 75.2371 47.3776 79.6765 51.6038L79.6404 51.6532Z" fill="#0B1F2A"/>
</svg>
