<svg width="110" height="108" viewBox="0 0 110 108" fill="none" xmlns="http://www.w3.org/2000/svg">
<path fill-rule="evenodd" clip-rule="evenodd" d="M7.63212 93.4926L7.37812 88.2666C7.34212 87.6296 7.23712 87.0016 7.20412 86.3646C7.09212 84.1186 6.98612 81.8666 6.83212 79.6196C6.75812 78.6236 6.64712 77.6256 6.53012 76.6416C6.37912 75.3786 6.17412 74.1106 6.25112 72.8226C6.27512 72.4206 6.65212 72.4406 7.06612 72.7386C7.47712 73.0356 7.94412 73.6056 8.06512 74.3236C8.27912 75.5976 8.48212 76.8746 8.64812 78.1596C8.79412 79.4476 8.90212 80.7436 8.95212 82.0546C9.00912 83.6226 9.33712 85.2246 9.52212 86.8156C9.72412 88.5666 9.88912 90.3236 10.0271 92.0846L10.2781 95.3376C10.4141 96.9786 10.4821 98.6346 10.6501 100.264C10.7701 101.532 11.0451 102.768 11.2231 104.032C11.2651 104.31 11.3171 104.581 11.3241 104.864C11.3521 105.911 11.1611 106.248 10.4541 106.472C10.2931 106.523 10.1331 106.589 9.97212 106.618C9.43112 106.716 8.96812 106.3 8.76512 105.563C8.12612 103.381 8.06512 101.077 7.88212 98.7386C7.77812 96.9976 7.67412 95.2476 7.57012 93.5016L7.63212 93.4926Z" fill="#0B1F2A"/>
<path fill-rule="evenodd" clip-rule="evenodd" d="M28.7961 105.043C32.1041 105.158 35.4131 105.291 38.7231 105.35L42.3431 105.344C46.5971 105.427 50.8551 105.507 55.1051 105.424C56.9881 105.372 58.8811 105.279 60.7411 105.141C61.9341 105.046 63.1291 104.923 64.3091 104.789C65.4781 104.649 66.7001 104.546 67.7531 104.324C68.4001 104.197 68.5621 104.565 68.0741 105.174C67.9511 105.327 67.7851 105.495 67.5761 105.671C67.3761 105.817 67.1441 105.963 66.8811 106.105C66.3501 106.403 65.7081 106.645 65.0101 106.757C62.5151 107.195 60.0471 107.452 57.5671 107.627C55.0851 107.739 52.6021 107.765 50.1091 107.697C47.1281 107.625 44.0361 107.809 40.9931 107.83C37.6481 107.841 34.3021 107.811 30.9581 107.756L24.7851 107.623C21.6691 107.55 18.5431 107.438 15.4441 107.401C13.0361 107.37 10.6661 107.482 8.26313 107.384C7.73513 107.346 7.21713 107.328 6.68513 107.265C4.71313 107.017 4.10413 106.717 3.76913 106.093C3.69213 105.95 3.58613 105.805 3.55013 105.671C3.43213 105.22 4.26513 104.982 5.68213 104.912C9.89313 104.548 14.3001 104.73 18.7841 104.77C22.1121 104.838 25.4561 104.907 28.7921 104.976L28.7961 105.043Z" fill="#0B1F2A"/>
<path fill-rule="evenodd" clip-rule="evenodd" d="M74.4632 78.1756L74.5402 84.3796C74.5552 85.1336 74.6402 85.8836 74.6502 86.6376C74.6882 89.2976 74.7102 91.9596 74.7912 94.6166C74.8312 95.7956 74.9262 96.9776 75.0442 98.1406C75.1992 99.6136 75.3802 101.18 75.3082 102.578C75.3022 102.671 75.2692 102.746 75.2162 102.806C75.1902 102.836 75.1592 102.862 75.1242 102.883C75.0842 102.901 75.1402 102.887 75.0172 102.928C74.9152 102.963 74.8822 102.974 74.9152 102.963C74.9152 102.963 75.0032 102.934 74.9752 102.942L74.9412 102.947L74.8702 102.953C74.8202 102.954 74.7682 102.948 74.7122 102.936C74.6022 102.911 74.4802 102.858 74.3512 102.77C73.8392 102.382 73.2982 101.708 73.1742 100.833C72.9422 99.2986 72.8412 97.7636 72.7732 96.2216C72.7012 94.6816 72.6812 93.1356 72.7132 91.5796C72.7572 89.7196 72.5292 87.8006 72.4472 85.9056L72.2322 79.6506L72.1162 75.8006C72.0442 73.8576 72.0222 71.9046 71.9132 69.9756C71.8232 68.4776 71.6092 67.0126 71.4692 65.5226C71.4402 65.1946 71.3842 64.8726 71.3912 64.5406C71.3982 63.3056 71.5912 62.8946 72.1642 62.6506C72.2942 62.5936 72.4202 62.5186 72.5442 62.4876C72.9482 62.3856 73.3522 62.8906 73.5242 63.7566C74.0892 66.3536 74.1872 69.1336 74.3372 71.9236C74.4412 73.9976 74.4512 76.0866 74.5202 78.1706L74.4632 78.1756Z" fill="#0B1F2A"/>
<path fill-rule="evenodd" clip-rule="evenodd" d="M90.9932 88.8931C91.9762 88.0191 92.9702 87.1541 93.9842 86.3061C94.3542 85.9521 94.1872 86.3601 94.2482 85.4131L94.2762 83.4611L94.2242 80.6121C94.2212 77.2601 94.1372 73.9001 94.0312 70.5381C93.9862 69.0451 93.8922 67.5471 93.7992 66.0691C93.6742 64.1691 93.5072 62.2631 93.5652 60.3531C93.5902 59.1641 94.7672 60.6111 94.9952 62.7881C95.3282 66.6541 95.7092 70.5201 95.7142 74.4531C95.7312 76.8021 95.9452 79.2401 96.0072 81.6461C96.0362 82.9691 96.0552 84.2921 96.0492 85.6171L96.0482 86.1831C96.0442 86.4441 96.0582 86.7141 96.0202 86.9601L95.0382 87.8311L93.5702 89.1401C92.3702 90.2231 91.1762 91.3181 89.9932 92.4261C88.1912 94.1021 86.3812 95.7871 84.5932 97.4511C83.2052 98.7521 81.8982 100.098 80.4922 101.374C80.1802 101.653 79.8942 101.948 79.5642 102.213C78.9652 102.718 78.5322 103.004 78.1582 103.109C77.7992 103.233 77.5212 103.205 77.2352 103.093C77.1062 103.043 76.9622 103.012 76.8662 102.952C76.5542 102.766 76.8192 102.063 77.5932 101.253C79.9872 98.9721 82.5552 96.6321 85.1402 94.2291C87.0752 92.4431 89.0182 90.6501 90.9572 88.8601L90.9932 88.8931Z" fill="#0B1F2A"/>
<path fill-rule="evenodd" clip-rule="evenodd" d="M89.0657 56.3235C90.6627 55.5435 92.2447 54.7215 93.7637 53.8245C94.0407 53.6615 94.3047 53.4815 94.5677 53.3035L94.9287 53.0515L95.1467 52.8315C95.7887 52.1955 96.2417 51.2125 96.4987 50.1885C96.7667 49.1585 96.8507 48.0535 96.7527 46.9655C96.6657 46.0005 96.4087 45.0365 95.9687 44.1915C95.4167 43.0885 94.5977 42.1945 93.6697 41.4155C93.3907 41.1595 93.5707 40.8965 94.0377 40.8235C94.2727 40.7875 94.5837 40.8005 94.9337 40.8865C95.2527 41.0085 95.6157 41.2025 95.9277 41.4975C98.0527 43.7125 98.7547 46.8745 98.2587 49.7385C98.1297 50.6035 97.8707 51.4725 97.5347 52.3295C97.1717 53.1825 96.6707 54.0225 95.7947 54.6615C94.2447 55.7025 92.6567 56.5945 91.0467 57.4655C90.0587 57.9995 89.0557 58.5065 88.0567 59.0155C86.5407 59.7835 84.9867 60.4895 83.4767 61.2375C82.2987 61.8115 81.1907 62.4835 80.0297 63.0775C79.7737 63.2075 79.5317 63.3545 79.2687 63.4755C78.2887 63.9085 77.9167 63.8985 77.4947 63.4475C77.3987 63.3445 77.2887 63.2475 77.2127 63.1355C76.9577 62.7585 77.2237 62.2565 77.8867 61.8505C79.8477 60.6295 82.0297 59.6635 84.2047 58.6305C85.8197 57.8665 87.4487 57.1055 89.0407 56.2815L89.0657 56.3235Z" fill="#0B1F2A"/>
<path fill-rule="evenodd" clip-rule="evenodd" d="M15.5432 45.4141C16.7362 45.1561 17.9232 44.8591 19.1052 44.5281C19.5352 44.4031 19.9462 44.2271 20.3782 44.1031C21.9042 43.6581 23.4362 43.2101 24.9602 42.7651C25.6392 42.5621 26.3042 42.3111 26.9602 42.0601C27.7982 41.7281 28.6262 41.3521 29.5582 41.2721C29.8462 41.2411 29.8982 41.4991 29.7792 41.8641C29.6542 42.2141 29.3892 42.7551 28.9292 42.9971C27.2582 43.7511 25.5902 44.5101 23.7732 44.9621C22.6882 45.2311 21.6392 45.7331 20.5562 46.1011C19.3662 46.5051 18.1562 46.8631 16.9442 47.2071L14.6972 47.8011C13.5612 48.0921 12.4062 48.3221 11.2852 48.6251C10.4142 48.8611 9.57918 49.1791 8.71318 49.4001C8.52218 49.4481 8.33918 49.5111 8.14518 49.5471C7.42218 49.6821 7.16518 49.5931 6.92018 49.1731C6.86518 49.0771 6.79818 48.9841 6.75718 48.8871C6.62118 48.5601 6.85318 48.2061 7.34118 47.9521C8.79218 47.1921 10.3432 46.6131 11.9542 46.2551C13.1412 45.9591 14.3352 45.6611 15.5262 45.3641L15.5432 45.4141Z" fill="#0B1F2A"/>
<path fill-rule="evenodd" clip-rule="evenodd" d="M75.5177 37.1697C76.5407 37.2937 77.5657 37.4187 78.5867 37.5417C78.9597 37.5827 79.3347 37.5667 79.7077 37.6127C81.0227 37.7807 82.3447 37.9497 83.6557 38.1177C84.2397 38.1907 84.8287 38.2147 85.4097 38.2337C86.1557 38.2487 86.9057 38.2127 87.6477 38.4747C87.8787 38.5497 87.8437 38.7987 87.6427 39.0807C87.4417 39.3487 87.0727 39.7347 86.6407 39.7857C85.1127 39.8507 83.5847 39.8957 82.0517 39.6197C81.1347 39.4537 80.1747 39.5137 79.2337 39.4577L76.1317 39.2327L74.2237 39.0937C73.2607 39.0247 72.2937 38.9267 71.3357 38.9227C70.5907 38.9117 69.8567 39.0197 69.1207 39.0177C68.9577 39.0197 68.7987 39.0377 68.6357 39.0277C68.0307 38.9907 67.8427 38.8507 67.7287 38.4027C67.7027 38.3007 67.6667 38.1997 67.6537 38.0997C67.6077 37.7637 67.8647 37.4847 68.3117 37.3577C69.6407 36.9627 71.0307 36.8137 72.4177 36.9047C73.4507 36.9387 74.4857 37.0217 75.5177 37.1187V37.1697Z" fill="#0B1F2A"/>
<path fill-rule="evenodd" clip-rule="evenodd" d="M21.5418 70.0252C24.0638 70.0702 26.5988 70.0372 29.1348 69.9552L31.9088 69.8062C35.1748 69.7042 38.4488 69.6092 41.7208 69.4562C43.1718 69.3902 44.6298 69.2892 46.0698 69.1942C47.9188 69.0722 49.7808 68.9292 51.6428 69.0142C52.2228 69.0392 52.1468 69.2792 51.6668 69.5392C51.1858 69.7942 50.3028 70.0932 49.2458 70.1792C45.4958 70.4842 41.7408 70.8632 37.9308 71.0262C35.6518 71.1182 33.2928 71.4222 30.9588 71.5502C28.3948 71.7012 25.8228 71.8062 23.2468 71.8502C21.6608 71.8802 20.0718 71.8682 18.4838 71.8432C16.0768 71.7852 13.6558 71.6262 11.2568 71.2752C10.3248 71.1232 9.39383 70.9942 8.46283 70.7322C7.53683 70.4752 6.58183 70.1742 5.69883 69.5082C5.49583 69.3902 5.32483 69.1922 5.13983 69.0272L4.73283 68.6252C4.37683 68.2642 3.89183 67.9582 3.61783 67.5142C3.32983 67.0652 3.36483 66.6042 3.61183 66.3672C3.71283 66.2522 3.84483 66.1402 3.96483 66.1002C4.17883 66.0272 4.37183 66.1722 4.55383 66.2312C4.74783 66.2792 4.84783 66.2502 5.33983 66.5332C5.68583 66.7322 6.15383 67.0172 6.53783 67.4622C6.79283 67.6842 6.96083 67.8432 7.25983 68.0082C7.80583 68.3292 8.47783 68.6022 9.21883 68.7992C10.6878 69.2152 12.3278 69.4592 13.9848 69.6272C16.4538 69.8742 18.9968 69.9672 21.5378 69.9792L21.5418 70.0252Z" fill="#0B1F2A"/>
<path fill-rule="evenodd" clip-rule="evenodd" d="M89.9361 59.5481C89.2561 59.8811 88.5481 60.1521 87.8551 60.4351C87.6011 60.5331 87.3661 60.6741 87.1091 60.7641C86.2101 61.0691 85.3011 61.3781 84.4051 61.6811C84.0041 61.8091 83.6191 61.9711 83.2391 62.1351C82.7521 62.3491 82.2801 62.5941 81.7481 62.7031C81.4191 62.7801 81.4631 61.8731 81.9901 61.5321C82.9441 60.9851 83.9111 60.4751 84.9761 60.1961C85.6091 60.0161 86.1931 59.6691 86.7911 59.3921C87.4511 59.0901 88.1051 58.7801 88.7501 58.4501C89.1451 58.2451 89.5481 58.0491 89.9301 57.8191C90.5171 57.4841 91.1041 57.1361 91.6381 56.7251C92.0681 56.4271 92.4031 56.0171 92.8011 55.6911C92.8881 55.6171 92.9661 55.5361 93.0591 55.4681C93.4041 55.2201 93.5761 55.2171 93.8551 55.4131C93.9191 55.4581 93.9871 55.4981 94.0431 55.5471C94.2311 55.7111 94.2281 55.9861 94.0501 56.2761C93.7891 56.7091 93.4911 57.1291 93.1201 57.4691C92.7671 57.8321 92.3661 58.1531 91.9361 58.4301C91.3001 58.8491 90.6321 59.2261 89.9561 59.5811L89.9361 59.5481Z" fill="#0B1F2A"/>
<path fill-rule="evenodd" clip-rule="evenodd" d="M38.7264 89.7148L38.5684 85.3988C38.5534 84.8728 38.4724 84.3528 38.4634 83.8268C38.4414 81.9678 38.4414 80.1088 38.4554 78.2448C38.4504 77.4138 38.4464 76.5858 38.4414 75.7618C38.4614 74.6968 38.3784 73.6218 38.8264 72.5208C38.9554 72.1828 39.2584 72.3488 39.5474 72.6928C39.8274 73.0408 40.1274 73.4978 40.1644 74.0728C40.1914 75.0658 40.2944 76.1098 40.3604 77.1478C40.4364 78.1908 40.3984 79.2488 40.3754 80.3198C40.3254 81.6008 40.5584 82.9178 40.6644 84.2228L40.9564 88.5418L41.1414 91.2048C41.2494 92.5478 41.3194 93.9018 41.4844 95.2338C41.6014 96.2708 41.8984 97.2708 42.0484 98.3068C42.0834 98.5348 42.1424 98.7558 42.1644 98.9868C42.2414 99.8528 42.0214 100.141 41.4034 100.337C41.2684 100.382 41.1414 100.439 41.0214 100.465C40.6524 100.552 40.1104 100.222 39.9104 99.6318C39.3254 97.8738 39.1284 95.9748 38.9654 94.0468C38.8404 92.6148 38.7704 91.1678 38.6684 89.7228L38.7264 89.7148Z" fill="#0B1F2A"/>
<path fill-rule="evenodd" clip-rule="evenodd" d="M45.032 85.1073C42.336 85.1153 39.637 85.1503 36.94 85.2223C35.956 85.2493 34.975 85.3403 33.992 85.3613C30.523 85.4423 27.05 85.5183 23.585 85.7033C22.049 85.7903 20.506 85.9273 18.991 86.1043C17.054 86.3183 15.078 86.6603 13.209 86.7423C12.647 86.7813 12.562 86.3983 12.986 85.8803C13.199 85.6173 13.559 85.3203 13.974 85.0883C14.393 84.8433 14.917 84.6293 15.482 84.5643C19.508 84.0103 23.516 83.7133 27.582 83.6513C30.011 83.6213 32.523 83.3493 35.002 83.2363C37.727 83.1193 40.456 83.0453 43.184 82.9843L48.221 82.9013C50.765 82.8773 53.32 82.8523 55.845 82.8283C57.807 82.7883 59.735 82.6403 61.686 82.5863C62.115 82.5733 62.535 82.5433 62.969 82.5593C64.577 82.6033 65.082 82.7823 65.391 83.3943C65.461 83.5323 65.556 83.6723 65.593 83.8103C65.718 84.2753 65.049 84.6283 63.888 84.7253C62.171 84.8573 60.402 84.9783 58.616 84.9893C56.824 85.0523 55.01 85.0403 53.186 85.0723C50.48 85.0933 47.756 85.1023 45.037 85.1613L45.032 85.1073Z" fill="#0B1F2A"/>
<path fill-rule="evenodd" clip-rule="evenodd" d="M88.6977 73.2747L88.7097 77.2527C88.7167 77.7367 88.7667 78.2177 88.7627 78.7017C88.7457 80.4117 88.7197 82.1217 88.7417 83.8307C88.7537 84.5887 88.7837 85.3507 88.8317 86.1007C88.9187 87.0657 88.8747 88.0367 88.8077 89.0227C88.7347 89.6227 87.9017 88.8727 87.6867 87.7937C87.2347 85.8627 87.1267 83.8977 87.1527 81.9057C87.1777 80.7127 86.9877 79.4867 86.9117 78.2727C86.8307 76.9387 86.8067 75.5987 86.7627 74.2597L86.6937 71.7877C86.6487 70.5407 86.6427 69.2847 86.5647 68.0447C86.5017 67.0807 86.3447 66.1377 86.2587 65.1687C86.2407 64.9547 86.1997 64.7447 86.2207 64.5297C86.2567 63.7217 86.5097 63.4617 86.9617 63.3317C87.0647 63.3007 87.1637 63.2577 87.2587 63.2447C87.4197 63.2207 87.5607 63.2947 87.7047 63.4427C87.8457 63.5917 88.0057 63.8157 88.0647 64.0887C88.3447 64.9127 88.4017 65.7597 88.5097 66.6297C88.6057 67.4967 88.6367 68.3847 88.6637 69.2757C88.6917 70.6037 88.7197 71.9387 88.7467 73.2697L88.6977 73.2747Z" fill="#0B1F2A"/>
<path fill-rule="evenodd" clip-rule="evenodd" d="M84.6146 77.5667C85.3556 77.0947 86.0916 76.5917 86.7996 76.0387C87.0596 75.8407 87.2876 75.6057 87.5456 75.4007C88.4606 74.6757 89.3816 73.9457 90.2946 73.2227C90.6976 72.8937 91.0856 72.5397 91.4646 72.1877C91.9536 71.7367 92.4346 71.2647 93.0246 70.9267C93.3816 70.7067 93.4926 71.6677 92.9986 72.2237C92.0846 73.1937 91.1836 74.1897 90.1146 75.0467C89.4566 75.5407 88.8886 76.1827 88.2586 76.7417C87.5596 77.3507 86.8376 77.9397 86.0866 78.4967C85.6276 78.8427 85.1516 79.1687 84.6706 79.4887C83.9456 79.9807 83.1646 80.3917 82.4076 80.8327C81.8066 81.1537 81.2446 81.5487 80.6116 81.8477C80.4756 81.9207 80.3456 82.0077 80.1886 82.0267C79.9086 82.0937 79.7096 82.0817 79.5526 81.9887C79.3986 81.9107 79.2966 81.7957 79.2006 81.6307C79.1576 81.5557 79.1066 81.4867 79.0766 81.4167C78.9776 81.1917 79.1346 80.8757 79.4206 80.5367C80.3296 79.8117 81.3476 79.4657 82.3526 78.8777C83.1026 78.4727 83.8606 78.0357 84.5886 77.5347L84.6146 77.5667Z" fill="#0B1F2A"/>
<path fill-rule="evenodd" clip-rule="evenodd" d="M0.141853 57.1424C0.252853 56.0244 0.555853 54.9004 1.02185 53.8174C1.48285 52.7364 2.21685 51.6864 3.21985 50.9004C3.35485 50.7974 3.43785 50.7054 3.61685 50.5954C3.82785 50.4794 4.04985 50.3734 4.27385 50.2844C4.63085 50.1734 4.91985 50.1194 5.23285 50.0554C5.79285 49.9774 6.34385 49.9154 6.86285 49.8924C7.91685 49.8244 8.93585 49.8204 9.95585 49.8174C14.0199 49.8464 18.0249 50.0564 22.0349 50.2524C24.9579 50.3874 27.8789 50.5214 30.7979 50.6554C41.0799 51.2064 51.3649 51.8124 61.6229 51.6064C63.8969 51.5544 66.1749 51.4424 68.4279 51.2134C68.9939 51.1674 69.5519 51.0924 70.1119 51.0224C70.3789 50.9844 70.7009 50.9604 70.9219 50.9094C71.0118 50.8724 71.0769 50.8664 71.1929 50.8194L71.5539 50.6614C72.5369 50.2094 73.5429 49.6594 74.5319 49.1244C79.6269 46.3294 84.7169 43.3344 90.3089 41.3644C92.0799 40.7944 91.9619 41.3214 90.6949 42.2774C89.4299 43.2474 87.0928 44.7964 84.1569 46.3634C81.5459 47.7404 78.9678 49.1914 76.3399 50.6074C75.0049 51.3184 73.7549 52.0314 72.2379 52.7004C71.9849 52.8514 71.0378 53.1024 70.8139 53.0864L69.6779 53.2214C68.9199 53.3114 68.1658 53.3624 67.4099 53.4334C61.3708 53.8794 55.3679 53.7794 49.3519 53.5574C42.1609 53.2724 34.6849 53.0584 27.3509 52.7114C23.3199 52.5214 19.2899 52.3234 15.2679 52.1874C13.2589 52.1254 11.2489 52.0764 9.25685 52.0994C8.26085 52.1064 7.27185 52.1484 6.31685 52.2344L5.62285 52.3234C5.42685 52.3694 5.19485 52.4134 5.04285 52.4604C4.99585 52.4824 4.95885 52.5114 4.89385 52.5044C4.83585 52.5664 4.74085 52.6394 4.66585 52.7054C4.51085 52.8464 4.32785 52.9544 4.20185 53.1314C2.76585 54.6924 2.29085 57.1564 2.42685 59.4574C2.50085 60.6214 2.72485 61.7834 3.10085 62.8794C3.18785 63.1574 3.29085 63.4274 3.41485 63.6874C3.52785 63.9534 3.64385 64.2164 3.79085 64.4584C3.92685 64.7094 4.06285 64.9604 4.23285 65.1814L4.47385 65.5264C4.55385 65.6374 4.63085 65.6784 4.70385 65.7624C5.20485 66.2184 6.06885 66.5364 6.90485 66.7784C7.75785 67.0234 8.66485 67.1804 9.57185 67.3194C11.3939 67.5864 13.2579 67.7214 15.1219 67.8104C18.8539 67.9834 22.6039 67.9584 26.3289 67.8684C32.1219 67.7274 37.7979 67.2814 43.5389 67.0184C44.8039 66.9584 46.0409 66.8794 47.3189 66.8434C52.0569 66.7104 53.5799 66.9134 54.5899 67.5844C54.8199 67.7384 55.1229 67.8914 55.2549 68.0434C55.6969 68.5654 53.7789 68.9434 50.3419 69.1504C40.1329 69.8014 29.3409 70.5204 18.3639 70.3664C16.3239 70.3284 14.2759 70.2514 12.2079 70.0784C10.1359 69.8894 8.06185 69.6604 5.88285 69.0214L5.05185 68.7334C4.76885 68.6164 4.47885 68.4744 4.19485 68.3414C3.90485 68.1884 3.59785 67.9724 3.30885 67.7784C3.15485 67.6424 3.00285 67.4964 2.85585 67.3484C2.70185 67.1954 2.56485 67.0434 2.49785 66.9314C1.74685 65.9584 1.26685 64.8944 0.869853 63.8234C0.110853 61.6694 -0.149147 59.4154 0.0808534 57.1474L0.141853 57.1424Z" fill="#0B1F2A"/>
<path fill-rule="evenodd" clip-rule="evenodd" d="M95.6099 77.4473C95.6099 77.4473 107.442 77.3633 109.456 82.8113C111.881 89.3743 94.1949 99.2233 78.3359 101.954L95.2759 86.5983L95.6099 77.4473Z" fill="#0B1F2A"/>
<path fill-rule="evenodd" clip-rule="evenodd" d="M54.0136 13.8434C54.2186 13.1814 54.9226 12.8104 55.5846 13.0154C58.8676 14.0314 52.9456 17.2914 54.0136 13.8434Z" fill="#0B1F2A"/>
<path fill-rule="evenodd" clip-rule="evenodd" d="M41.8183 1.38444C42.0233 0.722443 42.7263 0.351443 43.3893 0.556443C46.6713 1.57244 40.7503 4.83244 41.8183 1.38444Z" stroke="#0B1F2A"/>
<path fill-rule="evenodd" clip-rule="evenodd" d="M17.8339 21.0055C18.0389 20.3435 18.7429 19.9725 19.4049 20.1775C22.6879 21.1935 16.7659 24.4535 17.8339 21.0055Z" stroke="#0B1F2A"/>
<path fill-rule="evenodd" clip-rule="evenodd" d="M84.8652 13.8434C85.0702 13.1814 85.7732 12.8104 86.4362 13.0154C89.7192 14.0314 83.7972 17.2914 84.8652 13.8434Z" stroke="#0B1F2A"/>
<path fill-rule="evenodd" clip-rule="evenodd" d="M29.8584 37.9837C29.3164 36.5967 28.9704 35.1407 28.9494 33.5787C28.9404 32.0527 29.2954 30.2457 30.5484 28.9077C31.4604 27.9437 32.4664 27.3127 33.6874 27.0137C34.7494 26.7697 35.8344 26.8257 36.8034 27.0597C37.7784 27.2937 38.6594 27.6857 39.4594 28.1507C41.0504 29.0967 42.3824 30.2827 43.5644 31.5657C44.6194 32.6987 45.6104 33.8817 46.5194 35.1137C47.6674 36.6917 48.8524 38.3727 49.1774 40.4547C49.2694 41.1147 48.5234 41.1607 47.7114 40.9057C46.8914 40.6447 45.9854 40.1647 45.5384 39.3037C43.9004 36.2367 41.6594 33.2427 38.9774 31.0117C38.1704 30.3487 37.2174 29.8837 36.2754 29.6857C35.3284 29.4957 34.4384 29.5977 33.6434 29.9847C32.6994 30.4217 32.1634 31.0677 31.8694 32.0667C31.6124 33.0617 31.6734 34.2507 31.9494 35.3987C32.2754 36.8357 32.9324 38.1677 33.8454 39.3497C35.2164 41.1527 37.1184 42.6297 39.1904 43.7097C40.8074 44.5547 42.5514 45.0587 44.2964 45.5227C44.6834 45.6147 45.0644 45.7067 45.4544 45.7997C46.8884 46.1897 47.2984 46.4747 47.4254 47.2917C47.4544 47.4767 47.5074 47.6677 47.5074 47.8457C47.5104 48.4437 46.7774 48.7697 45.6204 48.6157C42.2024 48.1547 38.6614 46.8877 35.4864 44.7087C33.1354 43.1167 31.0104 40.8457 29.7954 38.0147L29.8584 37.9837Z" fill="#0B1F2A"/>
<path fill-rule="evenodd" clip-rule="evenodd" d="M64.7325 31.8378C65.2225 30.4968 65.5445 29.0208 65.4045 27.9138C65.3365 27.3498 65.1595 27.0478 64.9585 26.8798C64.7565 26.6958 64.2595 26.5818 63.6485 26.6198C63.2005 26.6608 62.7025 26.7598 62.2415 26.9498L61.5365 27.1938L60.8395 27.5298C59.1815 28.3138 57.6205 29.5298 56.2015 30.8998C54.7795 32.2758 53.4805 33.8268 52.3365 35.4898C51.3205 36.9638 50.4355 38.5498 49.7285 40.1798C48.8015 42.2748 48.1885 44.4608 47.3975 46.5598C47.1445 47.2118 46.4435 47.0058 45.8965 46.2388C45.3325 45.4728 44.9765 44.0968 45.4395 42.7318C47.1075 37.9528 49.7285 33.5958 53.3285 30.0128C54.4265 28.9638 55.5135 27.8688 56.7665 26.8968C57.9785 25.8948 59.3835 25.0248 60.9465 24.4558C61.8195 24.1518 62.6925 23.9138 63.6935 23.8808C64.6555 23.8378 65.8835 24.0218 66.8205 24.8628C67.7585 25.6988 68.0765 26.8428 68.1675 27.7888C68.2545 28.7598 68.1565 29.6648 67.9855 30.5288C67.5475 32.6548 66.7165 34.5868 65.6545 36.3998C64.8325 37.7448 63.8965 39.0248 62.8195 40.1848C61.7505 41.3498 60.5345 42.3628 59.2875 43.2818C57.3475 44.7088 55.3785 45.9708 53.4545 47.2128C53.0365 47.4898 52.6265 47.7628 52.2055 48.0428C50.6285 49.0338 50.0615 49.2098 49.2995 48.8018C49.1275 48.7098 48.9285 48.6348 48.7865 48.5218C48.3065 48.1498 48.6825 47.2948 49.8095 46.3938C53.1655 43.7038 57.1155 41.9068 59.9095 39.1588C60.9615 38.1438 61.8905 37.0048 62.7065 35.7578C63.5435 34.5298 64.1885 33.2068 64.6645 31.8198L64.7325 31.8378Z" fill="#0B1F2A"/>
</svg>
