<svg width="63" height="73" viewBox="0 0 63 73" fill="none" xmlns="http://www.w3.org/2000/svg">
<path fill-rule="evenodd" clip-rule="evenodd" d="M40.0417 59.5562C39.0618 59.943 38.029 60.2692 36.936 60.4086C36.5384 60.4595 36.1338 60.5151 35.7223 60.4945C34.9996 60.4628 34.2673 60.29 33.612 59.9673C33.2807 59.8033 32.9811 59.6252 32.6812 59.391C32.3732 59.1603 32.1187 58.8489 31.9263 58.51C31.75 58.2103 31.6456 57.8692 31.5932 57.5279C31.547 57.1828 31.5786 56.8374 31.6456 56.5055C31.8438 55.6573 32.4802 54.9303 33.2578 54.6855C33.4985 54.6012 33.5163 54.7363 33.4437 54.9835C33.352 55.2141 33.2757 55.637 33.1119 55.9203C32.947 56.1752 32.9131 56.4683 32.8396 56.7104C32.7843 56.9642 32.7862 57.2162 32.839 57.4509C32.8707 57.6902 32.9573 57.9251 33.1043 58.1453C33.2524 58.3639 33.4713 58.5513 33.7511 58.7637C34.0788 58.9922 34.4631 59.1489 34.868 59.2382C35.2761 59.3196 35.7008 59.3371 36.1273 59.329C37.0689 59.3075 38.0348 59.0633 38.9754 58.7338C39.5548 58.5268 40.1328 58.2919 40.6844 58.0205C41.5213 57.6072 42.3415 57.1345 43.048 56.5387C43.6097 56.0912 44.0846 55.5698 44.5163 55.022C44.613 54.9018 44.6978 54.7777 44.7892 54.6537C45.129 54.1931 45.2787 54.0724 45.5161 54.059C45.5692 54.0559 45.626 54.0428 45.6718 54.0482C45.8125 54.0564 45.8368 54.3539 45.6492 54.784C45.3655 55.4156 44.9825 56.0312 44.5191 56.5913C44.2858 56.8689 44.0426 57.146 43.7723 57.3934C43.494 57.6302 43.2027 57.8538 42.9011 58.06C42.0102 58.68 41.0372 59.169 40.0546 59.5823L40.0417 59.5562Z" fill="#0B1F2A"/>
<path fill-rule="evenodd" clip-rule="evenodd" d="M42.846 58.8084C42.3792 59.1703 41.8863 59.4962 41.3845 59.8052C41.1983 59.9154 41.0158 60.0229 40.8291 60.1333C40.1527 60.4787 39.4445 60.7601 38.7121 60.9556C38.3872 61.0453 38.0574 61.1207 37.7277 61.1846C37.303 61.25 36.8581 61.322 36.4241 61.2081C36.2887 61.1783 36.3312 61.0485 36.4542 60.9275C36.5797 60.8024 36.7683 60.7051 36.9895 60.6847C37.7787 60.652 38.5742 60.451 39.3684 60.1942C39.8438 60.0342 40.304 59.7797 40.7436 59.5139C41.2367 59.2358 41.7056 58.9116 42.1611 58.569C42.4434 58.3613 42.708 58.1278 42.9765 57.9017L43.5676 57.3608C43.7558 57.1723 43.9401 56.9789 44.1199 56.7837C44.3894 56.4714 44.6216 56.1385 44.8766 55.822L45.0368 55.6073C45.2463 55.3451 45.3493 55.2882 45.4738 55.2881C45.5025 55.2887 45.5337 55.284 45.5578 55.2895C45.6369 55.3062 45.6104 55.4565 45.4989 55.6863C45.1739 56.3717 44.7064 57.0206 44.1614 57.6037C43.7683 58.0481 43.324 58.4502 42.8562 58.8198L42.846 58.8084Z" fill="#0B1F2A"/>
<path fill-rule="evenodd" clip-rule="evenodd" d="M45.2704 61.6816C45.377 61.469 45.4341 61.2066 45.4753 60.9394C45.4937 60.8428 45.4716 60.739 45.4849 60.6391C45.523 60.2801 45.532 59.9055 45.5355 59.5207C45.5433 59.3505 45.5286 59.1783 45.5202 59.0041C45.5141 58.7811 45.4703 58.5432 45.6196 58.2956C45.6608 58.2213 45.7723 58.2878 45.8864 58.3774C46.0003 58.475 46.1186 58.5459 46.1412 58.6537C46.1836 59.0143 46.3193 59.4479 46.2405 59.9064C46.2082 60.1789 46.2674 60.4617 46.2571 60.749C46.2506 61.0638 46.1994 61.386 46.1238 61.7034C46.0546 61.8972 46.005 62.0929 45.8981 62.2748L45.7881 62.4822L45.6393 62.6679C45.5496 62.799 45.428 62.8976 45.3151 63.0052C45.2322 63.0966 45.1428 63.1725 45.0481 63.2476C44.9547 63.3198 44.8652 63.4169 44.7601 63.4716C44.715 63.498 44.6683 63.5189 44.6178 63.5355C44.4282 63.589 44.3524 63.557 44.2624 63.3816C44.2426 63.3446 44.2211 63.3096 44.2063 63.2747C44.1604 63.1647 44.1836 62.9922 44.2672 62.8982C44.5205 62.6036 44.7369 62.4504 44.9221 62.2378C45.0347 62.0692 45.1779 61.9089 45.2506 61.6761L45.2704 61.6816Z" fill="#0B1F2A"/>
<path fill-rule="evenodd" clip-rule="evenodd" d="M33.3617 56.0459C33.2555 56.1537 33.1274 56.2768 33.0387 56.4346C33.0074 56.4921 33.0017 56.5573 32.9708 56.6158C32.8555 56.8236 32.7526 57.0534 32.7064 57.293C32.695 57.3946 32.7073 57.5037 32.7487 57.586C32.7966 57.7078 32.867 57.7542 32.8171 57.8848C32.7985 57.9296 32.6398 58.1062 32.4287 58.2233C32.2305 58.3495 31.9083 58.3654 31.8263 58.2332C31.6612 58.0043 31.6172 57.7617 31.6165 57.5442C31.6113 57.3233 31.6615 57.1188 31.7455 56.9285C31.8522 56.7062 31.8402 56.4676 31.9214 56.2451C32.0141 56.0039 32.1319 55.7733 32.287 55.5595C32.3745 55.4263 32.4958 55.3097 32.6064 55.191C32.6934 55.1022 32.8031 55.0285 32.8985 54.9495C33.0143 54.8872 33.1166 54.8119 33.2332 54.7529C33.3264 54.7116 33.4128 54.6485 33.509 54.6029C33.6069 54.567 33.7106 54.5291 33.8181 54.503C33.8656 54.4866 33.9101 54.4974 33.9568 54.5048C34.128 54.5522 34.1686 54.6396 34.1542 54.8616C34.151 54.9125 34.1491 54.9623 34.142 55.0113C34.1172 55.1729 34.0373 55.3144 33.9664 55.4024C33.7493 55.6841 33.7544 55.7376 33.6458 55.8168C33.5752 55.8673 33.4766 55.9501 33.3864 56.0614L33.3617 56.0459Z" fill="#0B1F2A"/>
<path fill-rule="evenodd" clip-rule="evenodd" d="M20.9146 51.1467C19.0828 50.2417 17.3225 49.1667 15.7298 47.869C15.432 47.6412 15.1519 47.392 14.8736 47.1403C14.5884 46.8963 14.3159 46.6396 14.0599 46.3645C12.1981 44.4852 10.7835 42.1718 9.94275 39.6811C9.74502 39.1322 9.60883 38.5614 9.44801 38.0012C9.34115 37.4283 9.17874 36.8657 9.11394 36.2908C8.85429 34.835 8.81179 33.2964 9.13974 31.843C9.24462 31.3904 9.30494 31.4701 9.32803 31.8649C9.34598 32.2619 9.39536 32.9733 9.41036 33.7979C9.41778 34.1642 9.44216 34.5307 9.47943 34.8947C9.51502 35.2576 9.59009 35.6237 9.63225 35.9893C9.67733 36.356 9.7323 36.7204 9.81829 37.0795C9.90129 37.4387 9.95259 37.8059 10.0602 38.1589C10.4138 39.5924 10.9777 40.9697 11.6846 42.2763C12.5311 43.8442 13.7406 45.2853 15.0945 46.5074C16.5776 47.8617 18.2381 49.0309 20.0169 49.9953C21.1054 50.5998 22.2335 51.1379 23.3843 51.6199C25.1248 52.3591 26.9232 52.9893 28.7204 53.5467C30.1187 53.9802 31.5076 54.3415 32.9018 54.7483C33.2085 54.8399 33.5115 54.9186 33.8175 55.0244C34.955 55.4019 35.2989 55.5902 35.488 55.8084C35.5316 55.8571 35.593 55.9109 35.6141 55.9479C35.6839 56.0757 35.2051 55.9758 34.3729 55.734C31.8973 55.0354 29.2465 54.3486 26.632 53.4717C24.6913 52.8183 22.7627 52.0745 20.91 51.1614L20.9146 51.1467Z" fill="#0B1F2A"/>
<path fill-rule="evenodd" clip-rule="evenodd" d="M9.34918 30.6148C9.70023 29.1945 10.2498 27.8433 10.9353 26.5718C11.659 25.3235 12.5045 24.1543 13.4721 23.0949C15.4288 21.0045 17.8122 19.3081 20.4962 18.2707C21.4752 17.8916 22.4866 17.595 23.4975 17.3857C24.0066 17.2798 24.5222 17.1935 25.0444 17.1341C25.5654 17.0721 26.1025 17.0765 26.6299 17.0512C28.5044 17.0734 30.3623 17.5429 32.0286 18.3541C33.6998 19.1626 35.1829 20.2998 36.432 21.6285C38.9499 24.2813 40.6253 27.6085 41.5676 31.0657C42.0076 32.5976 42.306 34.1664 42.5199 35.7384C42.7489 37.3105 42.8451 38.8917 42.9004 40.4606C42.9694 42.4778 42.8843 44.5009 42.6845 46.5091C42.4937 48.5183 42.1533 50.5097 41.6968 52.4656C41.4079 53.6854 41.2825 53.4833 41.2838 52.4112C41.2905 51.8768 41.2996 51.1206 41.3378 50.2173C41.3599 49.3118 41.417 48.2602 41.5103 47.1255C41.6809 45.1128 41.7029 43.0964 41.6912 41.0888C41.6616 39.0803 41.5139 37.0758 41.2063 35.0991C40.6031 31.1514 39.2978 27.2866 36.9239 24.0764C36.2119 23.1252 35.4002 22.2343 34.493 21.4449C33.5839 20.6569 32.5605 20.0001 31.4741 19.4891C30.3864 18.9822 29.225 18.6197 28.0326 18.4927C26.8413 18.3641 25.6431 18.3866 24.4446 18.5954C19.1636 19.4204 14.366 22.9151 11.8694 27.6734C11.1096 29.1353 10.583 30.7224 10.3933 32.3525C10.3691 32.7613 10.3306 33.1707 10.3154 33.5792L10.3717 34.806C10.4882 35.6275 10.5969 36.4535 10.8186 37.2548L10.9284 37.7133L11.0757 38.1614L11.3734 39.0568L11.7469 39.9239L11.9353 40.3564L12.1591 40.7727C12.7192 41.9036 13.4693 42.9306 14.2701 43.906C15.0788 44.8798 16.0156 45.7407 16.9838 46.5569C17.9718 47.3515 19.0163 48.0737 20.0983 48.7317C23.4843 50.7633 27.1555 52.0882 30.8717 53.3336C31.6926 53.6074 32.5015 53.8585 33.3288 54.1544C36.3906 55.2267 37.3648 55.8541 37.7822 56.5193C37.8763 56.6718 37.9901 56.865 38.016 56.9635C38.0368 57.0496 37.9833 57.0632 37.8665 57.0273C37.7454 56.9927 37.5919 56.8913 37.3232 56.7909C36.815 56.5717 35.9866 56.246 34.8747 55.8776C31.5619 54.8196 28.0495 53.8042 24.6194 52.3616C21.1976 50.9257 17.7865 49.0892 14.9353 46.442C13.8768 45.465 12.926 44.3596 12.0879 43.1703C11.2433 41.9813 10.5955 40.6558 10.0687 39.2949C9.54804 37.9253 9.25554 36.4876 9.05827 35.0477C8.90956 33.5625 9.00444 32.0614 9.31452 30.6143L9.34918 30.6148Z" fill="#0B1F2A"/>
<path fill-rule="evenodd" clip-rule="evenodd" d="M37.3058 59.7426C38.7146 59.429 40.0885 58.8013 41.3579 58.0025C41.8152 57.7068 42.2577 57.3576 42.6923 57.0497C43.4098 56.5001 44.0688 55.769 44.63 55.0073C45.1867 54.239 45.6502 53.3905 45.852 52.5123C46.0054 51.7326 45.7938 50.9652 45.1782 50.5235C44.7921 50.2412 44.2806 50.0899 43.763 50.0071C43.2408 49.9377 42.7002 49.9021 42.1549 49.9339C41.8186 49.9594 41.8219 49.8443 42.0886 49.6299C42.3528 49.4395 42.9148 49.0911 43.6434 49.1052C44.2795 49.118 44.9434 49.2193 45.5906 49.5599C45.9225 49.7225 46.1968 50.0007 46.4616 50.2751C46.5723 50.4352 46.6777 50.6028 46.7682 50.7768C46.8483 50.9534 46.8922 51.1428 46.9486 51.3276C47.1065 52.0784 46.9787 52.7813 46.7808 53.4027C46.5823 54.0315 46.266 54.5759 45.922 55.0921C45.5066 55.7057 45.0548 56.2917 44.5599 56.853C44.312 57.1332 44.0509 57.4051 43.7702 57.6636C43.6328 57.7948 43.4744 57.9151 43.3275 58.0395L42.8791 58.3562C41.5744 59.2861 40.1522 60.0854 38.6058 60.5914C37.6541 60.8991 36.6597 61.0929 35.6479 61.1242C34.8805 61.1399 34.1043 61.0304 33.3603 60.7899C32.6206 60.538 31.9201 60.1057 31.3998 59.4804C31.0078 58.9913 30.7199 58.3765 30.6692 57.7291C30.625 57.0814 30.7838 56.4403 31.0608 55.8829C31.1826 55.6361 31.3127 55.402 31.4769 55.1826C31.7786 54.775 32.051 54.5769 32.2521 54.4604C32.4614 54.3519 32.6217 54.3421 32.7905 54.3923C32.8667 54.4138 32.9516 54.4257 33.0089 54.4583C33.2036 54.5725 33.0163 54.9347 32.6678 55.4359C32.1438 56.1716 31.8037 57.0272 31.9136 57.7403C31.951 58.103 32.103 58.4124 32.3201 58.7155C32.5531 59.0118 32.8878 59.2555 33.2567 59.4586C34.4022 60.0378 35.8983 60.0435 37.2969 59.7143L37.3058 59.7426Z" fill="#0B1F2A"/>
<path fill-rule="evenodd" clip-rule="evenodd" d="M34.9085 57.8955C35.7623 57.8923 36.6531 57.7495 37.5195 57.4973C37.8367 57.4067 38.1397 57.2725 38.4489 57.1556C39.543 56.7484 40.6075 56.2043 41.5461 55.491C41.9606 55.1742 42.3484 54.816 42.6764 54.4233C43.0961 53.9131 43.4114 53.3504 43.6567 52.7695C43.7359 52.5878 43.8648 52.618 43.9774 52.8328C44.1029 53.0464 44.1759 53.4793 43.9872 53.8881C43.2995 55.296 42.1394 56.3074 40.8541 57.0059C40.0832 57.4221 39.3068 57.8957 38.4705 58.2216C37.5537 58.5774 36.5933 58.8446 35.5971 58.9328C34.9857 58.987 34.3613 58.9778 33.7432 58.8704C33.2762 58.7856 32.8115 58.6393 32.3824 58.4083C32.1741 58.2818 31.9655 58.156 31.7813 57.9938C31.5918 57.8587 31.3867 57.6026 31.2872 57.3532C31.1229 56.9491 31.1255 56.5278 31.1961 56.1472C31.2694 55.7642 31.4129 55.406 31.6149 55.0786C31.7006 54.9323 31.7959 54.7946 31.9098 54.6636C32.3546 54.1882 32.6448 54.1767 32.8595 54.3411C32.91 54.379 32.9648 54.4127 33 54.4558C33.109 54.6063 32.9959 54.8337 32.7937 55.0904C32.4811 55.4723 32.2493 55.9792 32.1955 56.4253C32.1674 56.6464 32.1957 56.8389 32.2543 56.9489C32.281 57.0078 32.3183 57.0458 32.3617 57.0843C32.4146 57.132 32.5439 57.2231 32.6287 57.2937C33.2276 57.7043 34.0506 57.8859 34.9068 57.8684L34.9085 57.8955Z" fill="#0B1F2A"/>
<path fill-rule="evenodd" clip-rule="evenodd" d="M39.8437 61.3424C40.5875 61.2152 41.3338 60.928 42.0398 60.5513C42.3013 60.4189 42.5312 60.2334 42.7803 60.076C43.6624 59.5208 44.4737 58.8299 45.2033 58.0586C45.519 57.7098 45.8002 57.3266 46.0329 56.9276C46.3467 56.4157 46.5362 55.8657 46.7493 55.3389C46.8267 55.1743 46.967 55.196 47.1099 55.3865C47.179 55.4812 47.2652 55.6262 47.3016 55.7995C47.3273 55.9634 47.3253 56.1572 47.2734 56.352C46.8221 57.6653 46.0479 58.7971 45.0228 59.6547C44.403 60.1551 43.8251 60.7461 43.1358 61.1895C42.3861 61.6802 41.5719 62.0857 40.702 62.3551C40.1671 62.5173 39.6001 62.6138 39.0448 62.6461C38.1991 62.687 37.3332 62.5671 36.5323 62.2721C35.9105 62.0501 35.3029 61.7617 34.7772 61.3437C34.6654 61.2483 34.5556 61.1544 34.4512 61.0492C34.0984 60.6282 34.1047 60.4072 34.2444 60.1715C34.2766 60.1174 34.3017 60.0596 34.3368 60.0182C34.448 59.8822 34.7264 59.9344 35.0265 60.1177C35.47 60.3927 35.8681 60.6603 36.2869 60.8828C36.7064 61.1039 37.1554 61.2575 37.6291 61.348C38.3258 61.4826 39.1119 61.4639 39.8355 61.3132L39.8437 61.3424Z" fill="#0B1F2A"/>
<path fill-rule="evenodd" clip-rule="evenodd" d="M23.7035 31.0514C23.5763 30.8023 23.4633 30.5393 23.3635 30.2634L23.2178 29.8346L23.1406 29.5135C23.1235 29.3931 23.1183 29.272 23.1065 29.1512C23.0677 28.662 23.283 28.2419 23.6435 27.9933C24.0092 27.7455 24.4831 27.7065 24.9264 27.8624C25.0358 27.9051 25.1496 27.9482 25.2499 28.0068C25.3577 28.0628 25.4608 28.1178 25.5136 28.1613C25.649 28.254 25.7666 28.3518 25.8811 28.4509C26.1086 28.6486 26.3066 28.8551 26.4945 29.0647C26.8622 29.4921 27.212 29.9489 27.4873 30.4323C28.6013 32.3612 29.1635 34.5435 29.0526 36.7645C29.0311 37.1697 28.9773 37.5758 28.8992 37.9801C28.859 38.184 28.7831 38.4048 28.7233 38.6151C28.634 38.8228 28.5434 39.0347 28.4241 39.2315C27.9371 40.0374 27.053 40.5693 26.2048 40.7128C25.4518 40.8638 24.7129 40.8299 24.0069 40.7149C23.2982 40.5962 22.6213 40.3957 21.9638 40.1079C21.2925 39.8076 20.704 39.4156 20.158 38.9656C19.6155 38.5136 19.1119 38.0064 18.7091 37.3973C18.312 36.796 17.9799 36.0724 18.0124 35.2586C18.0242 34.8647 18.1074 34.4812 18.3046 34.1039C18.4954 33.7287 18.8487 33.4087 19.2473 33.2546C20.0568 32.9436 20.8612 33.1699 21.5002 33.4167C22.1614 33.6746 22.7674 34.0278 23.3331 34.4217C25.34 35.8308 26.9176 37.696 28.4252 39.4899C29.4036 40.6465 30.3465 41.8604 31.1694 43.1596C31.5741 43.8133 31.9563 44.4837 32.2777 45.1835C32.5994 45.8838 32.8626 46.6075 33.0928 47.3375C33.3562 48.2577 33.1678 48.1723 32.7204 47.4937C32.4794 47.1325 32.1652 46.6643 31.8014 46.1203C31.4076 45.5667 30.9739 44.9204 30.52 44.209C29.7131 42.9478 28.763 41.781 27.7813 40.6168C26.8038 39.4326 25.8305 38.2569 24.7977 37.1819C23.7654 36.1111 22.6373 35.1097 21.3646 34.5015C21.0501 34.3497 20.7128 34.2215 20.4221 34.1618C20.1229 34.1064 19.8327 34.1166 19.6211 34.2068C19.4064 34.2909 19.2533 34.4452 19.1471 34.6945C19.0413 34.9449 18.9995 35.2704 19.0295 35.5558C19.101 36.2809 19.6027 37.038 20.2186 37.6507C20.8357 38.2702 21.5944 38.8086 22.3853 39.1501C23.2044 39.4881 24.1056 39.6959 24.9767 39.718C25.8373 39.7253 26.7039 39.5353 27.208 38.9756C27.4914 38.6779 27.6776 38.2859 27.7832 37.8481C27.8807 37.3793 27.9352 36.8906 27.9435 36.3985C27.9477 35.4134 27.8051 34.4131 27.5195 33.4562C27.2431 32.4955 26.8266 31.5753 26.2868 30.7496C26.0083 30.3456 25.7031 29.9601 25.3556 29.6148C25.184 29.4449 25.0048 29.2885 24.8249 29.165C24.6755 29.0619 24.6071 29.0274 24.4765 29.0118C24.3227 28.9941 24.1982 29.1344 24.2034 29.284C24.2018 29.356 24.2078 29.4345 24.2243 29.5007C24.2452 29.6129 24.2832 29.7728 24.3339 29.9055C24.5385 30.4636 24.8438 31.0123 25.1875 31.5273C25.5328 32.0422 25.923 32.5327 26.3599 32.9623C26.786 33.3807 27.299 33.7914 27.7744 33.8902C28.1574 33.9478 28.5715 33.8802 28.9032 33.6595C29.2424 33.4434 29.518 33.0958 29.7233 32.7048C30.1279 31.9186 30.3138 30.9613 30.2262 30.0852C30.1895 29.6684 30.0148 29.2452 29.7929 28.868C29.569 28.4988 29.2599 28.1682 28.9396 28.0673C28.6104 27.9682 28.3684 28.0736 28.214 28.425C28.0603 28.7821 28.0079 29.2457 28.0108 29.6956C28.0059 30.0502 28.0584 30.3872 28.1253 30.7556C28.1785 31.1172 28.2627 31.4734 28.3487 31.8283C28.5319 32.5345 28.7561 33.2288 29.0251 33.9048C29.5616 35.2574 30.2295 36.5532 31.0202 37.7747C31.3688 38.313 31.7348 38.8222 32.1234 39.3363C32.8403 40.2933 33.3591 40.8836 33.6925 41.3286C34.0311 41.7689 34.1823 42.069 34.262 42.3618C34.2979 42.4954 34.3633 42.6558 34.3673 42.7538C34.4042 43.0697 33.455 42.5955 32.2082 41.235C30.3814 39.2139 28.8717 36.7944 27.8669 34.1045C27.6232 33.4299 27.4047 32.7404 27.2361 32.0329C27.159 31.6778 27.0545 31.3278 26.9949 30.9653L26.8917 30.4182C26.8598 30.2085 26.8442 30.0143 26.8332 29.814C26.8164 29.4153 26.8255 29.0124 26.9044 28.5756C26.9901 28.1548 27.1187 27.6269 27.6772 27.136C27.9573 26.9347 28.2992 26.7822 28.6512 26.8008C29.0022 26.7714 29.3016 26.8673 29.5646 26.9901C30.0918 27.2472 30.4054 27.6183 30.6656 27.9775C31.0331 28.5302 31.2802 29.0745 31.3967 29.7745C31.4815 30.4208 31.4359 31.0206 31.3223 31.6099C31.2041 32.1969 31.0112 32.7714 30.7028 33.3191C30.3942 33.859 29.9517 34.397 29.3023 34.7346C29.1489 34.8279 28.9632 34.872 28.7932 34.9348C28.6176 34.9843 28.4337 34.9998 28.2538 35.0263C28.0759 35.029 27.8989 35.018 27.7224 35.008C27.5182 34.9813 27.3273 34.9248 27.1598 34.859C26.509 34.5785 26.0695 34.1857 25.6562 33.7848C24.8531 32.9671 24.2037 32.0765 23.683 31.0686L23.7035 31.0514Z" fill="#0B1F2A"/>
<path fill-rule="evenodd" clip-rule="evenodd" d="M44.5477 23.6953C44.5739 23.7901 44.4387 23.8007 44.2085 23.7699C44.135 23.7604 43.9355 23.6761 43.9159 23.6427C43.8776 23.5779 43.841 23.5129 43.8204 23.4527C43.8054 23.4173 43.881 22.9469 43.9082 22.7812C43.9311 22.6209 43.9886 22.475 44.0593 22.3363C44.1953 22.0502 44.3525 21.7714 44.5298 21.5029C44.5695 21.4438 44.6202 21.3921 44.6787 21.3474C44.8847 21.1968 45.0389 21.0124 45.1839 20.8119C45.2087 20.7791 45.2425 20.7533 45.2402 20.6962C45.2265 20.5968 45.7145 20.1164 45.8083 20.0894C46.0259 20.0077 46.2255 19.9105 46.4443 19.8488C46.4751 19.84 46.4934 19.8075 46.5441 19.8344C46.6604 19.8965 46.705 19.8474 46.766 19.8216C46.8488 19.7842 46.938 19.7579 47.0349 19.7496C47.0826 19.7451 47.1504 19.7811 47.2107 19.8064C47.265 19.8288 47.3203 19.9868 47.3174 20.0086C47.3081 20.0724 47.3702 20.1278 47.4041 20.1878C47.4156 20.2078 47.4304 20.2342 47.4372 20.2518C47.4428 20.2894 47.2103 20.7633 47.1812 20.7901C47.1742 20.7894 47.0619 20.9071 46.9438 21.0224C46.8251 21.1391 46.7096 21.2678 46.6913 21.3003C46.6708 21.332 46.6244 21.3352 46.5857 21.3468C46.5628 21.3498 46.2707 21.76 46.2593 21.7745C46.1797 21.8421 46.1431 21.9458 45.9999 21.9604C45.972 21.9644 45.963 21.9845 45.9509 22.0017C45.8471 22.1496 45.7079 22.2708 45.581 22.4068C45.5183 22.4774 45.4746 22.5612 45.4224 22.6395C45.4128 22.6539 45.3921 22.6608 45.3774 22.6719C45.3591 22.6857 45.3367 22.697 45.326 22.716C45.2095 22.9068 45.0492 23.078 44.9757 23.296C44.9557 23.3431 44.7469 23.5215 44.7323 23.5828C44.7225 23.6153 44.5367 23.6564 44.5477 23.6953Z" fill="#0B1F2A"/>
<path fill-rule="evenodd" clip-rule="evenodd" d="M34.7712 14.3561C34.7979 14.4537 34.6545 14.4648 34.4158 14.4351C34.3398 14.4256 34.133 14.3401 34.112 14.306C34.0708 14.2388 34.0315 14.1714 34.0075 14.109C33.9918 14.072 34.0466 13.5796 34.0605 13.4038C34.0725 13.2348 34.1212 13.0812 34.1824 12.9343C34.3085 12.6361 34.4562 12.3492 34.6057 12.0707C34.6395 12.0092 34.685 11.9537 34.7418 11.9079C34.9356 11.7485 35.061 11.5503 35.1601 11.3385C35.1766 11.3031 35.2041 11.2739 35.1845 11.2175C35.1556 11.1233 35.4686 10.5924 35.5353 10.5442C35.7102 10.4231 35.8539 10.2825 36.0112 10.1482C36.035 10.1302 36.0357 10.0961 36.0977 10.1025C36.242 10.1177 36.2547 10.0549 36.2956 10.0085C36.3521 9.9435 36.412 9.88067 36.492 9.82809C36.5316 9.80166 36.615 9.80022 36.6855 9.79097C36.7497 9.78257 36.9035 9.88744 36.9151 9.90914C36.9479 9.97087 37.0408 9.98476 37.1106 10.0181C37.1341 10.0294 37.1651 10.0441 37.1826 10.0554C37.2204 10.0775 37.2794 10.696 37.2519 10.7482C37.2634 10.7711 36.9403 11.4526 36.9153 11.5364C36.9023 11.58 36.852 11.6013 36.8126 11.6282C36.7947 11.643 36.5559 12.1879 36.541 12.2027C36.4615 12.295 36.4347 12.4188 36.2772 12.4582C36.246 12.466 36.2376 12.4889 36.2265 12.5099C36.1301 12.688 35.986 12.8335 35.8567 12.9881C35.792 13.0668 35.7526 13.1609 35.699 13.2458C35.6895 13.2619 35.6666 13.2692 35.6518 13.2815C35.6324 13.297 35.6079 13.3092 35.5974 13.33C35.4929 13.5435 35.3084 13.7147 35.2332 13.943C35.2116 13.992 34.984 14.176 34.9685 14.2394C34.9574 14.2731 34.7603 14.316 34.7712 14.3561Z" fill="#0B1F2A"/>
<path fill-rule="evenodd" clip-rule="evenodd" d="M46.6594 61.0008C46.5519 61.5029 46.3951 62.03 46.095 62.5156C45.977 62.687 45.878 62.8746 45.7186 63.0183C45.4542 63.2867 45.0915 63.4801 44.7429 63.5665C44.3903 63.6564 44.0425 63.6705 43.712 63.6385C43.4188 63.6114 43.1322 63.5772 42.8525 63.528C42.674 63.4934 42.4935 63.464 42.3198 63.4123C42.1484 63.3517 41.9875 63.2614 41.8385 63.1508C41.7462 63.0798 41.8115 62.9627 41.9498 62.8522C42.0869 62.7458 42.2998 62.6201 42.4892 62.6246C43.1323 62.7626 43.7533 62.8397 44.3303 62.8212C44.6932 62.8014 44.9525 62.5895 45.1733 62.308C45.4156 62.0047 45.5756 61.6038 45.675 61.1669C45.7402 60.8992 45.7792 60.6154 45.811 60.3304C45.8526 59.8956 45.8915 59.4486 45.8991 59.0003C45.9019 58.6526 45.8554 58.301 45.8675 57.9421C45.8708 57.8627 45.8651 57.7835 45.8744 57.7039C45.9265 57.4097 46.0353 57.3311 46.2888 57.3284C46.3433 57.3272 46.3944 57.3207 46.4391 57.3235C46.5735 57.3296 46.7671 57.4914 46.7998 57.6886C46.9059 58.2769 46.8939 58.8733 46.8503 59.5177C46.821 59.9945 46.77 60.4902 46.683 61.0036L46.6594 61.0008Z" fill="#0B1F2A"/>
<path fill-rule="evenodd" clip-rule="evenodd" d="M18.7361 14.283C18.8271 14.3395 18.7468 14.4599 18.5747 14.6119C18.5197 14.6606 18.3255 14.7463 18.2859 14.7371C18.2103 14.7183 18.1341 14.6997 18.0728 14.6736C18.0378 14.6552 17.6977 14.2887 17.5622 14.1785C17.4352 14.0683 17.3401 13.9435 17.2509 13.8155C17.0707 13.5555 16.8647 13.313 16.6952 13.0509C16.6559 12.9938 16.6301 12.9285 16.6134 12.8576C16.5584 12.6117 16.4272 12.4102 16.2644 12.2299C16.2372 12.1997 16.2199 12.1617 16.1575 12.1572C16.0515 12.1525 15.6621 11.6308 15.6621 11.525C15.626 11.2911 15.5546 11.0794 15.4928 10.8589C15.4838 10.8276 15.4509 10.8113 15.4794 10.7557C15.5453 10.6256 15.4861 10.5872 15.4657 10.519C15.4343 10.4276 15.4007 10.3367 15.3908 10.229C15.3988 10.1651 15.4351 10.0808 15.452 10.012C15.4675 9.94856 15.5695 9.89939 15.5926 9.89986C15.6521 9.90738 15.6819 9.84214 15.7197 9.8086C15.733 9.79697 15.7501 9.78184 15.7638 9.77422C15.811 9.74278 16.4913 9.90555 16.5074 9.96947C16.5118 9.97424 16.6605 10.114 16.8187 10.2635C16.9757 10.4118 17.1436 10.5657 17.1823 10.5941C17.2238 10.6237 17.2275 10.6796 17.2414 10.7281C17.2545 10.745 17.6899 11.2308 17.7002 11.2567C17.7584 11.3784 17.8697 11.4686 17.8402 11.6462C17.835 11.6811 17.8542 11.7008 17.8702 11.723C18.0035 11.9121 18.0805 12.1372 18.1676 12.3531C18.212 12.4637 18.2818 12.56 18.3285 12.6691C18.3373 12.6883 18.3313 12.7156 18.3338 12.7388C18.337 12.7677 18.3352 12.7993 18.3472 12.8232C18.4734 13.0716 18.5344 13.353 18.6796 13.5891C18.7125 13.6441 18.7247 13.9758 18.7663 14.0356C18.789 14.0707 18.6985 14.2614 18.7361 14.283Z" fill="#0B1F2A"/>
<path fill-rule="evenodd" clip-rule="evenodd" d="M2.508 22.2089C2.39266 22.2408 2.38673 22.0709 2.45629 21.7893C2.47821 21.6996 2.60508 21.4549 2.6441 21.4299C2.71936 21.3805 2.79301 21.333 2.85699 21.3042C2.89625 21.2912 3.35291 21.3314 3.51279 21.3134C3.66553 21.3056 3.80406 21.3329 3.9413 21.3686L4.79507 21.5498C4.85885 21.5634 4.9192 21.5917 4.97913 21.6304C5.18252 21.7681 5.40996 21.814 5.64386 21.8252C5.68268 21.8269 5.72093 21.8415 5.76523 21.8004C5.83522 21.7357 6.46689 21.8223 6.54726 21.8693C6.74095 21.987 6.94233 22.0699 7.14247 22.1685C7.17129 22.1823 7.20609 22.1688 7.22629 22.2279C7.27274 22.3649 7.33994 22.3522 7.4037 22.37C7.49192 22.3956 7.58018 22.4284 7.66424 22.4841C7.70594 22.5112 7.73958 22.5907 7.77489 22.6556C7.80759 22.7144 7.75858 22.9044 7.74189 22.9236C7.6927 22.9789 7.71259 23.0745 7.70518 23.1556C7.70272 23.1826 7.69897 23.2181 7.69433 23.24C7.68233 23.2874 7.12857 23.5537 7.07296 23.5452C7.06674 23.5448 6.87388 23.5478 6.66786 23.5497C6.46271 23.5536 6.24724 23.5589 6.20164 23.5655C6.15451 23.5727 6.11315 23.5364 6.07004 23.5117C6.0526 23.5033 5.41787 23.5239 5.39173 23.515C5.26529 23.482 5.12534 23.5085 5.01665 23.3731C4.99564 23.3463 4.96784 23.3478 4.94225 23.3459C4.71447 23.325 4.49893 23.2371 4.28232 23.1582C4.17097 23.1195 4.05257 23.1055 3.9381 23.0765C3.91773 23.0712 3.90167 23.0489 3.88301 23.0363C3.85953 23.0208 3.83793 22.9955 3.81236 22.9894C3.54057 22.9187 3.29445 22.77 3.01492 22.7111C2.94799 22.7001 2.71345 22.4516 2.64024 22.4372C2.59654 22.4297 2.55296 22.1965 2.508 22.2089Z" fill="#0B1F2A"/>
</svg>
