<svg width="96" height="89" viewBox="0 0 96 89" fill="none" xmlns="http://www.w3.org/2000/svg">
<path fill-rule="evenodd" clip-rule="evenodd" d="M44.5734 42.7351C44.3546 42.1239 44.6168 41.4727 45.3244 41.0296C45.5584 40.9052 46.098 41.2035 46.1767 41.2441C46.3085 41.4608 46.4741 41.7828 46.6045 42.0942C46.6373 42.2519 47.3477 45.5483 47.5116 46.8531C47.5424 47.0875 47.5689 47.3254 47.5801 47.5826C47.5909 47.676 47.5822 47.9344 47.5742 48.1292C47.5667 48.3358 47.5388 48.5403 47.509 48.7433C47.4384 49.1481 47.2913 49.5227 47.0637 49.851C46.8391 50.1924 46.4824 50.3713 46.138 50.5826L45.5009 50.8595L45.1611 51.0201C44.6805 51.2505 44.1998 51.5014 43.7283 51.7625C43.4978 51.8912 43.2482 52.0336 43.0428 52.1573C43.031 52.1662 43.0359 52.1659 43.0332 52.1704C43.0282 52.1826 43.0447 52.1855 43.0514 52.1825C43.0514 52.1825 43.0096 52.2003 42.9928 52.2539C42.9858 52.2767 42.9889 52.2981 42.9994 52.3185C43.0043 52.3287 43.0375 52.3434 43.0575 52.3549L43.077 52.3644L43.1519 52.3817L43.3023 52.4161C43.7034 52.507 44.112 52.5805 44.5226 52.6393C44.9332 52.698 45.3467 52.7424 45.7545 52.7705C45.8694 52.7812 46.376 52.8099 46.7688 52.8023C47.2068 52.7314 47.6113 52.807 47.894 52.9425C47.992 52.9843 48.0727 53.037 48.1308 53.0692C48.2118 53.121 48.308 53.2169 48.3768 53.2926C48.5235 53.4542 48.651 53.6379 48.7784 53.8336C48.896 53.9798 49.0899 54.6643 49.2078 55.6802C49.2257 55.8169 49.2451 55.9623 49.2656 56.115C49.2758 56.1797 49.2751 56.1385 49.2792 56.1547C49.286 56.1601 49.2898 56.163 49.2923 56.1663C49.3012 56.1739 49.2856 56.2207 49.258 56.3336C49.2271 56.4511 49.198 56.5842 49.1798 56.7283C49.1669 56.8122 49.1645 56.8546 49.1781 56.89C49.2028 56.9541 49.2691 56.9483 49.3765 56.8961L49.444 56.859C49.4861 56.8319 49.505 56.741 49.5878 56.8105C49.789 56.9584 49.9346 56.6722 50.1231 56.4333C50.5189 55.9096 50.929 55.3965 51.3752 54.9132C51.5968 54.6742 51.8974 54.4976 52.1768 54.3063C52.4298 54.1326 52.6392 54.4797 52.6133 54.5849C52.5371 54.891 52.819 54.8017 52.9608 54.8707C53.0087 54.8937 53.0709 54.9253 53.097 54.9606C53.126 55 52.7282 55.8699 52.3058 56.7749C52.1993 57.0006 52.0924 57.2293 51.99 57.4465L51.9136 57.6077C51.8925 57.655 51.863 57.713 51.8161 57.798C51.7318 57.9527 51.6508 58.1007 51.5746 58.2401C51.2778 58.7778 50.9629 59.3386 50.8684 59.4757C50.8592 59.4901 50.8018 59.5794 50.6312 59.8439C50.462 60.1332 50.1796 60.571 49.7174 61.3926C49.613 61.5789 49.4642 61.8436 49.2823 62.1676C49.2382 62.2382 49.1856 62.3582 49.1417 62.3986C49.097 62.4406 49.0508 62.4845 49.0025 62.5306C48.9059 62.6206 48.803 62.717 48.696 62.8176C48.6437 62.8643 48.5819 62.9284 48.5346 62.9629L48.4021 63.0405C48.312 63.0918 48.2187 63.1441 48.1239 63.1983C47.9914 63.2203 47.8339 63.2411 47.765 63.2126C47.71 63.2018 47.7055 63.1949 47.6835 63.1842C47.6299 63.1673 47.5415 63.1743 47.4884 63.1629C47.3664 63.1455 47.2512 63.0969 47.1479 63.0148C47.0431 62.9387 46.9591 62.8105 46.8818 62.7201C46.8057 62.6293 46.7302 62.5876 46.696 62.5409C46.5002 62.3531 46.3907 61.8269 46.368 61.1803C46.3532 61.0341 46.1381 58.9228 45.922 56.7985L45.8771 56.4325L45.8471 56.2317C45.8383 56.1791 45.8234 56.0716 45.8198 56.0651L45.8092 56.0589C45.7954 56.0516 45.7832 56.0509 45.7729 56.0537C45.7528 56.0585 45.7432 56.0737 45.7432 56.0737C45.7476 56.068 45.7438 56.0714 45.7438 56.0714L45.7421 56.0748C45.7421 56.0748 45.7436 56.075 45.7403 56.0754L45.5892 56.0637C45.1063 56.0219 44.6353 55.9451 44.1799 55.78C44.0009 55.7152 43.8081 55.703 43.6193 55.6838L43.0115 55.608L42.7071 55.5615L42.3105 55.4923C41.6423 55.3696 40.8694 55.2019 40.2402 54.9793C39.5922 54.7589 39.0658 54.4625 38.7215 54.1222C38.5629 53.9463 38.4123 53.7733 38.3136 53.5692C38.2625 53.4671 38.2162 53.3584 38.1767 53.2346C38.1358 53.1107 38.1731 52.9481 38.1267 52.8373C38.1277 52.5745 38.1735 52.3668 38.2852 52.1442C38.3312 52.0356 38.3861 51.9247 38.4396 51.8135C38.5 51.7021 38.5248 51.5916 38.6349 51.4793L38.9103 51.1446C39.0048 51.032 39.1459 50.924 39.2615 50.8134C39.4874 50.5891 39.7856 50.383 40.0744 50.1759C40.277 50.0215 40.5362 49.909 40.7637 49.7799C41.0253 49.6377 41.2891 49.4954 41.5456 49.3564C42.0324 49.0619 42.5288 48.7951 43.0349 48.5447L43.8019 48.1762L44.193 47.9989L44.3533 47.9328C44.3909 47.915 44.4384 47.9101 44.4655 47.8762C44.491 47.8414 44.4984 47.7974 44.5017 47.7554C44.506 47.7125 44.5025 47.6714 44.4969 47.6283C44.4925 47.4898 44.4824 47.2997 44.4638 47.126C44.4506 46.7702 44.5148 44.7331 44.4113 44.2266C44.3576 43.9523 44.6608 42.9867 44.5734 42.7351Z" fill="#0B1F2A"/>
<path fill-rule="evenodd" clip-rule="evenodd" d="M48.7113 63.7942C48.5608 63.8541 48.4058 63.9071 48.252 63.9512C48.0982 63.989 47.9399 63.9707 47.7838 63.9832C47.6277 63.9838 47.4733 63.9374 47.3186 63.9171C47.1704 63.8664 47.0379 63.7773 46.9059 63.7C46.6615 63.5078 46.4611 63.247 46.3095 62.9455C46.2269 62.8007 46.1737 62.6451 46.1042 62.4951L45.9961 62.1893C45.752 61.4115 45.6195 60.68 45.4972 59.9436C45.3808 59.2101 45.2908 58.4816 45.2158 57.7537L45.1143 56.6626L45.0971 56.4412L45.0956 56.3917L45.0942 56.2867C45.0795 56.2621 45.033 56.2661 45.0015 56.2585L44.9476 56.253C44.911 56.2508 44.9545 56.2507 44.8429 56.2473L43.7229 56.2108C42.9605 56.1788 42.182 56.1142 41.4047 55.981C40.6689 55.8603 39.9304 55.68 39.2131 55.4074C38.85 55.2859 38.5039 55.1073 38.1553 54.9415L37.6477 54.6443C37.4129 54.5113 37.1559 54.2966 36.9122 54.1252C36.7332 53.8979 36.4911 53.7084 36.4342 53.4246C36.3026 52.8729 36.593 52.362 37.0039 51.9316C37.5007 51.4297 37.7318 51.307 38.0565 51.0694C38.673 50.6475 39.2983 50.2909 39.9322 49.9511C40.5653 49.6129 41.2057 49.2983 41.8563 49.0013C42.1816 48.8535 42.5087 48.7093 42.8401 48.5714L43.2085 48.4243L43.3912 48.3619L43.437 44.6324C43.4765 43.2187 43.5054 41.8233 43.684 40.3677L43.7234 40.1065C43.7396 39.9891 43.7703 39.8752 43.7966 39.7607C43.8445 39.5262 43.9438 39.3268 44.081 39.1456C44.3886 38.9032 44.7521 38.6882 45.1675 38.7178C45.3661 38.6978 45.5785 38.7427 45.7722 38.7905C45.9448 38.8222 46.0784 38.8835 46.2257 38.9359C46.7964 39.158 47.2908 39.4372 47.7688 39.7262C48.7249 40.3043 49.6209 40.9183 50.5205 41.51C51.0781 41.8795 51.6389 42.2395 52.2029 42.5927L53.0522 43.1136C53.2123 43.2031 53.3441 43.284 53.4836 43.3545L53.6811 43.1583L54.1489 42.738C54.5034 42.4289 54.8677 42.1299 55.2504 41.8478C56.0182 41.2905 56.8212 40.7535 57.8551 40.4683C58.1464 40.4025 58.3728 40.4018 58.5299 40.4579C58.678 40.5043 58.7316 40.5725 58.7175 40.6527C58.6843 40.8251 58.4125 40.9955 58.1152 41.2969C57.507 41.8827 56.5657 42.9454 55.2536 44.1068L55.0206 44.3145L54.6742 44.6348C54.3562 44.9314 54.043 45.2482 53.7291 45.5567L52.6787 44.9209L52.1532 44.6023L51.868 44.4226C51.4882 44.1844 51.1139 43.9416 50.7427 43.6956L48.5536 42.2092C47.8355 41.7201 47.1198 41.2301 46.4215 40.83C46.0723 40.6214 45.7307 40.468 45.4433 40.3664C45.355 40.3488 45.3842 40.3479 45.3775 40.3446L45.3587 40.3391C45.3443 40.3362 45.3296 40.3385 45.3154 40.3462C45.307 40.3525 45.302 40.3627 45.2966 40.3737L45.2892 40.391L45.2586 40.5816C45.2172 40.8617 45.186 41.1637 45.1593 41.4662C45.106 42.0741 45.07 42.6972 45.0394 43.3219C44.9786 44.5726 44.9411 45.8358 44.9093 47.1013C44.9048 47.3843 44.8989 47.6677 44.8942 47.9543C44.8965 48.4221 44.8984 48.895 44.9009 49.3755C43.4739 49.888 43.1102 50.0693 42.3896 50.3986C41.7311 50.7075 41.079 51.0416 40.4434 51.3989C39.8123 51.7575 39.1866 52.1396 38.6398 52.5573L38.4431 52.7146L38.3678 52.7804C38.3233 52.821 38.283 52.8657 38.2475 52.9144C38.2138 52.9619 38.1816 53.0242 38.205 53.0824C38.2305 53.1384 38.2909 53.1649 38.3357 53.2031C38.4085 53.2556 38.3965 53.2575 38.5695 53.356C38.7338 53.4497 38.8875 53.5597 39.0637 53.6346C40.0599 54.1426 41.1895 54.4214 42.3562 54.5552C42.9403 54.6215 43.5335 54.6565 44.1392 54.6746L45.1394 54.7063C45.6351 54.724 46.1109 54.7922 46.5468 54.9105L46.6279 56.074L46.6962 56.8747C46.74 57.3487 46.7887 57.8225 46.8453 58.2929C46.9608 59.2336 47.0987 60.1743 47.3134 61.0677C47.3854 61.3689 47.4855 61.709 47.5731 61.9366C47.6347 62.0837 47.6913 62.2431 47.838 62.3182C47.9934 62.3776 48.1562 62.2981 48.2822 62.2078C48.3161 62.1815 48.3459 62.1699 48.3831 62.1304L48.533 61.9905C48.6403 61.8989 48.7353 61.7673 48.8381 61.6582C49.6281 60.6923 50.2398 59.4952 50.7702 58.2908C51.054 57.6513 51.3046 56.9929 51.5465 56.3318L51.8875 55.3329L52.3356 53.8815L53.7596 54.1877L54.7347 54.3848C55.3853 54.5136 56.0364 54.6315 56.6872 54.7426C57.3378 54.8488 57.9885 54.9514 58.637 55.0266C58.9611 55.0692 59.2831 55.0971 59.605 55.1249C59.7672 55.1405 59.9241 55.1425 60.0838 55.1526L60.3167 55.1631L60.4698 55.16C60.5959 55.1626 60.7081 55.151 60.8143 55.1344C60.9116 55.1103 61.0559 55.1024 61.06 54.9723C61.0969 54.7549 61.0244 54.5285 60.9481 54.3484C60.6878 53.7085 60.2518 53.0835 59.7869 52.5078C59.3136 51.9301 58.7952 51.3812 58.2404 50.8658C57.9658 50.6057 57.6796 50.3553 57.3937 50.1054C57.2921 50.0184 56.9764 49.7597 56.7735 49.5674L56.6064 49.4099C56.556 49.3553 56.4683 49.3128 56.5081 49.2275L56.579 48.774L56.6651 48.3716L56.7506 48.0434C56.8042 47.8667 56.8524 47.6884 56.9153 47.5164C57.0316 47.167 57.1759 46.8277 57.3403 46.4915C57.9703 45.2531 58.6146 44.5649 59.1137 44.1663C59.6189 43.7691 59.9893 43.6403 60.3464 43.6414C60.5079 43.6404 60.6979 43.6177 60.8108 43.6536C61.2182 43.8141 60.4358 44.5101 59.4619 45.9175C59.1038 46.4445 58.8053 47.0145 58.573 47.611C58.4545 47.9084 58.3583 48.2136 58.2741 48.5189L58.2463 48.6333L58.244 48.6573L58.2424 48.7C58.2394 48.7285 58.2415 48.7531 58.2757 48.7646L58.3136 48.7869C58.3256 48.7933 58.322 48.7868 58.4172 48.8676C58.5612 48.9844 58.698 49.1107 58.8369 49.2349C59.1173 49.4789 59.3902 49.736 59.659 50.0016C60.1948 50.5333 60.7189 51.0908 61.1951 51.7182C61.4344 52.0312 61.6634 52.3596 61.8779 52.7091C61.9843 52.8845 62.0843 53.0699 62.1834 53.257L62.3217 53.5524C62.3444 53.6023 62.3688 53.6488 62.3877 53.7043L62.4681 53.9189C62.6989 54.6083 62.7928 55.3235 62.5293 55.8822L62.4387 56.101C62.423 56.1374 62.41 56.1777 62.3911 56.2109L62.2939 56.2702C62.1593 56.3415 62.0484 56.4434 61.893 56.4909C61.575 56.5694 61.2767 56.7136 60.9294 56.6958C60.1322 56.7495 59.8912 56.7073 59.467 56.6849C59.0798 56.6533 58.6967 56.6154 58.3209 56.568C57.566 56.4756 56.8225 56.3632 56.0842 56.2371L54.2672 55.9069L53.441 55.7419L53.4361 55.7379L52.9687 57.0917C52.6944 57.8638 52.377 58.6253 52.0394 59.381C51.687 60.1348 51.307 60.8797 50.85 61.6094C50.6178 61.9737 50.3689 62.3346 50.0746 62.69C49.9193 62.8676 49.777 63.0443 49.5823 63.2178C49.4978 63.2896 49.3873 63.4252 49.2118 63.5211L48.7328 63.8284L48.7113 63.7942Z" fill="#0B1F2A"/>
<path fill-rule="evenodd" clip-rule="evenodd" d="M74.6454 25.1286C74.6569 25.2569 74.4998 25.2811 74.2433 25.2534C74.1614 25.2441 73.9496 25.1413 73.933 25.097C73.9016 25.0113 73.8721 24.925 73.8595 24.8449C73.8501 24.7967 74.0215 24.1598 74.084 23.9414C74.1371 23.7262 74.2333 23.5343 74.3348 23.3455C74.5469 22.9655 74.7549 22.582 74.9901 22.2159C75.0417 22.1342 75.104 22.0594 75.1791 21.9951C75.4337 21.7722 75.6279 21.5088 75.806 21.2291C75.836 21.183 75.8759 21.1433 75.8726 21.072C75.8556 20.9462 76.4247 20.2478 76.5394 20.1945C76.8063 20.047 77.0285 19.8613 77.3006 19.7268C77.3381 19.7069 77.3603 19.6669 77.4268 19.6801C77.5811 19.7118 77.6317 19.6396 77.705 19.5885C77.7977 19.5097 77.9303 19.4714 78.0597 19.4321C78.1242 19.4128 78.2118 19.4202 78.2857 19.4139C78.3538 19.4096 78.413 19.5146 78.4106 19.5387C78.4004 19.6055 78.4736 19.6199 78.5119 19.6539C78.5245 19.6658 78.542 19.6802 78.5499 19.693C78.5589 19.7068 78.5026 19.8963 78.4717 20.1166C78.4255 20.3231 78.3577 20.5137 78.3379 20.5444C78.3426 20.5766 77.7642 21.3527 77.7164 21.4535C77.6896 21.5048 77.6293 21.5283 77.578 21.5592C77.5558 21.5766 77.1253 22.2149 77.1073 22.2387C76.9915 22.3486 76.9295 22.5007 76.7415 22.5558C76.7052 22.5668 76.6898 22.596 76.6711 22.6214C76.5157 22.8462 76.3144 23.0374 76.1316 23.2435C76.0359 23.3487 75.9708 23.473 75.8882 23.5856C75.8735 23.6062 75.8453 23.6186 75.825 23.6354C75.7993 23.6568 75.7706 23.6758 75.7538 23.7027C75.5788 23.9834 75.3502 24.2347 75.222 24.5431C75.1891 24.6113 74.9072 24.8737 74.8805 24.9602C74.8626 25.0065 74.6393 25.0758 74.6454 25.1286Z" fill="#0B1F2A"/>
<path fill-rule="evenodd" clip-rule="evenodd" d="M79.1744 38.8902C79.081 39.0037 78.949 38.8708 78.7621 38.604C78.7025 38.5182 78.6138 38.234 78.6407 38.1832C78.6918 38.0834 78.7483 37.9853 78.8149 37.9084C78.8485 37.8462 79.6227 37.54 79.8965 37.4704C80.1602 37.3753 80.4236 37.3697 80.6902 37.3552C81.2234 37.3587 81.7549 37.3677 82.271 37.4347C82.3867 37.4458 82.4998 37.4761 82.6071 37.5246C82.9785 37.6847 83.357 37.7608 83.7418 37.8241C83.8055 37.8354 83.8673 37.86 83.9412 37.8249C84.0659 37.7555 85.0799 38.0499 85.1951 38.1337C85.4906 38.3169 85.7678 38.543 86.0454 38.75C86.085 38.7794 86.1374 38.7847 86.1571 38.8546C86.202 39.0187 86.3017 39.0409 86.3904 39.0943C86.5128 39.1686 86.6322 39.2523 86.7429 39.3517C86.7978 39.4011 86.8347 39.4906 86.877 39.5648C86.9143 39.6329 86.8202 39.765 86.7935 39.7734C86.7156 39.7966 86.7316 39.8868 86.7102 39.9497C86.703 39.9718 86.6935 39.9997 86.6836 40.0158C86.6649 40.0313 85.7984 40.0981 85.7181 40.0855C85.7128 40.0845 85.639 40.0724 85.5271 40.0537C85.4164 40.0387 85.2691 40.0173 85.1175 39.996C84.8099 39.9731 84.5161 39.8793 84.4482 39.8863C84.3808 39.8805 84.3277 39.8283 84.2706 39.7887C84.2426 39.7645 83.3584 39.6481 83.3258 39.6431C83.1529 39.5819 82.9654 39.5975 82.8155 39.4327C82.7859 39.3999 82.7482 39.3987 82.7124 39.3926C82.4034 39.3512 82.1072 39.2442 81.8045 39.1718C81.6492 39.1292 81.4915 39.1352 81.3354 39.1168C81.3076 39.1137 81.2811 39.0918 81.2534 39.0808C81.2186 39.0674 81.1843 39.0453 81.1487 39.0441C80.7808 39.0362 80.41 38.9561 80.0553 39.038C79.9749 39.05 79.5672 38.9501 79.4774 38.9942C79.4289 39.0108 79.213 38.8383 79.1744 38.8902Z" fill="#0B1F2A"/>
<path fill-rule="evenodd" clip-rule="evenodd" d="M21.2118 78.3371C21.192 78.5015 20.9862 78.4509 20.6549 78.2805C20.5499 78.2264 20.2992 77.987 20.2919 77.9247C20.2765 77.8034 20.2654 77.6826 20.2756 77.5785C20.2797 77.5082 20.7221 76.851 20.8675 76.6219C21.0071 76.4003 21.1859 76.2196 21.3718 76.0491L22.4966 75.0109C22.5807 74.9357 22.676 74.8729 22.7813 74.8228C23.1426 74.6486 23.4361 74.3998 23.7092 74.1263C23.7549 74.0811 23.8105 74.046 23.8231 73.9657C23.8438 73.8326 24.6356 73.156 24.764 73.0994C25.0838 72.9584 25.3787 72.7879 25.6815 72.6281C25.729 72.6105 25.7605 72.5688 25.8366 72.5899C26.0141 72.6376 26.0817 72.5596 26.1739 72.5083C26.3003 72.4356 26.4325 72.3693 26.5761 72.316C26.6473 72.2895 26.7461 72.2944 26.8332 72.2858C26.9123 72.2784 26.9874 72.4097 26.9832 72.4385C26.9697 72.5184 27.0585 72.5373 27.1058 72.5789C27.1212 72.5933 27.1427 72.6127 27.1527 72.6276C27.1644 72.6475 26.8406 73.5364 26.7897 73.6178C26.8116 73.6779 25.956 74.5446 25.8812 74.6651C25.8374 74.7244 25.7607 74.7471 25.6936 74.7792C25.6615 74.7944 25.0233 75.5312 24.9931 75.5542C24.8336 75.6762 24.7214 75.8504 24.4874 75.884C24.4411 75.8906 24.4157 75.9233 24.3879 75.951C24.1474 76.1965 23.8583 76.3861 23.584 76.5903C23.4429 76.6942 23.3266 76.8254 23.1976 76.942C23.1744 76.9626 23.1372 76.969 23.1085 76.9837C23.0717 77.0019 23.0304 77.0146 23.0019 77.0426C22.7098 77.3325 22.3591 77.5579 22.107 77.8847C22.0505 77.9603 21.6172 78.1542 21.5596 78.2471C21.5272 78.2983 21.2193 78.2705 21.2118 78.3371Z" fill="#0B1F2A"/>
<path fill-rule="evenodd" clip-rule="evenodd" d="M17.8265 59.2056C17.9177 59.1245 18.0044 59.2651 18.0893 59.5379C18.116 59.6245 18.1263 59.8933 18.1018 59.9326C18.0527 60.0092 18.0035 60.0837 17.9524 60.1378C17.9204 60.1698 17.4094 60.334 17.2438 60.4075C17.0803 60.4746 16.9171 60.5015 16.7528 60.5211C16.4224 60.563 16.0973 60.6228 15.7856 60.6928C15.7158 60.7068 15.6425 60.7065 15.5701 60.6982C15.3154 60.6614 15.078 60.7243 14.8582 60.8142C14.8219 60.8294 14.7802 60.8331 14.7579 60.8872C14.7137 60.9656 14.1412 61.1867 14.0579 61.1983C13.8392 61.2027 13.6253 61.2378 13.4084 61.2866C13.3781 61.2948 13.3607 61.324 13.3091 61.2987C13.1905 61.2401 13.1459 61.2926 13.0848 61.3219C12.9986 61.3599 12.9198 61.4093 12.8211 61.4374C12.7734 61.4523 12.6972 61.4354 12.6286 61.4301C12.5662 61.4246 12.4785 61.2956 12.4791 61.2729C12.4799 61.2072 12.4017 61.1762 12.3547 61.1311C12.3387 61.1154 12.318 61.0958 12.3079 61.0809C12.2768 61.0557 12.5576 60.4136 12.6253 60.3687C12.6211 60.3441 13.3502 59.7106 13.4585 59.6694C13.5046 59.6332 13.5686 59.6353 13.6267 59.6281C13.6472 59.6098 14.317 59.2373 14.3507 59.2391C14.502 59.198 14.6422 59.1163 14.8184 59.189C14.8528 59.2033 14.8814 59.19 14.9106 59.1807C15.1622 59.106 15.426 59.1016 15.6818 59.0923C15.8127 59.0862 15.9386 59.0573 16.0669 59.0416C16.0898 59.0386 16.115 59.0526 16.139 59.057C16.1686 59.0631 16.1994 59.0751 16.2282 59.0709C16.5279 59.0275 16.8307 59.0633 17.1221 58.9975C17.1906 58.9818 17.5199 59.093 17.5957 59.072C17.6388 59.0601 17.7905 59.2383 17.8265 59.2056Z" fill="#0B1F2A"/>
<path fill-rule="evenodd" clip-rule="evenodd" d="M18.4493 48.7532C18.603 48.7316 18.6432 48.9212 18.5938 49.2273C18.5779 49.3249 18.4432 49.5813 18.3956 49.6047C18.302 49.65 18.2127 49.6932 18.1335 49.7168C18.0946 49.7244 17.4468 49.6264 17.2212 49.6128C16.9981 49.6004 16.7964 49.5392 16.5874 49.4776C16.17 49.3473 15.7384 49.2416 15.3109 49.1253C15.2162 49.0992 15.1243 49.061 15.0367 49.0086C14.7361 48.8292 14.4082 48.7365 14.0726 48.6747C14.0171 48.6648 13.963 48.6425 13.8978 48.6739C13.7918 48.7221 12.8955 48.5043 12.7911 48.4274C12.5273 48.2587 12.253 48.1273 11.9817 47.9822C11.9431 47.9616 11.8949 47.9668 11.8702 47.9049C11.8127 47.7613 11.7187 47.7583 11.6317 47.7261C11.5103 47.6817 11.391 47.6311 11.2767 47.5604C11.2196 47.525 11.1754 47.443 11.1273 47.3743C11.0834 47.3119 11.1552 47.1431 11.1791 47.1286C11.2485 47.0866 11.2227 46.9927 11.2352 46.9181C11.2392 46.8928 11.2449 46.8599 11.2517 46.8407C11.2671 46.7995 12.0655 46.6504 12.145 46.669C12.1538 46.6702 12.428 46.7045 12.7197 46.7406C13.0086 46.7748 13.3115 46.8106 13.3751 46.8114C13.4414 46.8119 13.4967 46.8563 13.5544 46.8915C13.5813 46.9062 14.4503 47.0215 14.4836 47.0347C14.654 47.0947 14.8416 47.096 14.9847 47.2532C15.0128 47.2837 15.0499 47.2872 15.0853 47.2941C15.3898 47.3596 15.6767 47.4846 15.9679 47.5996C16.1166 47.6579 16.2735 47.6866 16.4263 47.7342C16.4539 47.7431 16.4758 47.768 16.5014 47.7831C16.5336 47.8031 16.5634 47.8288 16.5983 47.838C16.9641 47.9346 17.3059 48.1111 17.6853 48.1855C17.7743 48.205 18.1254 48.4727 18.2298 48.4982C18.2891 48.511 18.3892 48.7646 18.4493 48.7532Z" fill="#0B1F2A"/>
<path fill-rule="evenodd" clip-rule="evenodd" d="M24.1734 19.3878C25.0212 20.1387 25.8732 20.8691 26.7647 21.5628C27.6583 22.2523 28.5949 22.8925 29.5485 23.5024C30.504 24.1115 31.4801 24.6862 32.4466 25.272C33.42 25.8469 34.4075 26.3973 35.4044 26.9114C35.9677 27.2192 36.031 27.816 35.8137 28.2611C35.5981 28.7028 35.0667 29.009 34.458 28.7021C33.4218 28.1388 32.417 27.5337 31.437 26.8921C30.452 26.2585 29.5139 25.554 28.6008 24.8199C27.6862 24.0876 26.7955 23.324 25.9501 22.5062C25.1051 21.6932 24.2853 20.8286 23.6625 19.8095C23.5174 19.5002 23.8887 19.2136 24.1734 19.3878Z" fill="#0B1F2A"/>
<path fill-rule="evenodd" clip-rule="evenodd" d="M45.1271 11.5931C45.0295 12.4624 44.935 13.3468 44.9477 14.2544C44.9539 15.1578 45.0043 16.0687 45.0965 16.9765C45.2769 18.7844 45.5621 20.617 46.0038 22.3165C46.1136 22.7941 45.584 23.1756 44.9911 23.3432C44.4068 23.5091 43.7255 23.3747 43.6224 22.8014C43.349 20.8388 43.2998 18.9431 43.3623 17.0247C43.3959 16.069 43.4681 15.1113 43.6114 14.1553C43.7717 13.2083 43.8985 12.2207 44.4294 11.3306C44.629 11.1013 45.0848 11.3212 45.1271 11.5931Z" fill="#0B1F2A"/>
<path fill-rule="evenodd" clip-rule="evenodd" d="M56.8147 9.60171C56.7629 10.7305 56.7989 11.8855 56.832 13.0422L56.9366 16.5366C56.9595 17.7088 56.9692 18.8876 56.9204 20.0828C56.8647 21.2805 56.7729 22.4876 56.4878 23.7531C56.4125 24.111 56.1393 24.3493 55.8686 24.4405C55.5887 24.5355 55.2734 24.4983 54.9863 24.3811C54.4117 24.1265 53.9433 23.6477 54.1026 23.1029C54.4144 22.1195 54.6087 21.0103 54.7644 19.8953C54.9169 18.7751 55.0214 17.6297 55.1208 16.4797L55.4027 13.0024C55.5066 11.8368 55.6124 10.6664 55.8196 9.48384C55.8931 9.15334 56.7863 9.27999 56.8147 9.60171Z" fill="#0B1F2A"/>
<path fill-rule="evenodd" clip-rule="evenodd" d="M30.4333 66.3186C35.7315 72.4887 44.089 76.0896 52.2705 75.5225C55.2537 75.3139 58.1589 74.4699 60.8489 73.1753C65.6028 70.8929 69.6417 67.1036 72.3502 62.5308C75.0648 57.9656 76.4208 52.5485 75.8045 47.2384C75.26 42.5336 73.4862 37.907 70.6779 34.138C68.8902 31.7059 66.66 29.6094 64.136 27.9793C61.6218 26.3198 58.7702 25.2421 55.843 24.5379C54.0231 24.0926 54.2995 23.6372 56.0177 23.491C56.448 23.455 56.9694 23.4386 57.57 23.4479C58.1603 23.4952 58.8194 23.6139 59.546 23.749C59.9056 23.8252 60.2916 23.884 60.6723 24.0015C61.0483 24.1298 61.4378 24.2689 61.8376 24.4194C62.2375 24.5704 62.6474 24.7322 63.0646 24.9048C63.471 25.0994 63.8663 25.34 64.2764 25.5741C67.171 27.245 69.7156 29.5035 71.7567 32.1297C73.8017 34.7566 75.3603 37.7371 76.3997 40.8824C77.4336 44.0281 77.9664 47.3486 77.8455 50.6915C77.7108 54.0291 76.9195 57.3232 75.5489 60.341C73.8942 63.9372 71.5844 67.3155 68.6167 70.0765C65.7022 72.8819 62.1172 75.0306 58.2706 76.2971C56.1446 76.9753 53.9295 77.3252 51.7133 77.4657C49.4904 77.5375 47.2715 77.3574 45.0967 76.942C42.9357 76.4663 40.8136 75.8161 38.8036 74.8969C36.8127 73.9492 34.8737 72.8692 33.1371 71.5026C30.9842 69.8483 29.0639 67.8865 27.4861 65.6733C25.9035 63.4603 24.6877 60.9988 23.8693 58.4176C23.2215 56.4669 22.8773 54.423 22.7166 52.3783C22.6239 51.3538 22.65 50.3267 22.6659 49.301L22.7908 47.7666C22.8263 47.2549 22.933 46.7519 23 46.2442C23.3351 44.2235 23.8838 42.243 24.6332 40.3453C25.403 38.456 26.3615 36.6514 27.482 34.9603C29.2373 32.3436 31.3507 29.9879 33.8184 28.0635C36.2676 26.1222 39.0382 24.5672 42.0388 23.5843C42.3686 23.4744 42.6964 23.3651 43.0236 23.2561L44.0251 22.9974C44.3597 22.9161 44.6922 22.8165 45.0332 22.752C45.3747 22.693 45.7183 22.6339 46.0644 22.574C46.7044 22.4495 47.2991 22.4066 47.8437 22.3633C48.3878 22.3145 48.8823 22.277 49.3351 22.2946C49.7874 22.3025 50.1953 22.3101 50.5664 22.317C50.9364 22.3312 51.2662 22.3901 51.564 22.4277C52.7587 22.5758 53.416 22.862 53.9182 23.1948C54.1469 23.3474 54.4495 23.5099 54.5689 23.6471C54.7713 23.8791 54.3493 24.0051 53.447 24.0271C53.2215 24.0324 52.9657 24.0312 52.681 24.0237C52.3959 24.0297 52.0818 24.0372 51.7395 24.0444C51.3987 24.0455 51.0304 24.0469 50.6369 24.0484C50.2429 24.0691 49.8235 24.0915 49.3798 24.1151C44.1155 24.3773 38.9086 26.4459 34.6842 29.8573C32.559 31.5486 30.7159 33.612 29.173 35.8767C28.3881 37.0035 27.736 38.2164 27.1192 39.444C26.5563 40.6975 26.0268 41.9706 25.6548 43.2946C25.0746 45.2507 24.7085 47.2735 24.6134 49.3128C24.5244 51.3515 24.6889 53.3991 25.1032 55.3972C25.5204 57.3936 26.1635 59.353 27.0871 61.1861C28.0156 63.0007 29.0835 64.7578 30.4633 66.2788L30.4333 66.3186Z" fill="#0B1F2A"/>
<path fill-rule="evenodd" clip-rule="evenodd" d="M14.4167 24.6557C15.4806 25.5262 16.6118 26.3159 17.7278 27.1165C18.8475 27.9158 20.0106 28.6546 21.1502 29.4197C23.4442 30.9286 25.7873 32.3694 28.1707 33.681C29.5102 34.4544 28.0817 36.9671 26.6915 36.097C24.3515 34.5109 22.122 32.8139 19.9564 31.0359C18.8684 30.1547 17.8324 29.2071 16.8023 28.2583C15.769 27.3126 14.7907 26.3031 13.8297 25.2828C13.5722 24.9845 14.0881 24.4415 14.4167 24.6557Z" fill="#0B1F2A"/>
<path fill-rule="evenodd" clip-rule="evenodd" d="M20.0295 31.0924C21.3973 31.8414 22.7778 32.5656 24.1728 33.1801C24.8685 33.4904 25.5824 33.7593 26.3208 34.0585C27.0586 34.36 27.7924 34.6974 28.5053 35.056C29.3135 35.5017 28.4148 36.9854 27.6679 36.5356C27.023 36.1271 26.3731 35.7427 25.6993 35.3813C25.0248 35.0201 24.3108 34.6584 23.6211 34.2524C22.9264 33.8546 22.2775 33.3931 21.6327 32.9395C20.985 32.4897 20.3708 31.996 19.7461 31.5228C19.5774 31.3814 19.824 31.0057 20.0295 31.0924Z" fill="#0B1F2A"/>
<path fill-rule="evenodd" clip-rule="evenodd" d="M45.0516 11.7992C45.0433 11.9336 44.9019 11.9665 44.6681 11.962C44.5936 11.96 44.4133 11.8711 44.407 11.8239C44.3939 11.732 44.3835 11.6378 44.3896 11.5485C44.3769 11.4909 44.7202 10.7578 44.9026 10.5421C45.0452 10.309 45.2436 10.1278 45.445 9.95134C45.8665 9.61586 46.3133 9.30903 46.7942 9.09396C46.8983 9.0401 47.0095 9.00135 47.1241 8.97836C47.515 8.88694 47.8843 8.76705 48.2557 8.65135C48.3172 8.63172 48.3824 8.62069 48.4351 8.57312C48.52 8.47583 49.5557 8.28009 49.694 8.30808C50.0722 8.33361 50.3709 8.35322 50.7037 8.37594C50.7516 8.38 50.8007 8.36741 50.8461 8.40328C50.9507 8.48712 51.0506 8.47056 51.1519 8.47463C51.2926 8.47861 51.4336 8.49374 51.5736 8.52046C51.643 8.53404 51.7115 8.57815 51.7798 8.61321C51.8411 8.64432 51.8096 8.75995 51.7882 8.77359C51.7268 8.81217 51.7782 8.86567 51.7846 8.91342C51.7866 8.92962 51.7891 8.95129 51.7865 8.96415C51.7774 8.98485 51.009 9.25035 50.9293 9.26843C50.9201 9.27019 50.6392 9.31908 50.3416 9.37084C50.0488 9.43224 49.7476 9.50003 49.6884 9.52449C49.6252 9.5454 49.5571 9.53771 49.4908 9.53506C49.4528 9.52061 48.6138 9.78138 48.5857 9.79591C48.407 9.82676 48.2491 9.9145 48.0552 9.89282C48.0171 9.88827 47.9835 9.90327 47.9503 9.91531C47.6659 10.0301 47.3728 10.1134 47.0933 10.2322C46.945 10.2843 46.8256 10.3836 46.6905 10.4558C46.6671 10.4694 46.6366 10.4728 46.6095 10.4821C46.5752 10.4931 46.541 10.5041 46.5138 10.5253C46.2248 10.7381 45.9062 10.9258 45.7009 11.2205C45.6424 11.2757 45.3318 11.5282 45.2898 11.6193C45.2598 11.6612 45.0526 11.7405 45.0516 11.7992Z" fill="#0B1F2A"/>
<path fill-rule="evenodd" clip-rule="evenodd" d="M24.3632 19.8018C24.4901 19.8316 24.5188 19.9731 24.4661 20.1586C24.4497 20.2176 24.3299 20.3466 24.2909 20.35C24.2145 20.355 24.1422 20.3615 24.0798 20.3582C24.0441 20.338 23.5756 20.1759 23.4077 20.2136C23.256 20.2 23.0963 20.2187 22.9434 20.2077C22.6213 20.2144 22.2842 20.3071 21.948 20.4122C21.8728 20.4414 21.7948 20.4603 21.7134 20.4712C21.432 20.502 21.1624 20.6111 20.9081 20.7501C20.866 20.7729 20.8187 20.7891 20.79 20.8369C20.7434 20.9105 20.0392 21.2793 19.9359 21.3146C19.6399 21.4039 19.4168 21.4717 19.1618 21.549C19.1244 21.559 19.0934 21.5858 19.0449 21.5714C18.933 21.5386 18.8662 21.586 18.789 21.6174C18.6832 21.662 18.5717 21.698 18.4561 21.7262C18.3996 21.7399 18.3304 21.7312 18.2669 21.7304C18.2096 21.7296 18.1908 21.6354 18.2007 21.6172C18.2317 21.5658 18.1736 21.5463 18.1515 21.5144C18.1436 21.5038 18.1338 21.4895 18.1308 21.4786C18.1276 21.467 18.2438 21.3379 18.3609 21.1987C18.479 21.0605 18.6036 20.9145 18.6327 20.8947C18.6361 20.8921 18.6852 20.8528 18.7593 20.7937C18.8317 20.7317 18.9337 20.6595 19.0369 20.5827C19.2433 20.427 19.4662 20.2741 19.5129 20.242C19.5591 20.2064 19.6203 20.1961 19.677 20.1788C19.6989 20.1685 20.3649 19.7375 20.4021 19.7311C20.5568 19.6691 20.6929 19.5648 20.8801 19.5733C20.9166 19.5749 20.9466 19.5576 20.9768 19.5431C21.2377 19.4173 21.5286 19.3523 21.8241 19.3027C21.9744 19.2752 22.1198 19.229 22.2778 19.2116C22.3059 19.2076 22.3353 19.2152 22.3637 19.216C22.3999 19.217 22.4364 19.2228 22.4711 19.2173C22.8411 19.1717 23.2242 19.2159 23.6099 19.2861C23.6544 19.2948 23.7761 19.3503 23.894 19.405C24.0072 19.4788 24.117 19.5532 24.1654 19.5711C24.2261 19.5862 24.3195 19.7851 24.3632 19.8018Z" fill="#0B1F2A"/>
<path fill-rule="evenodd" clip-rule="evenodd" d="M33.5847 63.6732C38.0346 68.852 45.0497 71.8732 51.9181 71.3962C54.4221 71.2206 56.8616 70.5125 59.1188 69.4256C63.1089 67.5086 66.4978 64.3271 68.77 60.4888C71.0466 56.6574 72.1844 52.1107 71.6664 47.6543C71.2083 43.7066 69.721 39.825 67.3645 36.6614C65.8644 34.62 63.9941 32.86 61.8756 31.4916C59.7655 30.0986 57.3722 29.1942 54.9149 28.6052C53.3868 28.2333 53.6186 27.8613 55.057 27.7488C55.4177 27.7212 55.8543 27.7099 56.3565 27.7197C56.8515 27.7616 57.4024 27.8625 58.0103 27.9776C58.3117 28.0421 58.6344 28.0929 58.9531 28.1915C59.2685 28.3053 59.5937 28.4228 59.9283 28.5434C60.263 28.6704 60.6064 28.8063 60.9558 28.9514C61.2958 29.1145 61.6271 29.3158 61.9699 29.5117C66.8505 32.3135 70.4046 37.0765 72.1253 42.3341C72.9923 44.9691 73.4391 47.7519 73.3387 50.5515C73.227 53.3472 72.5655 56.1072 71.4184 58.6363C70.0331 61.65 68.0977 64.4809 65.6117 66.7944C63.169 69.1458 60.1649 70.946 56.9419 72.007C55.1606 72.5759 53.3053 72.8689 51.4481 72.9873C49.5858 73.0477 47.7259 72.8969 45.9028 72.5491C44.092 72.1507 42.3141 71.6059 40.6288 70.836C38.9607 70.0419 37.3354 69.1368 35.8793 67.9916C32.2635 65.2381 29.4586 61.37 28.1117 57.0267C27.5684 55.3921 27.2796 53.679 27.145 51.9659C27.0115 50.2497 27.0934 48.5174 27.3821 46.8243C27.6625 45.1312 28.1229 43.4708 28.7506 41.8799C29.3956 40.2965 30.199 38.7834 31.1382 37.3668C32.6096 35.1729 34.3817 33.2 36.4506 31.5871C38.5039 29.9613 40.8267 28.6585 43.3409 27.8356C43.6171 27.744 43.892 27.6528 44.1663 27.5619L45.0053 27.3447C45.5625 27.1859 46.1321 27.0819 46.7146 26.9911C48.8727 26.6742 50.3281 26.7142 51.3229 26.8659C52.3237 26.9882 52.8753 27.2246 53.2968 27.4985C53.4889 27.6242 53.743 27.7583 53.8441 27.8708C54.014 28.0611 53.6613 28.1634 52.9045 28.1786C52.527 28.1796 52.0462 28.1688 51.472 28.1892C51.1858 28.1899 50.8765 28.1908 50.546 28.1912C50.2162 28.2083 49.8636 28.2268 49.4915 28.2456C45.0722 28.4624 40.6997 30.1971 37.1519 33.06C35.3674 34.48 33.8196 36.2116 32.5241 38.1131C31.2261 40.0155 30.2154 42.1243 29.5701 44.3411C29.0824 45.9834 28.7754 47.6828 28.6957 49.3946C28.621 51.1067 28.759 52.8257 29.1074 54.5036C29.7922 57.8672 31.3572 61.0537 33.6093 63.6402L33.5847 63.6732Z" fill="#0B1F2A"/>
</svg>
