<svg width="125" height="66" viewBox="0 0 125 66" fill="none" xmlns="http://www.w3.org/2000/svg">
<path fill-rule="evenodd" clip-rule="evenodd" d="M101.788 52.8149C103.359 55.8459 105.001 58.8429 106.722 61.7939C107.355 62.8679 108.026 63.9179 108.682 64.9759C110.94 68.7429 113.325 72.4399 115.902 76.0019C117.027 77.5959 118.273 79.1109 119.472 80.6289C120.246 81.6019 121.09 82.5189 121.883 83.4779C122.284 83.9579 122.677 84.4169 123.066 84.9769C123.433 85.5129 123.723 86.0119 124.118 86.3799C124.621 86.7899 124.508 87.0369 123.739 86.9019C123.363 86.8219 122.859 86.5409 122.388 86.1619C122.158 85.9759 121.925 85.7879 121.685 85.5939C121.46 85.4299 121.173 85.1649 120.941 84.9029C120.075 83.9539 119.198 83.0109 118.35 82.0439C117.526 81.0569 116.684 80.0829 115.892 79.0669C114.347 77.0079 112.849 74.9079 111.46 72.7239C109.787 70.1229 107.935 67.4939 106.255 64.8159C104.437 61.8559 102.682 58.8569 101.023 55.8069C100.001 53.9309 99.0088 52.0379 98.0258 50.1429C96.5418 47.2709 95.1468 44.3339 93.7388 41.4549C92.6498 39.2679 91.3568 37.1529 89.8088 35.5039C89.4768 35.1589 89.0838 34.8569 88.7918 34.6869C88.4928 34.5119 88.2538 34.5759 88.0558 34.6329C87.9598 34.6489 87.8308 34.6899 87.6778 34.7459C87.5268 34.7829 87.3608 34.8179 87.1748 34.8419C87.0048 34.8619 86.8188 34.9199 86.6628 34.9189C86.3988 34.9179 86.2598 34.6949 86.2658 34.2199C86.2658 34.1019 86.3118 33.9649 86.3548 33.8139C86.3898 33.6659 86.4808 33.4959 86.6168 33.3029C86.8568 32.9159 87.2878 32.5329 87.8848 32.3709C88.3238 32.2649 88.8068 32.2689 89.2568 32.4289C89.4918 32.4809 89.7018 32.6069 89.9238 32.7099C90.1338 32.8159 90.2528 32.9149 90.4228 33.0199C91.0028 33.4309 91.4558 33.8859 91.8718 34.3529C92.6928 35.2899 93.3648 36.2859 93.9788 37.3089C94.5918 38.3319 95.1438 39.3899 95.6548 40.4579C96.1548 41.4949 96.6578 42.5359 97.1598 43.5779C98.6648 46.6619 100.204 49.7509 101.832 52.7859L101.788 52.8149Z" fill="#0B1F2A"/>
<path fill-rule="evenodd" clip-rule="evenodd" d="M82.7407 33.9531C82.3767 33.1961 81.9697 32.4501 81.5067 31.7391C81.3347 31.4821 81.1177 31.2631 80.9417 31.0091L80.4697 30.3381C80.4407 30.2521 80.2667 30.0981 80.0717 29.9531C79.6787 29.6581 79.2047 29.4021 78.7247 29.2231C78.2987 29.0701 77.8347 29.0181 77.4637 29.0771C77.2077 29.1001 77.0657 29.2281 76.9617 29.3071C76.8797 29.3981 76.7867 29.5131 76.6837 29.7471C76.6077 29.8701 76.2287 29.9011 75.8737 29.6801C75.7037 29.5651 75.5127 29.3891 75.4347 29.1321C75.3847 28.8711 75.3747 28.5211 75.6277 28.2351C75.8197 27.9601 76.0807 27.8011 76.3447 27.6361C76.5877 27.5331 76.8757 27.4091 77.1007 27.3871C77.5947 27.2881 78.0117 27.3231 78.4157 27.3761C79.2107 27.5081 79.9117 27.7521 80.5587 28.1521C80.9517 28.4021 81.3317 28.5621 81.8397 29.0411C82.1347 29.3421 82.4347 29.6411 82.7017 29.9641C83.2857 30.6781 83.8117 31.4331 84.3017 32.2101C84.6007 32.6891 84.8827 33.1781 85.1587 33.6691C85.5757 34.4151 85.9177 35.2031 86.3087 35.9571C86.6157 36.5411 87.0197 37.0791 87.3497 37.6741C87.4227 37.8051 87.5007 37.9321 87.5537 38.0711C87.7467 38.5931 87.5967 38.8231 87.0317 39.0901C86.9027 39.1511 86.7767 39.2181 86.6467 39.2671C86.2197 39.4271 85.7457 39.3381 85.4897 39.0481C84.7117 38.1961 84.3197 37.2111 83.8147 36.2171C83.4537 35.4801 83.0927 34.7261 82.6937 33.9851L82.7407 33.9531Z" fill="#0B1F2A"/>
<path fill-rule="evenodd" clip-rule="evenodd" d="M75.0509 30.7313C74.5759 29.7203 74.0509 28.7363 73.4199 27.8583C73.1739 27.5613 72.9059 27.2653 72.6439 27.0023C72.4259 26.7413 72.1909 26.5153 71.9459 26.3043C71.7069 26.0723 71.4699 25.8953 71.1969 25.7373C70.6629 25.4263 70.0369 25.2283 69.4119 25.2613C68.8579 25.2853 68.3219 25.5043 67.9179 25.8563C67.3789 26.3133 67.1399 26.9843 66.8569 27.7033C66.7639 27.9253 66.4519 27.8903 66.1639 27.6143C65.8719 27.3493 65.5929 26.7763 65.8049 26.1713C66.1479 25.1123 67.0379 24.1663 68.1269 23.7363C69.2249 23.3443 70.4169 23.4053 71.3989 23.8353C72.6029 24.3103 73.6249 25.0703 74.4109 25.9223C75.2699 26.8783 75.9269 27.9323 76.5109 29.0013C76.8729 29.6583 77.1959 30.3303 77.5139 30.9983C77.9919 32.0143 78.4009 33.0573 78.8579 34.0613C79.2079 34.8433 79.6649 35.5673 80.0559 36.3233C80.1439 36.4903 80.2469 36.6453 80.3219 36.8173C80.5989 37.4563 80.5469 37.7063 80.0269 38.0593C79.9139 38.1373 79.8079 38.2233 79.6969 38.2863C79.3359 38.4913 78.8169 38.3833 78.5329 37.9503C77.6439 36.6893 77.0349 35.2693 76.4169 33.8593C75.9669 32.8093 75.5219 31.7583 75.0059 30.7583L75.0509 30.7313Z" fill="#0B1F2A"/>
<path fill-rule="evenodd" clip-rule="evenodd" d="M62.9504 39.6482L64.8634 42.9332L65.8294 44.5622L66.3914 45.4922C66.7004 45.9962 67.0184 46.5022 67.3594 47.0032C67.4924 47.3092 67.6594 47.6392 67.7634 47.9232L67.7934 48.5782C67.7764 48.7352 67.7264 48.9682 67.5334 49.2192C67.3604 49.4372 67.1704 49.5512 66.9614 49.6662C66.5314 49.8712 65.9234 49.9452 65.2044 49.8762C64.8444 49.8412 64.4744 49.7842 64.0974 49.7102C63.9114 49.6792 63.7214 49.6292 63.5344 49.5902L63.0444 49.4782C61.3534 49.0552 59.7404 48.5402 58.1284 47.9932C57.3354 47.7232 56.4954 47.4182 55.7454 47.1352C54.9974 46.8682 54.2124 46.6242 53.4314 46.4022C51.8684 45.9642 50.2724 45.5992 48.7204 45.4442C47.9454 45.3682 47.1674 45.3582 46.5264 45.4802C46.2124 45.5392 45.9504 45.6472 45.8184 45.7452C45.6964 45.8392 45.6694 45.8842 45.6434 46.0362C45.4684 47.0942 46.2604 48.3842 47.3624 49.4532C49.3214 51.3642 51.8834 52.8652 54.4414 54.2522C57.0254 55.6452 59.7004 56.8612 62.3964 58.2242C63.0784 58.5902 63.7334 58.8962 64.4904 59.4842C65.1134 60.0332 65.6464 60.5862 66.1544 61.1432L69.1564 64.4492C71.1624 66.6062 73.2064 68.7072 75.4454 70.5242C76.4574 71.2892 77.4894 72.0542 78.6074 72.5962C79.1614 72.9152 79.7164 73.0752 80.3214 73.3422C80.9554 73.6162 81.6284 73.8232 82.2284 74.1522C84.6984 75.3622 86.8914 76.9612 88.9284 78.6692C91.5344 80.8812 93.9534 83.2902 96.2004 85.8302C98.4574 88.3622 100.569 91.0042 102.53 93.7362C103.761 95.4312 103.305 95.4462 101.825 94.3692C101.083 93.8312 100.082 93.0232 98.9214 92.0162C97.7784 90.9932 96.5314 89.7282 95.2374 88.3152C92.9414 85.8192 90.6154 83.3622 88.1084 81.1672C85.5994 79.0072 82.9244 76.9672 80.0074 75.8392C79.3804 75.5642 78.2974 75.2052 77.5004 74.7712C76.6454 74.3492 75.8674 73.8452 75.1054 73.3292C73.5924 72.2832 72.2554 71.0852 70.9714 69.8582C68.4424 67.3782 66.3164 64.5422 64.0454 62.0702C63.7114 61.7062 63.3634 61.3572 63.0524 61.0892C62.7804 60.8732 62.3334 60.6062 61.8994 60.3732C61.0194 59.8922 60.0774 59.4342 59.1364 58.9732C57.2454 58.0542 55.3214 57.1302 53.4204 56.1222C51.5204 55.1092 49.6324 54.0312 47.8494 52.7112C46.9604 52.0482 46.0954 51.3282 45.3134 50.4642C44.5454 49.6012 43.8174 48.5642 43.5294 47.2382C43.4924 46.8892 43.4144 46.5372 43.4584 46.1782C43.4724 45.9962 43.4814 45.8252 43.5084 45.6352C43.5634 45.4182 43.6034 45.1982 43.7144 44.9942C43.8934 44.5732 44.2294 44.2242 44.5694 43.9802C44.9134 43.7332 45.2644 43.5972 45.6004 43.4912C46.9444 43.1182 48.1144 43.2302 49.2694 43.3402C51.5644 43.6192 53.7244 44.1952 55.8654 44.8892C57.9854 45.6582 59.9754 46.3662 62.0744 46.9642C62.5924 47.1122 63.1124 47.2532 63.6294 47.3782C63.8624 47.4362 64.0844 47.4882 64.3224 47.5242C64.4404 47.5422 64.5594 47.5552 64.6804 47.5572C64.7864 47.5532 64.9634 47.5532 64.9754 47.4192C64.9124 47.1982 64.7334 47.0232 64.6234 46.8112L64.1204 45.9832C61.1614 41.0512 58.3394 36.0652 55.4684 31.1122C53.1754 27.3952 51.4104 23.2722 50.1254 19.0942C49.8004 18.0462 49.5004 16.9922 49.2334 15.9282C48.9594 14.8822 48.7134 13.7492 48.6104 12.6452C48.5044 11.5292 48.4404 10.4062 48.6504 9.21824C48.7064 8.92024 48.7804 8.62024 48.9084 8.31024C49.0324 8.00024 49.2464 7.62524 49.5244 7.37624C50.0754 6.82924 50.9654 6.73924 51.6584 6.97124C52.6424 7.27624 53.3734 7.83124 54.0444 8.43424C54.7044 9.04324 55.2674 9.71624 55.7834 10.4072C56.8024 11.7962 57.6384 13.2662 58.4454 14.7132C60.0064 17.5662 61.8554 20.3122 63.6334 23.0852C64.4314 24.3032 65.2144 25.4952 66.0194 26.7232C68.9664 31.3142 69.7194 32.9102 69.7924 34.2262C69.8084 34.5262 69.8674 34.8992 69.8254 35.1032C69.6754 35.7932 68.2434 34.0722 66.0274 30.7732C64.3854 28.3232 62.7014 25.8432 61.0394 23.2982C60.2074 22.0262 59.3824 20.7362 58.5704 19.4272C57.7584 18.1462 56.9374 16.7132 56.2244 15.3882C55.4904 14.0582 54.7424 12.7682 53.8974 11.6212C53.0694 10.5012 52.0504 9.47824 51.1294 9.13324C51.0854 9.12224 51.0414 9.10824 50.9994 9.09124C50.9914 9.08824 50.9924 9.09024 50.9924 9.09024L50.9874 9.09224C50.9884 9.10224 50.9804 9.09324 50.9834 9.10124C50.9774 9.11324 50.8594 9.42124 50.8244 9.68224C50.7754 9.96424 50.7484 10.2872 50.7394 10.6212C50.7204 11.9812 50.8994 13.4582 51.2634 14.8512C52.3574 19.2372 53.8994 23.5762 56.0184 27.5332C58.3434 31.5582 60.6694 35.5862 62.9924 39.6102L62.9504 39.6482Z" fill="#0B1F2A"/>
<path fill-rule="evenodd" clip-rule="evenodd" d="M7.12494 26.042L6.56294 26.227C6.43494 26.25 5.96294 26.404 5.68094 26.434C5.36194 26.475 5.05394 26.48 4.74094 26.506C4.42694 26.53 4.17594 26.432 3.89094 26.401C3.74894 26.361 3.64494 26.255 3.52094 26.186L3.34094 26.069L3.31794 26.055C3.25994 26.104 3.39594 25.984 3.37994 25.996L3.37694 25.993L3.37194 25.988L3.36094 25.979L3.31594 25.939L3.23694 25.863C3.00794 25.696 3.01294 25.384 3.00094 25.069C2.99994 24.749 3.09694 24.368 3.20594 24C3.25594 23.815 3.31794 23.63 3.38194 23.444L3.53894 22.998C3.84094 22.18 4.16494 21.393 4.49494 20.607L5.50894 18.273L6.02894 17.115L6.18594 16.798L6.00894 16.685L5.29994 16.265C4.54794 15.814 3.79094 15.356 3.04594 14.835C2.67594 14.566 2.30594 14.294 1.94894 13.971C1.76994 13.817 1.59494 13.642 1.42294 13.46C1.33494 13.375 1.25394 13.267 1.17194 13.168C1.09594 13.078 0.996938 12.959 0.898938 12.783C0.531938 12.279 0.394938 11.71 0.335938 11.16C0.365937 10.909 0.414937 10.635 0.571938 10.422C0.731937 10.219 0.941938 10.052 1.19994 9.92196C1.44194 9.78496 1.74094 9.67796 2.00194 9.59296L2.20394 9.52596L2.33994 9.48796L2.60694 9.41496C3.31494 9.22996 4.00794 9.09196 4.70194 8.96296C5.39394 8.83596 6.08494 8.72496 6.77694 8.62096L7.81394 8.47296C8.24994 8.41196 8.30894 8.40996 8.43994 8.39696C8.48094 8.35096 8.50694 8.28396 8.54194 8.22696L8.75394 7.81496L9.26794 6.82696C9.61394 6.16896 9.96794 5.51396 10.3349 4.86296C10.7019 4.21196 11.0799 3.56496 11.4849 2.92696C11.6869 2.60696 11.8989 2.29096 12.1219 1.97596C12.2329 1.81896 12.3489 1.66196 12.4709 1.50696C12.5959 1.35296 12.6989 1.20896 12.9179 0.98496C13.2679 0.61396 13.6649 0.29296 14.1309 0.22196C14.3799 0.17196 14.5929 0.30196 14.7949 0.41296C15.0109 0.49896 15.1809 0.71196 15.3729 0.86396C15.7759 1.25196 15.9339 1.48896 16.1609 1.78596C16.3779 2.06996 16.5649 2.36196 16.7589 2.65296C17.5079 3.82196 18.1629 5.01696 18.7769 6.22096C19.1719 6.99396 19.5569 7.77196 19.9229 8.56296L20.1649 9.08896C20.2109 9.15896 20.2179 9.27496 20.2959 9.30196L21.2129 9.45496C22.9059 9.74996 24.5929 10.075 26.2619 10.481C28.3419 10.988 25.3509 12.276 21.4579 11.583L20.1549 11.35L18.8629 11.115C18.6279 10.792 18.5059 10.331 18.3209 9.94396C17.9399 9.05996 17.6159 8.35196 17.2339 7.55696C16.4879 6.02296 15.6999 4.47296 14.7969 3.12996L14.4549 2.65096L14.2809 2.43996L14.2629 2.41096C14.2529 2.39096 14.2279 2.34896 14.1969 2.36396C14.1369 2.41496 14.2429 2.25996 13.9049 2.67896C13.6629 2.98596 13.4239 3.32296 13.1919 3.67296C12.2619 5.07896 11.4079 6.60696 10.5679 8.13996C10.4429 8.37296 10.3179 8.60596 10.1909 8.84196L9.90794 9.38796C9.79694 9.59396 9.68694 9.79796 9.56694 9.99496L8.09094 10.187L7.08294 10.334C6.40994 10.438 5.73694 10.554 5.06894 10.685C4.40194 10.816 3.73494 10.961 3.10094 11.137L2.69694 11.256C2.62494 11.28 2.58294 11.294 2.52894 11.318C2.43694 11.355 2.29194 11.422 2.34694 11.549C2.35894 11.629 2.39194 11.705 2.42894 11.776L2.49594 11.878L2.66994 12.09C2.94794 12.404 3.28894 12.709 3.65394 13C4.27794 13.493 4.97394 13.945 5.68294 14.383L6.76394 15.029L8.51394 16.023L7.27294 18.772L6.36694 20.856C6.07094 21.552 5.78194 22.25 5.50994 22.95L5.17194 23.852C5.11494 24.01 5.05894 24.173 5.01994 24.344C5.01394 24.409 4.97694 24.504 5.03894 24.547C5.10794 24.558 5.17694 24.58 5.24794 24.584C5.39494 24.591 5.54194 24.574 5.68994 24.549L5.91294 24.496C6.05594 24.464 6.20094 24.411 6.34494 24.362C6.92494 24.178 7.49894 23.913 8.06694 23.647C9.19894 23.088 10.2939 22.426 11.3379 21.697C12.3399 20.975 12.9939 20.519 14.4219 19.13C14.8489 19.537 15.3129 19.98 15.7119 20.335L16.6189 21.128C17.2279 21.653 17.8569 22.148 18.4929 22.63C19.1369 23.097 19.7839 23.563 20.4619 23.954C20.7939 24.166 21.1439 24.326 21.4849 24.509L22.0069 24.731C22.1589 24.807 22.4079 24.878 22.4719 24.894C22.6849 24.961 22.9379 25.004 23.1639 24.976C23.2659 24.956 23.4329 24.976 23.4249 24.821C23.4289 24.701 23.4049 24.584 23.3769 24.47C23.3499 24.356 23.3169 24.246 23.2819 24.139L23.1299 23.69C22.9949 23.302 22.8469 22.914 22.6949 22.526C22.3889 21.752 22.0629 20.981 21.7289 20.212L20.5679 17.519C20.3699 17.031 20.1479 16.531 19.9619 16.04C20.6329 15.931 21.3069 15.822 21.9919 15.711C22.7489 15.575 23.3749 15.462 23.9019 15.368C24.3659 15.285 24.7369 15.224 25.0459 15.189C25.6639 15.115 26.0339 15.156 26.3879 15.277C26.5549 15.34 26.7519 15.356 26.8839 15.422C27.1059 15.514 26.9869 15.812 26.5159 16.142C26.0499 16.471 25.2729 16.8 24.2619 17.071C23.7919 17.198 23.2539 17.327 22.8259 17.424C22.7359 17.46 22.6449 17.496 22.5519 17.533C22.5799 17.594 22.6249 17.657 22.6559 17.705L22.7019 17.773C22.7149 17.799 22.7029 17.761 22.7369 17.837L22.8349 18.058C23.0939 18.653 23.3549 19.25 23.6169 19.851C23.8739 20.456 24.1249 21.068 24.3689 21.694L24.7249 22.645L24.8949 23.133L24.9759 23.383L25.0989 23.799C25.4819 25.049 25.5709 26.349 24.4499 26.663L24.1019 26.812C23.9729 26.841 23.8149 26.827 23.6719 26.836C23.3769 26.835 23.0949 26.871 22.7879 26.84C22.4909 26.822 22.1319 26.693 21.8139 26.605C21.6099 26.553 21.4399 26.475 21.2629 26.402C19.8499 25.813 18.6789 25.032 17.5439 24.216C16.8389 23.7 16.1569 23.164 15.4959 22.605L14.5139 21.756C14.3969 21.651 14.4439 21.692 14.4339 21.683L14.4329 21.68L14.4289 21.673C14.4239 21.675 14.4279 21.669 14.4109 21.682C14.1039 21.956 13.7829 22.199 13.4679 22.456C12.8239 22.942 12.1739 23.416 11.4949 23.846C10.1419 24.716 8.73794 25.496 7.14694 26.084L7.12494 26.042Z" fill="#0B1F2A"/>
<path fill-rule="evenodd" clip-rule="evenodd" d="M88.8618 22.7063L89.0828 23.4873C89.1878 23.8663 89.2858 24.2493 89.3348 24.6113C89.4458 25.3623 89.3648 25.9193 88.9768 26.3593C88.7398 26.5493 88.4378 26.5963 88.1748 26.7183C87.8668 26.7643 87.5178 26.7373 87.1968 26.7493C86.8618 26.7273 86.4938 26.5893 86.1498 26.5163C85.7968 26.4533 85.4348 26.2723 85.2678 26.1933C84.6388 25.9093 84.0498 25.6223 83.5098 25.2623C82.5628 24.6263 81.6938 23.9283 80.8578 23.2053C80.4428 22.8403 80.0328 22.4723 79.6308 22.0983L79.0308 21.5323C78.9108 21.4173 78.8738 21.3763 78.8348 21.3333L78.7018 21.1923C78.6298 21.1173 78.5548 21.0333 78.4798 20.9673L78.0878 21.3373L77.7128 21.6733L77.2788 22.0463C76.3198 22.8553 75.3518 23.6973 74.1548 24.1463C73.4158 24.4093 73.2898 22.2193 74.3558 21.4803C74.9138 21.0963 75.4588 20.6963 75.9938 20.2893L76.3898 19.9813C76.5388 19.8623 76.5868 19.8313 76.9148 19.5483L78.4618 18.1153C79.1288 18.7793 79.7978 19.4453 80.4708 20.1153C80.8358 20.4893 81.2018 20.8653 81.5708 21.2443C82.6058 22.2903 83.8908 23.1413 85.1278 23.8713C85.4688 24.0653 85.8108 24.2613 86.1548 24.4073C86.3128 24.4863 86.3338 24.4963 86.4238 24.5303C86.4988 24.5593 86.5758 24.5963 86.6608 24.6093C86.7448 24.6243 86.8328 24.6583 86.9238 24.6483C87.0008 24.6373 87.1438 24.6833 87.1578 24.5763C87.1918 24.4143 87.1528 24.2423 87.1218 24.0613L87.0858 23.8923C87.0698 23.8283 87.0668 23.8013 87.0228 23.6523L86.8018 22.9233C86.6478 22.4353 86.4818 21.9483 86.3078 21.4633L85.4938 19.2543C85.1138 18.2973 84.7358 17.3443 84.3598 16.3953C84.3438 16.3403 84.2878 16.2603 84.3068 16.2273C85.1228 16.0983 85.9448 15.9403 86.7748 15.7423C87.3258 15.5943 87.8698 15.4293 88.4048 15.2623L89.1228 15.0143C90.0128 14.7293 90.2558 14.7583 90.6678 15.1683C90.7628 15.2613 90.8778 15.3443 90.9658 15.4413C91.2878 15.7463 90.9998 16.3313 90.2668 16.6913C89.4858 17.0813 88.6898 17.3493 87.8738 17.5783L87.2588 17.7383L87.1168 17.7723L87.1098 17.7823L87.1008 17.7993C87.0938 17.8193 87.0988 17.8313 87.1058 17.8393C87.1258 17.8563 87.1318 17.8533 87.1318 17.8533C87.7608 19.4063 88.3678 21.0193 88.9098 22.6873L88.8618 22.7063Z" fill="#0B1F2A"/>
<path fill-rule="evenodd" clip-rule="evenodd" d="M70.3209 8.40902L71.5949 8.23202L72.1899 8.15702C72.2799 8.14902 72.2659 8.15702 72.3129 8.15602C72.3329 8.13902 72.3489 8.11202 72.3679 8.08602L72.6419 7.56802L73.2469 6.43302C73.6549 5.67902 74.0739 4.92802 74.5119 4.18102C74.9939 3.36702 75.4419 2.52902 76.0309 1.73302C76.1659 1.55102 76.3089 1.36902 76.4629 1.18702C76.5259 1.11202 76.6369 0.978024 76.7749 0.843024C76.8999 0.708024 77.0289 0.580024 77.1689 0.474024C77.4389 0.239024 77.7409 0.0840244 78.0609 0.0240244C78.3979 -0.0589756 78.7119 0.0890244 78.9929 0.225024C79.1959 0.373024 79.3709 0.553024 79.5589 0.713024C79.7449 0.861024 79.9229 1.10802 80.0089 1.20902C80.2229 1.47402 80.3989 1.74002 80.5789 2.00702C80.9279 2.54202 81.2379 3.08202 81.5339 3.62702C82.1259 4.71602 82.6519 5.82102 83.1569 6.93502L84.0589 8.94502L84.1999 9.26302L84.2529 9.38102C84.2769 9.41102 84.3339 9.40002 84.3729 9.41202L85.2049 9.54302C87.0299 9.83702 88.8799 10.037 90.6609 10.566C91.7719 10.896 90.0099 12.408 87.9119 12.043L85.1269 11.536L83.2439 11.176L82.9009 11.11C82.8369 11.024 82.8059 10.899 82.7579 10.795L82.4919 10.146L82.1689 9.35702C81.4599 7.65002 80.7119 5.93502 79.8879 4.28502C79.6509 3.80502 79.3809 3.34702 79.0929 2.90402C78.9439 2.69902 78.7979 2.47002 78.6369 2.29002C78.5169 2.13802 78.5029 2.12902 78.4189 2.05302C78.3509 1.97402 78.2389 1.96102 78.1609 2.03402C78.0759 2.09802 78.0319 2.14702 77.9429 2.25502C77.6059 2.66802 77.2799 3.14902 76.9649 3.63502C76.3689 4.55602 75.8119 5.53002 75.2709 6.51202L73.4959 9.83402L72.2649 9.99302C70.7169 10.201 69.1619 10.43 67.6619 10.769C67.3789 10.835 67.0969 10.903 66.8249 10.981C66.5739 11.053 66.4769 11.081 66.3119 11.15C66.1649 11.202 65.9869 11.319 66.0579 11.499C66.0779 11.659 66.1409 11.815 66.2279 11.955C66.2909 12.067 66.4709 12.302 66.6589 12.493C66.8419 12.691 67.0519 12.877 67.2669 13.058C67.6979 13.42 68.1759 13.747 68.6629 14.058C69.0409 14.301 69.4319 14.525 69.8279 14.741L71.1219 15.416L72.0569 15.898L72.2959 16.021L72.4159 16.083C72.4169 16.117 72.3899 16.161 72.3779 16.2L72.1929 16.683L71.5579 18.347C71.4179 18.721 71.2989 19.093 71.1489 19.466C70.5949 20.847 70.2929 21.234 69.7049 21.344C69.5709 21.368 69.4279 21.415 69.3049 21.412C68.8909 21.402 68.8359 20.72 69.1639 19.66C69.4069 18.874 69.6729 18.084 69.9539 17.291L70.0569 17.001L70.0519 16.967L70.0409 16.914C70.0269 16.886 69.9539 16.894 69.9349 16.89L69.9289 16.889L69.8589 16.853L69.7159 16.777L69.4299 16.622L68.8579 16.305C68.4759 16.089 68.0949 15.864 67.7149 15.622C66.9549 15.133 66.1939 14.62 65.4619 13.902C65.3259 13.762 65.1909 13.638 65.0599 13.472L64.8599 13.229C64.7809 13.131 64.6959 12.969 64.6149 12.842C64.2559 12.311 64.0989 11.706 64.0859 11.149L64.1299 10.738C64.2089 10.623 64.2089 10.469 64.2859 10.354C64.4229 10.12 64.6399 9.94302 64.8739 9.77402C65.1299 9.62002 65.4139 9.49202 65.7079 9.38102L66.1339 9.23802L66.4029 9.15902C67.7439 8.79502 69.0189 8.57902 70.3099 8.36402L70.3209 8.40902Z" fill="#0B1F2A"/>
<path fill-rule="evenodd" clip-rule="evenodd" d="M35.148 12.1592L34.949 12.2122L34.902 12.2212L34.847 12.2312C34.812 12.2372 34.758 12.2572 34.768 12.3002C34.765 12.3312 34.773 12.3642 34.784 12.3982C34.793 12.4162 34.796 12.4292 34.811 12.4532L34.989 12.6832C35.268 13.0052 35.624 13.3232 36.002 13.6272C36.77 14.2352 37.636 14.7952 38.523 15.3322L38.903 15.5582L39.468 15.8772L40.854 16.6432L39.989 18.5632C39.244 20.1572 38.505 21.7582 37.83 23.3672L37.383 24.4782C37.315 24.6392 37.243 24.8132 37.194 25.0052C37.185 25.0532 37.171 25.1032 37.18 25.1522C37.191 25.2072 37.255 25.1892 37.294 25.2072C37.382 25.2372 37.475 25.2242 37.57 25.2282C37.666 25.2262 37.761 25.2052 37.861 25.1932C37.956 25.1782 38.039 25.1532 38.276 25.0912C39.698 24.6692 41.094 23.9452 42.404 23.1762C44.082 22.1592 45.663 20.9652 47.194 19.8362C47.66 19.4842 47.969 19.8552 47.896 20.5682C47.828 21.2852 47.312 22.3132 46.33 23.0142C44.596 24.2552 42.772 25.3092 40.794 26.1632C40.293 26.3692 39.79 26.5692 39.255 26.7352C39.123 26.7772 38.995 26.8242 38.853 26.8572L38.356 26.9872C37.885 27.1172 37.433 27.1102 36.981 27.1672C36.742 27.2152 36.576 27.1282 36.374 27.1112C36.188 27.0682 35.962 27.0762 35.843 26.9552L35.629 26.8152L35.523 26.7462L35.497 26.7292L35.483 26.7202C35.427 26.7692 35.557 26.6512 35.542 26.6622L35.539 26.6592L35.532 26.6532L35.48 26.6052C35.348 26.4802 35.256 26.3722 35.234 26.1972C35.081 25.5542 35.482 24.5122 35.771 23.7752C36.261 22.6172 36.756 21.4482 37.255 20.2672L38.005 18.5102L38.346 17.7342L38.483 17.4482L38.493 17.4292L38.209 17.2512L37.409 16.7722C36.821 16.4122 36.235 16.0392 35.659 15.6352C35.084 15.2292 34.515 14.7982 33.981 14.2722C33.706 13.9752 33.487 13.7802 33.204 13.3182C32.889 12.8792 32.765 12.3832 32.707 11.9012L32.721 11.7422C32.741 11.0972 33.41 10.8182 33.993 10.5892L34.432 10.4472L34.756 10.3582L35.4 10.2012C36.255 10.0072 37.104 9.85623 37.952 9.71223L39.489 9.47123L40.751 9.30323C41.115 8.71423 41.48 8.12723 41.842 7.54223C42.264 6.88323 42.685 6.22523 43.104 5.57023C43.658 4.72723 44.195 3.88723 44.8 3.06523C44.952 2.86023 45.108 2.65623 45.275 2.45323L45.548 2.13623C45.674 1.99723 45.817 1.87023 45.954 1.73523C46.243 1.49423 46.552 1.27823 46.889 1.18523C47.234 1.08523 47.606 1.18723 47.837 1.39423C48.078 1.59223 48.286 1.87523 48.504 2.15023L48.955 2.71623C49.934 3.99123 50.137 4.47923 49.953 5.06923C49.911 5.20323 49.885 5.35823 49.823 5.46723C49.615 5.83323 48.973 5.49823 48.171 4.60123L47.284 3.58823C47.089 3.35123 47.111 3.40923 47.065 3.37023C47.03 3.35123 47.008 3.33323 46.979 3.33123C46.905 3.35623 46.873 3.43723 46.855 3.47523C46.853 3.48023 46.852 3.48623 46.845 3.49623L46.753 3.60223L46.559 3.83723L46.171 4.34023C45.143 5.73323 44.155 7.29223 43.194 8.85223C42.762 9.57223 42.329 10.2922 41.895 11.0162L39.726 11.3232L38.172 11.5712C37.146 11.7492 36.108 11.9432 35.164 12.2022L35.148 12.1592Z" fill="#0B1F2A"/>
<path fill-rule="evenodd" clip-rule="evenodd" d="M10.786 24.9801C9.87801 25.5491 8.94301 26.0721 7.96301 26.5311C7.47201 26.7581 6.96801 26.9691 6.44801 27.1561C6.17801 27.2401 5.92301 27.3381 5.64201 27.4071L5.22301 27.5101C5.07201 27.5521 4.97701 27.5561 4.70501 27.6001C4.17701 27.6931 3.74701 27.6021 3.27201 27.5621L2.83901 27.3351C2.89001 27.2351 2.79301 27.2591 2.78101 27.2151L2.69401 27.1281C2.65801 27.0591 2.60401 27.0021 2.58701 26.9201C2.48001 26.6171 2.52101 26.2091 2.58901 25.8131C2.71301 25.1421 2.79301 24.9331 2.88601 24.5791L3.17801 23.6051L3.80801 21.6911L5.12601 17.9761L5.26101 17.6201C5.06701 17.5041 4.00401 16.9251 3.25801 16.4721C2.59801 16.0741 1.93001 15.6621 1.31101 15.1211C0.713007 14.5891 0.0910069 13.8441 6.88614e-06 12.8551C-0.00199311 12.2241 0.432007 12.4221 0.855007 12.7081C1.32501 13.0081 1.81801 13.1771 2.33301 13.6671C2.84901 14.1731 3.54601 14.6431 4.24701 15.1001L5.33501 15.7751L7.21301 16.8701L6.58601 18.6051L6.23401 19.5241C5.99601 20.1341 5.75701 20.7471 5.51701 21.3631C5.18001 22.2211 4.89101 23.1161 4.63701 24.0181C4.51001 24.4681 4.39001 24.9221 4.28601 25.3691L4.20601 25.7341C4.19101 25.8101 4.17601 25.8881 4.17701 25.9701C4.17801 26.0451 4.26601 26.0251 4.31401 26.0471C4.39001 26.0561 4.47301 26.0621 4.55501 26.0521C4.56801 26.0561 4.80901 26.0241 5.02201 25.9621C5.44001 25.8681 5.86901 25.7191 6.29001 25.5521C7.13701 25.2191 7.97001 24.8041 8.78101 24.3481C9.86901 23.7271 10.926 23.0331 11.911 22.2591C12.165 22.0641 12.391 21.8751 12.646 21.6551C13.011 21.3411 13.34 21.0121 13.682 20.7011L14.722 21.6851L15.448 22.3341C15.932 22.7581 16.428 23.1621 16.932 23.5511C18.109 24.4421 19.368 25.1911 20.648 25.7631C20.928 25.9011 21.214 25.9601 21.492 26.0811C21.75 26.1631 21.958 26.2151 22.132 26.2861C22.299 26.3301 22.426 26.3611 22.537 26.4181C22.764 26.5441 22.861 26.6061 23.023 26.8241C23.092 26.9141 23.189 27.0011 23.25 27.0911C23.352 27.2431 23.301 27.4011 23.042 27.5551C22.772 27.7361 22.339 27.7901 21.8 27.7411C20.278 27.4911 18.991 26.7991 17.77 26.0451C16.555 25.2771 15.422 24.3921 14.334 23.4571L13.691 22.8901C13.691 22.8901 13.691 22.8861 13.69 22.8801L13.685 22.8781H13.681L13.684 22.8741L13.589 22.9551C13.296 23.2131 12.991 23.4481 12.689 23.6881C12.077 24.1531 11.454 24.5991 10.81 25.0121L10.786 24.9801Z" fill="#0B1F2A"/>
<path fill-rule="evenodd" clip-rule="evenodd" d="M37.7417 21.9397L36.7377 24.0227L36.2647 25.0677L36.0447 25.5887L35.9397 25.8486L35.9087 25.9097C35.8637 26.0127 35.7897 26.2147 35.9677 26.2007L35.9857 26.2046C36.0387 26.2156 36.1037 26.2307 36.1657 26.2327C36.1597 26.2367 36.3237 26.2317 36.4247 26.2267L36.7707 26.1897C37.2327 26.1427 37.7077 26.0627 38.1787 25.9587C39.1207 25.7547 40.0647 25.4907 40.9827 25.1526C41.7977 24.8546 42.5937 24.4837 43.3317 24.0517C44.2867 23.4997 45.1427 22.8277 46.0177 22.2516C46.2927 22.0766 46.5707 22.3797 46.6187 22.8797C46.6767 23.3847 46.4477 24.0917 45.8647 24.4987C43.8087 25.9077 41.5607 26.7897 39.1827 27.2747C38.5527 27.3987 37.9277 27.5217 37.2957 27.6456C36.9587 27.6876 36.6627 27.7557 36.2877 27.7737C35.7437 27.8477 35.2807 27.7507 34.7967 27.6997L34.4717 27.5217L34.3107 27.4327C34.3457 27.3307 34.2347 27.3267 34.2187 27.2647C33.9727 26.8477 34.1797 26.1876 34.3847 25.5866C34.5127 25.2256 34.5537 25.1397 34.6397 24.9237L34.8737 24.3717C35.1897 23.6397 35.5237 22.9247 35.8607 22.2116L37.1287 19.5977L37.5637 18.7167L37.8187 18.2297C37.2547 17.9007 36.6947 17.5747 36.1377 17.2507C35.1527 16.6727 34.1377 16.1727 33.1997 15.3817C32.9957 15.2007 32.7837 15.0307 32.6007 14.7977C32.2567 14.3797 32.1037 13.9917 32.0947 13.7047C32.0817 13.4137 32.1967 13.2317 32.4047 13.1017C32.4967 13.0427 32.5877 12.9777 32.6827 12.9527C33.0237 12.8967 33.2577 13.1687 33.5437 13.5137C34.0117 14.0777 34.8047 14.6097 35.6257 15.1227C36.0397 15.3807 36.4727 15.6357 36.9147 15.8897L38.4177 16.7427C38.9097 17.0167 39.4017 17.2917 39.8967 17.5677C39.1927 19.0267 38.4847 20.4927 37.7787 21.9546L37.7417 21.9397Z" fill="#0B1F2A"/>
<path fill-rule="evenodd" clip-rule="evenodd" d="M69.0143 17.4136C69.2413 17.4786 68.3553 16.9136 67.8573 16.5596C67.6503 16.4176 67.4193 16.3136 67.2173 16.1616C66.5033 15.6236 65.8113 15.0446 65.1563 14.3956C64.8693 14.0996 64.5523 13.8366 64.2633 13.5096C63.9013 13.1206 63.4373 12.5736 63.5533 11.8576C63.5873 11.6366 64.0053 11.7136 64.4193 11.7956C64.8283 11.8906 65.2273 11.8796 65.2883 11.9976C65.5333 12.4976 66.2073 13.1896 66.8383 13.9136C67.2283 14.3556 67.7803 14.6336 68.2783 14.9746L69.1093 15.5396L69.5293 15.8206L69.7413 15.9596L70.0673 16.1616L70.8683 16.6556L70.9663 16.7146C70.9803 16.7256 71.0023 16.7336 71.0113 16.7466L70.9853 16.8016L70.8843 17.0216L70.6863 17.4556L70.1913 18.5276C70.0573 18.8136 69.9313 19.1016 69.8203 19.3956C69.6493 19.8516 69.5683 20.3346 69.4493 20.8046C69.4233 20.9086 69.4113 21.0156 69.3773 21.1166C69.2503 21.4916 69.1023 21.5676 68.6723 21.4876C68.5753 21.4686 68.4743 21.4566 68.3803 21.4306C68.0583 21.3436 67.8683 21.0916 67.8903 20.7856C67.9573 19.8776 68.2713 19.0146 68.6233 18.1636L68.8263 17.6926L68.9283 17.4646L68.9353 17.4696C68.9413 17.4766 68.9873 17.4466 68.9733 17.4366L69.0143 17.4136Z" fill="#0B1F2A"/>
</svg>
