<svg width="344" height="404" viewBox="0 0 344 404" fill="none" xmlns="http://www.w3.org/2000/svg">
<g filter="url(#filter0_d_154_12536)">
<path d="M32.0219 76.0572C25.0819 153.644 21.6621 195.959 19.9987 260.278C22.3855 285.263 26.9261 296.059 44.9787 305.352C117.616 336.602 168.295 360.658 227.75 383.255C252.805 385.876 262.549 380.517 272.37 366.98C292.568 317.369 302.358 261.46 321.428 191.206C326.304 163.793 322.289 151.886 301.985 137.3C226.369 93.4207 116.076 32.5591 116.076 32.5591C116.076 32.5591 95.2417 19.0069 81.7645 20.0579C65.7954 22.892 58.4311 27.3604 48.7755 37.0982C37.5996 48.616 33.9601 57.1577 32.0219 76.0572Z" fill="#0B1F2A"/>
</g>
<defs>
<filter id="filter0_d_154_12536" x="0" y="0" width="343.301" height="403.9" filterUnits="userSpaceOnUse" color-interpolation-filters="sRGB">
<feFlood flood-opacity="0" result="BackgroundImageFix"/>
<feColorMatrix in="SourceAlpha" type="matrix" values="0 0 0 0 0 0 0 0 0 0 0 0 0 0 0 0 0 0 127 0" result="hardAlpha"/>
<feOffset/>
<feGaussianBlur stdDeviation="10"/>
<feComposite in2="hardAlpha" operator="out"/>
<feColorMatrix type="matrix" values="0 0 0 0 0 0 0 0 0 0 0 0 0 0 0 0 0 0 0.1 0"/>
<feBlend mode="normal" in2="BackgroundImageFix" result="effect1_dropShadow_154_12536"/>
<feBlend mode="normal" in="SourceGraphic" in2="effect1_dropShadow_154_12536" result="shape"/>
</filter>
</defs>
</svg>
