<svg width="559" height="551" viewBox="0 0 559 551" fill="none" xmlns="http://www.w3.org/2000/svg">
<rect x="166.25" y="15.25" width="111.5" height="240.5" rx="14.1906" fill="#B6D3E1" stroke="#0B1F2A" stroke-width="0.5"/>
<rect x="293.25" y="15.25" width="111.5" height="111.5" rx="14.1906" fill="#B6D3E1" stroke="#0B1F2A" stroke-width="0.5"/>
<rect x="420.25" y="15.25" width="111.5" height="111.5" rx="14.1906" fill="#B6D3E1" stroke="#0B1F2A" stroke-width="0.5"/>
<rect x="420.25" y="144.25" width="111.5" height="111.5" rx="14.1906" fill="#B6D3E1" stroke="#0B1F2A" stroke-width="0.5"/>
<rect x="293.25" y="274.25" width="111.5" height="240.5" rx="14.1906" fill="#B6D3E1" stroke="#0B1F2A" stroke-width="0.5"/>
<rect x="420.25" y="274.25" width="111.5" height="111.5" rx="14.1906" fill="#B6D3E1" stroke="#0B1F2A" stroke-width="0.5"/>
<rect x="420.25" y="403.25" width="111.5" height="111.5" rx="14.1906" fill="#B6D3E1" stroke="#0B1F2A" stroke-width="0.5"/>
<rect x="39.25" y="15.25" width="111.5" height="111.5" rx="14.1906" fill="#B6D3E1" stroke="#0B1F2A" stroke-width="0.5"/>
<rect x="39.25" y="144.25" width="111.5" height="111.5" rx="14.1906" fill="#B6D3E1" stroke="#0B1F2A" stroke-width="0.5"/>
<rect x="39.25" y="274.25" width="111.5" height="111.5" rx="14.1906" fill="#B6D3E1" stroke="#0B1F2A" stroke-width="0.5"/>
<rect x="39.25" y="403.25" width="238.5" height="111.5" rx="14.1906" fill="#B6D3E1" stroke="#0B1F2A" stroke-width="0.5"/>
<g filter="url(#filter0_d_154_6976)">
<rect x="349" y="341" width="150" height="150" rx="19.1337" fill="#FF7F50"/>
<rect x="350" y="342" width="148" height="148" rx="18.1337" stroke="#FF7F50" stroke-width="2"/>
</g>
<g clip-path="url(#clip0_154_6976)">
<path d="M424.001 456C401.834 456 383.834 438.333 384.001 416C384.168 393.667 401.001 376 424.001 376C447.003 376 464.001 394 464.001 416C464.001 438 446.168 456 424.001 456ZM435.834 449.833L424.501 419.333L413.834 450.5C421.668 452.334 427.001 452.833 435.834 449.833ZM408.168 448.167L391.168 401.667C388.834 406.667 388.336 410.834 388.001 416C388.168 429.666 395.834 442.166 408.168 448.167ZM459.836 416C460.001 407.167 456.003 400.167 455.668 399.167C456.003 406.002 455.001 409.5 453.836 413.334L442.168 446.834C456.836 438 459.667 424.833 460.001 416H459.836ZM422.836 414.5L417.168 399L413.001 398.667C411.336 397.5 412.334 395.667 413.501 395.667C421.001 396.167 425.167 396.167 432.668 395.667C434.503 395.667 435.001 398.334 432.834 398.667L428.834 399L441.832 437.333L447.998 416.333C448.332 407.167 445.831 406.167 442.498 399.5C439.831 394.333 442.665 389.333 447.832 389.167C443.664 385.167 435.165 380.167 423.998 380C412.831 379.833 400.998 385.5 393.998 396.167L406.332 395.834C407.832 396.502 407.165 398.667 406.332 398.834L402 399.167L415 438.167L422.836 414.5Z" fill="#F6F6F6"/>
</g>
<g filter="url(#filter1_d_154_6976)">
<rect x="122" y="282" width="150" height="150" rx="19.1337" fill="#0B1F2A"/>
<rect x="123" y="283" width="148" height="148" rx="18.1337" stroke="#0B1F2A" stroke-width="2"/>
</g>
<path d="M208.071 358.002C204.245 358.127 201.854 358.812 201.854 361.349C201.854 362.993 203.165 364.76 206.471 364.76C210.899 364.76 213.27 362.348 213.27 358.377V357.94L208.072 358.003L208.071 358.002ZM217.511 363.241L217.656 366.775H213.726C213.623 365.881 213.581 364.988 213.581 364.113C211.461 366.733 208.923 367.481 205.41 367.481C200.212 367.481 197.426 364.736 197.426 361.555C197.426 356.939 201.21 355.318 207.812 355.172C209.609 355.132 211.626 355.132 213.29 355.132V354.674C213.29 351.597 211.314 350.338 207.885 350.338C205.348 350.338 203.457 351.399 203.269 353.208H198.82C199.298 348.676 204.06 347.531 208.238 347.531C213.28 347.531 217.491 349.319 217.491 354.622V363.25L217.511 363.241Z" fill="#F5AF02"/>
<path d="M171.497 355.756C171.331 351.805 168.472 350.329 165.427 350.329C162.142 350.329 159.501 351.993 159.045 355.756H171.497ZM158.961 358.563C159.19 362.41 161.831 364.675 165.469 364.675C167.984 364.675 170.23 363.667 170.978 361.411H175.344C174.492 365.944 169.667 367.482 165.53 367.482C157.983 367.482 154.656 363.323 154.656 357.731C154.656 351.556 158.108 347.501 165.614 347.501C171.581 347.501 175.947 350.62 175.947 357.441V358.564L158.961 358.563Z" fill="#E53238"/>
<path d="M186.778 364.596C190.708 364.596 193.39 361.769 193.39 357.506C193.39 353.242 190.708 350.415 186.778 350.415C182.869 350.415 180.167 353.242 180.167 357.506C180.167 361.769 182.869 364.596 186.778 364.596ZM175.944 340.081H180.164V350.705C182.243 348.231 185.091 347.524 187.898 347.524C192.617 347.524 197.837 350.705 197.837 357.567C197.837 363.315 193.678 367.506 187.814 367.506C184.736 367.506 181.868 366.404 180.08 364.221C180.08 365.094 180.04 365.968 179.935 366.799H175.777L175.923 362.433V340.081H175.944Z" fill="#0064D2"/>
<path d="M239.03 348.21L225.951 373.889H221.212L224.975 366.757L215.141 348.21H220.09L227.325 362.702L234.54 348.21H239.03Z" fill="#86B817"/>
<g filter="url(#filter2_d_154_6976)">
<rect x="304" y="98" width="150" height="150" rx="19.1337" fill="#0B1F2A"/>
<rect x="305" y="99" width="148" height="148" rx="18.1337" stroke="#0B1F2A" stroke-width="2"/>
</g>
<path d="M376.516 135.594C377.092 135.594 377.379 135.882 377.955 136.17C374.502 137.609 371.049 141.35 369.322 149.407L362.992 151.133C365.006 145.378 369.034 135.594 376.516 135.594ZM379.681 138.472C380.257 140.199 380.832 142.213 380.832 145.378C380.832 145.666 380.832 145.666 380.832 145.954L372.488 148.256C374.214 142.213 377.092 139.623 379.681 138.472ZM387.163 143.652L383.422 144.803C383.422 144.515 383.422 144.227 383.422 143.939C383.422 141.35 383.134 139.335 382.559 137.609C384.573 138.184 386.3 140.774 387.163 143.652ZM405.867 148.256C405.867 147.968 405.579 147.68 405.291 147.68C404.716 147.68 398.673 147.105 398.673 147.105C398.673 147.105 394.357 142.788 393.781 142.501C393.206 141.925 392.342 142.213 392.055 142.213C392.055 142.213 391.191 142.501 389.753 143.076C388.314 139.048 385.724 135.307 381.408 135.307H381.12C379.969 133.58 378.243 133.005 376.804 133.005C366.445 132.717 361.553 145.666 359.826 152.284C357.524 152.86 355.222 153.723 352.633 154.586C350.331 155.162 350.331 155.449 350.043 157.464C349.755 158.902 344 204.367 344 204.367L389.753 213L414.499 207.533C414.499 207.533 405.867 148.831 405.867 148.256Z" fill="#8DB849"/>
<path d="M410.005 147.678C409.717 147.678 403.674 147.103 403.674 147.103C403.674 147.103 399.358 142.786 398.782 142.499C398.495 142.211 398.495 142.211 398.207 142.211L394.754 212.998L419.501 207.531C419.501 207.531 410.868 148.829 410.868 148.254C410.868 147.966 410.293 147.678 410.005 147.678Z" fill="#5A863E"/>
<path d="M386.409 161.49L383.244 170.698C383.244 170.698 380.654 169.259 377.201 169.259C372.31 169.259 372.022 172.137 372.022 173C372.022 177.028 382.956 178.755 382.956 188.539C382.956 196.308 378.065 201.2 371.446 201.2C363.677 201.2 359.648 196.308 359.648 196.308L361.663 189.402C361.663 189.402 365.691 192.855 369.144 192.855C371.446 192.855 372.31 191.128 372.31 189.69C372.31 184.222 363.389 183.935 363.389 175.014C363.389 167.533 368.857 160.339 379.503 160.339C384.395 160.051 386.409 161.49 386.409 161.49Z" fill="#FFFFFE"/>
<g filter="url(#filter3_d_154_6976)">
<rect x="52" y="52" width="150" height="150" rx="19.1337" fill="#FF7F50"/>
<rect x="53" y="53" width="148" height="148" rx="18.1337" stroke="#FF7F50" stroke-width="2"/>
</g>
<g clip-path="url(#clip1_154_6976)">
<path d="M74.9253 97.1641H179.072C185.663 97.1641 190.999 102.499 190.999 109.091V148.845C190.999 155.436 185.663 160.772 179.072 160.772H141.724L146.85 173.326L124.305 160.772H74.9773C68.3865 160.772 63.0512 155.436 63.0512 148.845V109.091C62.9987 102.552 68.3335 97.1641 74.9253 97.1641Z" fill="#0B1F2A"/>
<path d="M70.3365 108.035C71.0647 107.046 72.1568 106.527 73.6132 106.423C76.2661 106.214 77.7745 107.462 78.1384 110.167C79.7507 121.038 81.519 130.244 83.3912 137.785L94.7816 116.097C95.8222 114.12 97.1227 113.08 98.683 112.976C100.972 112.82 102.376 114.276 102.948 117.345C104.248 124.262 105.913 130.139 107.889 135.132C109.241 121.922 111.53 112.404 114.754 106.527C115.534 105.07 116.679 104.342 118.187 104.237C119.384 104.134 120.476 104.498 121.464 105.278C122.452 106.058 122.972 107.046 123.076 108.243C123.128 109.179 122.972 109.959 122.556 110.739C120.528 114.484 118.863 120.778 117.511 129.515C116.211 137.993 115.743 144.599 116.054 149.332C116.159 150.632 115.951 151.776 115.431 152.765C114.806 153.909 113.87 154.533 112.674 154.637C111.321 154.741 109.917 154.117 108.565 152.713C103.728 147.771 99.879 140.386 97.0707 130.556C93.6896 137.213 91.1931 142.206 89.5807 145.535C86.512 151.412 83.9115 154.429 81.7269 154.585C80.3225 154.689 79.1265 153.492 78.0864 150.996C75.434 144.183 72.5731 131.024 69.5049 111.52C69.2965 110.167 69.6083 108.971 70.3365 108.035ZM182.109 116.201C180.237 112.924 177.48 110.948 173.788 110.167C172.799 109.959 171.863 109.855 170.979 109.855C165.986 109.855 161.929 112.456 158.756 117.657C156.051 122.078 154.699 126.967 154.699 132.324C154.699 136.329 155.531 139.762 157.196 142.622C159.068 145.899 161.825 147.875 165.517 148.655C166.505 148.864 167.442 148.968 168.326 148.968C173.371 148.968 177.428 146.367 180.549 141.166C183.253 136.693 184.606 131.804 184.606 126.447C184.658 122.39 183.773 119.009 182.109 116.201ZM175.556 130.608C174.828 134.04 173.527 136.589 171.602 138.305C170.095 139.658 168.69 140.229 167.39 139.969C166.142 139.71 165.101 138.617 164.321 136.589C163.697 134.976 163.385 133.364 163.385 131.856C163.385 130.556 163.489 129.255 163.749 128.059C164.217 125.927 165.102 123.846 166.505 121.87C168.222 119.321 170.043 118.281 171.915 118.645C173.163 118.905 174.204 119.998 174.984 122.026C175.608 123.638 175.92 125.25 175.92 126.759C175.92 128.111 175.816 129.412 175.556 130.608ZM149.55 116.201C147.678 112.924 144.869 110.948 141.228 110.167C140.24 109.959 139.304 109.855 138.419 109.855C133.426 109.855 129.37 112.456 126.197 117.657C123.492 122.078 122.14 126.967 122.14 132.324C122.14 136.329 122.972 139.762 124.636 142.622C126.509 145.899 129.266 147.875 132.958 148.655C133.947 148.864 134.882 148.968 135.767 148.968C140.812 148.968 144.869 146.367 147.989 141.166C150.694 136.693 152.046 131.804 152.046 126.447C152.046 122.39 151.214 119.009 149.55 116.201ZM142.945 130.608C142.216 134.04 140.916 136.589 138.992 138.305C137.483 139.658 136.079 140.229 134.778 139.969C133.53 139.71 132.49 138.617 131.71 136.589C131.086 134.976 130.774 133.364 130.774 131.856C130.774 130.556 130.878 129.255 131.138 128.059C131.606 125.927 132.49 123.846 133.895 121.87C135.611 119.321 137.431 118.281 139.304 118.645C140.552 118.905 141.593 119.998 142.372 122.026C142.997 123.638 143.308 125.25 143.308 126.759C143.361 128.111 143.204 129.412 142.945 130.608Z" fill="#F6F6F6"/>
</g>
<defs>
<filter id="filter0_d_154_6976" x="297" y="289" width="262" height="262" filterUnits="userSpaceOnUse" color-interpolation-filters="sRGB">
<feFlood flood-opacity="0" result="BackgroundImageFix"/>
<feColorMatrix in="SourceAlpha" type="matrix" values="0 0 0 0 0 0 0 0 0 0 0 0 0 0 0 0 0 0 127 0" result="hardAlpha"/>
<feOffset dx="4" dy="4"/>
<feGaussianBlur stdDeviation="28"/>
<feComposite in2="hardAlpha" operator="out"/>
<feColorMatrix type="matrix" values="0 0 0 0 1 0 0 0 0 0.498039 0 0 0 0 0.313726 0 0 0 0.4 0"/>
<feBlend mode="normal" in2="BackgroundImageFix" result="effect1_dropShadow_154_6976"/>
<feBlend mode="normal" in="SourceGraphic" in2="effect1_dropShadow_154_6976" result="shape"/>
</filter>
<filter id="filter1_d_154_6976" x="70" y="230" width="262" height="262" filterUnits="userSpaceOnUse" color-interpolation-filters="sRGB">
<feFlood flood-opacity="0" result="BackgroundImageFix"/>
<feColorMatrix in="SourceAlpha" type="matrix" values="0 0 0 0 0 0 0 0 0 0 0 0 0 0 0 0 0 0 127 0" result="hardAlpha"/>
<feOffset dx="4" dy="4"/>
<feGaussianBlur stdDeviation="28"/>
<feComposite in2="hardAlpha" operator="out"/>
<feColorMatrix type="matrix" values="0 0 0 0 0.0431373 0 0 0 0 0.121569 0 0 0 0 0.164706 0 0 0 0.4 0"/>
<feBlend mode="normal" in2="BackgroundImageFix" result="effect1_dropShadow_154_6976"/>
<feBlend mode="normal" in="SourceGraphic" in2="effect1_dropShadow_154_6976" result="shape"/>
</filter>
<filter id="filter2_d_154_6976" x="252" y="46" width="262" height="262" filterUnits="userSpaceOnUse" color-interpolation-filters="sRGB">
<feFlood flood-opacity="0" result="BackgroundImageFix"/>
<feColorMatrix in="SourceAlpha" type="matrix" values="0 0 0 0 0 0 0 0 0 0 0 0 0 0 0 0 0 0 127 0" result="hardAlpha"/>
<feOffset dx="4" dy="4"/>
<feGaussianBlur stdDeviation="28"/>
<feComposite in2="hardAlpha" operator="out"/>
<feColorMatrix type="matrix" values="0 0 0 0 0.0431373 0 0 0 0 0.121569 0 0 0 0 0.164706 0 0 0 0.4 0"/>
<feBlend mode="normal" in2="BackgroundImageFix" result="effect1_dropShadow_154_6976"/>
<feBlend mode="normal" in="SourceGraphic" in2="effect1_dropShadow_154_6976" result="shape"/>
</filter>
<filter id="filter3_d_154_6976" x="0" y="0" width="262" height="262" filterUnits="userSpaceOnUse" color-interpolation-filters="sRGB">
<feFlood flood-opacity="0" result="BackgroundImageFix"/>
<feColorMatrix in="SourceAlpha" type="matrix" values="0 0 0 0 0 0 0 0 0 0 0 0 0 0 0 0 0 0 127 0" result="hardAlpha"/>
<feOffset dx="4" dy="4"/>
<feGaussianBlur stdDeviation="28"/>
<feComposite in2="hardAlpha" operator="out"/>
<feColorMatrix type="matrix" values="0 0 0 0 1 0 0 0 0 0.498039 0 0 0 0 0.313726 0 0 0 0.4 0"/>
<feBlend mode="normal" in2="BackgroundImageFix" result="effect1_dropShadow_154_6976"/>
<feBlend mode="normal" in="SourceGraphic" in2="effect1_dropShadow_154_6976" result="shape"/>
</filter>
<clipPath id="clip0_154_6976">
<rect width="80" height="80" fill="white" transform="translate(384 376)"/>
</clipPath>
<clipPath id="clip1_154_6976">
<rect width="128" height="76.4928" fill="white" transform="translate(63 97)"/>
</clipPath>
</defs>
</svg>
