<svg width="100" height="100" viewBox="0 0 100 100" fill="none" xmlns="http://www.w3.org/2000/svg">
<path fill-rule="evenodd" clip-rule="evenodd" d="M51.2098 30.5376C54.5788 31.6101 57.9379 31.7171 61.3186 32.7523C66.6799 34.3938 74.8274 33.0975 76.7403 38.3547C78.6278 43.5422 69.6509 46.8203 68.3926 52.1942C66.916 58.5 73.5813 66.4806 69.065 71.1334C64.8115 75.5154 57.2423 70.8988 51.2098 69.896C46.2968 69.0793 41.4751 68.4079 37.2125 65.8385C32.6184 63.0693 25.0301 60.007 26.1025 54.7618C27.418 48.3278 27.943 49.501 29.7875 43.1975C31.7406 36.5231 30.911 30.0069 34.9953 24.372C38.4688 19.5797 45.5612 28.7393 51.2098 30.5376Z" fill="#B6D3E1"/>
<path fill-rule="evenodd" clip-rule="evenodd" d="M26.9617 77.3024C27.0651 77.3382 26.9888 77.4808 26.8036 77.6605C26.7448 77.7186 26.5334 77.8416 26.4915 77.8436C26.4104 77.847 26.3306 77.8517 26.2685 77.8484C26.2496 77.8436 26.1563 77.7943 26.0604 77.7605C26.0171 77.7571 25.9665 77.7409 25.9455 77.7625C25.9455 77.7625 25.9286 77.7842 25.9415 77.7666C25.9678 77.7315 25.9908 77.6943 26.0111 77.6585C26.0509 77.5896 26.0705 77.5761 26.0874 77.5355C26.1023 77.5058 26.1138 77.4625 26.1205 77.4362C26.1273 77.4247 26.132 77.4092 26.1334 77.3929C26.132 77.3355 26.134 77.3848 26.1374 77.374C26.1462 77.4085 26.1678 77.4402 26.2084 77.4855C26.2624 77.5625 26.3063 77.5808 26.3975 77.6598C26.4428 77.6977 26.4901 77.7315 26.5388 77.7612C26.5901 77.795 26.6509 77.8179 26.6286 77.8132L26.6192 77.8342C26.609 77.8679 26.5962 77.8936 26.584 77.9436C26.5577 78.0288 26.5354 78.1457 26.5104 78.2592C26.5002 78.3119 26.4759 78.3625 26.4367 78.4119C26.3063 78.5842 26.2719 78.7875 26.2725 78.9943C26.2725 79.0294 26.2604 79.0632 26.3043 79.1011C26.3739 79.1619 26.3205 79.724 26.28 79.7977C26.1732 79.9754 26.1043 80.1598 26.0205 80.345C26.0084 80.3713 26.0246 80.4011 25.9678 80.4227C25.8347 80.4734 25.8529 80.5328 25.8394 80.5923C25.8212 80.674 25.7955 80.7558 25.7462 80.8396C25.7219 80.8808 25.6448 80.9193 25.5813 80.9592C25.5246 80.9943 25.3354 80.9463 25.3158 80.9321C25.259 80.8902 25.1658 80.9098 25.0861 80.9024C25.0597 80.899 25.0239 80.8956 25.0029 80.8929C24.9584 80.9011 24.6469 80.4234 24.6502 80.3686C24.6496 80.3632 24.6306 80.1882 24.6104 79.9984C24.5894 79.8105 24.5671 79.6119 24.557 79.5706C24.5462 79.5281 24.5793 79.4869 24.6002 79.447C24.6084 79.4294 24.5394 78.8463 24.5475 78.8206C24.5732 78.7024 24.5347 78.5734 24.6671 78.4673C24.6928 78.4463 24.6894 78.4206 24.6901 78.3956C24.6975 78.1815 24.7739 77.9754 24.8529 77.7578C24.8942 77.6463 24.9043 77.5267 24.9469 77.3997C24.9536 77.3767 24.9779 77.3612 24.9928 77.3416C25.0104 77.3166 25.0401 77.2902 25.0496 77.2605C25.1016 77.1125 25.1779 76.924 25.3921 76.7375C25.4948 76.6443 25.6577 76.5261 25.8746 76.4713C26.0982 76.4092 26.3388 76.4544 26.4867 76.5112C26.5205 76.524 26.584 76.5605 26.6523 76.6146C26.6996 76.6632 26.7496 76.724 26.7955 76.7842C26.8678 76.899 26.9192 77.0058 26.9482 77.0342C26.9813 77.0679 26.9212 77.2916 26.9617 77.3024Z" fill="#0B1F2A"/>
<path fill-rule="evenodd" clip-rule="evenodd" d="M38.4555 31.5024C38.5677 31.9645 38.6008 32.4463 38.7204 32.9112C38.7575 33.0821 38.8372 33.2382 38.8785 33.4071C39.0312 34.0004 39.2217 34.5855 39.4906 35.1206C39.6149 35.3531 39.7812 35.5618 39.9649 35.722C40.2149 35.9328 40.4568 36.0186 40.6764 36.1895C40.744 36.2463 40.7352 36.499 40.5866 36.7301C40.4487 36.9666 40.096 37.1612 39.8156 37.0321C39.3305 36.8071 39.0021 36.4517 38.7467 36.1004C38.4967 35.7395 38.3136 35.3612 38.2089 34.9605C38.0818 34.4862 37.8541 34.051 37.7237 33.5862C37.5839 33.0767 37.4785 32.5618 37.4089 32.0443C37.3758 31.7227 37.3568 31.4017 37.3359 31.0828C37.3068 30.5983 37.3095 30.1118 37.3102 29.6321C37.3095 29.2598 37.2872 28.8895 37.3372 28.5091C37.3487 28.426 37.3575 28.3422 37.3812 28.2598C37.4771 27.9524 37.5751 27.8706 37.7258 27.8605C37.7609 27.8578 37.796 27.8524 37.8271 27.8564C37.9332 27.872 37.9704 28.0118 37.9818 28.2159C38.0156 28.822 38.0852 29.4497 38.1947 30.0855C38.2758 30.5571 38.3636 31.0308 38.4825 31.4963L38.4555 31.5024Z" fill="#0B1F2A"/>
<path fill-rule="evenodd" clip-rule="evenodd" d="M23.06 23.2466C23.1107 23.0777 23.3242 23.173 23.5898 23.4351C23.6749 23.5189 23.854 23.8277 23.8573 23.8858C23.8621 24.0007 23.8708 24.1088 23.8654 24.1919C23.8627 24.2169 23.7884 24.3378 23.7398 24.4635C23.6837 24.5878 23.6783 24.7169 23.679 24.7777C23.6877 24.8993 23.6648 24.9905 23.6242 25.1405L23.4803 25.7763C23.4121 26.0466 23.2749 26.4135 23.0492 26.7061C22.9567 26.8344 22.8425 26.9338 22.7242 27.0067C22.3195 27.2439 22.0371 27.4263 21.808 27.6439C21.7715 27.679 21.7222 27.7034 21.7195 27.7777C21.7181 27.8385 21.5634 27.9905 21.429 28.1317C21.2958 28.273 21.1729 28.4081 21.1276 28.4257C20.9161 28.5209 20.7303 28.6561 20.5533 28.8189C20.5262 28.8419 20.531 28.8831 20.454 28.877C20.2729 28.8642 20.2742 28.9527 20.2296 29.0142C20.156 29.0959 20.083 29.1831 19.9898 29.2669C19.9425 29.3081 19.8371 29.3304 19.7506 29.3628C19.6715 29.3912 19.4702 29.302 19.4526 29.2763C19.4026 29.2027 19.2871 29.2135 19.1965 29.1919C19.1661 29.1844 19.1262 29.1743 19.1026 29.1649C19.0769 29.1534 19.0195 28.9365 18.9641 28.6892C18.91 28.4405 18.9222 28.1831 18.9458 28.1426C18.958 28.1351 19.0627 27.8344 19.2357 27.5399C19.3972 27.2392 19.6127 26.9534 19.6526 26.8926C19.6925 26.827 19.7722 26.7966 19.8425 26.7649C19.8587 26.7574 20.0229 26.5554 20.1965 26.3784C20.3681 26.1966 20.5317 26.0304 20.5452 26.0236C20.7006 25.9257 20.7999 25.7797 20.9999 25.7986C21.0398 25.802 21.0607 25.7763 21.0817 25.7567C21.2641 25.5824 21.4067 25.5061 21.4817 25.4378C21.5256 25.4007 21.5344 25.3155 21.5654 25.2189C21.5702 25.1993 21.5958 25.1851 21.61 25.1676C21.6283 25.1473 21.654 25.1243 21.66 25.0919C21.7154 24.7912 21.8783 24.3317 22.0844 23.8588C22.1262 23.7311 22.5979 23.3993 22.6769 23.323C22.7215 23.2554 23.0445 23.3122 23.06 23.2466Z" fill="#0B1F2A"/>
<path fill-rule="evenodd" clip-rule="evenodd" d="M37.4051 63.3444C37.5051 63.3612 37.6092 63.3795 37.7031 63.3957C37.7355 63.4004 37.7646 63.3795 37.7943 63.3862C37.9065 63.4139 38.0099 63.4464 38.0937 63.4558C38.1166 63.4606 38.145 63.441 38.1288 63.4403C38.1173 63.4342 38.0828 63.3707 38.1545 63.3768C38.1822 63.3781 38.3578 63.4207 38.5565 63.5052C38.747 63.5842 38.9288 63.7173 38.9058 63.7896C38.8693 63.8545 38.8659 63.893 38.7916 63.9775C38.7301 64.0518 38.6673 64.1322 38.6085 64.1525C38.4768 64.2281 38.3747 64.2308 38.27 64.2133C38.1504 64.1862 38.0747 64.2531 37.9842 64.2633C37.8882 64.2734 37.7957 64.2714 37.7078 64.2721C37.6572 64.2734 37.5997 64.2707 37.5551 64.2775C37.4828 64.2795 37.4024 64.2748 37.3693 64.3092C37.3531 64.3207 37.3484 64.3464 37.3653 64.366L37.3747 64.3795L37.3376 64.3471C37.318 64.3302 37.3193 64.3254 37.3045 64.3153C37.2943 64.3079 37.2822 64.3018 37.2673 64.2971C37.2781 64.3025 37.2876 64.3025 37.2909 64.3025C37.2909 64.3025 37.3058 64.3025 37.2849 64.3004C37.2497 64.2991 37.2065 64.2977 37.1524 64.2957L37.0139 64.2991C36.8659 64.3079 36.7268 64.2788 36.6578 64.1457C36.5477 63.9545 36.6659 63.7214 36.7518 63.6187C36.8085 63.5498 36.8545 63.5119 36.9011 63.4788C36.9511 63.443 37.0045 63.4126 37.0437 63.3964C37.1768 63.3335 37.293 63.32 37.3991 63.3214L37.4051 63.3444Z" fill="#0B1F2A"/>
<path fill-rule="evenodd" clip-rule="evenodd" d="M30.3741 63.3253C31.0963 63.4719 31.8443 63.5327 32.595 63.5611C32.8693 63.5631 33.1409 63.5199 33.4159 63.5219C34.3815 63.4935 35.3673 63.4341 36.3105 63.2219C36.6923 63.1287 37.2153 62.953 37.2463 62.8043C37.3369 62.6273 37.37 62.3989 37.3882 62.1401C37.3991 62.0104 37.4072 61.876 37.4268 61.7246C37.4572 61.5712 37.4558 61.4064 37.6186 61.1604C37.8342 60.9685 37.9491 61.2327 38.0578 61.426C38.2322 61.5807 38.4774 61.7347 38.4707 62.1178C38.4599 62.4341 38.4376 62.8165 38.247 63.2219C38.2031 63.3219 38.1423 63.4205 38.0761 63.5158C38.0051 63.6172 37.8477 63.7469 37.7173 63.8374C37.518 63.9503 37.37 64.0138 37.2051 64.0787C36.5896 64.3124 35.9963 64.4077 35.3855 64.48C34.6599 64.5388 33.9268 64.7057 33.1869 64.732C32.3768 64.78 31.5626 64.7314 30.7551 64.6557C30.2599 64.5834 29.7626 64.5273 29.2754 64.4104C28.9058 64.3246 28.5328 64.255 28.1741 64.1239C27.8119 64.007 27.447 63.9077 27.0997 63.7523C26.543 63.5618 26.0018 63.3449 25.4565 63.0942C25.3376 63.0374 25.2254 62.9733 25.118 62.8942C24.7227 62.5983 24.6538 62.43 24.7801 62.1246C24.8085 62.0543 24.8315 61.982 24.8686 61.9192C24.993 61.7084 25.2747 61.6591 25.5801 61.7685C25.8139 61.8435 26.0159 61.9543 26.2423 62.0327C26.4666 62.1124 26.6855 62.2003 26.8997 62.2955C27.1126 62.3935 27.3511 62.4489 27.5713 62.5368C27.7936 62.6219 28.018 62.7043 28.2518 62.7705C28.5936 62.882 28.9349 63.0003 29.295 63.0746C29.647 63.1733 30.0092 63.2435 30.3768 63.2935L30.3741 63.3253Z" fill="#0B1F2A"/>
<path fill-rule="evenodd" clip-rule="evenodd" d="M65.2198 69.5287C65.159 70.1821 65.0732 70.8328 64.9448 71.4767C64.8928 71.7105 64.8759 71.9497 64.8158 72.1821C64.5914 73.0004 64.2739 73.7902 63.8759 74.5308C63.6651 74.8416 63.5164 75.1868 63.2914 75.4828C63.1502 75.674 63.0293 75.8814 62.8725 76.0612C62.709 76.2348 62.5347 76.4004 62.3468 76.545C62.2279 76.6355 62.1414 76.5091 62.1144 76.3118C62.0894 76.1139 62.1103 75.8463 62.2617 75.6537C62.7779 74.9443 63.1414 74.1679 63.5333 73.3612C63.7583 72.87 63.8448 72.3085 63.9347 71.7632C64.0347 71.1612 64.1131 70.5504 64.136 69.9314C64.1617 69.5517 64.161 69.1679 64.1671 68.7848C64.1543 68.2044 64.1448 67.6172 64.0617 67.0416C64.0056 66.5936 63.8502 66.1679 63.7637 65.7274C63.7428 65.6301 63.7131 65.5375 63.6989 65.4389C63.6441 65.0713 63.7029 64.9422 63.959 64.8267C64.0178 64.8004 64.0745 64.7679 64.134 64.7497C64.3333 64.6862 64.5266 64.8118 64.6401 65.0679C65.0022 65.8274 65.1347 66.6868 65.2063 67.5605C65.2644 68.2085 65.2631 68.8693 65.2468 69.5281L65.2198 69.5287Z" fill="#0B1F2A"/>
<path fill-rule="evenodd" clip-rule="evenodd" d="M79.8944 73.25C79.9126 73.1297 80.064 73.1027 80.2592 73.1128C80.3214 73.1162 80.466 73.1993 80.4754 73.2412C80.4944 73.3229 80.516 73.4067 80.5275 73.4864C80.5275 73.531 80.4484 74.1905 80.4585 74.4283C80.47 74.6608 80.3667 74.8344 80.2964 75.025L80.0599 75.5939L79.9437 75.8783C79.9133 75.9668 79.9322 75.9493 79.9315 75.9837C79.9349 76.002 79.914 76.0141 79.889 76.0351C79.7835 76.1081 79.8396 76.2479 79.9329 76.2898C79.945 76.3 79.9579 76.3121 79.9984 76.2824C80.0356 76.2554 80.0869 76.2662 80.1329 76.2621C80.1707 76.2641 80.2085 76.2662 80.2403 76.2675C80.3403 76.2702 80.4268 76.2763 80.4572 76.2871C80.7667 76.3871 81.1275 76.4709 81.4653 76.6405C81.5126 76.6655 81.5734 76.6608 81.5998 76.7344C81.6585 76.9087 81.7667 76.9155 81.8552 76.9864C81.9775 77.0797 82.0896 77.1831 82.1727 77.3108C82.2167 77.3722 82.2221 77.4783 82.2362 77.5635C82.2484 77.6418 82.1106 77.7641 82.0835 77.7695C82.0052 77.7851 81.9862 77.881 81.9423 77.9432C81.9281 77.9655 81.9085 77.9932 81.8937 78.0081C81.8781 78.025 81.6889 78.0162 81.5106 78.0608C81.4214 78.0804 81.3362 78.1114 81.2721 78.1405C81.2133 78.154 81.1714 78.1662 81.1606 78.1614C81.1606 78.1614 80.9964 78.1344 80.8004 78.1445C80.6079 78.1533 80.3525 78.1905 80.2964 78.204C80.268 78.2114 80.239 78.2067 80.2099 78.1972C80.1646 78.1851 80.1058 78.1695 80.0579 78.1567C80.0369 78.1533 79.6727 78.1594 79.32 78.0304C78.9646 77.9141 78.6673 77.6695 78.6491 77.65C78.4484 77.4371 78.2261 77.2047 78.2241 76.8851C78.2248 76.8236 78.1957 76.7736 78.1741 76.7209C77.995 76.2594 78.0464 75.7081 78.2754 75.2912C78.3349 75.1635 78.3673 75.1229 78.4038 75.0533L78.5119 74.8581C78.5254 74.8344 78.5558 74.8189 78.5761 74.7993C78.6018 74.7743 78.6342 74.7527 78.6498 74.7222C78.8214 74.4148 79.0315 74.127 79.193 73.8155C79.241 73.7479 79.5917 73.4966 79.6329 73.4141C79.6619 73.3709 79.8903 73.2993 79.8944 73.25Z" fill="#0B1F2A"/>
<path fill-rule="evenodd" clip-rule="evenodd" d="M71.8755 38.75C71.3417 38.5805 70.7998 38.4183 70.2411 38.3095C70.037 38.2656 69.8289 38.2582 69.6242 38.221C68.9032 38.0744 68.1661 37.9575 67.4215 37.8933C67.0911 37.8615 66.7566 37.8744 66.4282 37.8879C66.0046 37.9129 65.5816 37.9913 65.1539 37.8906C64.8863 37.8278 65.1917 36.8223 65.6911 36.7906C66.5728 36.744 67.4681 36.7784 68.3586 36.9683C68.8904 37.0798 69.4519 37.0798 69.9985 37.1636C70.5971 37.2723 71.1931 37.4034 71.7769 37.5798C72.1383 37.6778 72.4911 37.8088 72.8458 37.9264C73.3789 38.1223 73.8965 38.3582 74.41 38.5872C74.81 38.7649 75.2086 38.9318 75.5938 39.1386C75.6816 39.1805 75.76 39.2325 75.8377 39.2906C76.1215 39.5122 76.1742 39.6359 76.1127 39.848C76.0992 39.8967 76.0897 39.9467 76.0701 39.9906C76.0059 40.1345 75.8086 40.1683 75.5593 40.1007C75.1917 39.9973 74.8289 39.8919 74.4836 39.7561C74.1188 39.6588 73.7924 39.4865 73.4431 39.3514C72.9343 39.1332 72.4066 38.9426 71.8694 38.7771L71.8755 38.75Z" fill="#0B1F2A"/>
<path fill-rule="evenodd" clip-rule="evenodd" d="M73.398 23.7136C73.2602 23.6602 73.2352 23.5014 73.2386 23.2859C73.2399 23.2176 73.3332 23.0744 73.3859 23.0737C73.4865 23.0744 73.5953 23.0731 73.6953 23.0859C73.7534 23.0947 74.5967 23.4163 74.896 23.5237C75.1764 23.6345 75.4048 23.8075 75.6338 23.9798C76.1034 24.3251 76.5291 24.721 76.9284 25.1622C77.0183 25.2575 77.0926 25.371 77.1528 25.494C77.3555 25.9298 77.6365 26.2616 77.9203 26.8041C77.9615 26.8866 77.9818 26.9697 78.0663 27.0271C78.1379 27.0717 78.2757 27.4197 78.3642 27.6656C78.4602 27.9305 78.5142 28.0291 78.5007 28.0474C78.5264 28.2839 78.7203 28.5872 78.9291 28.9467C78.9588 29.0001 79.0196 29.0352 79.0034 29.1258C78.9622 29.3305 79.0642 29.4231 79.1311 29.5494C79.2244 29.7224 79.2886 29.9109 79.3088 30.1001C79.3278 30.192 79.2372 30.3197 79.1413 30.4366C79.0615 30.5406 78.9453 30.5352 78.9034 30.5244C78.8176 30.4805 78.7487 30.5643 78.6919 30.5886C78.6696 30.5981 78.6419 30.6102 78.6183 30.6149C78.6061 30.6176 78.4906 30.5994 78.3852 30.5616C78.3082 30.5129 78.2217 30.4494 78.1291 30.3987C77.948 30.296 77.7629 30.2359 77.7392 30.2048C77.8021 30.2312 76.771 29.4339 76.548 28.992C76.4764 28.894 76.4663 28.7758 76.4487 28.6737C76.4372 28.6487 76.3109 28.3751 76.1771 28.0866C76.1196 27.9629 76.0656 27.8548 76.0257 27.7805C75.9872 27.7116 75.9609 27.6656 75.9568 27.6589C75.9359 27.5845 75.9048 27.5352 75.8865 27.4839C75.8494 27.4122 75.8365 27.3345 75.846 27.2183C75.8501 27.1731 75.8237 27.146 75.8021 27.1163C75.6095 26.8643 75.444 26.5562 75.248 26.2622C75.1467 26.1136 75.0156 25.9886 74.896 25.8528C74.8751 25.8285 74.8683 25.7893 74.8528 25.7589C74.8325 25.7217 74.821 25.6744 74.7933 25.644C74.5149 25.3156 74.271 24.9406 73.9433 24.6595C73.8805 24.5832 73.6555 24.1129 73.5615 24.0454C73.5176 24.0008 73.4575 23.7291 73.398 23.7136Z" fill="#0B1F2A"/>
<path fill-rule="evenodd" clip-rule="evenodd" d="M41.6009 47.8862C41.0306 48.4598 40.3921 48.995 39.7719 49.4598L39.659 49.545C39.63 49.5686 39.63 49.5693 39.6117 49.5815C39.5833 49.5943 39.5482 49.6585 39.5131 49.6923C39.4435 49.7754 39.3732 49.8943 39.3104 50.0227C39.1779 50.2767 39.0833 50.6031 38.9969 50.9281C38.884 51.4166 38.8442 51.9382 38.7759 52.4619C38.5577 54.3267 38.5516 56.2848 38.6638 58.2247C38.7144 59.0869 38.832 59.9497 38.9739 60.795C39.0759 61.3369 39.1597 61.8828 39.236 62.4274C39.2746 62.7004 39.3077 62.9733 39.3333 63.247L39.3678 63.6565C39.3739 63.7936 39.3448 63.9362 39.3367 64.0733C39.3104 64.2571 39.2732 64.2632 39.1252 64.3429C39.0942 64.3652 38.9056 64.3483 38.7252 64.226C38.3077 64.0132 37.8131 63.5355 37.6516 62.8997C37.3259 61.7794 37.1955 60.6308 37.1036 59.4774C37.0144 58.3233 36.9786 57.1605 37.0347 55.9875C37.1016 54.5882 37.011 53.1315 37.2117 51.6639C37.3333 50.8578 37.5165 50.0416 37.9388 49.2213C38.059 49.0166 38.182 48.8132 38.359 48.62C38.4293 48.5233 38.5529 48.4247 38.6536 48.3423L38.8847 48.1639C39.182 47.9328 39.4692 47.701 39.7475 47.4551C40.4273 46.849 41.0739 46.1956 41.6205 45.4639C42.4631 44.3713 43.1678 43.1423 43.5624 41.8247C43.8563 40.7977 43.9732 39.749 43.9489 38.7058C43.9475 38.4754 43.93 38.251 43.9381 38.0213C43.9225 37.5943 43.9158 37.3139 44.0117 37.1119C44.1367 36.9085 44.2969 36.7828 44.4955 36.6754C44.5854 36.6267 44.6665 36.5632 44.7415 36.5321C44.8705 36.4794 44.9888 36.5409 45.1502 36.6997C45.3124 36.8592 45.4996 37.1213 45.5313 37.47C45.8502 39.5308 45.4577 41.8389 44.4685 43.8517C43.7631 45.3605 42.7854 46.7382 41.6313 47.9119L41.6009 47.8862Z" fill="#0B1F2A"/>
<mask id="mask0_154_6932" style="mask-type:luminance" maskUnits="userSpaceOnUse" x="16" y="26" width="8" height="35">
<path fill-rule="evenodd" clip-rule="evenodd" d="M16.8906 26.9409H23.3594V60.9124H16.8906V26.9409Z" fill="white"/>
</mask>
<g mask="url(#mask0_154_6932)">
<path fill-rule="evenodd" clip-rule="evenodd" d="M18.6021 39.1532C18.8717 40.9174 19.3339 42.6877 19.8589 44.4499C20.0562 45.0931 20.294 45.7208 20.4987 46.3654C21.2177 48.6343 21.8954 50.9465 22.469 53.2978C22.7177 54.3418 22.9758 55.3951 23.1494 56.4593C23.3325 57.8215 23.5292 59.2593 23.1116 60.6438C23.0075 61.0742 22.7474 60.9458 22.5089 60.5519C22.267 60.1512 22.0683 59.5336 21.9893 58.8093C21.9136 57.5242 21.6305 56.235 21.3474 54.9276C21.0697 53.6201 20.694 52.3053 20.3629 50.9661C19.9346 49.3695 19.3062 47.7546 18.7913 46.1242C18.2312 44.3282 17.7129 42.5019 17.3413 40.6303L17.1751 39.7647L17.0582 38.8864C16.9643 38.3046 16.9379 37.7093 16.9089 37.1161C16.8427 36.212 16.9663 35.2823 17.1231 34.4093C17.2839 33.5269 17.5096 32.6634 17.7879 31.8181C18.2217 30.5086 18.6967 29.1985 19.6764 28.0614C19.8744 27.8032 20.1487 27.5911 20.4102 27.3701C20.7008 27.2093 20.9332 27.0573 21.1629 26.9972C21.3974 26.9458 21.5927 26.9397 21.7474 26.9411C22.0636 26.9803 22.2413 27.1215 22.3609 27.2789C22.4163 27.3526 22.4832 27.4222 22.5075 27.4884C22.5487 27.6012 22.4494 27.7093 22.2819 27.833C22.1974 27.8972 22.0967 27.9519 21.9839 28.0012C21.8751 28.0836 21.7609 28.1803 21.6285 28.2438C20.8528 28.6945 20.246 29.608 19.7758 30.6255C19.3102 31.6539 18.9562 32.7924 18.7082 33.9499C18.5298 34.8053 18.3987 35.6931 18.3893 36.5107C18.394 36.9323 18.44 37.383 18.4616 37.8181C18.494 38.2586 18.5819 38.7026 18.6393 39.1445L18.6021 39.1532Z" fill="#0B1F2A"/>
</g>
<path fill-rule="evenodd" clip-rule="evenodd" d="M23.9577 26.3462C23.5786 27.076 23.2631 27.8821 23.009 28.7003C22.9205 29.0023 22.8772 29.3138 22.7982 29.6185C22.5002 30.6895 22.2597 31.7976 22.1164 32.926C22.0522 33.4266 22.0394 33.9354 22.0428 34.4381C22.0658 35.0841 22.086 35.7321 21.9191 36.3807C21.8658 36.5821 21.5827 36.5557 21.2854 36.3834C20.9921 36.2118 20.661 35.8915 20.6144 35.5104C20.5097 34.1638 20.6347 32.7956 20.9502 31.4429C21.1509 30.6388 21.1928 29.776 21.4056 28.951C21.63 28.0442 21.9482 27.1598 22.3077 26.2942C22.5475 25.7645 22.8029 25.2415 23.1131 24.7375C23.5833 23.9787 24.2022 23.2652 25.009 22.7577C25.632 22.3652 26.3685 22.1118 27.0712 22.0408C27.23 22.0266 27.3671 22.0138 27.5185 22.0158C28.0563 22.0402 28.1225 22.126 28.2881 22.4794C28.3239 22.5584 28.3718 22.6327 28.4022 22.7064C28.4543 22.8334 28.4394 22.9564 28.3394 23.0868C28.2327 23.2253 28.059 23.3131 27.8428 23.376C27.5414 23.4584 27.2509 23.5253 27.0104 23.6037C26.759 23.6537 26.5435 23.7206 26.3381 23.7875C25.9381 23.9314 25.5995 24.1388 25.2698 24.4652C24.7759 24.9273 24.3387 25.6138 23.9935 26.3604L23.9577 26.3462Z" fill="#0B1F2A"/>
<path fill-rule="evenodd" clip-rule="evenodd" d="M29.2328 23.5332L29.0356 23.817L28.868 24.1319C28.7592 24.3434 28.6342 24.5447 28.5362 24.767C28.3504 25.2177 28.1464 25.6616 27.9822 26.1373C27.8497 26.4765 27.7869 26.8386 27.6842 27.1941C27.2916 28.438 27.0187 29.7461 26.8099 31.0718C26.7234 31.6616 26.6957 32.2609 26.6815 32.8522C26.6883 33.6163 26.6801 34.3731 26.4896 35.1603C26.4274 35.4069 26.1991 35.3522 25.9484 35.1427C25.7051 34.9366 25.3916 34.5691 25.3214 34.1238C25.191 33.3353 25.2295 32.5326 25.2403 31.7312C25.2828 30.9292 25.3484 30.1211 25.547 29.3245C25.766 28.3745 25.8545 27.3596 26.095 26.3792C26.3856 25.3076 26.7545 24.2441 27.341 23.2616C27.4889 22.9488 27.7153 22.6663 27.9085 22.3745C28.0916 22.0758 28.3396 21.815 28.5754 21.5495C28.7484 21.3434 28.9328 21.1481 29.1558 20.9853C29.3747 20.8143 29.5612 20.6434 29.8058 20.4758C30.3504 20.1481 30.872 20.0312 31.4126 19.9299C32.2403 19.7913 33.122 19.7434 34.0058 20.0697C34.1903 20.1576 34.397 20.2082 34.5491 20.363C34.8538 20.6082 34.9869 20.842 35.041 21.0211C35.0626 21.2292 35.0214 21.3778 34.9396 21.5238C34.9024 21.5913 34.8734 21.6609 34.8335 21.7096C34.7653 21.792 34.6558 21.8049 34.5004 21.7974C34.347 21.7859 34.143 21.7691 33.9714 21.7042C33.418 21.5758 32.9991 21.4576 32.466 21.4711C31.9585 21.4799 31.372 21.5853 30.9437 21.7832C30.7815 21.863 30.7518 21.8772 30.5578 22.0569C30.4031 22.2028 30.2295 22.3218 30.0801 22.4792L29.6511 22.9846C29.5045 23.1515 29.4004 23.367 29.2714 23.5549L29.2328 23.5332Z" fill="#0B1F2A"/>
<path fill-rule="evenodd" clip-rule="evenodd" d="M37.7705 24.4723C38.0347 23.9891 38.2975 23.5081 38.6327 23.0547C38.7806 22.8223 38.9725 22.6054 39.159 22.3891L39.4327 22.0756L39.6077 21.9256C39.6475 21.906 39.682 21.8736 39.6671 21.8277C39.6658 21.8067 39.6624 21.7851 39.6577 21.7628C39.6523 21.7398 39.6543 21.7324 39.609 21.6364C39.4752 21.3337 39.2793 21.0655 39.0286 20.8635C38.6388 20.5641 38.1192 20.4364 37.5408 20.4121C37.3104 20.3601 36.8178 20.6148 36.4151 20.9581C35.9969 21.302 35.6083 21.7405 35.2489 22.2013C34.532 23.1317 33.9306 24.1844 33.432 25.2824C32.9915 26.2594 32.6644 27.2952 32.4327 28.3324C32.1333 29.6702 32.0266 31.0297 31.8577 32.3837C31.8036 32.8047 31.4752 32.7587 31.157 32.3797C30.8327 32.0033 30.5442 31.2709 30.6279 30.4256C30.7806 28.9351 31.1144 27.4709 31.6165 26.0641C32.1158 24.6574 32.7705 23.2986 33.6415 22.054C34.1685 21.3128 34.7178 20.5628 35.4408 19.8824C35.8077 19.5486 36.2178 19.2202 36.7854 19.002C36.932 18.9527 37.084 18.9054 37.2543 18.8844C37.3388 18.8756 37.4313 18.8655 37.5097 18.8628L37.7036 18.8702L38.0915 18.8891L38.484 18.9567C39.2888 19.104 40.0867 19.5729 40.609 20.2364C40.7415 20.4013 40.8543 20.577 40.9583 20.7581L41.0969 21.0378L41.2421 21.4135C41.3117 21.6709 41.3996 21.9391 41.3597 22.1885C41.3556 22.2513 41.3239 22.3067 41.3036 22.3662L41.284 22.4094L41.2833 22.4108C41.2725 22.4074 41.3712 22.4398 41.3293 22.427L41.3273 22.4297L41.3239 22.4337L41.3165 22.4432L41.3016 22.4621L41.2428 22.5371L41.0083 22.8351C40.8806 22.9601 40.7273 23.0979 40.6212 23.2114L40.3712 23.5155C40.1942 23.7087 40.0509 23.9378 39.9043 24.1635C39.3056 25.0979 38.8638 26.1641 38.5563 27.2648C38.1144 28.9385 37.9144 30.7128 38.0894 32.4364C38.2327 33.779 38.6685 35.0351 39.1725 36.2371C39.2867 36.502 39.432 36.7445 39.5462 37.0108C40.0036 37.977 40.0435 38.3527 39.8523 38.7581C39.809 38.85 39.7773 38.9567 39.7273 39.0283C39.5665 39.2655 39.1165 39.0027 38.5029 38.3351C36.8698 36.2371 36.1739 33.3391 36.2401 30.5412C36.2428 30.0189 36.305 29.4966 36.3597 28.9763C36.4617 28.4614 36.5225 27.9405 36.6678 27.4344C36.9029 26.4114 37.2861 25.4202 37.73 24.4567L37.7705 24.4723Z" fill="#0B1F2A"/>
<path fill-rule="evenodd" clip-rule="evenodd" d="M53.4713 39.5703C52.9753 38.9784 52.4638 38.3108 52.1557 37.5156C52.153 37.4872 52.1463 37.4575 52.1517 37.4223C52.1699 37.3696 52.1104 37.3912 52.0881 37.3723L52.0334 37.3595C52.0091 37.3554 52.0233 37.3527 51.903 37.3439L51.3584 37.3088C50.851 37.2791 50.3368 37.3129 49.8253 37.2912C48.0145 37.2189 46.1895 37.1892 44.3746 37.2662C43.5686 37.298 42.7652 37.3987 41.9794 37.5203C41.4773 37.6048 40.978 37.7162 40.4848 37.8108C39.9888 37.8939 39.4936 37.9656 39.0104 38.0352C38.7064 38.0689 38.6172 37.7662 38.778 37.3676C38.9375 36.9629 39.3753 36.4608 39.9848 36.2798C41.0658 35.9865 42.1463 35.8885 43.2233 35.7946C44.3017 35.7108 45.3794 35.6953 46.4611 35.7372C47.7544 35.7892 49.0888 35.6689 50.4118 35.6919C50.7631 35.6993 51.1152 35.7102 51.4692 35.7291L52.0023 35.7595C52.2185 35.7723 52.5456 35.7933 52.8057 35.8223L53.0686 36.0419L53.1983 36.1507L53.2591 36.2784C53.3233 36.4325 53.4713 36.6487 53.5922 36.8453C53.7023 37.0406 53.7449 37.1615 53.8341 37.3257C53.9334 37.4791 54.0219 37.6372 54.1294 37.7892C54.5969 38.4581 55.1881 39.0791 55.8307 39.6311C56.803 40.471 57.8956 41.2102 59.0746 41.723C59.5246 41.9412 60.0104 42.0588 60.4787 42.2021C60.9625 42.296 61.4334 42.421 61.9192 42.4737C62.1321 42.5014 62.3429 42.5129 62.5537 42.5494C63.3422 42.648 63.578 42.7683 63.7138 43.2433C63.7442 43.3493 63.7895 43.4575 63.805 43.5622C63.8598 43.9169 63.4881 44.1588 62.826 44.1777C60.8652 44.2189 58.8327 43.5466 57.0422 42.5176C55.7057 41.75 54.4922 40.7757 53.4422 39.5993L53.4713 39.5703Z" fill="#0B1F2A"/>
<path fill-rule="evenodd" clip-rule="evenodd" d="M53.6892 19.0666L56.4061 18.4686L57.7649 18.1564C58.2351 18.0639 58.7142 17.9416 59.1933 17.8781C59.8906 17.7612 60.5872 17.6409 61.2933 17.601C62.5358 17.522 63.7872 17.5828 65.0216 17.7571C66.2568 17.926 67.4818 18.2321 68.6385 18.7274C69.1635 18.9125 69.6487 19.2058 70.1547 19.4436C70.621 19.7564 71.1297 20.0085 71.55 20.3841C72.1311 20.8118 72.6453 21.3335 73.1135 21.8902C73.3237 22.1868 73.5074 22.5037 73.6892 22.8145C73.8412 23.1422 73.9608 23.4868 74.0399 23.8402C74.1399 24.2828 73.8993 24.3017 73.4439 24.1267C72.9608 23.9591 72.3588 23.6044 71.8804 23.1118C70.4237 21.1598 68.1385 19.9355 65.5554 19.3362C64.0074 18.9578 62.3061 19.0416 60.6764 19.2098C59.7696 19.2909 58.8926 19.4632 57.9926 19.6652L55.2412 20.2943L51.8426 21.026C50.125 21.3875 48.3865 21.6956 46.6716 22.0098C45.3358 22.2416 44.0331 22.522 42.7027 22.7172C42.4108 22.7639 42.125 22.8125 41.8284 22.8463C41.2791 22.9145 40.9128 22.9172 40.65 22.8612C40.3892 22.822 40.2318 22.7125 40.1007 22.5754C40.0412 22.5152 39.9649 22.4639 39.9297 22.4159C39.8122 22.2821 40.2304 21.9368 41.0108 21.7463C42.1784 21.4848 43.3622 21.2206 44.5615 20.9531C45.7628 20.6774 46.9784 20.4105 48.2074 20.1848C50.027 19.824 51.8574 19.4524 53.6777 19.0294L53.6892 19.0666Z" fill="#0B1F2A"/>
<path fill-rule="evenodd" clip-rule="evenodd" d="M73.1703 25.242C72.5257 24.8711 71.8413 24.5319 71.1136 24.2731C70.846 24.1683 70.5899 24.117 70.3224 24.0413C69.3852 23.7683 68.3825 23.5751 67.3764 23.4454C66.9305 23.3798 66.4771 23.3494 66.0298 23.3346C65.4528 23.3481 64.8791 23.2731 64.3021 23.1211C64.1224 23.0717 64.146 22.9555 64.3001 22.7988C64.4534 22.6461 64.7399 22.4075 65.0818 22.3271C65.3845 22.24 65.6859 22.2359 65.9872 22.2413C66.2886 22.2406 66.5906 22.2481 66.8926 22.2663C67.4974 22.2873 68.098 22.415 68.6967 22.5535C69.4116 22.7346 70.1724 22.7913 70.919 23.0096C71.7257 23.2616 72.4899 23.5602 73.2379 23.9447C73.6967 24.1751 74.142 24.4406 74.5663 24.74C75.2089 25.1927 75.7974 25.7386 76.2967 26.3683C76.6839 26.8542 77.0609 27.3778 77.3048 27.9933C77.3568 28.1278 77.4237 28.2589 77.4541 28.4021C77.5805 28.9332 77.4717 29.1177 77.0555 29.2271C76.9602 29.2528 76.8649 29.2839 76.7683 29.2974C76.4325 29.3386 76.1798 29.1569 76.0744 28.8785C75.7703 28.0488 75.4507 27.3102 74.8487 26.5906C74.4041 26.065 73.798 25.644 73.1575 25.269L73.1703 25.242Z" fill="#0B1F2A"/>
<path fill-rule="evenodd" clip-rule="evenodd" d="M77.856 30.7221C77.2911 30.2194 76.5938 29.7985 75.8519 29.4559C75.5803 29.3289 75.2986 29.2329 75.0202 29.1208C74.0344 28.7201 73.0013 28.3627 71.9519 28.0748C71.4864 27.9471 71.008 27.8599 70.5351 27.7856C69.9256 27.6964 69.3175 27.6093 68.7236 27.4228C68.5384 27.3627 68.5837 27.1701 68.7709 26.9836C68.958 26.7978 69.2945 26.6025 69.6621 26.6181C70.3141 26.6336 70.9506 26.7471 71.5817 26.8877C72.2121 27.0268 72.8371 27.2025 73.4513 27.4262C74.1857 27.691 74.9796 27.8613 75.7384 28.1498C76.5607 28.4931 77.379 28.86 78.129 29.385C78.3621 29.5383 78.5769 29.7275 78.7999 29.8978C79.006 30.0951 79.2188 30.285 79.4067 30.5018C79.9918 31.1498 80.3749 31.9951 80.5263 32.8505C80.6465 33.5147 80.6979 34.1829 80.6472 34.8397C80.6351 34.9836 80.6432 35.1309 80.5965 35.2674C80.4729 35.787 80.2736 35.8985 79.954 35.9214C79.881 35.9262 79.8087 35.939 79.7432 35.935C79.6324 35.9268 79.5479 35.8606 79.4749 35.7471C79.4019 35.6336 79.331 35.4687 79.331 35.2877C79.2715 34.7363 79.3391 34.2404 79.3121 33.7586C79.2965 33.2795 79.2351 32.8329 79.0878 32.4147C78.856 31.8032 78.4283 31.2282 77.8378 30.7471L77.856 30.7221Z" fill="#0B1F2A"/>
<path fill-rule="evenodd" clip-rule="evenodd" d="M80.6636 65.2109C80.717 63.3427 80.5413 61.4528 80.2596 59.5744C80.1596 58.8886 79.9961 58.2123 79.8718 57.5278C79.6508 56.319 79.3832 55.1197 79.1319 53.8893C78.8772 52.6515 78.7042 51.4069 78.5697 50.1582C78.4535 49.0501 78.3434 47.9332 78.3089 46.8163C78.2792 46.1001 78.3069 45.3731 78.3961 44.6433C78.4711 43.9143 78.7258 43.1704 79.1846 42.542C79.4846 42.1515 79.5751 42.3427 79.6055 42.7656C79.6082 42.9677 79.6508 43.2528 79.6819 43.5582C79.688 43.7055 79.738 43.8866 79.7366 44.0521C79.7278 44.215 79.7231 44.3927 79.7062 44.5792C79.4988 47.2163 79.7954 50.0771 80.19 52.8731C80.4535 54.5379 80.9995 56.2954 81.3218 58.0481C81.688 59.9798 81.9326 61.944 82.0049 63.9204C82.0332 65.1386 82.0055 66.3596 81.8751 67.5744C81.7136 69.419 81.2103 71.244 80.4826 72.9406C80.3332 73.2683 80.2042 73.6048 80.0481 73.9265L79.5163 74.8616C79.2001 75.5143 78.7055 76.0434 78.2765 76.6292C78.0954 76.8812 77.8643 77.146 77.5886 77.367C77.0832 77.7812 76.5873 77.9643 76.192 77.9433C75.788 77.9042 75.567 77.6906 75.5157 77.467C75.4873 77.3663 75.4691 77.2515 75.4886 77.1771C75.5245 77.042 75.6765 77.0156 75.8116 76.9413C75.9474 76.8663 76.0495 76.765 76.3042 76.6204C76.6893 76.367 77.04 75.9913 77.3846 75.4812C77.7353 75.0048 78.1231 74.5569 78.3934 74.0177L78.8522 73.2474L79.2204 72.4197C79.3332 72.1386 79.4913 71.8778 79.5731 71.5819L79.8522 70.7069C80.3684 68.9582 80.6109 67.0947 80.6299 65.2136L80.6636 65.2109Z" fill="#0B1F2A"/>
<path fill-rule="evenodd" clip-rule="evenodd" d="M75.1736 75.4289C75.6479 74.7694 76.0499 74.0633 76.3506 73.3018C76.4533 73.0214 76.5269 72.7316 76.6101 72.443C76.9229 71.4309 77.1067 70.3566 77.206 69.266C77.2519 68.7822 77.2526 68.291 77.2445 67.8052C77.2513 67.1816 77.2418 66.5525 77.3959 65.9255C77.4425 65.7302 77.5844 65.7579 77.7574 65.9241C77.9188 66.091 78.1796 66.3951 78.2202 66.7572C78.2567 67.0775 78.3019 67.3998 78.3188 67.7228C78.3128 68.0464 78.3026 68.3701 78.2817 68.6957C78.2391 69.3478 78.1648 70.0045 78.0269 70.6579C77.8628 71.4376 77.7756 72.2667 77.5371 73.0579C77.2776 73.9255 76.8999 74.7647 76.4364 75.5363C76.1519 76.0106 75.8344 76.4714 75.4702 76.9018C74.9141 77.5525 74.2155 78.0998 73.4438 78.4816C72.8499 78.7836 72.2344 79.0397 71.5878 79.191C71.4452 79.2302 71.3067 79.2667 71.1621 79.2856C70.6229 79.3728 70.4465 79.2201 70.3337 78.9153C70.308 78.8424 70.2749 78.7701 70.2607 78.6978C70.2134 78.4552 70.4155 78.2343 70.7587 78.1234C71.7763 77.8478 72.7438 77.6052 73.5553 77.0478C74.1601 76.6457 74.6952 76.0829 75.1486 75.4147L75.1736 75.4289Z" fill="#0B1F2A"/>
<path fill-rule="evenodd" clip-rule="evenodd" d="M70.5991 77.3847C70.8748 77.0718 71.1248 76.7124 71.3525 76.3347C71.566 75.9583 71.837 75.5326 71.9417 75.2083C72.0451 74.9124 72.1099 74.5874 72.2005 74.2712C72.5221 73.1489 72.814 72.0016 73.0484 70.8462C73.1559 70.3333 73.2079 69.8097 73.2647 69.2948C73.3309 68.632 73.3579 67.9698 73.5606 67.3158C73.6207 67.1103 73.7572 67.1408 73.9261 67.3245C74.0802 67.5076 74.3518 67.857 74.3761 68.257C74.4072 69.6718 74.1417 71.0516 73.7653 72.4063C73.5248 73.2144 73.3964 74.0745 73.1565 74.9103C73.0903 75.1408 73.0214 75.3678 72.9356 75.6063C72.8984 75.7171 72.839 75.861 72.7775 75.9887L72.6092 76.3016C72.3836 76.7205 72.1376 77.1333 71.8687 77.5394C71.5403 78.0387 71.1565 78.5198 70.6937 78.9293C70.0099 79.5752 69.1045 79.9644 68.2133 80.1685C67.5174 80.3333 66.8167 80.4441 66.112 80.4482C65.9572 80.4489 65.8038 80.4563 65.6478 80.4468C65.3626 80.4124 65.1788 80.3658 65.062 80.2705C64.9471 80.1624 64.9005 80.009 64.8734 79.8441C64.8606 79.7712 64.8383 79.7076 64.8329 79.657C64.8241 79.5685 64.8822 79.5022 65.0052 79.3759C65.1302 79.2414 65.2944 79.1617 65.4863 79.1617C66.0511 79.132 66.6018 79.1029 67.1586 79.0739C67.6957 79.013 68.2174 78.9306 68.7005 78.757C69.4065 78.4847 70.0525 78.034 70.5761 77.3685L70.5991 77.3847Z" fill="#0B1F2A"/>
<path fill-rule="evenodd" clip-rule="evenodd" d="M64.8488 80.6433C64.09 80.9373 63.2251 81.1589 62.2745 80.8994C61.8055 80.7879 61.3528 80.4947 61.0258 80.1379C60.8636 79.9535 60.7184 79.7623 60.6231 79.5568C60.5109 79.3886 60.4082 79.0602 60.3116 78.7724C60.2724 78.5339 60.2745 78.2717 60.3981 78.0494C60.4616 77.94 60.5265 77.8291 60.6116 77.7298C60.6859 77.6379 60.7961 77.5035 60.8346 77.4656C61.2677 77.0001 61.6177 76.5582 61.9832 76.1048C63.2718 74.5278 64.1049 72.5778 64.4589 70.5102C64.6204 69.5933 64.6515 68.6487 64.6278 67.7204C64.6184 67.1231 64.567 66.5251 64.5177 65.9271C64.4805 65.3278 64.4738 64.721 64.4495 64.1116C64.4454 63.7305 64.6042 63.7494 64.8535 64.0345C65.0988 64.319 65.4839 64.8697 65.6745 65.5791C66.1481 68.1014 65.9697 70.8204 65.0015 73.296C64.4204 74.7623 63.6758 76.2663 62.6265 77.4967C62.3995 77.7636 62.1609 78.021 61.9359 78.2643L61.7373 78.4825C61.69 78.5278 61.6724 78.5933 61.7042 78.6514C61.7231 78.7028 61.7163 78.7305 61.7576 78.8028L61.89 79.0528L62.0582 79.2629L62.2596 79.4264C62.5501 79.6156 62.9501 79.6798 63.3738 79.6312C64.2413 79.5231 65.1609 79.044 65.7508 78.3501C66.7218 77.2251 67.4001 75.796 67.8805 74.3447C68.2488 73.2075 68.4501 72.0433 68.6238 70.8731C68.6623 70.615 68.6839 70.3595 68.7386 70.1021C68.8934 69.1427 69.1745 68.8704 69.4576 68.6967C69.5258 68.6575 69.592 68.6028 69.6488 68.5818C69.7461 68.5481 69.8163 68.6352 69.8913 68.8291C69.9623 69.0217 70.0616 69.3251 70.0684 69.6994C70.0819 70.8089 69.8893 71.9271 69.6413 73.0555C69.3819 74.1818 69.0292 75.3136 68.5447 76.4177C68.1846 77.2373 67.7441 78.0413 67.1826 78.7947L66.7353 79.346C66.5549 79.5406 66.3623 79.7305 66.1616 79.8886C65.7596 80.2089 65.3285 80.4697 64.865 80.6744L64.8488 80.6433Z" fill="#0B1F2A"/>
<path fill-rule="evenodd" clip-rule="evenodd" d="M61.9065 53.4968C62.395 53.0143 62.9159 52.5698 63.4038 52.163C63.6457 51.9596 63.8828 51.7596 64.0653 51.5765C64.2558 51.3839 64.3335 51.2583 64.3389 51.2164C64.372 50.9995 64.3957 50.7353 64.4159 50.4812C64.4632 49.9306 64.4504 49.3684 64.4903 48.8096C64.6173 46.8366 64.7119 44.8508 64.7031 42.8691C64.7045 41.99 64.6362 41.1096 64.5795 40.2427C64.493 39.1279 64.3153 38.0292 64.245 36.9353C64.2227 36.5927 64.4186 36.5752 64.7099 36.813C65.0085 37.0488 65.4166 37.5589 65.5369 38.2211C66.0058 40.5488 66.0693 42.8745 65.9491 45.2116C65.8747 46.6089 65.9484 48.0583 65.8991 49.49C65.8707 50.115 65.8436 50.7056 65.7788 51.3738C65.7328 51.7684 65.5274 52.1076 65.3491 52.3231C65.1646 52.5515 64.9761 52.7373 64.7923 52.9056L63.7247 53.8549C63.0308 54.4792 62.4085 55.1549 61.8788 55.9062C61.0815 57.0427 60.4795 58.3387 60.1477 59.6988C59.8903 60.7569 59.8335 61.8346 59.8105 62.9096C59.8018 63.1454 59.8166 63.3792 59.8139 63.6177C59.7862 64.5015 59.6964 64.7819 59.2362 64.9731C59.1342 65.017 59.0315 65.0758 58.9288 65.1015C58.5822 65.1914 58.3024 64.8137 58.2119 64.1211C58.0997 63.0934 58.1045 62.0204 58.2416 60.9339C58.3855 59.8488 58.6774 58.7569 59.095 57.7008C59.7159 56.1299 60.6984 54.6691 61.8774 53.4725L61.9065 53.4968Z" fill="#0B1F2A"/>
<path fill-rule="evenodd" clip-rule="evenodd" d="M48.6787 62.1557C48.924 62.4578 49.1645 62.7632 49.3889 63.0753L49.7186 63.5402C49.7855 63.6355 49.7686 63.6125 49.7794 63.6355C49.7862 63.6497 49.7943 63.6632 49.8091 63.6679C49.8254 63.676 49.8281 63.6828 49.8605 63.6888L50.0686 63.7307L50.5868 63.8091C50.9362 63.8605 51.3017 63.8956 51.6591 63.9382C52.1882 63.9882 52.7186 63.999 53.2497 64.0429C55.1199 64.2071 57.0017 64.3442 58.8828 64.3942C59.7166 64.4078 60.5551 64.3983 61.3787 64.3551C61.9064 64.3213 62.4355 64.2794 62.9571 64.228L63.7389 64.1841C64.0037 64.178 64.2564 64.1611 64.5051 64.1361C64.8199 64.1165 64.8598 64.3233 64.6375 64.6192C64.4145 64.924 63.9091 65.3051 63.2774 65.4449C62.1558 65.6267 61.0531 65.6834 59.9443 65.724C58.8368 65.7361 57.7308 65.6807 56.624 65.5801C55.301 65.4578 53.9226 65.4861 52.5672 65.397C51.8206 65.3422 51.0787 65.2861 50.322 65.1915C50.1314 65.1672 49.947 65.149 49.7429 65.1098C49.6591 65.0888 49.5051 65.0828 49.3693 65.0321C49.2368 64.9787 49.0929 64.9442 48.972 64.8733C48.8706 64.7726 48.7632 64.6767 48.6787 64.5584L48.4929 64.3118L48.1632 63.8814C47.6186 63.1841 47.0233 62.5321 46.3666 61.9483C45.3787 61.0625 44.2632 60.2882 43.0335 59.8159C42.5666 59.6044 42.0585 59.528 41.5754 59.4091C41.0726 59.3665 40.5868 59.2598 40.0855 59.2794C39.8659 59.276 39.6517 59.2875 39.4335 59.2753C38.6213 59.3057 38.3605 59.176 38.1504 58.7848C38.1031 58.6949 38.0402 58.6064 38.0085 58.5172C37.899 58.2206 38.2395 57.947 38.9166 57.8057C39.9166 57.6436 40.9794 57.7125 42.0328 57.9098C43.0726 58.1605 44.1125 58.5267 45.0524 59.0726C46.4713 59.8476 47.6794 60.9368 48.7058 62.1287L48.6787 62.1557Z" fill="#0B1F2A"/>
<path fill-rule="evenodd" clip-rule="evenodd" d="M18.1166 62.1122C18.0822 61.4548 18.1146 60.7541 18.3795 60.0338C18.6612 59.3136 19.1227 58.6345 20.1639 58.2109L20.42 58.1487C20.5058 58.1527 20.5943 58.1284 20.6815 58.1284C20.8585 58.1494 21.0302 58.1919 21.1856 58.2798C21.3457 58.3527 21.4849 58.4791 21.6261 58.5946C21.745 58.7129 21.9261 58.8886 21.972 58.9473C22.2633 59.2777 22.5153 59.575 22.7883 59.8609C23.2552 60.3568 23.7835 60.7703 24.3247 61.169C26.2362 62.5906 28.6302 63.3913 31.0774 63.7987C32.1653 63.9872 33.2815 64.071 34.3849 64.0811C35.8025 64.0913 37.2247 64.0453 38.6572 64.0703C39.1038 64.0872 39.068 64.3264 38.7092 64.6068C38.3504 64.8804 37.6666 65.2399 36.8241 65.3203C35.3362 65.4879 33.8274 65.498 32.3173 65.371C30.8058 65.2554 29.2923 64.9521 27.8349 64.4379C26.1045 63.8257 24.2795 63.0838 22.7903 61.848C22.2693 61.4203 21.7842 60.9419 21.3457 60.4534L20.795 59.8372C20.7214 59.7453 20.5896 59.6433 20.4707 59.7277C20.4038 59.7527 20.341 59.7879 20.2808 59.8372C20.1903 59.9041 20.0991 60.0021 20.0254 60.1027C19.8741 60.3075 19.7666 60.5669 19.7038 60.8568C19.5916 61.3534 19.6106 61.923 19.6896 62.4825C19.7653 63.0129 19.9612 63.5041 20.2687 63.969C20.7349 64.6669 21.3774 65.2865 22.0943 65.8156C22.8072 66.3507 23.5903 66.8102 24.4018 67.1994C25.666 67.8054 26.9991 68.2027 28.3362 68.548C28.6315 68.625 28.9247 68.6791 29.2207 68.7514C30.322 69.021 30.6139 69.1656 30.7991 69.5919C30.8497 69.6859 30.9011 69.7831 30.9491 69.873C30.9829 69.9514 30.9829 70.025 30.9302 70.094C30.8734 70.1656 30.7707 70.2257 30.6477 70.2696C30.3957 70.3581 30.0281 70.3865 29.5822 70.3379C26.9646 69.9946 24.3416 69.0838 21.8984 67.5804C20.9997 67.0041 20.1335 66.3196 19.3964 65.423C19.0322 64.9703 18.7045 64.4629 18.4639 63.8872C18.3491 63.5946 18.2531 63.2946 18.193 62.9771C18.1308 62.675 18.1018 62.4122 18.0781 62.1183L18.1166 62.1122Z" fill="#0B1F2A"/>
<path fill-rule="evenodd" clip-rule="evenodd" d="M21.7275 69.9659C22.268 70.4625 22.9984 70.876 23.7903 71.2301C24.0849 71.3605 24.3897 71.4476 24.6667 71.5598C25.6809 71.9672 26.789 72.2787 27.891 72.5834C28.3829 72.7132 28.8876 72.7949 29.387 72.8672C30.0302 72.9544 30.6843 72.9821 31.3025 73.2483C31.4957 73.3294 31.4322 73.5868 31.2228 73.8402C31.014 74.0868 30.6505 74.3719 30.2701 74.3517C28.9315 74.224 27.5917 74.0294 26.289 73.5605C25.5133 73.2719 24.6674 73.1388 23.8437 72.8226C22.989 72.4814 22.1207 72.0969 21.3038 71.5415C20.8099 71.1936 20.3302 70.7841 19.9674 70.2686C19.3863 69.5024 19.1505 68.5605 19.0207 67.6868C18.9295 67.0017 18.8268 66.324 18.8322 65.6463C18.8329 65.4976 18.8093 65.3456 18.8268 65.1983C18.8897 64.6497 19.0315 64.4915 19.4363 64.4483C19.5295 64.4382 19.6228 64.4206 19.7133 64.4219C20.0187 64.428 20.237 64.6834 20.2849 65.0618C20.4093 66.1787 20.389 67.2868 20.6593 68.2132C20.864 68.8936 21.1815 69.4665 21.7505 69.9355L21.7275 69.9659Z" fill="#0B1F2A"/>
<path fill-rule="evenodd" clip-rule="evenodd" d="M24.5203 74.8365C25.1636 75.2014 25.8926 75.4892 26.6453 75.7521C26.9156 75.8413 27.2278 75.8967 27.4737 75.9669C28.4028 76.2305 29.4717 76.3345 30.5237 76.4433C30.9947 76.4852 31.471 76.4865 31.9433 76.4872C32.5474 76.4953 33.1751 76.4244 33.7805 76.6791C33.969 76.7521 33.9129 76.9609 33.7325 77.1879C33.5514 77.3974 33.2528 77.7224 32.9204 77.723C31.7312 77.7622 30.494 77.8588 29.2251 77.6447C28.4731 77.5149 27.6548 77.5399 26.8413 77.3406C26.0082 77.1345 25.1764 76.8663 24.3751 76.4933C23.8791 76.273 23.4014 75.9933 22.9413 75.6845C22.2474 75.2075 21.6318 74.5534 21.2312 73.7697C20.9028 73.1717 20.6839 72.496 20.6508 71.8102C20.6481 71.6609 20.6312 71.5115 20.6386 71.3588C20.7143 70.8102 20.8744 70.6622 21.2825 70.6575C21.3764 70.6568 21.471 70.6501 21.5622 70.6609C21.869 70.7021 22.0818 70.9561 22.119 71.2751C22.2548 72.2494 22.4339 72.9406 22.9359 73.5724C23.3163 74.0359 23.8758 74.4663 24.5359 74.8007L24.5203 74.8365Z" fill="#0B1F2A"/>
<path fill-rule="evenodd" clip-rule="evenodd" d="M38.7496 79.4927C39.605 79.3279 40.4442 79.1042 41.3165 78.8813C42.2091 78.6502 43.0901 78.459 43.9773 78.2772C44.6232 78.1421 45.2638 77.9846 45.9124 77.8684C48.2037 77.4826 50.5124 77.2063 52.8347 77.0644C53.8665 77.0157 54.9037 76.9481 55.9368 76.9529C56.2699 76.9596 56.6023 76.9522 56.9361 76.9677L57.9401 77.063C58.6097 77.1556 59.2773 77.3279 59.8949 77.6475C60.2841 77.8326 60.132 78.0083 59.728 78.1427C59.526 78.2103 59.2638 78.2711 58.9766 78.3083C58.6705 78.3833 58.3401 78.415 57.9982 78.3617C56.7516 78.2677 55.4699 78.2563 54.1746 78.286C52.8773 78.3299 51.5685 78.4238 50.2462 78.5198C48.6645 78.6454 47.0462 79.0069 45.4557 79.3326C44.58 79.5083 43.7077 79.7035 42.8408 79.9103C41.9773 80.1103 41.1307 80.3718 40.2347 80.5995C39.1449 80.8758 38.0395 81.1191 36.9131 81.2664C35.2111 81.5008 33.4449 81.4867 31.7388 81.1387C30.4178 80.8576 29.1219 80.3799 27.9935 79.586C27.73 79.4285 27.503 79.24 27.2739 79.0367C26.8287 78.6779 26.6442 78.3407 26.5374 78.0948C26.4861 77.9698 26.4597 77.8603 26.457 77.7563C26.4638 77.6441 26.4935 77.538 26.526 77.4407C26.5564 77.3508 26.5699 77.2549 26.601 77.1954C26.6739 77.0204 27.2685 77.1008 27.7949 77.5806C28.651 78.2292 29.5165 78.8238 30.5016 79.2238C31.4773 79.634 32.5469 79.8684 33.6584 79.9346C35.3091 80.0394 37.0327 79.8387 38.7395 79.4583L38.7496 79.4927Z" fill="#0B1F2A"/>
<path fill-rule="evenodd" clip-rule="evenodd" d="M79.8813 31.1737C79.9732 31.2797 79.9016 31.4169 79.7455 31.5777C79.6955 31.6284 79.5124 31.6892 79.4732 31.6622C79.3968 31.6101 79.3212 31.5554 79.2583 31.496C79.2178 31.4615 78.8624 30.7865 78.7421 30.552C78.6205 30.327 78.5367 30.0912 78.4658 29.8527C78.3299 29.3662 78.1597 28.8845 78.0793 28.3946C78.0583 28.2858 78.0502 28.175 78.0556 28.0629C78.0712 27.6791 78.0151 27.3101 77.9299 26.95C77.9164 26.8899 77.9131 26.8264 77.8617 26.7743C77.7793 26.6865 77.6002 25.7129 77.6016 25.5851C77.6137 25.2608 77.6131 24.9379 77.6151 24.6115C77.6151 24.5656 77.5901 24.5216 77.6286 24.4696C77.7171 24.3493 77.6779 24.2581 77.6658 24.1595C77.6428 24.0243 77.6428 23.8831 77.6529 23.7379C77.659 23.6662 77.7002 23.5858 77.757 23.4993C77.8022 23.4223 77.8847 23.4338 77.911 23.448C77.9671 23.498 78.0097 23.4324 78.0482 23.4162C78.0624 23.4095 78.0806 23.402 78.0955 23.4007C78.2022 23.373 78.709 24.0858 78.7279 24.1764C78.7509 24.1933 79.1252 25.3392 79.1529 25.473C79.1766 25.5406 79.1624 25.6162 79.1583 25.6892C79.1691 25.7324 79.4022 26.6446 79.411 26.6797C79.4293 26.875 79.5022 27.0601 79.432 27.2656C79.4178 27.3061 79.4299 27.3439 79.4374 27.3824C79.5063 27.7068 79.5205 28.0365 79.5516 28.3635C79.5772 28.5372 79.6009 28.6926 79.6252 28.8574C79.6293 28.8872 79.6185 28.9196 79.6164 28.9507C79.6144 28.9899 79.6077 29.0291 79.6144 29.0662C79.686 29.4514 79.7056 29.85 79.8313 30.221C79.8529 30.3074 79.8617 30.752 79.9022 30.85C79.9212 30.9047 79.8428 31.1311 79.8813 31.1737Z" fill="#0B1F2A"/>
<path fill-rule="evenodd" clip-rule="evenodd" d="M72.2321 78.7963C72.0996 78.92 71.9293 78.8869 71.7158 78.7733C71.6483 78.7369 71.5625 78.5679 71.5983 78.5213C71.6658 78.4294 71.7388 78.3375 71.8206 78.2571C71.8591 78.1909 72.7989 77.701 73.1415 77.5929C73.4625 77.4483 73.8003 77.3855 74.1361 77.3071C74.8212 77.1902 75.5084 77.0909 76.1902 77.0558C76.3422 77.0429 76.4949 77.0456 76.6456 77.0625C77.1652 77.1092 77.6787 77.1112 78.1915 77.0983C78.2773 77.097 78.3645 77.1044 78.4483 77.0713C78.5881 77.0098 79.9712 77.0531 80.1456 77.1024C80.5827 77.197 81.0212 77.2639 81.4564 77.3389C81.5192 77.349 81.5868 77.3402 81.6415 77.3828C81.7699 77.4815 81.9057 77.4706 82.0408 77.4828C82.2287 77.501 82.4152 77.5193 82.6016 77.5524C82.6935 77.5693 82.7854 77.6233 82.8766 77.6659C82.9598 77.7051 82.9152 77.8409 82.8861 77.8551C82.8003 77.8977 82.8699 77.9639 82.878 78.0206C82.8807 78.0396 82.8841 78.0646 82.88 78.0794C82.8726 78.1179 81.7652 78.3443 81.6442 78.3355C81.6165 78.3362 80.0381 78.3632 79.8361 78.3666C79.7415 78.3733 79.6483 78.3483 79.5543 78.3294C79.5084 78.3173 78.2483 78.3382 78.2003 78.3382C77.9402 78.3152 77.6821 78.349 77.426 78.2612C77.3746 78.2443 77.3219 78.2477 77.2706 78.2483C76.8273 78.2619 76.3848 78.2342 75.9442 78.2382C75.7179 78.2328 75.4969 78.27 75.2733 78.2862C75.2334 78.2896 75.1915 78.2808 75.151 78.2788C75.0996 78.2767 75.0476 78.2686 74.9969 78.276C74.476 78.3517 73.9442 78.3882 73.451 78.5585C73.3949 78.5788 73.2226 78.6031 73.0469 78.6294C72.8766 78.6673 72.7037 78.7112 72.6408 78.7396C72.5706 78.7679 72.2834 78.7389 72.2321 78.7963Z" fill="#0B1F2A"/>
<path fill-rule="evenodd" clip-rule="evenodd" d="M76.5458 38.835C77.4485 39.2627 78.341 39.6958 79.2295 40.0741C79.6728 40.2633 80.1174 40.437 80.5464 40.562C80.9653 40.6897 81.416 40.7586 81.6282 40.6924C81.7099 40.6728 81.7268 40.6505 81.7599 40.6174C81.7978 40.591 81.7971 40.5559 81.8167 40.4363C81.8478 40.3471 81.8153 40.189 81.8255 40.0681C81.7951 39.9262 81.7836 39.7856 81.7505 39.6404C81.4789 38.6005 80.762 37.5877 79.8748 36.766C78.9829 35.9356 77.9424 35.2404 76.8498 34.6289C76.3593 34.3687 75.8458 34.1424 75.341 33.9052C74.8221 33.6971 74.2937 33.51 73.7741 33.3167C73.0998 33.0802 72.3985 32.9167 71.7201 32.6897C71.0356 32.4748 70.3376 32.3066 69.6694 32.0154C69.2518 31.8377 69.3491 31.6681 69.7755 31.5268C70.2045 31.3714 70.9674 31.2654 71.8032 31.4302C72.5403 31.5958 73.2552 31.8478 73.9789 32.064C74.687 32.3431 75.4072 32.5802 76.0998 32.9086C77.4951 33.5255 78.8383 34.3235 80.0376 35.3316L80.5721 35.7951C80.7471 35.9552 80.9093 36.1356 81.0802 36.3039C81.4309 36.6309 81.7275 37.0296 82.0343 37.4133C82.6086 38.2147 83.1079 39.1532 83.1039 40.3046C83.1025 40.6093 83.0376 40.9843 82.8005 41.3491C82.5485 41.6863 82.1485 41.8897 81.8052 41.9485C81.1174 42.0559 80.5809 41.9147 80.0613 41.7836C79.0376 41.4917 78.1045 41.0964 77.1748 40.7059C76.0309 40.2275 74.9113 39.7187 73.7768 39.2586C72.0599 38.564 70.3086 37.9275 68.5221 37.5579C67.1343 37.2674 65.741 37.2086 64.3741 37.2721C64.0721 37.2755 63.7802 37.3336 63.4789 37.3498C62.366 37.4525 62.0147 37.4444 61.6917 37.062C61.6194 36.9782 61.5268 36.8985 61.4762 36.812C61.3012 36.5343 61.7268 36.1431 62.6208 35.9532C65.2762 35.3836 68.1775 35.7937 70.8295 36.5951C72.8153 37.185 74.7153 37.9829 76.5579 38.7991L76.5458 38.835Z" fill="#0B1F2A"/>
<path fill-rule="evenodd" clip-rule="evenodd" d="M23.7503 75.1807C23.6516 75.1044 23.705 74.978 23.8327 74.799C23.8739 74.7422 24.0374 74.6476 24.078 74.6665C24.157 74.7044 24.2361 74.7463 24.3037 74.7983C24.3584 74.8213 24.7422 75.4686 24.8293 75.701C24.9395 75.9206 25.0023 76.151 25.0496 76.3807C25.153 76.8503 25.2246 77.3131 25.2814 77.7773C25.2915 77.8794 25.2908 77.9821 25.2807 78.0861C25.2456 78.4415 25.2618 78.7881 25.2996 79.1334C25.3043 79.1908 25.2989 79.2496 25.3354 79.305C25.3969 79.3983 25.405 80.324 25.3814 80.4415C25.3145 80.7381 25.2996 81.0287 25.2462 81.3186C25.2388 81.3604 25.2496 81.403 25.2138 81.4422C25.13 81.5354 25.151 81.6213 25.1496 81.7091C25.1503 81.8077 25.1516 81.9057 25.1543 82.0591C25.1577 82.1091 25.1334 82.1733 25.1219 82.2408C25.1111 82.3023 25.0084 82.3314 24.9895 82.3179C24.9361 82.2794 24.907 82.3456 24.8706 82.374C24.8577 82.3827 24.8408 82.3949 24.8287 82.3976C24.8233 82.4064 24.651 82.2172 24.5496 82.0213C24.4246 81.8158 24.3408 81.6138 24.3253 81.5679C24.2807 81.5422 24.1212 80.4327 24.1084 80.3186C24.0949 80.2544 24.1145 80.1881 24.1246 80.1226C24.13 80.0908 24.0057 79.2354 24.0037 79.2037C24.0091 79.026 23.9719 78.8537 24.0523 78.6753C24.0685 78.6402 24.0631 78.6044 24.0604 78.5699C24.0361 78.2706 24.0584 77.9699 24.0557 77.6726C24.053 77.5219 24.0341 77.3699 24.0172 77.2213C24.0145 77.1942 24.0233 77.1658 24.0253 77.1381C24.028 77.1044 24.0354 77.0686 24.03 77.0348C23.98 76.6848 23.9685 76.3246 23.8449 76.003C23.828 75.9246 23.8023 75.5408 23.755 75.4611C23.7368 75.4152 23.7956 75.2098 23.7503 75.1807Z" fill="#0B1F2A"/>
<path fill-rule="evenodd" clip-rule="evenodd" d="M25.9957 22.96C26.0829 22.8904 26.1775 22.987 26.2788 23.1789C26.3113 23.2404 26.3376 23.4363 26.314 23.4687C26.268 23.5309 26.2207 23.5917 26.1701 23.6377C26.1403 23.6667 25.6133 23.8471 25.4322 23.9133C25.2579 23.9796 25.0788 24.0093 24.8984 24.0329C24.5329 24.0775 24.1673 24.1282 23.8011 24.162C23.7194 24.1701 23.6376 24.1647 23.5559 24.1505C23.2748 24.0998 22.9978 24.1106 22.7207 24.1458C22.6748 24.1512 22.6275 24.1471 22.5836 24.1863C22.5113 24.2498 21.7606 24.291 21.6646 24.2532C21.4234 24.1816 21.1836 24.1363 20.9437 24.0796C20.9099 24.0721 20.8734 24.0863 20.8423 24.0417C20.7694 23.9356 20.6957 23.9539 20.6214 23.9464C20.5194 23.935 20.4167 23.9194 20.314 23.8843C20.2633 23.8674 20.2133 23.8073 20.1633 23.7593C20.1173 23.7154 20.1417 23.5566 20.1572 23.539C20.2032 23.489 20.166 23.4147 20.1613 23.3485C20.1599 23.3262 20.1579 23.2971 20.1599 23.2796C20.1646 23.2397 20.7525 22.9633 20.8167 22.9647C20.8234 22.964 21.0403 22.941 21.2714 22.9174C21.5005 22.8917 21.7376 22.862 21.7863 22.8519C21.8363 22.8397 21.8876 22.8647 21.939 22.8809C21.9633 22.8883 22.643 22.8073 22.6694 22.8086C22.8099 22.8201 22.9498 22.7829 23.0917 22.8701C23.1194 22.8883 23.1478 22.8823 23.1761 22.8802C23.4167 22.8627 23.6579 22.8917 23.8991 22.9052C24.0228 22.9127 24.1444 22.8937 24.2667 22.8897C24.289 22.8883 24.3119 22.8998 24.3349 22.9046C24.3626 22.9106 24.3917 22.9208 24.4194 22.9181C24.7079 22.891 25.0025 22.9174 25.2883 22.8525C25.3532 22.8397 25.6836 22.9025 25.7586 22.8796C25.8005 22.8687 25.9606 22.9883 25.9957 22.96Z" fill="#0B1F2A"/>
</svg>
