<svg width="275" height="271" viewBox="0 0 275 271" fill="none" xmlns="http://www.w3.org/2000/svg">
<rect x="81.6032" y="7.52116" width="54.7323" height="117.844" rx="6.96575" fill="#B6D3E1" stroke="#0B1F2A" stroke-width="0.245436"/>
<rect x="143.943" y="7.52116" width="54.7323" height="54.6344" rx="6.96575" fill="#B6D3E1" stroke="#0B1F2A" stroke-width="0.245436"/>
<rect x="206.287" y="7.52116" width="54.7323" height="54.6344" rx="6.96575" fill="#B6D3E1" stroke="#0B1F2A" stroke-width="0.245436"/>
<rect x="206.287" y="70.7326" width="54.7323" height="54.6344" rx="6.96575" fill="#B6D3E1" stroke="#0B1F2A" stroke-width="0.245436"/>
<rect x="143.943" y="134.431" width="54.7323" height="117.844" rx="6.96575" fill="#B6D3E1" stroke="#0B1F2A" stroke-width="0.245436"/>
<rect x="206.287" y="134.431" width="54.7323" height="54.6344" rx="6.96575" fill="#B6D3E1" stroke="#0B1F2A" stroke-width="0.245436"/>
<rect x="206.287" y="197.639" width="54.7323" height="54.6344" rx="6.96575" fill="#B6D3E1" stroke="#0B1F2A" stroke-width="0.245436"/>
<rect x="19.2633" y="7.52116" width="54.7323" height="54.6344" rx="6.96575" fill="#B6D3E1" stroke="#0B1F2A" stroke-width="0.245436"/>
<rect x="19.2633" y="70.7326" width="54.7323" height="54.6344" rx="6.96575" fill="#B6D3E1" stroke="#0B1F2A" stroke-width="0.245436"/>
<rect x="19.2633" y="134.431" width="54.7323" height="54.6344" rx="6.96575" fill="#B6D3E1" stroke="#0B1F2A" stroke-width="0.245436"/>
<rect x="19.2633" y="197.639" width="117.073" height="54.6344" rx="6.96575" fill="#B6D3E1" stroke="#0B1F2A" stroke-width="0.245436"/>
<g filter="url(#filter0_d_162_21021)">
<rect x="171.312" y="167.141" width="73.6308" height="73.4998" rx="9.39222" fill="#FF7F50"/>
<rect x="171.803" y="167.632" width="72.6491" height="72.518" rx="8.90135" stroke="#FF7F50" stroke-width="0.981744"/>
</g>
<g clip-path="url(#clip0_162_21021)">
<path d="M208.128 223.488C197.246 223.488 188.411 214.832 188.493 203.889C188.575 192.945 196.838 184.289 208.128 184.289C219.418 184.289 227.763 193.109 227.763 203.889C227.763 214.668 219.009 223.488 208.128 223.488ZM213.936 220.467L208.373 205.522L203.137 220.793C206.983 221.692 209.6 221.937 213.936 220.467ZM200.356 219.65L192.011 196.865C190.865 199.315 190.62 201.357 190.456 203.889C190.538 210.585 194.301 216.71 200.356 219.65ZM225.718 203.889C225.799 199.56 223.836 196.13 223.672 195.64C223.836 198.989 223.345 200.704 222.773 202.582L217.045 218.997C224.245 214.668 225.635 208.217 225.799 203.889H225.718ZM207.555 203.154L204.774 195.559L202.728 195.395C201.91 194.824 202.401 193.925 202.973 193.925C206.655 194.17 208.7 194.17 212.382 193.925C213.283 193.925 213.527 195.232 212.463 195.395L210.5 195.559L216.881 214.342L219.907 204.052C220.071 199.56 218.843 199.07 217.207 195.804C215.898 193.272 217.289 190.822 219.826 190.74C217.779 188.78 213.608 186.33 208.126 186.249C202.644 186.167 196.836 188.944 193.4 194.17L199.455 194.007C200.191 194.334 199.863 195.395 199.455 195.477L197.328 195.64L203.709 214.75L207.555 203.154Z" fill="#F6F6F6"/>
</g>
<g filter="url(#filter1_d_162_21021)">
<rect x="59.8828" y="138.229" width="73.6308" height="73.4998" rx="9.39222" fill="#0B1F2A"/>
<rect x="60.3737" y="138.719" width="72.6491" height="72.518" rx="8.90135" stroke="#0B1F2A" stroke-width="0.981744"/>
</g>
<path d="M102.132 175.47C100.254 175.531 99.0801 175.867 99.0801 177.11C99.0801 177.916 99.7236 178.781 101.346 178.781C103.52 178.781 104.684 177.599 104.684 175.654V175.44L102.132 175.47L102.132 175.47ZM106.765 178.037L106.837 179.769H104.908C104.857 179.331 104.837 178.893 104.837 178.465C103.796 179.748 102.55 180.115 100.825 180.115C98.2738 180.115 96.9062 178.77 96.9062 177.211C96.9062 174.949 98.7638 174.155 102.004 174.084C102.887 174.064 103.877 174.064 104.694 174.064V173.839C104.694 172.331 103.723 171.715 102.04 171.715C100.795 171.715 99.8666 172.235 99.7746 173.121H97.5908C97.8254 170.9 100.163 170.339 102.214 170.339C104.689 170.339 106.756 171.215 106.756 173.814V178.042L106.765 178.037Z" fill="#F5AF02"/>
<path d="M84.177 174.369C84.0954 172.433 82.6921 171.71 81.1973 171.71C79.5848 171.71 78.2885 172.525 78.0642 174.369H84.177ZM78.0232 175.744C78.1355 177.629 79.4318 178.739 81.2176 178.739C82.4526 178.739 83.5549 178.245 83.9221 177.14H86.0653C85.6471 179.361 83.2787 180.114 81.2478 180.114C77.543 180.114 75.9102 178.077 75.9102 175.337C75.9102 172.311 77.6044 170.324 81.2889 170.324C84.2181 170.324 86.3613 171.852 86.3613 175.194V175.745L78.0232 175.744Z" fill="#E53238"/>
<path d="M91.6813 178.702C93.6102 178.702 94.9268 177.317 94.9268 175.228C94.9268 173.139 93.6102 171.753 91.6813 171.753C89.7623 171.753 88.4358 173.139 88.4358 175.228C88.4358 177.317 89.7623 178.702 91.6813 178.702ZM86.3629 166.689H88.4343V171.896C89.455 170.683 90.8532 170.337 92.2307 170.337C94.5471 170.337 97.1096 171.896 97.1096 175.258C97.1096 178.074 95.0683 180.128 92.1896 180.128C90.679 180.128 89.2708 179.588 88.3933 178.518C88.3933 178.946 88.3735 179.374 88.322 179.782H86.2812L86.3525 177.642V166.689H86.3629Z" fill="#0064D2"/>
<path d="M117.328 170.673L110.908 183.255H108.582L110.429 179.76L105.602 170.673H108.031L111.583 177.774L115.124 170.673H117.328Z" fill="#86B817"/>
<g filter="url(#filter2_d_162_21021)">
<rect x="149.223" y="48.0698" width="73.6308" height="73.4998" rx="9.39222" fill="#0B1F2A"/>
<rect x="149.714" y="48.5607" width="72.6491" height="72.518" rx="8.90135" stroke="#0B1F2A" stroke-width="0.981744"/>
</g>
<path d="M184.821 66.49C185.103 66.49 185.244 66.631 185.527 66.772C183.832 67.477 182.137 69.31 181.289 73.258L178.182 74.104C179.171 71.284 181.148 66.49 184.821 66.49ZM186.374 67.9C186.657 68.746 186.939 69.733 186.939 71.284C186.939 71.425 186.939 71.425 186.939 71.566L182.843 72.694C183.691 69.733 185.103 68.464 186.374 67.9ZM190.047 70.438L188.211 71.002C188.211 70.861 188.211 70.72 188.211 70.579C188.211 69.31 188.069 68.323 187.787 67.477C188.776 67.759 189.623 69.028 190.047 70.438ZM199.228 72.694C199.228 72.553 199.087 72.412 198.946 72.412C198.663 72.412 195.697 72.13 195.697 72.13C195.697 72.13 193.578 70.015 193.296 69.874C193.013 69.592 192.589 69.733 192.448 69.733C192.448 69.733 192.024 69.874 191.318 70.156C190.612 68.182 189.341 66.349 187.222 66.349H187.081C186.516 65.5031 185.668 65.2211 184.962 65.2211C179.877 65.0801 177.476 71.425 176.628 74.668C175.498 74.95 174.368 75.3729 173.097 75.7959C171.967 76.0779 171.967 76.2189 171.826 77.2059C171.684 77.9109 168.859 100.189 168.859 100.189L191.318 104.419L203.466 101.74C203.466 101.74 199.228 72.976 199.228 72.694Z" fill="#8DB849"/>
<path d="M201.256 72.4114C201.115 72.4114 198.148 72.1294 198.148 72.1294C198.148 72.1294 196.03 70.0144 195.747 69.8734C195.606 69.7324 195.606 69.7324 195.465 69.7324L193.77 104.418L205.917 101.739C205.917 101.739 201.68 72.9754 201.68 72.6934C201.68 72.5524 201.397 72.4114 201.256 72.4114Z" fill="#5A863E"/>
<path d="M189.675 79.1783L188.122 83.6903C188.122 83.6903 186.85 82.9853 185.155 82.9853C182.754 82.9853 182.613 84.3953 182.613 84.8183C182.613 86.7923 187.98 87.6382 187.98 92.4322C187.98 96.2391 185.579 98.6361 182.33 98.6361C178.517 98.6361 176.539 96.2391 176.539 96.2391L177.528 92.8552C177.528 92.8552 179.505 94.5472 181.2 94.5472C182.33 94.5472 182.754 93.7012 182.754 92.9962C182.754 90.3172 178.375 90.1762 178.375 85.8053C178.375 82.1393 181.059 78.6143 186.285 78.6143C188.687 78.4733 189.675 79.1783 189.675 79.1783Z" fill="#FFFFFE"/>
<g filter="url(#filter3_d_162_21021)">
<rect x="25.5234" y="25.5254" width="73.6308" height="73.4998" rx="9.39222" fill="#FF7F50"/>
<rect x="26.0143" y="26.0163" width="72.6491" height="72.518" rx="8.90135" stroke="#FF7F50" stroke-width="0.981744"/>
</g>
<g clip-path="url(#clip1_162_21021)">
<path d="M36.7742 47.6543H87.8969C91.1324 47.6543 93.7514 50.2686 93.7514 53.4983V72.9779C93.7514 76.2076 91.1324 78.8219 87.8969 78.8219H69.5637L72.0801 84.9733L61.0132 78.8219H36.7997C33.5645 78.8219 30.9455 76.2076 30.9455 72.9779V53.4983C30.9197 50.2943 33.5385 47.6543 36.7742 47.6543Z" fill="#0B1F2A"/>
<path d="M34.5253 52.9805C34.8828 52.4961 35.4189 52.2414 36.1338 52.1905C37.436 52.0884 38.1764 52.6999 38.355 54.0253C39.1465 59.3518 40.0145 63.8629 40.9335 67.5582L46.5247 56.9308C47.0355 55.9622 47.6739 55.4525 48.4398 55.4016C49.5632 55.3252 50.2524 56.0386 50.5333 57.5423C51.1717 60.9317 51.9886 63.8117 52.9587 66.2583C53.6226 59.7851 54.746 55.1212 56.3289 52.2414C56.7116 51.5278 57.2734 51.171 58.0138 51.1198C58.6012 51.0691 59.1372 51.2474 59.6223 51.6297C60.1073 52.0119 60.3627 52.4961 60.4137 53.0824C60.4392 53.5411 60.3627 53.9234 60.1586 54.3057C59.1628 56.1407 58.3455 59.2245 57.6819 63.5058C57.0438 67.6601 56.8139 70.8969 56.967 73.2161C57.0183 73.8528 56.916 74.4137 56.6608 74.8981C56.3541 75.4586 55.8949 75.7645 55.3075 75.8155C54.6437 75.8664 53.9545 75.5608 53.2906 74.8726C50.9163 72.4513 49.0269 68.8324 47.6484 64.0157C45.9887 67.2778 44.7632 69.7243 43.9718 71.3554C42.4654 74.2354 41.1889 75.7136 40.1166 75.79C39.4272 75.8409 38.8401 75.2546 38.3295 74.0316C37.0275 70.6929 35.6232 64.2449 34.1171 54.688C34.0148 54.0253 34.1679 53.439 34.5253 52.9805ZM89.3914 56.9817C88.4724 55.3761 87.1191 54.4078 85.3065 54.0253C84.8213 53.9234 84.362 53.8725 83.9277 53.8725C81.4768 53.8725 79.4854 55.1467 77.928 57.6953C76.6003 59.8615 75.9366 62.2571 75.9366 64.8822C75.9366 66.8445 76.3451 68.5265 77.1621 69.9283C78.0811 71.5339 79.4344 72.5022 81.247 72.8845C81.732 72.9866 82.1915 73.0376 82.6257 73.0376C85.1022 73.0376 87.0936 71.7634 88.6254 69.2147C89.953 67.0228 90.6168 64.6272 90.6168 62.0024C90.6424 60.0145 90.2084 58.3578 89.3914 56.9817ZM86.1745 64.0412C85.8171 65.7231 85.1787 66.9719 84.2339 67.8129C83.4937 68.4756 82.8044 68.7557 82.1662 68.6284C81.5534 68.501 81.0426 67.9659 80.6599 66.9719C80.3532 66.1818 80.2004 65.3918 80.2004 64.6527C80.2004 64.0157 80.2514 63.3785 80.379 62.7924C80.6088 61.7474 81.0428 60.7279 81.732 59.7596C82.5747 58.5106 83.4682 58.0012 84.3873 58.1795C85.0001 58.3069 85.5109 58.8422 85.8936 59.836C86.2001 60.6261 86.3531 61.4161 86.3531 62.1552C86.3531 62.8179 86.3021 63.4551 86.1745 64.0412ZM73.4089 56.9817C72.4899 55.3761 71.1111 54.4078 69.3241 54.0253C68.8391 53.9234 68.3796 53.8725 67.9453 53.8725C65.4944 53.8725 63.503 55.1467 61.9456 57.6953C60.6181 59.8615 59.9542 62.2571 59.9542 64.8822C59.9542 66.8445 60.3627 68.5265 61.1797 69.9283C62.0987 71.5339 63.452 72.5022 65.2645 72.8845C65.7498 72.9866 66.2091 73.0376 66.6433 73.0376C69.1197 73.0376 71.1111 71.7634 72.643 69.2147C73.9708 67.0228 74.6344 64.6272 74.6344 62.0024C74.6344 60.0145 74.2259 58.3578 73.4089 56.9817ZM70.1666 64.0412C69.8091 65.7231 69.1708 66.9719 68.2262 67.8129C67.4858 68.4756 66.7964 68.7557 66.158 68.6284C65.5454 68.501 65.0349 67.9659 64.6517 66.9719C64.3455 66.1818 64.1924 65.3918 64.1924 64.6527C64.1924 64.0157 64.2434 63.3785 64.371 62.7924C64.6009 61.7474 65.0349 60.7279 65.7243 59.7596C66.5668 58.5106 67.4603 58.0012 68.3793 58.1795C68.9922 58.3069 69.5029 58.8422 69.8857 59.836C70.1923 60.6261 70.3452 61.4161 70.3452 62.1552C70.3709 62.8179 70.2942 63.4551 70.1666 64.0412Z" fill="#F6F6F6"/>
</g>
<defs>
<filter id="filter0_d_162_21021" x="145.787" y="141.616" width="128.607" height="128.477" filterUnits="userSpaceOnUse" color-interpolation-filters="sRGB">
<feFlood flood-opacity="0" result="BackgroundImageFix"/>
<feColorMatrix in="SourceAlpha" type="matrix" values="0 0 0 0 0 0 0 0 0 0 0 0 0 0 0 0 0 0 127 0" result="hardAlpha"/>
<feOffset dx="1.96349" dy="1.96349"/>
<feGaussianBlur stdDeviation="13.7444"/>
<feComposite in2="hardAlpha" operator="out"/>
<feColorMatrix type="matrix" values="0 0 0 0 1 0 0 0 0 0.498039 0 0 0 0 0.313726 0 0 0 0.4 0"/>
<feBlend mode="normal" in2="BackgroundImageFix" result="effect1_dropShadow_162_21021"/>
<feBlend mode="normal" in="SourceGraphic" in2="effect1_dropShadow_162_21021" result="shape"/>
</filter>
<filter id="filter1_d_162_21021" x="34.3575" y="112.703" width="128.607" height="128.478" filterUnits="userSpaceOnUse" color-interpolation-filters="sRGB">
<feFlood flood-opacity="0" result="BackgroundImageFix"/>
<feColorMatrix in="SourceAlpha" type="matrix" values="0 0 0 0 0 0 0 0 0 0 0 0 0 0 0 0 0 0 127 0" result="hardAlpha"/>
<feOffset dx="1.96349" dy="1.96349"/>
<feGaussianBlur stdDeviation="13.7444"/>
<feComposite in2="hardAlpha" operator="out"/>
<feColorMatrix type="matrix" values="0 0 0 0 0.0431373 0 0 0 0 0.121569 0 0 0 0 0.164706 0 0 0 0.4 0"/>
<feBlend mode="normal" in2="BackgroundImageFix" result="effect1_dropShadow_162_21021"/>
<feBlend mode="normal" in="SourceGraphic" in2="effect1_dropShadow_162_21021" result="shape"/>
</filter>
<filter id="filter2_d_162_21021" x="123.697" y="22.5445" width="128.607" height="128.477" filterUnits="userSpaceOnUse" color-interpolation-filters="sRGB">
<feFlood flood-opacity="0" result="BackgroundImageFix"/>
<feColorMatrix in="SourceAlpha" type="matrix" values="0 0 0 0 0 0 0 0 0 0 0 0 0 0 0 0 0 0 127 0" result="hardAlpha"/>
<feOffset dx="1.96349" dy="1.96349"/>
<feGaussianBlur stdDeviation="13.7444"/>
<feComposite in2="hardAlpha" operator="out"/>
<feColorMatrix type="matrix" values="0 0 0 0 0.0431373 0 0 0 0 0.121569 0 0 0 0 0.164706 0 0 0 0.4 0"/>
<feBlend mode="normal" in2="BackgroundImageFix" result="effect1_dropShadow_162_21021"/>
<feBlend mode="normal" in="SourceGraphic" in2="effect1_dropShadow_162_21021" result="shape"/>
</filter>
<filter id="filter3_d_162_21021" x="-0.0019176" y="3.55244e-05" width="128.607" height="128.478" filterUnits="userSpaceOnUse" color-interpolation-filters="sRGB">
<feFlood flood-opacity="0" result="BackgroundImageFix"/>
<feColorMatrix in="SourceAlpha" type="matrix" values="0 0 0 0 0 0 0 0 0 0 0 0 0 0 0 0 0 0 127 0" result="hardAlpha"/>
<feOffset dx="1.96349" dy="1.96349"/>
<feGaussianBlur stdDeviation="13.7444"/>
<feComposite in2="hardAlpha" operator="out"/>
<feColorMatrix type="matrix" values="0 0 0 0 1 0 0 0 0 0.498039 0 0 0 0 0.313726 0 0 0 0.4 0"/>
<feBlend mode="normal" in2="BackgroundImageFix" result="effect1_dropShadow_162_21021"/>
<feBlend mode="normal" in="SourceGraphic" in2="effect1_dropShadow_162_21021" result="shape"/>
</filter>
<clipPath id="clip0_162_21021">
<rect width="39.2698" height="39.1999" fill="white" transform="translate(188.492 184.29)"/>
</clipPath>
<clipPath id="clip1_162_21021">
<rect width="62.8316" height="37.4813" fill="white" transform="translate(30.9219 47.5757)"/>
</clipPath>
</defs>
</svg>
