<svg width="100" height="100" viewBox="0 0 100 100" fill="none" xmlns="http://www.w3.org/2000/svg">
<rect width="100" height="100" rx="1.33333" stroke="#E4E4E7"/>
<path fill-rule="evenodd" clip-rule="evenodd" d="M53.2836 33.2856C57.7315 34.7016 62.1664 34.8429 66.6298 36.2095C73.7081 38.3768 84.465 36.6653 86.9904 43.6062C89.4824 50.4551 77.6306 54.783 75.9693 61.8779C74.0198 70.2033 82.8198 80.7397 76.857 86.8826C71.2413 92.668 61.248 86.5729 53.2836 85.2489C46.7971 84.1707 40.4311 83.2843 34.8034 79.892C28.7381 76.2359 18.7195 72.1929 20.1354 65.2679C21.8721 56.7733 38.38 58.81 40.8153 50.4877C43.3938 41.6758 26.4838 32.5849 31.8761 25.1453C36.462 18.8183 45.8258 30.9113 53.2836 33.2856Z" fill="#B6D3E1"/>
<path fill-rule="evenodd" clip-rule="evenodd" d="M53.1238 19.1219C52.0604 17.3819 52.4604 16.7039 55.7084 14.5906C58.9571 12.4779 55.6658 11.6273 55.6658 11.6273C51.8758 11.3406 49.4158 13.0626 48.3111 14.5186C47.2071 15.9746 49.0664 18.9053 49.0664 18.9053L53.1238 19.1219Z" fill="#221F1F"/>
<path fill-rule="evenodd" clip-rule="evenodd" d="M26.5933 39.215C24.4453 42.5703 23.1639 46.4603 22.7546 50.4203L22.6486 51.507C22.6193 51.8696 22.6459 52.2343 22.6413 52.5976C22.6666 53.3243 22.6066 54.055 22.7119 54.7763C22.8426 57.3436 23.5053 59.8603 24.4193 62.2556C24.6779 62.8436 24.8699 63.4643 25.1833 64.027L26.0806 65.737C26.7773 66.8176 27.4439 67.927 28.2913 68.903C28.9699 69.8283 29.8233 70.6043 30.6199 71.4263C31.0393 71.8156 31.4959 72.163 31.9313 72.5316L32.5913 73.0756C32.8199 73.2443 33.0619 73.395 33.2959 73.555C35.6859 75.229 38.3766 76.4603 41.1686 77.2916C42.0286 77.585 41.8659 77.775 41.0573 77.7623C40.6526 77.7556 40.0846 77.6976 39.4066 77.577C38.7239 77.469 37.9819 77.1556 37.1713 76.837C31.5246 74.3336 26.8339 69.733 24.2673 64.0843C22.7319 60.719 21.7966 56.9056 21.7713 53.121C21.7733 52.6016 21.7639 52.0816 21.7753 51.5623L21.9299 50.0116C21.9873 48.9716 22.2559 47.963 22.4499 46.9443C22.5339 46.4303 22.7013 45.9383 22.8533 45.4423L23.3119 43.9563L23.9019 42.5176C24.1059 42.0416 24.2793 41.5516 24.5399 41.1023L25.4313 39.4103C25.7639 38.867 26.1213 38.339 26.4653 37.8023C26.7926 37.2543 27.2046 36.7663 27.5953 36.2643C27.9919 35.7663 28.3626 35.2476 28.8166 34.799C31.4006 31.9383 34.5906 29.6176 38.0713 28.033C40.7886 26.8283 43.6453 26.051 46.5899 25.8116C46.9139 25.781 47.2346 25.7503 47.5559 25.7196C47.8786 25.7143 48.2019 25.7216 48.5306 25.7256C49.1386 25.7416 49.6433 25.755 50.0666 25.7663C50.4866 25.8203 50.8239 25.8816 51.1006 25.937C51.6533 26.0503 51.9633 26.1656 52.1999 26.315C52.3079 26.3836 52.4519 26.4563 52.5099 26.5183C52.7026 26.7283 51.7153 26.7523 50.0053 26.593C44.9113 26.4323 39.4799 27.731 34.9753 30.721C31.5799 32.8396 28.7426 35.8296 26.6146 39.2223L26.5933 39.215Z" fill="#221F1F"/>
<path fill-rule="evenodd" clip-rule="evenodd" d="M53.2021 28.0704C53.1348 27.9478 53.2954 27.8724 53.5961 27.8238C53.6914 27.8084 53.9728 27.8471 54.0081 27.8838C54.0781 27.9558 54.1448 28.0284 54.1894 28.0984C54.2168 28.1418 54.2721 28.7784 54.3021 28.9951C54.3308 29.2058 54.3141 29.4111 54.2901 29.6151C54.2401 30.0304 54.2041 30.4471 54.1561 30.8624C54.1461 30.9551 54.1214 31.0451 54.0848 31.1344C53.9588 31.4398 53.9148 31.7551 53.8988 32.0738C53.8968 32.1271 53.8821 32.1804 53.9188 32.2364C53.9801 32.3284 53.8734 33.1858 53.8261 33.2931C53.7081 33.5584 53.6228 33.8284 53.5228 34.0971C53.5088 34.1351 53.5201 34.1791 53.4654 34.2091C53.3368 34.2778 53.3461 34.3651 53.3268 34.4498C53.2994 34.5664 53.2668 34.6824 53.2128 34.7958C53.1861 34.8524 53.1121 34.9018 53.0514 34.9531C52.9968 34.9998 52.8241 34.9498 52.8074 34.9291C52.7588 34.8691 52.6708 34.9024 52.5968 34.8984C52.5714 34.8971 52.5394 34.8951 52.5201 34.8898C52.4761 34.8791 52.2514 34.1618 52.2621 34.0878C52.2648 34.0698 52.2841 33.0638 52.2734 32.9484C52.2681 32.8878 52.3028 32.8318 52.3268 32.7744C52.3381 32.7478 52.3274 31.9404 52.3334 31.9084C52.3654 31.7458 52.3381 31.5751 52.4628 31.4238C52.4868 31.3938 52.4848 31.3598 52.4868 31.3264C52.5001 31.0411 52.5734 30.7631 52.6321 30.4831C52.6621 30.3398 52.6628 30.1931 52.6801 30.0484C52.6834 30.0224 52.7028 29.9984 52.7128 29.9731C52.7254 29.9418 52.7441 29.9104 52.7468 29.8771C52.7721 29.5331 52.8714 29.1978 52.8594 28.8491C52.8568 28.7684 53.0301 28.4078 53.0228 28.3151C53.0181 28.2631 53.2294 28.1198 53.2021 28.0704Z" fill="#221F1F"/>
<path fill-rule="evenodd" clip-rule="evenodd" d="M75.3871 55.3722C75.5065 55.3035 75.5805 55.4635 75.6291 55.7628C75.6445 55.8588 75.6085 56.1402 75.5725 56.1762C75.5025 56.2468 75.4318 56.3142 75.3631 56.3588C75.3218 56.3868 74.7018 56.4488 74.4898 56.4808C74.2845 56.5115 74.0845 56.4968 73.8851 56.4748C73.4805 56.4288 73.0738 56.3968 72.6685 56.3535C72.5785 56.3442 72.4898 56.3202 72.4025 56.2848C72.1051 56.1615 71.7971 56.1208 71.4858 56.1082C71.4338 56.1062 71.3825 56.0922 71.3278 56.1295C71.2378 56.1915 70.4011 56.0935 70.2971 56.0468C70.0378 55.9322 69.7738 55.8488 69.5118 55.7522C69.4745 55.7382 69.4318 55.7502 69.4025 55.6955C69.3345 55.5675 69.2491 55.5782 69.1671 55.5595C69.0531 55.5335 68.9398 55.5015 68.8291 55.4488C68.7738 55.4228 68.7251 55.3495 68.6751 55.2895C68.6298 55.2348 68.6778 55.0622 68.6978 55.0448C68.7558 54.9955 68.7231 54.9075 68.7265 54.8342C68.7278 54.8088 68.7298 54.7762 68.7345 54.7568C68.7445 54.7135 69.4431 54.4822 69.5158 54.4915C69.5338 54.4942 70.5138 54.5035 70.6265 54.4922C70.6858 54.4855 70.7405 54.5202 70.7965 54.5428C70.8225 54.5542 71.6098 54.5355 71.6405 54.5415C71.7998 54.5715 71.9665 54.5428 72.1145 54.6655C72.1431 54.6902 72.1771 54.6875 72.2091 54.6888C72.4878 54.6995 72.7591 54.7702 73.0325 54.8262C73.1718 54.8548 73.3151 54.8542 73.4565 54.8702C73.4818 54.8728 73.5051 54.8922 73.5298 54.9015C73.5605 54.9142 73.5911 54.9322 73.6231 54.9348C73.9591 54.9568 74.2865 55.0528 74.6265 55.0375C74.7051 55.0335 75.0571 55.2035 75.1478 55.1948C75.1991 55.1902 75.3391 55.3995 75.3871 55.3722Z" fill="#221F1F"/>
<path fill-rule="evenodd" clip-rule="evenodd" d="M24.096 49.1535C23.9827 49.2228 23.9127 49.0642 23.8667 48.7648C23.852 48.6695 23.8874 48.3882 23.9214 48.3515C23.988 48.2808 24.0547 48.2128 24.12 48.1668C24.16 48.1388 24.7494 48.0708 24.9507 48.0368C25.1454 48.0042 25.3354 48.0162 25.5247 48.0368C25.91 48.0788 26.296 48.1068 26.6814 48.1462C26.7667 48.1548 26.8507 48.1775 26.9334 48.2122C27.2167 48.3328 27.5087 48.3702 27.8047 48.3795C27.854 48.3815 27.9027 48.3948 27.9547 48.3568C28.0407 48.2942 28.8354 48.3842 28.9347 48.4295C29.1807 48.5422 29.4314 48.6222 29.68 48.7162C29.7154 48.7295 29.756 48.7175 29.784 48.7722C29.848 48.8988 29.9294 48.8882 30.0074 48.9055C30.116 48.9302 30.224 48.9608 30.3287 49.0128C30.3807 49.0382 30.4274 49.1115 30.4747 49.1702C30.518 49.2242 30.472 49.3975 30.4534 49.4148C30.398 49.4648 30.4287 49.5528 30.4254 49.6262C30.424 49.6515 30.4227 49.6835 30.418 49.7035C30.408 49.7468 29.7434 49.9848 29.6747 49.9762C29.658 49.9742 28.726 49.9735 28.6187 49.9868C28.5627 49.9935 28.5107 49.9595 28.4574 49.9368C28.4327 49.9262 27.6847 49.9528 27.6554 49.9468C27.504 49.9182 27.346 49.9488 27.206 49.8275C27.178 49.8035 27.146 49.8062 27.1154 49.8055C26.8507 49.7968 26.5927 49.7295 26.3334 49.6762C26.2007 49.6488 26.0647 49.6508 25.9307 49.6368C25.9067 49.6342 25.884 49.6148 25.8607 49.6055C25.8314 49.5935 25.8027 49.5755 25.772 49.5735C25.4527 49.5548 25.142 49.4622 24.8187 49.4808C24.744 49.4848 24.4094 49.3188 24.3234 49.3282C24.2747 49.3335 24.1414 49.1255 24.096 49.1535Z" fill="#221F1F"/>
<path fill-rule="evenodd" clip-rule="evenodd" d="M46.0701 78.5895C46.1394 78.7002 45.9808 78.7675 45.6821 78.8095C45.5868 78.8229 45.3054 78.7875 45.2688 78.7542C45.1974 78.6889 45.1301 78.6235 45.0841 78.5602C45.0561 78.5209 44.9881 77.9489 44.9541 77.7535C44.9208 77.5635 44.9334 77.3795 44.9541 77.1955C44.9961 76.8229 45.0234 76.4482 45.0628 76.0742C45.0721 75.9915 45.0941 75.9095 45.1294 75.8302C45.2494 75.5562 45.2868 75.2729 45.2968 74.9862C45.2981 74.9382 45.3114 74.8909 45.2734 74.8395C45.2108 74.7562 45.3008 73.9855 45.3461 73.8895C45.4581 73.6515 45.5381 73.4089 45.6328 73.1682C45.6461 73.1335 45.6341 73.0942 45.6888 73.0675C45.8148 73.0062 45.8041 72.9275 45.8214 72.8515C45.8468 72.7462 45.8774 72.6422 45.9288 72.5402C45.9541 72.4902 46.0274 72.4455 46.0868 72.3995C46.1401 72.3582 46.3134 72.4042 46.3308 72.4229C46.3808 72.4769 46.4688 72.4475 46.5421 72.4509C46.5668 72.4522 46.5994 72.4542 46.6188 72.4582C46.6628 72.4682 46.9008 73.1149 46.8921 73.1815C46.8894 73.1975 46.8901 74.1022 46.9028 74.2062C46.9094 74.2602 46.8754 74.3109 46.8534 74.3622C46.8428 74.3862 46.8688 75.1129 46.8628 75.1409C46.8341 75.2875 46.8648 75.4409 46.7434 75.5762C46.7201 75.6035 46.7228 75.6335 46.7214 75.6635C46.7134 75.9209 46.6461 76.1702 46.5928 76.4222C46.5654 76.5502 46.5674 76.6822 46.5528 76.8122C46.5501 76.8355 46.5314 76.8575 46.5221 76.8802C46.5101 76.9089 46.4914 76.9369 46.4901 76.9662C46.4714 77.2755 46.3788 77.5769 46.3974 77.8902C46.4014 77.9629 46.2354 78.2862 46.2448 78.3702C46.2501 78.4169 46.0421 78.5455 46.0701 78.5895Z" fill="#221F1F"/>
<path fill-rule="evenodd" clip-rule="evenodd" d="M75.8741 53.6722C75.8781 53.5729 75.8781 53.4756 75.8754 53.3802C75.8828 52.8722 75.8054 52.3562 75.7788 51.8442C75.4701 45.1982 72.5048 38.7356 67.7074 34.1302C65.3194 31.8216 62.4981 29.9549 59.4214 28.6889C56.3448 27.4229 53.0301 26.7609 49.7121 26.7089C43.0628 26.5662 36.4108 29.0676 31.4901 33.5369C29.0228 35.7582 26.9741 38.4456 25.4921 41.4196C24.0061 44.3916 23.0948 47.6462 22.7941 50.9556C22.5134 54.2676 22.8568 57.6309 23.8074 60.8149C24.7554 63.9996 26.3101 66.9996 28.3594 69.6129C32.4368 74.8636 38.5588 78.4722 45.1334 79.4762C48.4108 79.9949 51.7894 79.9136 55.0374 79.1956C58.2874 78.4876 61.3894 77.1322 64.1394 75.2696C69.6588 71.5582 73.6934 65.7016 75.1408 59.2082C75.2501 58.7422 75.4054 58.2696 75.4834 57.8029C75.5041 57.7056 75.5214 57.6049 75.5361 57.5022C75.6841 56.4436 75.4388 55.5582 74.9914 55.5242C74.5434 55.4909 74.0674 56.2602 73.9308 57.2436C73.9181 57.3362 73.9088 57.4276 73.9028 57.5176C73.8928 58.0002 73.7648 58.4736 73.6554 58.9449L73.2941 60.4296L72.7861 61.8702C72.4907 62.8482 71.9941 63.7436 71.5774 64.6722C68.8334 70.0282 64.0994 74.3236 58.5061 76.5376C55.7148 77.6489 52.7228 78.2669 49.7134 78.3176C46.7034 78.3456 43.6921 77.8509 40.8614 76.8449C35.1908 74.8482 30.2981 70.7229 27.3708 65.4576C25.9108 62.8269 24.9308 59.9336 24.4968 56.9602C24.0601 53.9876 24.1628 50.9369 24.7754 47.9936C25.9648 42.0829 29.5021 36.7322 34.3274 33.1562C39.1468 29.5549 45.2814 27.7702 51.2881 28.2729C57.2908 28.7682 63.0668 31.4769 67.2488 35.8122C69.3441 37.9682 71.0574 40.4989 72.2628 43.2562C73.4568 46.0189 74.1421 48.9949 74.2801 51.9969C74.3054 52.4482 74.3414 52.9136 74.2701 53.3582C74.2601 53.4516 74.2521 53.5476 74.2488 53.6449C74.2108 54.6376 74.5448 55.4789 74.9914 55.5242C75.4381 55.5696 75.8341 54.7402 75.8741 53.6722Z" fill="#232020"/>
<path fill-rule="evenodd" clip-rule="evenodd" d="M28.9698 27.677C26.9611 29.2843 25.1731 31.163 23.5991 33.2043C23.1871 33.701 22.8205 34.2323 22.4598 34.7683C22.0951 35.301 21.7125 35.8237 21.4158 36.395C20.7951 37.5203 20.0865 38.6043 19.6258 39.811C17.5305 44.501 16.5118 49.7217 16.9391 54.8777C17.1985 58.6363 18.1291 62.3537 19.6778 65.789C21.0571 68.8137 22.8765 71.6283 25.0705 74.1303C27.2798 76.6303 29.9525 78.6657 32.8011 80.395C35.6971 82.0577 38.8265 83.329 42.0851 84.0843C45.3458 84.8163 48.7185 85.1017 52.0598 84.8377C57.9858 84.3743 63.8265 82.271 68.5985 78.803C70.1465 77.7117 71.5785 76.4577 72.8891 75.0937C74.2165 73.7437 75.3965 72.253 76.4418 70.679C78.5558 67.5417 80.0511 64.0123 80.9631 60.3437C81.4785 58.051 81.8505 58.391 81.8585 60.4937C81.8445 61.5403 81.6738 63.025 81.2098 64.771C80.7165 66.4997 79.9691 68.513 78.7558 70.479C74.5305 77.4997 67.5778 82.7243 59.7771 85.0797C57.8238 85.6643 55.8231 86.079 53.8025 86.343C51.7765 86.579 49.7338 86.6323 47.6971 86.5383C45.6618 86.4037 43.6398 86.1083 41.6538 85.6463C39.6811 85.1383 37.7298 84.5283 35.8698 83.6943C31.4165 81.7457 27.2418 78.857 23.8711 75.167C20.4891 71.4837 18.0331 66.9563 16.6258 62.1943C13.3651 51.713 15.9158 39.721 22.9425 31.3863C27.1465 26.161 32.9585 22.269 39.3491 20.3057C44.1965 18.8317 49.3771 18.4617 54.3825 19.2137C59.3898 19.9637 64.1991 21.8797 68.3398 24.7183C69.9731 25.793 71.4305 27.0917 72.8438 28.4157C73.4998 29.127 74.2138 29.7883 74.8111 30.5503L75.7398 31.6637L76.5938 32.8343C78.8558 35.969 80.5385 39.497 81.6451 43.2097C82.1258 44.847 82.5145 46.4777 82.7605 48.1857C83.1918 51.3543 83.1138 53.4797 82.9691 54.9463C82.8978 55.6823 82.7911 56.2563 82.6651 56.7263C82.5505 57.1977 82.4145 57.565 82.2505 57.8837C82.1065 58.175 81.9485 58.5597 81.8231 58.7183C81.3338 59.245 81.7091 56.717 81.5218 52.245C81.1998 45.6237 78.9938 38.895 74.9278 33.3757C73.9378 31.979 72.7785 30.7077 71.5778 29.4797C70.3231 28.3077 69.0331 27.1577 67.5965 26.1963C64.7798 24.1977 61.5911 22.725 58.2598 21.7543C53.3038 20.3297 47.9898 20.111 42.9158 21.1357C37.8391 22.1497 33.0218 24.425 29.0058 27.701L28.9698 27.677Z" fill="#221F1F"/>
<path fill-rule="evenodd" clip-rule="evenodd" d="M49.8002 54.6767C49.6169 54.6887 49.5489 54.498 49.5469 54.1813C49.5462 54.08 49.6595 53.82 49.7182 53.8013C49.8335 53.764 49.9475 53.7307 50.0549 53.718C50.1202 53.7093 51.0109 53.9373 51.3175 54.0067C51.6142 54.072 51.8935 54.1807 52.1695 54.298L53.8569 55.0027C53.9815 55.056 54.1009 55.122 54.2142 55.2007C54.6042 55.4673 55.0262 55.66 55.4602 55.8293C55.5322 55.8573 55.6022 55.8967 55.6882 55.888C55.8295 55.8713 56.9809 56.402 57.1142 56.5053C57.4475 56.76 57.7942 56.9793 58.1322 57.2287C58.1795 57.2633 58.2435 57.2773 58.2682 57.3467C58.3242 57.5073 58.4455 57.5493 58.5542 57.62C58.7055 57.7193 58.8522 57.8113 58.9895 57.9473C59.0569 58.0113 59.0975 58.116 59.1415 58.2067C59.1822 58.2887 59.0455 58.4127 59.0122 58.4147C58.9155 58.4207 58.9229 58.5233 58.8875 58.588C58.8762 58.61 58.8602 58.6387 58.8462 58.6533C58.8189 58.676 57.8495 58.478 57.7455 58.4373C57.7395 58.4347 57.6535 58.3987 57.5242 58.3433C57.3955 58.2907 57.2229 58.22 57.0462 58.148C56.6915 58.0067 56.3162 57.8647 56.2362 57.8427C56.1542 57.8173 56.0875 57.7567 56.0169 57.7047C55.9855 57.678 54.8902 57.3 54.8489 57.28C54.6349 57.1713 54.3969 57.118 54.2215 56.9247C54.1875 56.886 54.1402 56.872 54.0949 56.8553C53.7095 56.7087 53.3482 56.5073 52.9789 56.322C52.7909 56.2267 52.5909 56.158 52.3969 56.0753C52.3615 56.0607 52.3329 56.0307 52.3009 56.0093C52.2602 55.982 52.2222 55.95 52.1775 55.9327C51.7129 55.7507 51.2749 55.5027 50.7935 55.3587C50.6835 55.3253 50.2269 54.9947 50.0969 54.9607C50.0242 54.942 49.8735 54.672 49.8002 54.6767Z" fill="#221F1F"/>
<path fill-rule="evenodd" clip-rule="evenodd" d="M50.3109 51.9972C50.3643 52.1765 50.1929 52.2892 49.8849 52.3659C49.7863 52.3899 49.5069 52.3392 49.4763 52.2852C49.4136 52.1792 49.3556 52.0745 49.3189 51.9705C49.2963 51.9072 49.3183 50.9692 49.3163 50.6492C49.3143 50.3385 49.3576 50.0359 49.4096 49.7339L49.7189 47.8925C49.7436 47.7559 49.7809 47.6225 49.8316 47.4912C50.0056 47.0412 50.0969 46.5765 50.1669 46.1052C50.1776 46.0272 50.2009 45.9492 50.1729 45.8652C50.1249 45.7285 50.3863 44.4605 50.4589 44.3032C50.6343 43.8732 50.7816 43.5132 50.9403 43.1219C50.9643 43.0665 50.9643 42.9992 51.0276 42.9585C51.1763 42.8645 51.1836 42.7365 51.2323 42.6099C51.3003 42.4345 51.3596 42.2692 51.4656 42.0979C51.5189 42.0132 51.6163 41.9492 51.6983 41.8859C51.7729 41.8279 51.9169 41.9465 51.9249 41.9785C51.9476 42.0752 52.0469 42.0492 52.1163 42.0732C52.1403 42.0812 52.1703 42.0925 52.1876 42.1039C52.2109 42.1219 52.2203 43.1072 52.2069 43.2279C52.2056 43.2339 52.1883 43.3272 52.1623 43.4672C52.1396 43.6079 52.1089 43.7945 52.0776 43.9865C52.0156 44.3705 51.9643 44.7779 51.9576 44.8612C51.9516 44.9492 51.9069 45.0292 51.8723 45.1112C51.8549 45.1499 51.7276 46.3245 51.7183 46.3712C51.6603 46.6085 51.6596 46.8579 51.5116 47.0772C51.4823 47.1205 51.4789 47.1705 51.4729 47.2192C51.4149 47.6359 51.3003 48.0425 51.2016 48.4532C51.1509 48.6625 51.1296 48.8772 51.0923 49.0892C51.0856 49.1272 51.0629 49.1632 51.0489 49.1999C51.0323 49.2465 51.0089 49.2919 51.0023 49.3405C50.9289 49.8452 50.7849 50.3379 50.7529 50.8499C50.7449 50.9679 50.5256 51.4985 50.5216 51.6359C50.5196 51.7119 50.2896 51.9259 50.3109 51.9972Z" fill="#221F1F"/>
<path fill-rule="evenodd" clip-rule="evenodd" d="M50.8228 54.3632C50.7075 54.5665 50.4815 54.2072 50.2828 54.4078C48.8335 55.8772 46.8968 52.5072 48.7355 51.6818C49.7421 51.2298 51.7361 52.7632 50.8228 54.3632Z" fill="#231F20"/>
<path fill-rule="evenodd" clip-rule="evenodd" d="M48.433 55.9253C47.5544 55.4946 46.953 54.7466 46.6904 53.868C46.5957 53.5493 46.509 53.2093 46.5364 52.8593C46.5924 52.2366 46.8817 51.664 47.263 51.266C47.6444 50.86 48.1037 50.5813 48.5977 50.4106C49.035 50.262 49.5017 50.1526 50.0064 50.19C50.325 50.2253 50.677 50.2873 50.9684 50.4846C51.2697 50.6606 51.493 50.9513 51.577 51.2626C51.6397 51.466 51.2217 51.608 50.8024 51.7353C50.6024 51.8006 50.4024 51.8653 50.2404 51.918C50.0784 51.99 49.993 52.0286 49.9617 52.0166C49.8677 51.9713 49.751 51.9113 49.4917 51.9133C49.243 51.9246 48.9304 51.998 48.6284 52.138C48.4484 52.2226 48.313 52.3786 48.2557 52.5433C48.1884 52.706 48.1717 52.87 48.179 53.0546C48.1864 53.456 48.421 53.9306 48.797 54.2293C49.0244 54.4193 49.305 54.532 49.5844 54.5513C49.9404 54.5793 50.4937 54.306 50.8197 53.928C51.0764 53.6273 51.1684 53.2073 51.1077 52.972C51.091 52.922 51.0704 52.876 51.049 52.846C51.0024 52.7313 51.0737 52.668 51.3944 52.34L51.6064 52.1093C51.7284 51.9833 51.8657 51.9066 52.0257 51.9153C52.183 51.9253 52.3744 52.0106 52.499 52.226C52.7037 52.532 52.7797 52.9246 52.7737 53.284C52.7557 53.6366 52.669 53.9806 52.5304 54.2613C52.257 54.8433 51.847 55.2866 51.347 55.6353C50.9724 55.892 50.5504 56.1086 49.9837 56.198C49.6697 56.238 49.401 56.2266 49.149 56.1826C48.893 56.138 48.645 56.066 48.4184 55.9646L48.433 55.9253Z" fill="#221F1F"/>
<path fill-rule="evenodd" clip-rule="evenodd" d="M58.4252 13.0079C57.2712 12.5672 56.0012 12.3159 54.7325 12.2892C54.5019 12.2899 54.2699 12.2959 54.0399 12.3126C53.8119 12.3406 53.5839 12.3679 53.3539 12.3806C52.5512 12.4626 51.7585 12.6199 51.0225 12.9032C50.2952 13.1939 49.6425 13.6319 49.1899 14.2206C48.8019 14.7472 48.5632 15.3986 48.6125 16.0759C48.6445 16.9466 48.9792 17.7759 49.1999 18.6926C49.2552 18.9799 48.8572 19.1452 48.3725 19.0666C48.1305 19.0266 47.8652 18.9239 47.6272 18.7499C47.5092 18.6632 47.3972 18.5599 47.3012 18.4392C47.2185 18.3099 47.1512 18.1632 47.1072 18.0026C46.7785 16.8979 46.6819 15.5586 47.1992 14.3292C47.7025 13.0972 48.7379 12.2092 49.7992 11.7412C51.0725 11.1759 52.3959 10.7846 53.7319 10.6939C55.1952 10.5959 56.6485 10.7692 58.0432 11.1552C58.9059 11.3772 59.7345 11.7339 60.5259 12.1572C61.6992 12.8252 62.8279 13.7779 63.3899 15.1099C63.8445 16.1219 63.9632 17.2839 63.7432 18.3692C63.6785 18.5986 63.6292 18.8299 63.5525 19.0612C63.4265 19.5006 63.2299 19.7199 63.0772 19.8692C62.9119 20.0092 62.7365 20.0412 62.5025 20.0066C62.3965 19.9906 62.2852 19.9846 62.1872 19.9519C61.8599 19.8366 61.7599 19.4099 61.9165 18.9006C62.0945 18.1319 62.2619 17.3832 62.1525 16.7159C62.0679 16.0492 61.8039 15.4479 61.3392 14.9032C60.6712 14.0812 59.5725 13.4599 58.4139 13.0479L58.4252 13.0079Z" fill="#221F1F"/>
<path fill-rule="evenodd" clip-rule="evenodd" d="M16.1393 59.6787C16.3347 61.0407 16.7693 62.3454 17.1407 63.6667L17.286 64.1614L17.4753 64.6394L17.854 65.5967L18.2327 66.5547L18.4213 67.034L18.654 67.4934C19.2873 68.7114 19.8627 69.964 20.6567 71.09C21.0413 71.6587 21.372 72.2667 21.8 72.804L23.0827 74.418L23.5513 75.0074L24.0767 75.5454L25.1333 76.6167C25.806 77.3654 26.6193 77.9587 27.3793 78.6114C32.8413 83.096 39.8067 85.7674 46.8967 86.1094C50.044 86.2647 53.2313 85.94 56.2647 85.1874C58.2253 84.738 60.112 84.0127 61.9613 83.2314L63.32 82.576L63.9987 82.2487L64.6547 81.878L65.972 81.1454L67.2407 80.334C68.296 79.6647 68.3 79.9374 67.5327 80.7194C67.14 81.096 66.5933 81.666 65.812 82.176C65.4287 82.4427 65.0047 82.7234 64.548 83.0127C64.0847 83.29 63.568 83.5347 63.0347 83.798C59.2333 85.636 55.064 86.6527 50.8593 86.9694C46.6453 87.2767 42.38 86.7067 38.3447 85.442C33.548 83.872 28.7953 81.3334 25.03 77.758L23.5387 76.2314C23.2967 75.9707 23.028 75.7347 22.808 75.4547L22.1433 74.6207C21.7047 74.0614 21.2493 73.5134 20.8247 72.944L19.6693 71.152C19.4787 70.852 19.28 70.5567 19.0973 70.2534L18.61 69.3047L17.638 67.4087L16.852 65.4287L16.4593 64.4387L16.1613 63.416L15.7973 62.1574C15.6807 61.7367 15.5373 61.3227 15.474 60.8894L14.9913 58.314C14.814 56.5787 14.6073 54.8407 14.6847 53.094C14.638 51.77 14.8333 50.4574 14.9653 49.142C15.0067 48.48 15.1727 47.8374 15.3027 47.1894L15.708 45.248L16.3047 43.3594C16.5107 42.7334 16.6733 42.0914 16.9627 41.4974C17.504 40.298 17.9427 39.0507 18.6373 37.9334C19.5913 36.1314 20.6687 34.422 21.916 32.8394C23.1507 31.2507 24.5033 29.7554 26.0033 28.4007C26.6567 27.7967 27.3253 27.238 28.034 26.686C29.3553 25.672 30.304 25.1107 30.9767 24.7394C31.6607 24.3834 32.082 24.2287 32.452 24.168C32.6193 24.1387 32.832 24.0847 32.9387 24.088C33.31 24.1207 32.1613 24.812 30.2073 26.1627C27.3133 28.1787 24.6747 30.7014 22.442 33.6034C21.892 34.3354 21.352 35.0787 20.8513 35.852C20.3233 36.61 19.9267 37.444 19.462 38.242C19.2393 38.646 19.006 39.0454 18.7913 39.454L18.244 40.7294C17.886 41.5827 17.474 42.4174 17.2373 43.3174L16.6173 45.2894C16.44 45.9547 16.3293 46.6374 16.1807 47.3114C15.8373 48.6527 15.7853 50.0414 15.618 51.4127C15.5033 54.168 15.57 56.96 16.16 59.668L16.1393 59.6787Z" fill="#221F1F"/>
</svg>
