<svg width="110" height="108" viewBox="0 0 110 108" fill="none" xmlns="http://www.w3.org/2000/svg">
<path d="M41.4916 1.3957C40.3901 3.11883 38.5542 10.356 35.8003 23.6815L33.7808 33.1013L19.0017 40.2236C2.0195 48.3797 0 49.7582 0 52.8598C0 56.5359 3.85542 58.6036 16.4314 61.4755C23.0407 62.9689 28.8238 64.4623 29.3746 64.9218C30.5679 65.8408 30.5679 75.3754 29.2828 91.5728C28.0895 106.736 28.4566 108 34.2398 108C36.2593 108 50.3958 103.635 65.5421 98.2356C80.7802 92.9513 96.0182 87.7819 99.5983 86.7481C107.217 84.5654 110.338 82.2679 109.971 79.2812C109.788 78.0175 105.84 72.8482 101.067 67.5639C96.2936 62.2796 86.1961 49.7582 78.6688 39.6492C55.6281 8.86259 53.7004 6.45021 50.5794 3.11883C47.4583 -0.212555 43.1439 -1.01669 41.4916 1.3957ZM58.4738 22.6476C64.4405 30.6889 73.2529 42.4062 78.0263 48.6095C82.7997 54.8127 86.8387 60.4416 87.0222 61.016C87.3894 62.0499 82.7997 59.5226 55.261 43.4401C43.1439 36.3178 39.4721 33.6757 39.7475 32.2972C43.3275 16.3295 45.6224 8.05847 46.5404 8.05847C47.0912 8.05847 52.4153 14.6064 58.4738 22.6476ZM66.919 57.1102C90.5105 71.9291 94.1823 74.6862 88.8582 73.882C71.0498 71.125 42.226 63.6581 33.0464 59.4077C29.7418 57.9144 24.234 55.9615 20.654 55.1574C17.1658 54.2383 13.8611 53.2045 13.4022 52.745C12.9432 52.2855 16.0642 49.8731 20.2868 47.5756C24.4176 45.1632 29.5582 42.0616 31.5777 40.6831L35.2495 38.2707L39.8393 40.5682C42.4096 41.9467 54.6184 49.2987 66.919 57.1102ZM44.8881 70.0911C51.4055 72.1589 85.8289 80.4299 88.3992 80.4299C90.7859 80.5448 86.2879 82.6126 76.1904 86.1737C70.4072 88.1266 58.9328 92.6067 50.6712 96.053C42.5014 99.4992 35.3413 102.256 34.7905 102.256C33.7808 102.256 33.8726 98.2356 35.4331 75.4903C35.7085 71.2399 36.3511 67.7936 36.9018 67.7936C37.3608 67.7936 41.0326 68.8275 44.8881 70.0911Z" fill="#B6D3E1"/>
</svg>
