<svg width="122" height="52" viewBox="0 0 122 52" fill="none" xmlns="http://www.w3.org/2000/svg">
<path d="M67.7804 1.02223C65.9134 2.80798 66.0758 4.35022 68.2674 5.89247C69.2414 6.623 78.4137 9.86983 88.6412 13.1978C98.9499 16.607 108.122 19.8538 109.177 20.5843C111.125 21.8019 111.125 21.8831 109.664 24.0747C108.853 25.3734 103.171 30.4871 97.0018 35.5197C90.3458 40.9581 85.7191 45.3414 85.3944 46.4777C84.5015 49.9681 85.3132 51.348 88.3165 51.5915C90.6705 51.7538 92.6186 50.9421 98.4628 47.2895C108.122 41.2017 116.239 34.4645 119.405 29.919C121.596 26.7533 122.002 25.4546 122.002 21.5584C122.002 17.4187 121.759 16.6882 119.243 14.0907C115.103 9.78865 111.207 8.32758 92.8621 4.26905C71.1084 -0.520008 69.4849 -0.763519 67.7804 1.02223Z" fill="#FF7F50"/>
<path d="M83.8498 19.8544C68.5898 20.5037 50.8134 22.046 40.0989 23.8317C10.0658 28.7019 2.43575 30.5689 0.731166 33.2475C0.162972 34.1404 -0.16171 35.0333 0.0818018 35.1956C0.812337 35.9261 8.3612 36.9002 11.121 36.6567C12.7444 36.4132 28.0856 34.8709 45.2938 33.0852C81.7394 29.2701 86.8531 28.5396 90.9928 26.4292C93.3468 25.2928 93.9961 24.4811 93.8338 23.1823C93.5091 20.8284 89.8565 19.6108 83.8498 19.8544Z" fill="#FF7F50"/>
</svg>
