<svg width="100" height="100" viewBox="0 0 100 100" fill="none" xmlns="http://www.w3.org/2000/svg">
<path fill-rule="evenodd" clip-rule="evenodd" d="M37.397 18.05C40.9384 16.8981 44.6693 19.4507 48.1031 20.8919C51.4909 22.3138 54.6761 24.1244 57.4922 26.4842C60.3608 28.8881 64.2238 31.1847 64.7991 34.8829C65.4319 38.95 61.0833 42.2926 60.5874 46.3786C60.2072 49.5106 62.2414 52.4537 62.2838 55.6084C62.3322 59.2151 62.5322 63.0487 60.8542 66.2415C59.1646 69.4562 56.3923 72.6306 52.8708 73.5185C49.1173 74.4649 45.3998 70.2794 41.6151 71.0924C37.6871 71.9362 35.8876 78.3461 31.8826 78.0271C28.1067 77.7263 26.7351 72.5964 24.2804 69.7116C22.3193 67.4067 21.1818 64.4154 18.7584 62.6028C15.3512 60.0545 9.76908 60.5875 7.37696 57.069C5.23511 53.9186 6.1317 49.3663 7.29261 45.7379C8.42831 42.1884 11.0803 39.29 13.8598 36.8074C16.3151 34.6142 19.7098 33.9415 22.484 32.1687C24.8462 30.6593 27.0514 29.0043 29.0871 27.0771C32.0826 24.2411 33.4743 19.3259 37.397 18.05Z" fill="#B6D3E1"/>
<path fill-rule="evenodd" clip-rule="evenodd" d="M44.4378 37.5105C43.1357 36.3125 41.7756 35.1496 40.3763 34.1949C40.2006 34.0618 40.031 33.98 39.8594 33.8807C39.6357 33.7652 39.7229 33.7706 39.6175 33.7726L38.3939 33.8476C38.1803 33.8625 37.9662 33.8692 37.7526 33.8895L37.1175 34.0064L35.8452 34.2382C34.6236 34.5618 33.4162 34.951 32.2452 35.455L31.4607 35.7618L30.7006 36.1307C30.1959 36.3821 29.6797 36.6118 29.183 36.8814C28.2047 37.4503 27.2047 37.9875 26.2729 38.6415C24.3641 39.878 22.5783 41.3132 20.8824 42.8429L19.7682 43.8821C19.4053 44.2375 19.0601 44.6118 18.708 44.9767C17.9918 45.6983 17.352 46.4861 16.6939 47.2469C15.056 49.251 13.6189 51.4044 12.229 53.5557C11.7898 54.2219 11.4817 53.955 11.4844 53.1632C11.4891 52.7692 11.5587 52.2314 11.7526 51.6375C11.9628 51.0571 12.2587 50.3942 12.6952 49.7564C14.2439 47.4949 16.0195 45.4165 17.9513 43.4922C19.8878 41.5733 21.9729 39.7942 24.2405 38.249C26.9486 36.4125 29.8776 34.5949 33.0857 33.474C34.8614 32.9172 36.6783 32.4219 38.5607 32.3287L39.2641 32.2841L39.6472 32.2598C39.7993 32.2659 40.004 32.1855 40.1506 32.3186L40.8736 32.7179C41.0898 32.8375 41.2682 32.98 41.4668 33.1111C41.8614 33.3713 42.231 33.651 42.5912 33.9375C42.9594 34.2179 43.3189 34.5057 43.6641 34.8057C45.3898 36.2598 47.0263 37.7942 48.6141 39.3726C51.0263 41.7564 53.327 44.2659 55.558 46.7807C57.2837 48.7436 59.0067 50.6469 60.6303 52.6706C60.9939 53.1111 61.3385 53.5523 61.6878 54.0105C62.9763 55.7159 63.2364 56.3713 63.1621 56.9672C63.1432 57.105 63.1418 57.2699 63.0972 57.3713C62.9445 57.7138 62.2371 57.1503 61.2932 55.9395C58.4216 52.3895 55.329 48.7044 52.0378 45.1598C49.5952 42.5328 47.083 39.9307 44.4155 37.5422L44.4378 37.5105Z" fill="#0B1F2A"/>
<path fill-rule="evenodd" clip-rule="evenodd" d="M60.2724 18.6544C59.3684 18.9031 58.4907 19.2274 57.6109 19.5504C56.7184 19.8456 55.8771 20.2592 55.0109 20.6213C54.3731 20.8767 53.8089 21.2706 53.192 21.5646C51.0555 22.6646 48.969 23.9146 47.1555 25.4977L46.5447 26.0173C46.344 26.1943 46.1744 26.4004 45.99 26.5929C45.6332 26.9875 45.2778 27.3815 44.9238 27.7727L43.7657 29.4308C43.4069 29.9977 43.0954 30.5842 42.6758 31.122C42.4217 31.4578 42.0657 31.2402 41.8859 30.7328C41.7042 30.2294 41.713 29.4085 42.1352 28.6578C43.7785 26.1139 46.038 24.0862 48.5366 22.5335C49.2684 22.0402 50.0386 21.5902 50.7994 21.1132C51.5467 20.6119 52.3501 20.2024 53.1393 19.7855C53.9988 19.3071 54.9211 18.9646 55.8109 18.5571C56.7102 18.1693 57.642 17.8652 58.5542 17.5152L60.2765 16.9794C60.8474 16.7916 61.4271 16.6362 62.0116 16.495L63.3339 16.1598C63.7771 16.0551 64.2278 15.9821 64.6731 15.8902C65.1197 15.8065 65.5629 15.7058 66.0102 15.6308C66.4589 15.5625 66.9069 15.4943 67.3535 15.4267C68.044 15.2963 68.7366 15.2159 69.4292 15.1233C69.7751 15.0787 70.1197 15.02 70.4684 14.9855L71.5204 14.922C71.8305 14.9051 72.1352 14.8733 72.4488 14.8652C73.619 14.9342 73.9852 15.0801 74.1724 15.5294C74.2156 15.6321 74.2751 15.7362 74.2927 15.8369C74.3515 16.1767 73.8629 16.4132 73.0704 16.4429C70.7082 16.5659 68.2339 16.8443 65.7548 17.3058C64.8407 17.5085 63.9123 17.6571 63.0055 17.9166L61.6366 18.2679L60.2873 18.6923L60.2724 18.6544Z" fill="#0B1F2A"/>
<path fill-rule="evenodd" clip-rule="evenodd" d="M81.5392 34.5366L79.4121 30.7967C79.154 30.3413 78.8689 29.9014 78.6182 29.4406C77.7446 27.8109 76.9013 26.1609 76.1459 24.4623C75.8128 23.7082 75.4669 22.9535 75.1669 22.1832C74.7817 21.2035 74.3851 20.1602 74.5067 19.0156C74.5459 18.6602 74.7655 18.7433 75.002 19.0069C75.2202 19.2724 75.5439 19.6819 75.7081 20.2042C76.2925 22.1001 77.254 23.9751 78.102 25.915C78.6223 27.0758 79.3385 28.194 79.9905 29.3224L82.1702 33.04L83.5378 35.319C84.2331 36.467 84.9155 37.6325 85.6263 38.7629C86.1777 39.644 86.7858 40.4677 87.3351 41.3474C87.452 41.544 87.5763 41.7312 87.6865 41.9339C88.1074 42.6839 88.0486 43.0251 87.8797 43.3041C87.8365 43.3697 87.8013 43.446 87.754 43.494C87.5979 43.6521 87.2743 43.4285 86.8635 42.9636C85.7696 41.519 84.7838 39.8859 83.754 38.2514C82.9973 37.0346 82.252 35.7967 81.5121 34.5555L81.5392 34.5366Z" fill="#0B1F2A"/>
<path fill-rule="evenodd" clip-rule="evenodd" d="M77.1862 46.3312C75.7781 46.8008 74.4071 47.4136 73.097 48.1406C72.6146 48.4008 72.1781 48.7332 71.7105 49.0156C70.0869 50.0521 68.5321 51.2325 67.1794 52.6292C66.5693 53.2393 66.0436 53.9325 65.5565 54.6325C64.9463 55.5481 64.4517 56.5224 63.8004 57.4123C63.5903 57.6859 63.2349 57.4629 63.0166 57.0102C62.8024 56.5623 62.7105 55.8542 63.0713 55.2744C64.295 53.1981 65.9328 51.3751 67.8517 49.9325C68.9963 49.0717 70.1254 48.1096 71.3659 47.3406C72.7267 46.4974 74.1612 45.7765 75.6484 45.194C76.5626 44.8339 77.5004 44.5352 78.445 44.271C79.8821 43.8852 81.3646 43.6521 82.847 43.5454C83.999 43.4717 85.1565 43.421 86.3389 43.6312C86.5997 43.6717 86.8571 43.7156 87.1153 43.8001C88.0747 44.1096 88.3092 44.4278 88.2605 44.8906C88.2497 44.9974 88.249 45.1102 88.218 45.2062C88.0977 45.5386 87.672 45.5629 87.0997 45.4231C85.3882 45.0015 83.4538 45.0062 81.5058 45.2886C80.0605 45.4974 78.6085 45.8663 77.2017 46.3683L77.1862 46.3312Z" fill="#0B1F2A"/>
<path fill-rule="evenodd" clip-rule="evenodd" d="M77.6055 47.4249C76.3656 47.9371 75.1636 48.5688 74.0129 49.2871C73.5933 49.5506 73.1947 49.8458 72.7879 50.1283C71.3413 51.11 69.9609 52.2066 68.692 53.4229C68.1244 53.958 67.6163 54.5566 67.1116 55.1384C66.4852 55.9026 65.8866 56.7012 65.392 57.5276C65.2413 57.7844 65.119 57.7066 65.0893 57.3965C65.0528 57.083 65.1508 56.5445 65.4555 56.0222C66.5386 54.1837 68.0427 52.6952 69.6731 51.3769C70.6548 50.5958 71.6406 49.7411 72.7028 49.0168C73.869 48.2235 75.094 47.5127 76.3724 46.908C77.1562 46.5316 77.9677 46.21 78.7933 45.9323C80.0447 45.5127 81.3542 45.2391 82.6677 45.131C83.6859 45.0485 84.7102 45.0134 85.7305 45.1931C85.9582 45.2154 86.1751 45.2702 86.3987 45.3249C86.8136 45.4289 87.0697 45.5519 87.2339 45.6729C87.3987 45.7911 87.4717 45.9087 87.5028 46.0593C87.517 46.1283 87.5427 46.2006 87.54 46.2627C87.5298 46.4702 87.1589 46.5053 86.6109 46.3695C85.7771 46.2181 84.9393 46.0857 84.0731 46.0654C83.2075 46.0573 82.3278 46.1262 81.4501 46.2735C80.1501 46.5093 78.8582 46.9121 77.617 47.4465L77.6055 47.4249Z" fill="#0B1F2A"/>
<path fill-rule="evenodd" clip-rule="evenodd" d="M76.6876 50.0695C76.1612 50.287 75.6261 50.487 75.1153 50.7458C74.595 50.985 74.0815 51.239 73.5842 51.5249C73.2166 51.7255 72.8626 51.9492 72.5112 52.1749C71.2315 52.9147 70.0355 53.7938 68.8828 54.7262C68.3984 55.1688 67.8896 55.5972 67.4646 56.0924C67.1855 56.4046 66.8923 56.7053 66.6193 57.0228C66.3504 57.3431 66.07 57.6539 65.7619 57.9438C65.3788 58.31 65.1889 57.3208 65.8017 56.512C66.9159 55.1276 68.2693 53.9553 69.7274 52.9404C70.1767 52.6539 70.6159 52.3384 71.0531 52.0154C71.5072 51.7161 71.9632 51.4147 72.4159 51.1154C72.9355 50.8228 73.4504 50.5215 73.9788 50.2458C74.5193 49.9917 75.0403 49.7019 75.5936 49.4782L76.6072 49.0505L77.643 48.6776C78.1605 48.4762 78.7092 48.3553 79.2389 48.1897C79.7822 48.0654 80.3213 47.9289 80.8673 47.8309C81.7146 47.6816 82.5565 47.5208 83.4355 47.5201C83.6288 47.5222 83.82 47.5134 84.0146 47.5296C84.7423 47.6134 84.9457 47.8194 85.0295 48.0681C85.049 48.1262 85.0788 48.1836 85.0842 48.2343C85.0936 48.3201 85.02 48.3809 84.8815 48.435C84.7436 48.4863 84.5423 48.5451 84.3099 48.5228C82.9099 48.508 81.4295 48.6728 79.9504 49.0397C79.3984 49.1519 78.8592 49.3478 78.3092 49.4938C77.774 49.6958 77.224 49.8593 76.6984 50.0911L76.6876 50.0695Z" fill="#0B1F2A"/>
<path fill-rule="evenodd" clip-rule="evenodd" d="M27.2242 65.8691C28.9579 67.2082 30.6579 68.5927 32.3228 70.0184C32.9282 70.5414 33.5654 71.0265 34.1532 71.5704C35.1998 72.5164 36.2107 73.5049 37.1998 74.5157C37.6971 75.017 38.1688 75.5481 38.6546 76.061L39.3539 76.8623L39.6877 77.2461C39.7309 77.2988 39.7884 77.3697 39.8363 77.436L39.9498 77.5832L40.2086 77.9042C40.2309 77.9258 40.2519 77.965 40.2742 77.9731C40.285 77.9407 40.2911 77.9069 40.2985 77.8745L40.3451 77.6738C40.3775 77.5407 40.4154 77.4089 40.4566 77.2826L40.5221 77.0968C40.5721 76.9751 40.6323 76.8319 40.6951 76.6988C41.0512 75.9251 41.5296 75.1745 42.1789 74.5637C42.8228 73.9508 43.6444 73.5116 44.4985 73.3312C45.0438 73.2305 45.0343 73.6691 44.7728 74.1684C44.5025 74.6819 44.0904 75.2697 43.5539 75.7272C42.9465 76.2427 42.4667 76.917 42.1086 77.7157C42.0944 77.7393 42.0404 77.8799 41.9958 77.9941C41.9498 78.1096 41.9032 78.2251 41.8661 78.3488C41.7829 78.5853 41.7167 78.8454 41.6485 79.1042L41.5424 79.4887C41.4681 79.5312 41.3938 79.5799 41.3201 79.6184L40.9343 79.6616L40.6816 79.6941L40.6215 79.7028C40.5992 79.5988 40.8052 80.6143 40.7174 80.1839H40.7154L40.7127 80.1826L40.7066 80.1799L40.6944 80.1745L40.6694 80.165L40.6208 80.1447L40.4248 80.0637L39.6485 79.7305C39.2593 79.2569 38.9052 78.792 38.5039 78.3272L37.912 77.6184C37.5343 77.1447 37.1181 76.6968 36.7228 76.2292C35.4546 74.7826 33.9161 73.4846 32.4323 72.1839C30.7951 70.7555 29.1154 69.3664 27.3978 68.0245C26.339 67.2001 25.2728 66.3832 24.1836 65.6008C22.5465 64.4069 20.8377 63.2684 19.1661 62.0981C17.8661 61.1954 16.5525 60.3576 15.285 59.4137C15.0052 59.2069 14.7242 59.011 14.4525 58.788C13.4444 57.9569 13.2235 57.5677 13.3221 57.0684C13.3451 56.9542 13.3539 56.8265 13.3971 56.7305C13.5485 56.4055 14.1005 56.5745 14.8451 57.113C17.0694 58.7022 19.4309 60.3691 21.8458 62.0089C23.6498 63.2062 25.4884 64.513 27.2458 65.8346L27.2242 65.8691Z" fill="#0B1F2A"/>
<path fill-rule="evenodd" clip-rule="evenodd" d="M41.7864 77.2308C42.0323 76.9038 42.2891 76.5849 42.5533 76.2714C42.6519 76.1592 42.733 76.0322 42.8337 75.9214C43.2013 75.5376 43.5965 75.1768 44.0357 74.8606C44.2317 74.72 44.4296 74.5774 44.6445 74.4491C44.9269 74.3146 45.2695 74.1356 45.6337 74.2754C45.7438 74.3092 45.6823 74.4707 45.5931 74.6362C45.4972 74.8045 45.4256 74.9599 45.3249 75.0092C44.9634 75.1437 44.508 75.447 44.0506 75.7707C43.7715 75.968 43.5634 76.2612 43.3404 76.5329C43.0884 76.8268 42.8479 77.1362 42.6175 77.4545C42.4722 77.6477 42.3377 77.8504 42.204 78.0518C42.0067 78.3619 41.806 78.6741 41.6438 79.0018C41.5121 79.2538 41.4486 79.5335 41.3452 79.7943C41.3229 79.8524 41.3087 79.9119 41.2823 79.9687C41.1857 80.1774 41.1033 80.22 40.8999 80.1815C40.8533 80.1727 40.8053 80.168 40.7614 80.1552C40.6127 80.1119 40.5357 79.9714 40.5587 79.7903C40.6094 79.2443 40.8492 78.7477 41.106 78.2599C41.308 77.9045 41.5384 77.5612 41.7688 77.2207L41.7864 77.2308Z" fill="#0B1F2A"/>
<path fill-rule="evenodd" clip-rule="evenodd" d="M29.9815 73.6136L26.0923 70.5616C25.6173 70.2001 25.12 69.8684 24.6362 69.5177C23.7821 68.9001 22.9139 68.2995 22.0362 67.7082C21.1605 67.115 20.2828 66.5197 19.3713 65.9839C18.5686 65.4974 17.7483 65.0285 16.9369 64.5704C15.8916 63.9853 14.8544 63.3799 13.8605 62.7022C13.5517 62.4886 13.6625 62.388 14.0105 62.4103C14.3571 62.4346 14.9517 62.5663 15.5713 62.8805C16.6754 63.4265 17.7423 64.0413 18.8058 64.6636C19.8693 65.2866 20.9342 65.9109 21.947 66.6285C23.1659 67.4738 24.4794 68.288 25.7159 69.1765C27.0794 70.1596 28.3632 71.2082 29.6862 72.215L32.1071 74.1136C33.322 75.0826 34.5119 76.0974 35.6686 77.1231C36.5652 77.9231 37.472 78.6846 38.3071 79.5393C38.497 79.7218 38.6754 79.9069 38.8565 80.1008C39.5017 80.8434 39.6315 81.1447 39.6098 81.4359C39.6031 81.5035 39.6071 81.5819 39.5882 81.6332C39.5267 81.8049 39.1619 81.594 38.6402 81.1157C37.0848 79.7049 35.5112 78.188 33.8233 76.7535C32.5713 75.6893 31.2821 74.6488 29.9686 73.6332L29.9815 73.6136Z" fill="#0B1F2A"/>
<path fill-rule="evenodd" clip-rule="evenodd" d="M29.8301 74.8594C28.5977 73.9979 27.3551 73.1479 26.0916 72.3269C25.6348 72.0215 25.1531 71.754 24.6923 71.4546C23.0707 70.3938 21.4294 69.3587 19.772 68.3492C19.0335 67.9067 18.2821 67.4769 17.5389 67.0546C16.5828 66.5114 15.6098 66.0053 14.6909 65.3729C14.4031 65.1715 14.5315 65.0709 14.8605 65.083C15.1828 65.0979 15.7315 65.21 16.2902 65.504C17.2828 66.0283 18.2767 66.5519 19.2511 67.1161C20.2227 67.685 21.1815 68.2803 22.1335 68.8959C23.2673 69.6404 24.5017 70.3256 25.672 71.0702C26.9585 71.8898 28.2342 72.7276 29.4916 73.5938C30.2734 74.1134 31.0288 74.6756 31.7977 75.2141C32.9497 76.0499 34.0855 76.9202 35.1889 77.8087C35.6294 78.1377 36.0375 78.5033 36.4619 78.8472L37.0943 79.3688L37.6848 79.9486C37.8571 80.1202 38.0274 80.2898 38.2011 80.4621C38.7734 81.1891 38.8815 81.4844 38.818 81.7492C38.8051 81.8094 38.8031 81.8776 38.7835 81.9188C38.7288 82.0486 38.3598 81.856 37.945 81.3952C36.6281 80.0769 35.0848 78.7925 33.4889 77.5479L31.6754 76.1918L29.8193 74.8783L29.8301 74.8594Z" fill="#0B1F2A"/>
<path fill-rule="evenodd" clip-rule="evenodd" d="M60.4096 27.5944C61.1278 27.2931 61.8711 27.0593 62.613 26.8431C62.8812 26.7572 63.1495 26.6714 63.4224 26.6032C64.3907 26.3789 65.3677 26.2154 66.3481 26.116C66.7839 26.0647 67.215 26.0126 67.6468 25.9613C67.9238 25.9363 68.2008 25.8985 68.4799 25.8802C68.7589 25.8748 69.0386 25.8856 69.317 25.9221C69.6609 25.9626 69.2251 26.6079 68.6191 26.6883C67.5299 26.7937 66.4515 26.9214 65.3501 27.0572C64.6886 27.1302 64.0326 27.3593 63.3853 27.5539C62.6718 27.7667 61.9684 28.0167 61.2772 28.2985C60.8528 28.4748 60.4292 28.6552 60.0211 28.866C59.3974 29.1755 58.7873 29.5221 58.2211 29.9187C57.7907 30.2417 57.4116 30.612 57.0353 30.9822L56.7927 31.2295C56.4826 31.5302 56.3339 31.5687 56.0738 31.4322C56.015 31.4012 55.9501 31.3755 55.8974 31.3383C55.7191 31.214 55.7332 30.9633 55.9393 30.689C56.5488 29.8762 57.3832 29.1931 58.2954 28.6505C58.9684 28.2404 59.6772 27.8863 60.3981 27.5721L60.4096 27.5944Z" fill="#0B1F2A"/>
<path fill-rule="evenodd" clip-rule="evenodd" d="M62.4879 33.5633C63.0216 33.2903 63.5723 33.0551 64.1244 32.8315C64.3237 32.7464 64.5169 32.6484 64.721 32.5741C65.4419 32.318 66.1737 32.1024 66.9075 31.9146C67.2311 31.8254 67.5541 31.7308 67.8716 31.6301C68.2784 31.5004 68.6906 31.3666 69.1277 31.3673C69.396 31.3565 69.1994 32.0518 68.7561 32.2187C67.95 32.47 67.148 32.7018 66.3183 32.9099C65.8189 33.0288 65.3473 33.2822 64.8723 33.4916C64.3487 33.7227 63.8304 33.9687 63.323 34.2376C63.0088 34.3991 62.698 34.5687 62.3966 34.7538C61.9392 35.0308 61.4831 35.3214 61.0689 35.6565C60.7521 35.9234 60.4845 36.2356 60.2068 36.5342C60.148 36.6011 60.0872 36.67 60.0291 36.7356C59.7939 36.9727 59.6676 36.9923 59.4244 36.8416C59.3689 36.8079 59.3095 36.7774 59.2595 36.7383C59.0879 36.6072 59.0696 36.3842 59.2149 36.1619C59.6412 35.4991 60.2541 34.9511 60.925 34.4903C61.4189 34.1403 61.9453 33.8342 62.4744 33.5423L62.4879 33.5633Z" fill="#0B1F2A"/>
<path fill-rule="evenodd" clip-rule="evenodd" d="M28.7946 47.2664C29.5588 46.6799 30.3385 46.1117 31.1541 45.5962C31.4514 45.4083 31.7324 45.1962 32.0392 45.0225C32.5777 44.7063 33.1284 44.4306 33.6554 44.1421C34.1912 43.8516 34.7338 43.5576 35.2906 43.2847C35.7845 43.0434 36.2824 42.7962 36.8014 42.5934C37.4588 42.3407 38.202 42.0948 38.9642 42.2745C39.2 42.3286 39.1149 42.5218 38.9196 42.7043C38.7203 42.8793 38.4493 43.0759 38.1156 43.1414C36.9007 43.3962 35.6993 44.0921 34.4514 44.7225C33.6953 45.1171 32.9588 45.6002 32.2554 46.0678C31.4743 46.5853 30.702 47.1232 29.9527 47.6955C29.4906 48.0462 29.0378 48.411 28.5946 48.7874C27.927 49.3617 27.2615 49.9495 26.6527 50.5799C26.177 51.0671 25.7581 51.5921 25.323 52.1056C25.2277 52.2198 25.1385 52.3347 25.0372 52.4448C24.6615 52.8516 24.4926 52.936 24.2277 52.8583C24.1669 52.8407 24.1014 52.8299 24.0493 52.8049C23.8737 52.7185 23.9081 52.4435 24.1304 52.0901C24.7933 51.0455 25.6331 50.0522 26.5824 49.161C27.2804 48.4914 28.0216 47.8597 28.777 47.2468L28.7946 47.2664Z" fill="#0B1F2A"/>
<path fill-rule="evenodd" clip-rule="evenodd" d="M53.8765 62.9702C53.865 63.7181 53.9157 64.4614 54.0697 65.1479C54.1008 65.3242 54.1535 65.4864 54.2083 65.6465C54.2535 65.8148 54.3231 65.9621 54.3941 66.1073C54.4535 66.2641 54.5475 66.383 54.6306 66.5127L54.6812 66.5945L54.7299 66.6391C54.7765 66.681 54.8265 66.7431 54.8643 66.7566C54.9576 66.8222 54.9765 66.8398 55.0143 66.831C55.0481 66.8526 55.0758 66.8242 55.1583 66.785C55.3285 66.6742 55.5515 66.4087 55.736 66.1175C56.1116 65.5141 56.4279 64.8039 56.7258 64.085C57.1684 63.031 57.5204 61.9276 58.0468 60.8303C58.2312 60.4519 58.4292 60.0722 58.7292 59.683C59.0542 59.2033 59.817 58.7526 60.4299 59.0783C61.6454 59.6681 61.9596 60.7587 62.0252 61.6614C62.09 62.583 61.9549 63.4411 61.7833 64.2715C61.6089 65.0999 61.3718 65.9073 61.1549 66.6864C61.0988 66.883 61.0542 67.0688 61.0103 67.2539C60.9535 67.4675 60.9069 67.6952 60.8373 67.8938C60.711 68.3066 60.5637 68.6931 60.4272 69.0789C59.8035 70.7566 59.3731 72.4877 59.6346 74.1735C59.7853 75.2512 60.2083 76.2722 60.7684 77.2161L61.2184 77.9512C61.3914 78.2431 61.5035 78.5249 61.6137 78.8006C61.8292 79.3479 62.0008 79.8884 62.2515 80.3283C62.4062 80.5931 62.4515 80.7134 62.3765 80.7945C62.3069 80.8661 62.0792 80.8621 61.7785 80.6654C61.4785 80.4762 61.1434 80.1073 60.8333 79.6607C60.6765 79.4391 60.5238 79.1965 60.3731 78.9648C60.2988 78.8479 60.2231 78.7411 60.1515 78.6411C60.0941 78.5769 59.9873 78.4235 59.886 78.2722C59.1475 77.2452 58.6123 76.0256 58.3745 74.7371C58.1339 73.4465 58.2204 72.1148 58.5002 70.883C58.7758 69.6539 59.2833 68.5039 59.6258 67.4654C59.6725 67.333 59.6954 67.2161 59.7333 67.0911L59.8488 66.6384L60.1035 65.7702C60.2731 65.206 60.4326 64.6512 60.5677 64.0952C60.7495 63.3343 60.8724 62.5492 60.8238 61.8202C60.8096 61.4512 60.7164 61.1222 60.5914 60.8384C60.5062 60.7181 60.4481 60.5722 60.3319 60.4904C60.2765 60.4479 60.2447 60.3769 60.1745 60.3499C60.0893 60.306 60.0981 60.3053 60.0745 60.2898C59.986 60.2289 59.8724 60.2729 59.8083 60.3485C59.8083 60.3485 59.6907 60.4871 59.6306 60.5803C59.5596 60.6925 59.4866 60.8053 59.4204 60.9323C59.1502 61.4343 58.9157 61.9958 58.6846 62.5587C58.0664 64.0215 57.5968 65.5553 56.6306 67.0229C56.363 67.3776 56.0745 67.7708 55.492 68.01C55.192 68.1012 54.8502 68.1249 54.561 68.0012C54.2643 67.8979 54.0569 67.7283 53.8819 67.5614C53.1779 66.7985 52.9502 65.9641 52.7785 65.1242C52.4292 63.0587 52.692 61.0398 53.0853 59.081C53.2765 58.1749 53.5191 57.2823 53.8299 56.3999C53.9096 56.1803 53.9934 55.9627 54.0806 55.7499L54.2846 55.26C54.3333 55.1438 54.3826 55.0256 54.4252 54.9046C54.4508 54.7958 54.5461 54.6296 54.4231 54.5526C54.1299 54.3411 53.7657 54.558 53.542 54.7735C53.4765 54.8404 53.438 54.8688 53.3529 54.9722C53.2637 55.0729 53.1758 55.1756 53.0961 55.2871C52.9292 55.5033 52.7758 55.735 52.6346 55.9742C51.5137 57.8938 50.9468 60.1073 50.8029 62.2803C50.7772 62.7607 50.7704 63.2289 50.7907 63.708C50.9049 65.4756 51.0184 66.0181 50.9103 66.4823C50.8873 66.5877 50.8785 66.7215 50.8468 66.7945C50.7934 66.9168 50.6603 66.8181 50.4468 66.5181C50.2441 66.2175 49.9752 65.7012 49.7988 64.9918C49.315 62.8688 49.5704 60.6208 50.2042 58.5026C50.5279 57.4384 50.9502 56.3945 51.538 55.3952C51.6833 55.1445 51.8454 54.8985 52.0197 54.6553C52.113 54.535 52.1961 54.4127 52.2981 54.2952L52.4508 54.1175C52.5049 54.0458 52.6137 53.9425 52.7096 53.8593C52.9049 53.6823 53.0961 53.4918 53.3083 53.3796C53.5157 53.2269 53.7231 53.1519 53.9306 53.0803C54.3373 52.9688 54.738 52.9621 55.1008 53.1229C55.2475 53.1945 55.3927 53.2735 55.538 53.3668C55.717 53.6262 55.8677 53.7323 55.8947 53.9904C55.9454 54.2242 55.8934 54.5526 55.7677 54.906C55.6583 55.2418 55.4833 55.6479 55.3664 55.9418L55.1576 56.4627C54.8968 57.1323 54.6893 57.8512 54.5103 58.5722C54.1549 60.0168 53.9312 61.5073 53.9083 62.9668L53.8765 62.9702Z" fill="#0B1F2A"/>
<path fill-rule="evenodd" clip-rule="evenodd" d="M47.2172 59.9456C47.1963 58.8145 47.2294 57.6781 47.374 56.5355C47.4247 56.1193 47.4632 55.6956 47.5611 55.2781C47.6699 54.8152 47.8213 54.351 48.0314 53.8976C48.1341 53.6713 48.2591 53.447 48.4118 53.2335C48.5557 53.0206 48.7233 52.824 49.0233 52.572C49.1037 52.5078 49.1963 52.4699 49.2895 52.4314C49.378 52.3787 49.4774 52.3625 49.5801 52.3585C49.7801 52.3497 49.9814 52.397 50.1625 52.4875C50.3355 52.5659 50.5301 52.7172 50.6355 52.8267C50.751 52.9409 50.853 53.0598 50.9382 53.1848C51.3693 53.774 51.6017 54.4287 51.7524 55.0848C51.9436 55.9233 52.0071 56.8172 51.7132 57.6247C51.6301 57.8781 51.4057 57.7929 51.1848 57.5497C51.074 57.4281 50.9618 57.2686 50.8733 57.0902C50.7801 56.9118 50.6801 56.7159 50.6875 56.5105C50.6625 55.7983 50.5179 55.1085 50.2767 54.499C50.1591 54.1983 50.0017 53.9145 49.8361 53.7179C49.7807 53.649 49.7943 53.6571 49.7828 53.6389C49.7753 53.6247 49.7639 53.6098 49.7497 53.597C49.7199 53.5666 49.6726 53.5571 49.6301 53.5733L49.6037 53.5828C49.5889 53.5733 49.5118 53.6605 49.4429 53.7254C49.3834 53.8064 49.3186 53.8835 49.2632 53.9726C49.153 54.1537 49.0584 54.3544 48.9807 54.5693C48.8253 54.999 48.7233 55.4679 48.6395 55.9416C48.4544 56.9855 48.3855 58.0774 48.3861 59.1706C48.3861 59.8436 48.4078 60.5206 48.4578 61.1949C48.5382 62.2166 48.6382 63.247 48.8307 64.249C48.9787 65.0281 49.2139 65.7733 49.4422 66.5199C49.4916 66.6848 49.5571 66.8409 49.5943 67.0105C49.7443 67.6314 49.7213 67.8476 49.4814 68.0618C49.4267 68.1098 49.3753 68.1686 49.3186 68.2051C49.128 68.3267 48.8706 68.1227 48.6571 67.6767C48.0307 66.3517 47.7348 64.8517 47.4976 63.347C47.3294 62.226 47.2361 61.0895 47.1875 59.9483L47.2172 59.9456Z" fill="#0B1F2A"/>
<path fill-rule="evenodd" clip-rule="evenodd" d="M44.6417 63.893C44.4241 63.164 44.2275 62.4275 44.0532 61.6809C43.9876 61.4093 43.8977 61.1424 43.845 60.8653C43.7572 60.3741 43.6903 59.8755 43.666 59.3559C43.6599 59.093 43.6667 58.8207 43.7086 58.5316C43.7842 58.1897 43.8849 57.964 44.0383 57.7099C44.1559 57.4991 44.4065 57.193 44.6957 57.087C44.9964 56.9667 45.3369 57.0316 45.6227 57.1822C45.9721 57.3748 46.164 57.5647 46.3782 57.7802C46.5842 57.9897 46.7349 58.2309 46.8525 58.489C46.9248 58.6518 46.7437 58.764 46.4755 58.7971C46.2146 58.8214 45.8255 58.8079 45.6268 58.6133C45.4498 58.4471 45.2525 58.287 45.1268 58.2201C45.1268 58.2201 45.1275 58.2025 45.1106 58.1937C45.1005 58.1944 45.095 58.1795 45.0687 58.2072C45.0221 58.2748 44.9667 58.3437 44.9173 58.4484C44.8498 58.5586 44.8484 58.6018 44.8072 58.6707C44.793 58.7768 44.7552 58.868 44.7471 58.9937C44.6802 59.5802 44.8761 60.2511 45.0194 60.8944C45.1802 61.6093 45.3694 62.3295 45.5829 63.0437C45.7153 63.4829 45.8525 63.9214 46.0032 64.3559C46.2349 65.0126 46.4633 65.6761 46.7511 66.3059C46.866 66.5593 46.9869 66.7633 47.1309 67.0363C47.2741 67.3268 47.3579 67.6282 47.4173 67.8991L47.4957 68.2329C47.5538 68.6147 47.4782 68.6782 47.2809 68.891L47.1498 69.0349C47.016 69.1903 46.7059 69.0944 46.493 68.7126C46.2275 68.1593 46.1802 67.7005 46.02 67.4397C45.8086 67.0349 45.5822 66.5329 45.393 66.0667C45.1025 65.3599 44.8572 64.6316 44.6146 63.9039L44.6417 63.893Z" fill="#0B1F2A"/>
<path fill-rule="evenodd" clip-rule="evenodd" d="M44.7033 70.3984C45.7574 71.4923 46.9561 72.4855 48.1682 73.4997C48.6094 73.8713 49.0756 74.218 49.5108 74.6072C51.0398 75.9849 52.4898 77.4612 53.7392 79.1112C54.2932 79.8416 54.8398 80.5862 55.3175 81.3673C55.9365 82.3605 56.5006 83.4369 56.6973 84.6146C56.7648 84.9801 56.5304 84.9842 56.2121 84.7686C55.9033 84.5457 55.4716 84.1382 55.1898 83.5828C54.2479 81.5673 52.8317 79.7943 51.3371 78.0322C50.4324 76.9795 49.3128 76.0504 48.2162 75.1389C47.0074 74.1315 45.7601 73.1247 44.5824 72.0159C43.8594 71.3335 43.175 70.5909 42.55 69.818C42.0804 69.2247 41.6324 68.6065 41.2567 67.9281C41.0655 67.5916 40.9047 67.2301 40.7797 66.8443C40.6729 66.4997 40.5594 65.8822 40.7939 65.4389C40.9743 65.0862 41.3716 64.9011 41.7608 64.9132C41.9588 64.897 42.1466 64.9768 42.3243 65.0713L42.5817 65.2389L42.7777 65.3869C43.252 65.7626 43.6621 66.1423 44.0838 66.5173C44.2669 66.6822 44.4561 66.8301 44.6304 67.0004C45.3006 67.595 45.3817 67.8639 45.4175 68.1828C45.4229 68.2572 45.4473 68.3382 45.4452 68.4018C45.4412 68.5092 45.3419 68.5524 45.1277 68.5355C44.9209 68.5139 44.6128 68.4308 44.302 68.2369C43.8513 67.9362 43.4392 67.6045 43.0561 67.2511C42.6777 66.9132 42.2783 66.5254 41.952 66.2653C41.8533 66.1842 41.8682 66.2024 41.8615 66.2024C41.8561 66.2031 41.8513 66.2045 41.8479 66.2085C41.8412 66.2146 41.8405 66.222 41.8419 66.2274C41.8466 66.2436 41.8405 66.2105 41.854 66.2585C41.8946 66.4261 41.9662 66.6241 42.0601 66.8268C42.6446 68.0518 43.6777 69.2991 44.7236 70.3747L44.7033 70.3984Z" fill="#0B1F2A"/>
<path fill-rule="evenodd" clip-rule="evenodd" d="M37.7468 47.3568C38.0144 47.1574 38.2867 46.9628 38.5658 46.7784C38.6698 46.7128 38.7556 46.6257 38.8644 46.5662C39.2374 46.3466 39.6333 46.1635 40.0252 45.9858C40.2036 45.9142 40.3705 45.8209 40.5475 45.7507C40.7685 45.648 40.9962 45.5432 41.2502 45.5392C41.4036 45.5297 41.3637 46.0811 41.1516 46.2054C40.955 46.3128 40.7624 46.4176 40.5597 46.5277C40.3516 46.6135 40.1441 46.7095 39.9218 46.7885C39.6577 46.8899 39.4374 47.0865 39.2029 47.25C38.9462 47.4338 38.6793 47.6095 38.4266 47.8068C38.2691 47.925 38.1131 48.048 37.9617 48.1757C37.7327 48.3703 37.5016 48.5662 37.2921 48.7811C37.1252 48.9446 37.011 49.1554 36.8455 49.3203C36.8097 49.3574 36.7786 49.3986 36.7401 49.4331C36.5928 49.5608 36.5097 49.5655 36.3691 49.473C36.3374 49.452 36.3036 49.4331 36.2746 49.4095C36.1786 49.3311 36.1631 49.1993 36.2225 49.0655C36.3833 48.652 36.6631 48.3149 36.9813 48.0027C37.2178 47.7723 37.4766 47.5574 37.7333 47.3426L37.7468 47.3568Z" fill="#0B1F2A"/>
<path fill-rule="evenodd" clip-rule="evenodd" d="M54.2543 47.4158C53.084 46.1198 51.8867 44.8462 50.6624 43.5989L49.2948 42.261C47.7083 40.6685 46.0854 39.1104 44.4218 37.5975C43.6806 36.93 42.9104 36.2874 42.1354 35.6752C41.6354 35.2847 41.1266 34.9029 40.6151 34.5333C40.1029 34.1766 39.6049 33.7536 39.109 33.4644C38.9658 33.382 38.9495 33.3394 38.9414 33.259C38.9394 33.1962 39.0475 33.1036 39.2563 33.0935C39.6631 33.0678 40.3489 33.2266 40.9732 33.6442C43.134 35.1847 45.109 36.8989 46.9867 38.7556C48.1049 39.8692 49.3313 40.9577 50.4779 42.0908C51.7381 43.3367 52.9698 44.6124 54.1786 45.9083C54.9205 46.7077 55.6563 47.5137 56.38 48.3286C57.4806 49.5604 58.5489 50.8306 59.6029 52.0874C60.4178 53.0671 61.2502 54.005 62.0313 55.0009C62.2043 55.2198 62.3752 55.4333 62.5421 55.6597C63.1543 56.5036 63.2293 56.8563 63.1745 57.159C63.159 57.23 63.1536 57.3137 63.1286 57.3658C63.0448 57.5394 62.6779 57.2779 62.1725 56.7164C60.7239 55.0164 59.2678 53.1833 57.732 51.3887C56.5948 50.055 55.4333 48.7273 54.2381 47.434L54.2543 47.4158Z" fill="#0B1F2A"/>
<path fill-rule="evenodd" clip-rule="evenodd" d="M24.654 65.2026C26.1108 66.2702 27.5472 67.3634 28.9614 68.483C29.4776 68.8925 30.006 69.2851 30.5162 69.7006C32.3067 71.177 34.0472 72.7141 35.7276 74.3148C36.4662 75.033 37.2324 75.7303 37.9472 76.4634C38.8831 77.3851 39.802 78.3445 40.5682 79.4215C40.8094 79.7553 40.6182 79.833 40.2452 79.6932C39.8662 79.5567 39.3277 79.1945 38.8182 78.656C37.0121 76.7391 35.102 74.9101 33.1479 73.0776C31.9804 71.979 30.656 70.9601 29.3702 69.9425C27.9587 68.8202 26.5249 67.7215 25.0668 66.656C24.1682 66.0026 23.2655 65.3526 22.3479 64.7283C20.9486 63.7857 19.5614 62.7979 18.2006 61.8134C17.1412 61.0486 16.0858 60.3182 15.0621 59.5168C14.8391 59.3378 14.6094 59.1756 14.3972 58.979C13.5925 58.2702 13.4195 57.9506 13.404 57.6398C13.402 57.5675 13.3871 57.4844 13.3993 57.429C13.4439 57.2405 13.8466 57.4418 14.4749 57.8871C16.3033 59.2459 18.2148 60.6938 20.202 62.0776C21.6662 63.108 23.1776 64.1161 24.6662 65.1824L24.654 65.2026Z" fill="#0B1F2A"/>
<path fill-rule="evenodd" clip-rule="evenodd" d="M30.1959 74.9071C29.0182 74.0416 27.829 73.1889 26.6189 72.3632C26.1817 72.0571 25.7196 71.7862 25.2784 71.4862C23.725 70.4186 22.1527 69.3767 20.5628 68.3612C19.8547 67.9152 19.1324 67.4821 18.4189 67.0578C17.5 66.5118 16.5628 66.0017 15.6824 65.374C15.4067 65.1753 15.5338 65.0706 15.8567 65.0808C16.1757 65.0922 16.7101 65.2044 17.25 65.4997C18.2067 66.026 19.1642 66.553 20.1 67.1213C21.0324 67.6936 21.9527 68.2929 22.8642 68.9125C23.95 69.6625 25.1365 70.3524 26.2588 71.1017C27.4912 71.926 28.7128 72.7686 29.9162 73.6375C30.6655 74.1591 31.3865 74.724 32.1236 75.2625C33.225 76.1003 34.3094 76.972 35.3655 77.8564C35.7878 78.1841 36.1743 78.5524 36.5838 78.8909C36.9959 79.2247 37.3878 79.5868 37.7547 79.9808C37.9203 80.1497 38.0838 80.3166 38.25 80.4862C38.7946 81.2024 38.8993 81.4862 38.827 81.751C38.8128 81.8105 38.8088 81.8781 38.7878 81.9193C38.7297 82.049 38.3655 81.8639 37.9628 81.4132C36.6871 80.122 35.223 78.8368 33.6926 77.5997L31.9594 76.2429L30.1844 74.926L30.1959 74.9071Z" fill="#0B1F2A"/>
<path fill-rule="evenodd" clip-rule="evenodd" d="M58.8565 81.2241C58.4193 81.4431 57.9727 81.6302 57.5193 81.7971C57.3531 81.8572 57.2004 81.9471 57.0294 81.9958C56.4294 82.1735 55.8011 82.2816 55.1402 82.2613C54.8477 82.2471 54.5382 82.2363 54.2146 82.1086C54.0098 82.0343 53.7916 81.8809 53.6632 81.6701C53.5261 81.4599 53.5004 81.2181 53.5409 81.0174C53.5639 80.8843 53.7821 80.9235 54.0058 80.9897C54.2234 81.0654 54.4619 81.1194 54.4984 81.1329C54.5227 81.166 54.5517 81.1539 54.5963 81.1782C54.6524 81.1917 54.7328 81.2187 54.8504 81.2235C55.074 81.2451 55.3652 81.2322 55.6713 81.2187C56.045 81.2072 56.4092 81.0289 56.7734 80.889C57.1774 80.7363 57.5815 80.5633 57.9727 80.3626C58.2112 80.237 58.4517 80.1093 58.6761 79.9586C59.0166 79.7349 59.3598 79.5005 59.6254 79.2045C59.8294 78.9755 59.9571 78.687 60.0362 78.439C60.0517 78.3843 60.0511 78.3282 60.0707 78.2795C60.1193 78.1059 60.193 78.1099 60.5389 78.1025L60.774 78.0937C61.0321 78.0782 61.2463 78.2532 61.2315 78.5512C61.1619 79.416 60.6294 79.9741 60.1186 80.4167C59.7281 80.7451 59.3011 81.0059 58.8727 81.2491L58.8565 81.2241Z" fill="#0B1F2A"/>
<path fill-rule="evenodd" clip-rule="evenodd" d="M59.5452 82.0098C59.5405 82.0193 59.5364 82.0321 59.5337 82.0476C59.5337 82.0638 59.5276 82.047 59.5344 82.1017L59.5655 82.3159C59.5864 82.4679 59.6107 82.5983 59.6263 82.8132C59.6263 82.876 59.6391 82.9152 59.6155 83.0794C59.6013 83.1368 59.6067 83.1429 59.5695 83.2388C59.5053 83.372 59.4337 83.4767 59.277 83.5645C59.108 83.6801 58.7756 83.6341 58.7776 83.6145C58.7074 83.5916 58.6384 83.5584 58.5783 83.5179C58.3655 83.3456 58.3851 83.324 58.2844 83.2044C58.058 82.8422 58.058 82.6051 58.0047 82.403C57.9634 82.1956 57.9276 82.0064 57.8824 81.847C57.8634 81.7767 57.8398 81.7138 57.8168 81.672C57.8107 81.6125 57.7398 81.6287 57.8107 81.5787C57.9303 81.4395 57.8952 81.4334 57.9013 81.4774C57.8966 81.5118 57.9013 81.6118 57.9249 81.649L57.8945 81.5247L57.8837 81.4943C57.8695 81.4666 57.8668 81.4611 57.8668 81.4611C57.8445 81.4334 57.8945 81.5017 58.0209 81.5503C58.029 81.549 58.0087 81.576 58.0047 81.6179C57.9891 81.7017 57.9905 81.8314 58.0026 81.9652C58.0094 82.0355 58.0155 82.0949 58.029 82.1807L58.1033 82.5672C58.158 82.824 58.2168 83.0801 58.2499 83.3111C58.3162 83.7909 58.2499 84.0483 58.1378 84.2855C58.106 84.3443 58.0601 84.4132 57.9702 84.4571C57.8824 84.4983 57.7979 84.4997 57.7229 84.4902C57.5722 84.4706 57.4432 84.4111 57.3026 84.3287C57.2837 84.3213 57.2641 84.3064 57.2445 84.2949C56.9952 84.1564 56.6878 83.8402 56.4074 83.4794C56.277 83.3145 56.1047 83.1017 56.0189 83.0213C55.977 82.9801 55.9303 82.9368 55.9026 82.9186C55.8939 82.9118 55.8939 82.9145 55.8898 82.9105C55.8898 82.899 55.9445 82.8206 55.952 82.7679C55.9912 82.6794 55.9493 82.6388 55.9783 82.674C56.0074 82.7084 56.0486 82.7206 56.1337 82.7557C56.2425 82.7801 56.1945 82.7733 56.2047 82.7841C56.204 82.801 56.2013 82.8307 56.204 82.8666C56.2074 82.9348 56.2148 83.0057 56.231 83.078C56.2607 83.2226 56.3114 83.3713 56.3736 83.5193C56.5067 83.8118 56.633 84.1307 56.7925 84.4456C56.8871 84.6429 56.7439 84.726 56.4776 84.6794C56.2236 84.6274 55.7932 84.4591 55.5526 84.0287C55.4222 83.7706 55.3114 83.4848 55.2567 83.1537C55.2371 82.9726 55.2094 82.8483 55.256 82.5611C55.2803 82.4753 55.2939 82.374 55.4263 82.2051C55.4851 82.1294 55.627 82.022 55.7472 81.9882C55.8121 81.9679 55.8817 81.9557 55.9486 81.953C56.0087 81.951 56.0439 81.9564 56.0932 81.9638C56.4209 82.0436 56.458 82.1314 56.5547 82.1916C56.6297 82.2537 56.6884 82.3111 56.7405 82.3638C56.7979 82.4213 56.781 82.4084 56.7864 82.4166L56.7905 82.4368C56.7959 82.4578 56.8033 82.4767 56.8297 82.5314C56.8486 82.5557 56.8857 82.6334 56.9486 82.6638C56.9993 82.676 57.0141 82.6638 57.0364 82.6395C57.0547 82.6152 57.054 82.5618 57.0479 82.499L56.9898 82.1226C56.9628 81.8625 56.9087 81.5976 57.031 81.2003C57.0884 81.0057 57.2844 80.7497 57.5337 80.6578C57.6547 80.603 57.7689 80.5963 57.8878 80.5855C58.0114 80.5916 58.1628 80.6084 58.2736 80.6747C58.6121 80.8578 58.7134 81.1105 58.7986 81.2929C58.877 81.4855 58.9162 81.6571 58.9567 81.8253L59.0533 82.2943C59.0689 82.3672 59.0851 82.4328 59.1013 82.4902C59.1182 82.5449 59.1222 82.5557 59.1405 82.5895L59.1864 82.6503C59.1864 82.6503 59.1979 82.6652 59.1918 82.6584L59.1891 82.6564L59.1499 82.6983C59.1236 82.7274 59.0993 82.7584 59.0763 82.7909C59.027 82.872 58.9972 82.8841 58.981 82.928C58.9668 82.9861 58.9614 82.9848 58.9662 82.9956C58.9837 82.9348 58.4202 82.928 58.5743 82.9145L58.5668 82.8145L58.4898 82.2841C58.4175 81.8422 58.3634 81.3436 58.4121 80.9679C58.4607 80.5841 58.5594 80.2855 58.8033 80.047C58.8533 80.0037 58.9094 79.9652 58.9702 79.9307C59.0344 79.8956 59.1033 79.8564 59.1371 79.8875C59.2222 79.9145 59.3013 79.9497 59.3864 79.9821C59.5256 80.1483 59.6662 80.3118 59.8114 80.499L60.2472 81.1152C60.3175 81.2125 60.4006 81.3307 60.4628 81.4051C60.5134 81.4713 60.5648 81.5267 60.6155 81.5828C60.6641 81.6314 60.7216 81.6888 60.758 81.7091C60.7729 81.7179 60.806 81.7429 60.7905 81.728C60.783 81.7334 60.7648 81.8105 60.7695 81.8544C60.7675 81.8713 60.7614 81.8632 60.7621 81.8767C60.7621 81.8807 60.7641 81.8882 60.7668 81.8922C60.758 81.8713 60.7472 81.853 60.7344 81.8375C60.7114 81.8071 60.6689 81.7807 60.6472 81.7794C60.6466 81.776 60.6526 81.7449 60.6587 81.7314C60.6634 81.6895 60.6729 81.6402 60.6628 81.5841C60.654 81.4753 60.5925 81.3375 60.5249 81.2044C60.3797 80.9294 60.1634 80.653 59.9668 80.3166C59.8797 80.1693 59.7844 80.0111 59.7229 79.801C59.6641 79.6078 59.6547 79.397 59.6993 79.2145C59.7499 79.0422 59.8351 78.8882 59.927 78.826C60.1094 78.6672 60.2628 78.7017 60.404 78.7787C60.4668 78.8138 60.5317 78.8456 60.5743 78.8895C60.7162 79.0226 60.5959 79.3909 60.6871 79.4138C60.7195 79.4557 60.8182 79.6801 60.9952 79.926C61.1621 80.1787 61.3662 80.453 61.5432 80.8402C61.6297 81.0294 61.7128 81.2679 61.729 81.5686C61.7344 81.7179 61.7175 81.8868 61.6682 82.0578C61.6371 82.1483 61.5993 82.2375 61.5574 82.3233C61.4662 82.4591 61.3418 82.603 61.1675 82.6929C60.9553 82.7963 60.6675 82.8071 60.558 82.7618C60.4824 82.7436 60.408 82.7193 60.3384 82.6895C60.2878 82.6652 60.2574 82.6443 60.2168 82.6199C60.0432 82.5145 59.981 82.4388 59.8803 82.3497C59.8101 82.2726 59.7276 82.1888 59.6702 82.1152L59.6236 82.0584C59.6128 82.0456 59.6229 82.0571 59.6195 82.053V82.0537C59.6195 82.0537 59.6209 82.051 59.6175 82.0382C59.6114 82.0003 59.5776 81.9983 59.5749 82.0274L59.5452 82.0098Z" fill="#0B1F2A"/>
</svg>
