<svg width="48" height="48" viewBox="0 0 48 48" fill="none" xmlns="http://www.w3.org/2000/svg">
<path d="M23.1695 10.1193C22.5004 10.3981 16.938 13.005 14.4566 14.2179C11.7382 15.5283 11.2642 15.8629 10.9854 16.5878C10.8878 16.8527 10.832 19.4874 10.832 24.4085C10.832 31.8249 10.832 31.8249 11.1527 32.4383C11.3757 32.8984 11.6266 33.1493 12.0867 33.3723C14.4427 34.5294 22.9465 38.4607 23.3926 38.5861C23.8108 38.7116 24.1175 38.7255 24.6054 38.6001C25.3443 38.4328 36.1204 33.3863 36.5386 33.0099C37.1799 32.4523 37.1799 32.4801 37.1799 24.4643C37.1938 20.296 37.152 16.7551 37.0962 16.6157C36.8174 15.8489 36.4131 15.5283 34.5451 14.6361C32.4122 13.6184 27.3796 11.2764 25.6649 10.4957C24.5357 9.99386 23.769 9.88234 23.1695 10.1193ZM25.3164 12.7959L26.5153 13.3675L25.7485 13.716C22.4028 15.2077 17.663 17.4382 17.663 17.5079C17.663 17.5497 18.1091 17.8006 18.6667 18.0516C19.531 18.4419 19.6425 18.5255 19.4334 18.6789C19.2382 18.8183 19.1964 19.1808 19.1685 20.9373L19.1267 23.0284L18.6527 22.2616C18.3879 21.8434 18.1509 21.467 18.123 21.4391C18.0951 21.3973 17.8721 21.5785 17.6211 21.8155C17.3702 22.0665 17.1193 22.2616 17.0635 22.2616C17.0077 22.2616 16.9659 21.3137 16.9659 20.1427C16.9659 18.414 17.0077 17.9819 17.189 17.7867C17.3841 17.5636 17.3563 17.5218 16.7847 17.1872C16.4501 16.9921 16.1295 16.8248 16.0877 16.8248C16.0319 16.8248 15.8088 16.7133 15.5719 16.5739L15.1536 16.309L17.9696 14.9986C19.531 14.2736 21.4548 13.3675 22.2634 12.9632C23.0719 12.5729 23.8108 12.2383 23.9223 12.2383C24.0199 12.2244 24.6472 12.4892 25.3164 12.7959ZM31.2551 15.5283C32.1333 15.9744 32.8583 16.3787 32.8583 16.4205C32.8583 16.4763 32.3425 16.7272 31.7291 16.9781C30.7532 17.3685 30.6278 17.4521 30.8229 17.5915C31.0181 17.7449 31.046 18.0516 31.0181 20.0311L30.9763 22.3035L30.5023 21.8574C30.2374 21.6204 30.0144 21.4391 30.0004 21.4531C29.9725 21.481 29.7356 21.8713 29.4567 22.3313C29.1779 22.7914 28.9549 23.0981 28.9409 23.0284C28.9409 22.9447 28.9409 22.1641 28.9409 21.2858C28.9409 19.2226 28.8434 18.7207 28.4112 18.6649C28.216 18.6371 27.2402 18.9995 26.0692 19.5432L24.0478 20.4912L22.6398 19.836C20.2838 18.7486 20.3814 18.8741 21.4269 18.3861C26.7523 15.9047 29.3313 14.7337 29.4707 14.7337C29.5683 14.7337 30.3768 15.0961 31.2551 15.5283ZM34.9494 24.6594L34.9354 31.3928L34.0014 31.811C33.4856 32.034 31.3387 33.0517 29.2337 34.0554C26.7104 35.2683 25.3721 35.8398 25.3024 35.7283C25.2606 35.6447 25.2327 32.6056 25.2327 28.9671L25.2606 22.3592L26.4456 21.8295C27.1008 21.5367 27.6723 21.2997 27.742 21.2997C27.7978 21.2858 27.8396 22.0246 27.8396 22.9447C27.8396 25.3007 27.742 25.2589 30.5441 23.9345L32.1612 23.1678V21.2021V19.2226L32.6213 19.0135C34.3778 18.177 34.8797 17.94 34.9215 17.94C34.9354 17.94 34.9494 20.9652 34.9494 24.6594ZM14.4705 18.6231C15.1676 18.9298 15.767 19.2086 15.8088 19.2505C15.8507 19.2783 15.8646 20.1984 15.8646 21.2719L15.8367 23.2375L16.6453 23.5999C18.346 24.3806 19.6843 24.9104 19.9074 24.9104C20.2559 24.9104 20.3117 24.6315 20.3117 22.889V21.2997L21.4548 21.7877C22.0821 22.0525 22.6816 22.3453 22.7792 22.4289C22.9186 22.5404 22.9604 23.9763 22.9604 29.2459C22.9604 32.9262 22.9325 35.9235 22.9046 35.9235C22.8628 35.9235 22.0264 35.5471 21.0505 35.0731C20.0747 34.6131 18.7643 33.9997 18.1648 33.7209C17.5514 33.442 16.1713 32.7868 15.0979 32.285L13.1322 31.3788V24.7291C13.1322 21.0767 13.1462 18.0794 13.1601 18.0794C13.188 18.0794 13.7735 18.3304 14.4705 18.6231Z" fill="#0B1F2A"/>
<path d="M6.92911 20.491C6.66424 20.6164 6.56666 20.7977 6.53877 21.174C6.46907 21.9129 6.87335 22.136 8.18377 22.1081C9.22932 22.0802 9.71724 21.8432 9.71724 21.3553C9.71724 20.9789 9.39661 20.477 9.10385 20.3934C8.57411 20.254 7.29157 20.3097 6.92911 20.491Z" fill="#0B1F2A"/>
<path d="M38.7403 20.5338C38.5312 20.6732 38.4336 20.8823 38.4336 21.2169C38.4336 21.9 38.8239 22.123 40.0089 22.123C40.8314 22.123 40.9987 22.0812 41.2914 21.7745C41.4866 21.5933 41.6399 21.3424 41.6399 21.2169C41.6399 21.0914 41.4866 20.8405 41.2914 20.6593C40.9987 20.3526 40.8314 20.3108 40.0089 20.3108C39.3676 20.3108 38.9494 20.3805 38.7403 20.5338Z" fill="#0B1F2A"/>
<path d="M4.30743 23.7389C3.87527 24.0456 3.90315 24.6729 4.36319 25.0354C4.69777 25.3002 4.92082 25.3281 6.81675 25.3281C8.01564 25.3281 9.01937 25.2724 9.17272 25.1748C9.74428 24.882 9.78611 23.9759 9.24242 23.6274C9.15878 23.5716 8.08535 23.5158 6.85857 23.5158C5.06022 23.5158 4.55836 23.5577 4.30743 23.7389Z" fill="#0B1F2A"/>
<path d="M39.0633 23.6134C38.422 23.7668 38.2268 24.5614 38.7147 25.0493C38.9657 25.3002 39.1748 25.3281 41.1404 25.3281C43.0921 25.3281 43.3152 25.3002 43.6497 25.0354C44.0819 24.6869 44.1237 24.185 43.7334 23.7947C43.4824 23.5437 43.2873 23.5158 41.4053 23.5298C40.2622 23.5437 39.2166 23.5716 39.0633 23.6134Z" fill="#0B1F2A"/>
<path d="M5.0603 27.0853C4.75361 27.3781 4.78149 28.0194 5.08819 28.2982C5.2973 28.4933 5.67369 28.5352 7.24899 28.5352C8.97763 28.5352 9.18674 28.5073 9.43767 28.2563C9.77225 27.9218 9.78619 27.5872 9.49343 27.169C9.29826 26.8762 9.18674 26.8623 7.27687 26.8623C5.64581 26.8623 5.24153 26.9041 5.0603 27.0853Z" fill="#0B1F2A"/>
<path d="M38.6009 27.0298C38.5033 27.1274 38.4336 27.3923 38.4336 27.6153C38.4336 28.4239 38.5451 28.4657 40.4689 28.5075C42.5043 28.5633 42.811 28.5075 43.1177 28.0614C43.3128 27.7548 43.3128 27.685 43.1037 27.2947L42.8807 26.8625H40.8314C39.4094 26.8625 38.7124 26.9183 38.6009 27.0298Z" fill="#0B1F2A"/>
<path d="M6.78929 30.3469C6.49653 30.6397 6.46865 30.793 6.59412 31.267C6.73352 31.7967 7.79301 32.0337 8.99191 31.7967C9.675 31.6573 9.92593 30.8348 9.43801 30.3469C9.21496 30.1239 8.97797 30.0681 8.11365 30.0681C7.24933 30.0681 7.01234 30.1239 6.78929 30.3469Z" fill="#0B1F2A"/>
<path d="M38.7403 30.2906C38.5312 30.4301 38.4336 30.6392 38.4336 30.9737C38.4336 31.629 38.8379 31.8799 39.8695 31.8799C40.9847 31.8799 41.5005 31.6011 41.5005 30.9737C41.5005 30.3046 41.1102 30.0676 39.9671 30.0676C39.3676 30.0676 38.9494 30.1373 38.7403 30.2906Z" fill="#0B1F2A"/>
</svg>
