<svg width="59" height="42" viewBox="0 0 59 42" fill="none" xmlns="http://www.w3.org/2000/svg">
<path d="M27.957 0.174023C26.9812 0.580624 18.8694 4.38235 15.2507 6.15107C11.2863 8.06211 10.5951 8.55003 10.1885 9.6072C10.0462 9.99347 9.96484 13.8359 9.96484 21.0124C9.96484 31.828 9.96484 31.828 10.4324 32.7225C10.7577 33.3934 11.1237 33.7594 11.7946 34.0847C15.2303 35.7721 27.6317 41.5052 28.2823 41.6881C28.8922 41.8711 29.3394 41.8914 30.051 41.7085C31.1285 41.4645 46.8437 34.105 47.4536 33.5561C48.3888 32.7429 48.3888 32.7835 48.3888 21.0937C48.4091 15.015 48.3481 9.85116 48.2668 9.64785C47.8602 8.5297 47.2706 8.06211 44.5464 6.76098C41.4359 5.27688 34.0967 1.86142 31.5961 0.722935C29.9493 -0.00894928 28.8312 -0.171593 27.957 0.174023ZM31.0878 4.0774L32.8362 4.91094L31.7181 5.41919C26.8388 7.59452 19.9266 10.8473 19.9266 10.949C19.9266 11.01 20.5772 11.3759 21.3904 11.7419C22.6508 12.3111 22.8135 12.4331 22.5085 12.6567C22.2239 12.86 22.1629 13.3886 22.1223 15.9502L22.0613 18.9997L21.37 17.8816C20.9838 17.2717 20.6382 16.7227 20.5975 16.6821C20.5568 16.6211 20.2316 16.8854 19.8656 17.231C19.4997 17.5969 19.1337 17.8816 19.0524 17.8816C18.9711 17.8816 18.9101 16.4991 18.9101 14.7914C18.9101 12.2704 18.9711 11.6402 19.2354 11.3556C19.52 11.0303 19.4793 10.9693 18.6458 10.4814C18.1579 10.1968 17.6903 9.95281 17.6293 9.95281C17.548 9.95281 17.2227 9.79017 16.8771 9.58686L16.2672 9.20059L20.3739 7.28956C22.6508 6.2324 25.4564 4.91094 26.6355 4.32137C27.8147 3.75212 28.8922 3.2642 29.0548 3.2642C29.1971 3.24387 30.112 3.63014 31.0878 4.0774ZM39.7485 8.06211C41.0293 8.71267 42.0864 9.30224 42.0864 9.36323C42.0864 9.44455 41.3342 9.8105 40.4397 10.1764C39.0166 10.7457 38.8336 10.8677 39.1182 11.071C39.4029 11.2946 39.4435 11.7419 39.4029 14.6287L39.3419 17.9425L38.6506 17.292C38.2644 16.9464 37.9391 16.6821 37.9188 16.7024C37.8781 16.7431 37.5325 17.3123 37.1259 17.9832C36.7193 18.6541 36.394 19.1014 36.3737 18.9997C36.3737 18.8777 36.3737 17.7392 36.3737 16.4584C36.3737 13.4496 36.2314 12.7177 35.6011 12.6364C35.3165 12.5957 33.8934 13.1243 32.1857 13.9172L29.2378 15.2996L27.1845 14.3441C23.7487 12.7584 23.891 12.9413 25.4157 12.2298C33.1818 8.61102 36.9429 6.90329 37.1462 6.90329C37.2885 6.90329 38.4677 7.43187 39.7485 8.06211ZM45.1359 21.3783L45.1156 31.1978L43.7535 31.8077C43.0013 32.133 39.8704 33.6171 36.8006 35.0808C33.1208 36.8496 31.1692 37.6831 31.0675 37.5204C31.0065 37.3985 30.9659 32.9665 30.9659 27.6603L31.0065 18.0239L32.7346 17.2513C33.6901 16.8244 34.5236 16.4788 34.6253 16.4788C34.7066 16.4584 34.7676 17.5359 34.7676 18.8777C34.7676 22.3135 34.6253 22.2525 38.7116 20.3212L41.0699 19.203V16.3365V13.4496L41.7408 13.1446C44.3024 11.9248 45.0343 11.5792 45.0953 11.5792C45.1156 11.5792 45.1359 15.9909 45.1359 21.3783ZM15.271 12.5754C16.2875 13.0227 17.1617 13.4293 17.2227 13.4902C17.2837 13.5309 17.304 14.8727 17.304 16.4381L17.2634 19.3047L18.4425 19.8332C20.9228 20.9717 22.8745 21.7443 23.1998 21.7443C23.708 21.7443 23.7893 21.3377 23.7893 18.7964V16.4788L25.4564 17.1903C26.3713 17.5766 27.2454 18.0035 27.3878 18.1255C27.5911 18.2882 27.652 20.3822 27.652 28.0669C27.652 33.4341 27.6114 37.8051 27.5707 37.8051C27.5097 37.8051 26.2899 37.2562 24.8668 36.5649C23.4437 35.894 21.5327 34.9995 20.6585 34.5929C19.764 34.1863 17.7513 33.2308 16.1859 32.4989L13.3193 31.1775V21.48C13.3193 16.1535 13.3396 11.7825 13.36 11.7825C13.4006 11.7825 14.2545 12.1485 15.271 12.5754Z" fill="#F6F6F6"/>
<path d="M4.27162 15.298C3.88535 15.481 3.74304 15.7453 3.70238 16.2942C3.60073 17.3717 4.1903 17.697 6.10133 17.6563C7.62609 17.6157 8.33765 17.2701 8.33765 16.5585C8.33765 16.0096 7.87005 15.2777 7.44312 15.1557C6.67058 14.9524 4.80021 15.0338 4.27162 15.298Z" fill="#F6F6F6"/>
<path d="M50.6621 15.3616C50.3572 15.5649 50.2148 15.8698 50.2148 16.3577C50.2148 17.3539 50.7841 17.6792 52.5121 17.6792C53.7116 17.6792 53.9556 17.6182 54.3825 17.1709C54.6671 16.9067 54.8908 16.5407 54.8908 16.3577C54.8908 16.1748 54.6671 15.8088 54.3825 15.5445C53.9556 15.0973 53.7116 15.0363 52.5121 15.0363C51.577 15.0363 50.9671 15.1379 50.6621 15.3616Z" fill="#F6F6F6"/>
<path d="M0.448334 20.0359C-0.181899 20.4831 -0.141239 21.398 0.529655 21.9266C1.01758 22.3129 1.34286 22.3535 4.10776 22.3535C5.85615 22.3535 7.31991 22.2722 7.54355 22.1299C8.37708 21.703 8.43807 20.3815 7.6452 19.8732C7.52322 19.7919 5.9578 19.7106 4.16875 19.7106C1.54616 19.7106 0.814276 19.7716 0.448334 20.0359Z" fill="#F6F6F6"/>
<path d="M51.1295 19.8529C50.1943 20.0765 49.9097 21.2354 50.6213 21.9469C50.9872 22.3129 51.2922 22.3535 54.1587 22.3535C57.0049 22.3535 57.3302 22.3129 57.8181 21.9266C58.4484 21.4183 58.5094 20.6864 57.9401 20.1172C57.5742 19.7513 57.2895 19.7106 54.545 19.7309C52.8779 19.7513 51.3531 19.7919 51.1295 19.8529Z" fill="#F6F6F6"/>
<path d="M1.54628 24.9159C1.09902 25.3429 1.13968 26.2781 1.58694 26.6847C1.89189 26.9693 2.4408 27.0303 4.73811 27.0303C7.25904 27.0303 7.56399 26.9896 7.92993 26.6237C8.41786 26.1357 8.43819 25.6478 8.01126 25.0379C7.72663 24.611 7.56399 24.5907 4.77877 24.5907C2.40014 24.5907 1.81057 24.6516 1.54628 24.9159Z" fill="#F6F6F6"/>
<path d="M50.4588 24.8351C50.3165 24.9774 50.2148 25.3637 50.2148 25.689C50.2148 26.8681 50.3775 26.9291 53.183 26.9901C56.1512 27.0714 56.5985 26.9901 57.0458 26.3395C57.3304 25.8923 57.3304 25.7906 57.0254 25.2214L56.7002 24.5911H53.7116C51.638 24.5911 50.6214 24.6725 50.4588 24.8351Z" fill="#F6F6F6"/>
<path d="M4.06738 29.6725C3.64045 30.0994 3.59979 30.3231 3.78276 31.0143C3.98606 31.7868 5.53115 32.1324 7.27954 31.7868C8.27572 31.5835 8.64166 30.3841 7.93011 29.6725C7.60482 29.3472 7.25921 29.2659 5.99875 29.2659C4.73828 29.2659 4.39267 29.3472 4.06738 29.6725Z" fill="#F6F6F6"/>
<path d="M50.6621 29.592C50.3572 29.7953 50.2148 30.1003 50.2148 30.5882C50.2148 31.5437 50.8044 31.9097 52.3088 31.9097C53.9353 31.9097 54.6875 31.5031 54.6875 30.5882C54.6875 29.6124 54.1182 29.2668 52.4512 29.2668C51.577 29.2668 50.9671 29.3684 50.6621 29.592Z" fill="#F6F6F6"/>
</svg>
