<svg width="100" height="100" viewBox="0 0 100 100" fill="none" xmlns="http://www.w3.org/2000/svg">
<rect width="100" height="100" rx="1.33333" stroke="#E4E4E7"/>
<path fill-rule="evenodd" clip-rule="evenodd" d="M46.1448 21.4374C50.9609 22.0477 56.2364 21.0835 60.2024 23.883C64.1223 26.6499 64.5223 32.1342 67.0642 36.2036C70.1073 41.0755 77.4367 44.4529 76.6007 50.136C75.7638 55.8247 67.4173 56.5899 63.4524 60.7542C59.7621 64.6302 58.8934 70.7955 54.3062 73.5522C49.2075 76.6162 42.9343 77.7024 37.0893 76.5973C30.9579 75.4379 23.9005 72.9677 21.2753 67.3066C18.6074 61.5534 25.167 55.1802 24.2479 48.9054C23.3246 42.6017 14.9509 38.3052 16.1098 32.0406C17.2285 25.9936 23.7955 22.0512 29.5944 20.0041C34.9239 18.1226 40.5377 20.7268 46.1448 21.4374Z" fill="#B6D3E1"/>
<path fill-rule="evenodd" clip-rule="evenodd" d="M81.8796 18.0317C81.9969 17.6524 82.3996 17.4404 82.7789 17.5577C84.6576 18.1397 81.2682 20.0051 81.8796 18.0317Z" stroke="#231F20" stroke-width="0.666667"/>
<path fill-rule="evenodd" clip-rule="evenodd" d="M57.5944 45.0806C57.7117 44.7012 58.1144 44.4892 58.4937 44.6066C60.3724 45.1879 56.9831 47.0532 57.5944 45.0806Z" stroke="#231F20" stroke-width="0.666667"/>
<path fill-rule="evenodd" clip-rule="evenodd" d="M19.9577 35.1694C20.075 34.7901 20.4777 34.5781 20.857 34.6954C22.7357 35.2774 19.3463 37.1421 19.9577 35.1694Z" stroke="#231F20" stroke-width="0.666667"/>
<path fill-rule="evenodd" clip-rule="evenodd" d="M41.0364 51.5233C43.5197 50.7453 46.1237 50.7626 48.5384 50.9653L52.1357 51.2926C53.2357 51.4193 54.401 51.2986 55.5937 51.2193C57.325 51.0799 59.0584 50.8499 60.7937 50.6566L65.3837 50.1106C66.1584 50.0193 66.8837 49.9033 67.7104 49.8233C68.517 49.7519 69.329 49.7419 70.1437 49.8079C71.7497 49.9479 73.4644 50.3639 74.7924 51.5366C75.1224 51.8379 75.4024 52.1319 75.6664 52.5459C75.9224 52.9413 76.105 53.5626 75.907 54.1253C75.7164 54.6759 75.337 55.0213 74.983 55.2806C74.6204 55.5413 74.243 55.7246 73.8697 55.8959C72.5344 56.4666 71.1677 56.7753 69.8024 57.0453C68.439 57.3106 67.0577 57.4839 65.711 57.6446C62.249 58.0586 58.8164 58.6159 55.8564 60.2933C54.9657 60.8513 54.9404 60.6439 55.549 59.8833C56.1277 59.1079 57.5904 57.9079 59.6284 57.3133C63.2317 56.2853 66.8577 56.3019 70.2324 55.5513C71.079 55.3713 71.915 55.1573 72.6964 54.8779C73.085 54.7359 73.463 54.5826 73.7837 54.3879C74.1004 54.2013 74.379 53.9659 74.461 53.8013C74.543 53.6386 74.5284 53.6459 74.4404 53.4119C74.3884 53.3053 74.3017 53.1766 74.175 53.0333C74.0697 52.8866 73.9304 52.7679 73.801 52.6386C73.261 52.1419 72.541 51.7973 71.7684 51.5579C70.8357 51.2826 69.807 51.1806 68.7724 51.2073C68.255 51.2226 67.7344 51.2659 67.217 51.3406L65.5737 51.5759C63.3817 51.8846 61.177 52.1859 58.981 52.4286C57.773 52.5613 56.5637 52.6853 55.345 52.7819C54.7337 52.8266 54.1244 52.8706 53.4964 52.8866C53.1884 52.8993 52.8604 52.8959 52.521 52.8799L51.6084 52.8046C49.187 52.6026 46.7957 52.3006 44.4664 52.4773C43.0357 52.5926 41.635 52.9113 40.3144 53.4619C38.991 54.0079 37.755 54.7779 36.5984 55.6566C34.849 57.0226 33.133 58.5233 31.3797 59.9473C29.627 61.3799 27.859 62.7926 26.0497 64.1306C23.251 66.2279 20.4264 68.1999 17.3964 69.9099C16.7224 70.2739 16.0784 70.6606 15.3864 71.0066C14.0824 71.6039 13.2217 71.9946 12.5684 72.1533C11.9157 72.3126 11.519 72.3459 11.1777 72.3146C11.0224 72.2999 10.8284 72.3059 10.731 72.2753C10.565 72.2233 10.733 72.0446 11.1617 71.7426C11.5877 71.4333 12.2817 71.0246 13.1877 70.5453C18.573 67.7159 23.8484 64.0679 28.8597 59.9906C30.7277 58.4819 32.5524 56.9139 34.433 55.3479C36.3077 53.7619 38.5117 52.2519 41.0184 51.4873L41.0364 51.5233Z" fill="#231F20"/>
<path fill-rule="evenodd" clip-rule="evenodd" d="M52.2035 69.5965C54.5129 69.4945 56.7989 69.4271 59.0515 69.2005C60.1782 69.0858 61.2989 68.9411 62.4095 68.7431C62.9515 68.6291 63.5455 68.5558 64.0342 68.3871L64.8009 68.1658C65.0575 68.0991 65.3055 67.9618 65.5589 67.8638C67.0449 67.2765 68.4275 66.3618 69.8062 65.4791C72.2222 63.8671 74.5069 62.0145 76.6889 60.0538C78.8702 58.0898 80.9409 55.9945 82.8749 53.7938C83.7175 52.8225 84.5389 51.8085 85.1895 50.7458C85.5315 50.2225 85.7849 49.6665 85.9422 49.1045C86.0182 48.8258 86.0662 48.5458 86.0629 48.2898C86.0649 48.0445 85.9875 47.7738 85.9269 47.6911L85.9135 47.6671C85.8602 47.5871 85.7709 47.5365 85.6775 47.5218C85.5855 47.5078 85.5049 47.5098 85.3182 47.5471C84.9909 47.6131 84.6275 47.7578 84.2755 47.9265C83.5675 48.2705 82.8715 48.7038 82.1909 49.1605L80.1549 50.5698L79.1402 51.2918C78.8015 51.5325 78.4342 51.7385 78.0922 51.9778C77.2295 52.5591 77.2062 52.3311 77.6889 51.5271C78.1529 50.7025 79.1389 49.2951 80.7609 48.1378C81.5695 47.5825 82.3969 47.0485 83.3262 46.5871C83.7962 46.3605 84.2842 46.1451 84.8876 46.0038C85.0502 45.9751 85.2009 45.9418 85.3895 45.9325C85.6082 45.9105 85.8602 45.9318 86.0835 45.9811C86.3115 46.0325 86.5315 46.1211 86.7215 46.2531C86.9209 46.3778 87.0549 46.5738 87.2062 46.7485C87.5555 47.3458 87.6035 47.7845 87.6195 48.2258C87.6249 48.6611 87.5555 49.0511 87.4602 49.4145C87.2615 50.1311 86.9669 50.7805 86.6029 51.3478C85.9009 52.5151 85.1169 53.4851 84.3095 54.4718C82.6875 56.4111 80.9082 58.1891 79.0495 59.8878C75.9555 62.6738 72.7095 65.5698 69.0042 67.7998C67.9769 68.3965 66.9182 68.9525 65.7875 69.3958C65.2355 69.6378 64.6155 69.7638 64.0329 69.9485C63.4495 70.0758 62.8762 70.1905 62.2929 70.2838C59.9675 70.6865 57.6209 70.8565 55.2949 70.9738C52.4315 71.1105 49.5889 71.1838 46.7755 71.5038C45.7775 71.6625 44.7555 71.9411 43.7489 72.3038C42.7382 72.6425 41.7429 73.0525 40.7495 73.4598C38.7662 74.2911 36.8256 75.2251 34.9136 76.1838C31.9509 77.6965 29.1309 79.3465 26.3462 81.0791C25.7302 81.4565 25.1469 81.8525 24.5369 82.2451C22.2749 83.6998 21.5689 84.1191 20.8842 84.1911C20.7309 84.2125 20.5456 84.2685 20.4389 84.2678C20.0889 84.3151 20.7009 83.2218 22.3369 82.0125C24.7376 80.2151 27.3516 78.6405 30.0416 77.1131C32.7382 75.5971 35.5289 74.1645 38.3976 72.8491C40.5422 71.8898 42.6929 70.9598 45.0595 70.2978C45.3415 70.2018 45.6795 70.1578 45.9935 70.0925C46.3142 70.0298 46.6362 69.9691 46.9202 69.9491C47.5082 69.8845 48.0955 69.8311 48.6835 69.7818C49.8582 69.6871 51.0302 69.6185 52.1955 69.5585L52.2035 69.5965Z" fill="#231F20"/>
<path fill-rule="evenodd" clip-rule="evenodd" d="M27.041 75.332C26.579 75.1294 26.147 74.8454 25.709 74.5914C25.2877 74.3034 24.8724 74.0034 24.489 73.668C24.2197 73.4107 23.8984 73.214 23.6544 72.9314C22.7484 71.9734 22.1104 70.8174 21.6324 69.6534C21.537 69.3887 21.433 69.1294 21.3244 68.8727C21.215 68.616 21.151 68.346 21.059 68.0867C20.8064 67.424 20.6444 66.7307 20.625 66.0234C20.621 65.802 20.8757 65.7927 21.1677 65.922C21.4577 66.0527 21.7984 66.3074 21.9104 66.6634C22.3297 67.9294 22.851 69.0914 23.4164 70.266C23.5964 70.612 23.8437 70.9274 24.0944 71.2374C24.3884 71.5087 24.6544 71.81 24.9624 72.0627C25.2964 72.346 25.625 72.638 26.0017 72.8734C26.3564 73.1394 26.7504 73.352 27.1397 73.5754C27.635 73.822 28.135 74.0754 28.6697 74.25C29.465 74.55 30.3057 74.7747 31.151 74.9114C31.8117 75.0087 32.4744 74.9974 33.1377 75.0034C33.283 75.006 33.427 74.9954 33.5737 75.006C34.117 75.048 34.2797 75.1767 34.365 75.5947C34.385 75.69 34.413 75.7854 34.4217 75.8794C34.4504 76.196 34.2044 76.4387 33.783 76.5147C32.539 76.722 31.2097 76.6594 29.8997 76.35C28.9277 76.11 27.9577 75.8074 27.0264 75.3707L27.041 75.332Z" fill="#231F20"/>
<path fill-rule="evenodd" clip-rule="evenodd" d="M16.3944 70.5659C17.5071 70.8039 18.4277 71.4805 19.0877 72.1725C19.7611 72.8739 20.2757 73.6212 20.7284 74.3465C21.6277 75.7779 22.3884 77.2485 23.3811 78.0965C23.7277 78.4299 24.1097 78.5425 24.4851 78.6559L23.2917 79.9579C23.1584 79.4472 22.9624 78.9432 22.7337 78.4392C22.0557 76.9412 20.9864 75.5279 19.9631 74.0092C19.5211 73.3219 18.9004 72.6599 18.3577 71.8265C18.0897 71.4105 17.8331 70.9505 17.6764 70.4005C17.5171 69.8599 17.5004 69.1899 17.7317 68.6125L17.9524 68.0605L18.4917 68.1459C19.3124 68.2759 19.9891 68.6572 20.5604 69.0732C21.3851 69.6945 22.0644 70.4032 22.7131 71.1159C23.3597 71.8299 23.9664 72.5559 24.5744 73.2625C25.3537 74.1672 26.1471 75.0525 26.9831 75.8352C27.8164 76.6092 28.6991 77.3125 29.6417 77.5712C30.1984 77.6839 30.2577 78.1232 29.5084 78.4792C29.1311 78.6479 28.5491 78.6879 27.9084 78.5345C27.2691 78.3819 26.5991 78.0325 26.0264 77.5359C24.4377 76.1379 23.2464 74.5725 22.0097 73.1285C21.3971 72.4065 20.7831 71.7065 20.1457 71.1125C19.5157 70.5299 18.8251 70.0472 18.2737 69.9625L19.4491 69.2412C19.3684 69.4405 19.3497 69.6612 19.4497 70.0032C19.5571 70.3392 19.7784 70.7285 20.0444 71.1199C20.4164 71.6779 20.9277 72.2465 21.3977 72.9312C21.8151 73.5352 22.2697 74.1379 22.7224 74.7639C23.6244 76.0105 24.5471 77.3705 25.0611 78.9792L25.1977 79.4579L25.5971 80.8599L24.1531 80.5972C23.1171 80.4092 22.2631 79.8019 21.6457 79.1572C21.0164 78.5059 20.5377 77.8012 20.1071 77.1145C19.2377 75.7505 18.5011 74.3585 17.4811 73.4059C16.9877 72.9559 16.4424 72.6412 15.8437 72.5052L16.6904 71.9412C16.6137 72.2325 16.7557 72.7879 17.0151 73.2919C17.2671 73.8065 17.6017 74.3179 17.9637 74.8139C18.7837 75.9332 19.7304 77.0039 20.6857 78.0725C21.1651 78.6079 21.6504 79.1392 22.1291 79.6985C22.3684 79.9785 22.6044 80.2639 22.8364 80.5925C22.9511 80.7592 23.0677 80.9279 23.1757 81.1972C23.2124 81.3552 23.3224 81.5159 23.1897 81.9199C23.1404 82.0772 22.9444 82.2625 22.7984 82.3365C22.6891 82.3812 22.5684 82.4145 22.4511 82.4332L22.8917 82.1899C22.7637 82.3205 22.6611 82.4599 22.4917 82.5605C22.3237 82.6679 22.1471 82.7519 21.9517 82.7792C21.4384 82.8652 21.0064 82.7185 20.6877 82.5645C20.3524 82.4072 20.0744 82.2205 19.8104 82.0272C19.2891 81.6372 18.8317 81.2192 18.3937 80.7932C17.5197 79.9399 16.7177 79.0545 15.9311 78.1699C15.5837 77.7872 15.2437 77.4119 14.8937 77.0259C14.2671 76.3085 13.8757 75.8545 13.6657 75.5239C13.4477 75.1839 13.4584 74.9992 13.4597 74.7199C13.4531 74.6592 13.4351 74.6032 13.3651 74.5519C13.3111 74.5252 13.2311 74.5125 13.1564 74.5032C13.0324 74.4859 12.9337 74.4445 12.9677 74.2599C12.9924 74.1719 13.0297 74.0399 13.2044 73.9459C13.3957 73.8305 13.5637 73.8125 13.7817 73.8212C14.4764 73.9032 15.0124 74.2685 15.5824 74.7765C16.9071 76.0005 18.0231 77.3179 19.2044 78.5585C19.7877 79.1679 20.3851 79.7832 20.9671 80.2439C21.2491 80.4739 21.5557 80.6679 21.6944 80.7125C21.7131 80.7212 21.7111 80.7112 21.7184 80.7152L21.7257 80.7192C21.7157 80.7625 21.7097 80.8712 21.6977 80.8892C21.6764 80.9625 21.6657 81.0432 21.6677 81.1279L21.6771 81.2412C21.6751 81.2525 21.6744 81.2659 21.6757 81.2799C21.7417 81.5005 21.6597 81.1712 21.3737 81.0185L22.3317 81.1872C22.3211 81.2572 22.3251 81.3305 22.3457 81.4025C22.3557 81.4385 22.3704 81.4739 22.3884 81.5079L22.4184 81.5572V81.5679C22.4197 81.5832 22.4317 81.6025 22.4551 81.6145C22.4424 81.6005 22.3851 81.5785 22.3551 81.5845C22.3317 81.5845 22.3331 81.5945 22.2937 81.5945C22.2464 81.5925 22.2004 81.5939 22.1551 81.5985C22.0631 81.6079 21.9764 81.6332 21.8964 81.6705C21.8677 81.6899 21.8051 81.7099 21.7277 81.7312L21.5204 81.8025L21.3204 81.8872L21.2224 81.9345L21.2237 81.9385C21.2171 81.9239 21.1264 81.7752 21.0224 81.6412C20.8097 81.3579 20.5404 81.0412 20.2631 80.7259C19.2131 79.5339 18.0671 78.3139 17.0024 76.9712C16.4691 76.2952 15.9484 75.5972 15.4751 74.7892C15.2391 74.3859 15.0177 73.9445 14.8357 73.4345C14.6657 72.9299 14.4977 72.2939 14.6671 71.4832L14.9497 70.1305L16.2011 70.4619L16.3997 70.5145L16.3944 70.5659Z" fill="#231F20"/>
<path fill-rule="evenodd" clip-rule="evenodd" d="M27.6926 37.7391C27.6613 38.2298 27.7966 38.6998 27.8673 39.1805C28.022 39.6391 28.1486 40.1125 28.3993 40.5351C28.854 41.3918 29.4813 42.1925 30.2946 42.7711C30.57 43.0098 30.912 43.1531 31.2173 43.3485C31.5486 43.4931 31.8813 43.6418 32.22 43.7685C33.424 44.1978 34.7533 44.2891 35.9953 43.9678C37.2413 43.6558 38.3666 42.9138 39.2393 41.9205C40.0006 41.0298 40.526 39.9251 40.7613 38.7871C41.072 37.3125 40.8626 35.8098 40.3873 34.4205C40.2373 33.9905 40.5593 33.8565 41.0513 34.1085C41.5393 34.3485 42.1813 35.0785 42.3106 36.1211C42.5453 37.9418 42.158 39.8045 41.2646 41.3765C40.8226 42.1665 40.2453 42.8758 39.5626 43.4751C38.9006 44.0931 38.096 44.5578 37.258 44.8991C36.232 45.2445 35.1466 45.4898 34.0453 45.4298C32.958 45.3658 31.858 45.1518 30.8873 44.6571C29.8186 44.1318 28.8653 43.3891 28.0966 42.4818C27.3513 41.5525 26.8253 40.4611 26.5433 39.3138C26.2046 37.8965 26.2953 36.3971 26.7666 35.0338C27.4766 32.9605 29.0826 31.2645 31.0193 30.3478C32.5113 29.6138 34.2253 29.2858 35.9033 29.6131C36.2633 29.7065 36.638 29.7451 36.988 29.8885C37.634 30.1605 38.054 30.3625 38.274 30.6145C38.5073 30.8451 38.5953 31.0385 38.6086 31.2625C38.614 31.3638 38.6353 31.4758 38.6153 31.5611C38.5386 31.8545 37.988 31.7325 37.2113 31.3758C36.026 30.8825 34.7226 30.7211 33.458 30.9398C32.194 31.1531 30.9746 31.7358 29.9953 32.5991C29.614 32.9045 29.3153 33.2871 28.9973 33.6551C28.74 34.0638 28.4486 34.4571 28.276 34.9111C27.88 35.7891 27.66 36.7598 27.726 37.7351L27.6926 37.7391Z" fill="#231F20"/>
<path fill-rule="evenodd" clip-rule="evenodd" d="M67.75 36.169C70.8426 35.939 73.658 34.0703 75.268 31.3916C75.858 30.4176 76.2666 29.3396 76.5333 28.2363C77.012 26.2896 76.9453 24.197 76.252 22.3083C75.5693 20.4136 74.2413 18.771 72.558 17.5976C71.0566 16.5676 69.2806 15.9056 67.484 15.713C65.164 15.4423 62.836 15.959 60.7813 16.9743C60.146 17.293 59.98 16.9323 60.3506 16.2643C60.7073 15.603 61.7353 14.655 63.2513 14.3136C65.9046 13.7036 68.722 13.995 71.184 15.087C73.6413 16.1636 75.8006 18.0443 77.02 20.479C78.4873 23.367 78.7173 26.9363 77.578 29.991C76.3813 33.353 73.6073 36.1523 70.1913 37.2123C69.9306 37.2983 69.67 37.3776 69.402 37.4323C69.1353 37.4916 68.8706 37.5663 68.6006 37.5863L66.9906 37.777C66.45 37.7803 65.9073 37.7556 65.3673 37.745C65.096 37.7543 64.8293 37.693 64.562 37.6496L63.7613 37.5123C62.1706 37.1536 60.5993 36.539 59.3006 35.5303C57.9913 34.5596 56.8326 33.3536 56.0493 31.9263C55.6833 31.4063 55.4893 30.801 55.2146 30.2363C54.9633 29.6603 54.84 29.0403 54.646 28.4423C54.55 27.8243 54.436 27.201 54.3906 26.5736L54.3933 25.627C54.3966 25.3103 54.384 24.991 54.452 24.6803C54.5533 24.1336 54.5773 23.5743 54.7453 23.0363C55.0706 22.0423 55.3066 21.3896 55.6286 21.0136C55.9166 20.6216 56.156 20.441 56.4326 20.353C56.5586 20.313 56.6973 20.2476 56.802 20.2476C57.1686 20.2576 56.9833 21.0716 56.506 22.3296C55.8573 24.2356 55.7133 26.3216 56.186 28.297C56.6486 30.2703 57.714 32.119 59.222 33.5096C59.754 34.0603 60.4146 34.4563 61.0473 34.879L62.0746 35.389C62.4146 35.5656 62.7973 35.639 63.156 35.773L63.7033 35.951L64.2733 36.0456C64.654 36.0956 65.0286 36.209 65.4166 36.213L66.5786 36.2383C66.7726 36.2536 66.9666 36.237 67.16 36.205L67.7413 36.1316L67.75 36.169Z" fill="#231F20"/>
<path fill-rule="evenodd" clip-rule="evenodd" d="M67.8715 26.5508C66.9468 26.3968 65.7748 26.6935 64.5128 26.7868C64.0455 26.8135 63.5441 26.8555 63.0108 26.7215C62.8881 26.6835 62.7661 26.6422 62.6455 26.5962C62.5195 26.5288 62.3961 26.4775 62.2755 26.3848C62.0308 26.2162 61.8201 25.9482 61.7035 25.6542C61.4975 25.0488 61.6415 24.5262 61.8041 24.1142C62.1608 23.2855 62.7068 22.6748 63.2875 22.1148C63.8101 21.6275 64.3701 21.1795 64.9928 20.8148C65.3935 20.5835 65.8281 20.3848 66.3081 20.2788C66.7821 20.1722 67.3295 20.1808 67.8028 20.4102C68.1028 20.5622 67.9068 20.7755 67.6268 20.9628C67.3335 21.1502 67.0401 21.3882 66.6908 21.4775C65.3975 21.8468 63.9708 22.9448 63.1168 24.1828C62.8628 24.5435 62.7548 25.0108 62.8408 25.1928C62.8788 25.2782 62.9355 25.3495 63.0968 25.4148C63.2501 25.4762 63.4655 25.5222 63.6908 25.5408C64.7095 25.6295 65.9015 25.2902 67.1728 25.2522C67.9421 25.2262 68.8721 25.3695 69.5381 25.9582C69.7908 26.1782 69.9928 26.4042 70.1655 26.6882C70.3321 26.9702 70.4701 27.3175 70.4575 27.6988C70.4508 28.0815 70.2768 28.4302 70.0721 28.6875C69.8648 28.9502 69.6248 29.1528 69.3815 29.3308C68.6168 29.8635 67.8388 30.2788 67.0221 30.6028C66.8421 30.6742 66.6695 30.7522 66.4855 30.8115C65.8015 31.0268 65.5608 30.9822 65.3255 30.6655C65.2715 30.5928 65.2068 30.5228 65.1668 30.4468C65.0288 30.1888 65.2535 29.8908 65.7121 29.6782C66.3828 29.3708 67.0501 29.0648 67.7248 28.7555C68.0468 28.6015 68.3561 28.4375 68.6188 28.2622C68.8735 28.0908 69.0868 27.8882 69.1395 27.7708C69.1848 27.6808 69.1981 27.6662 69.1748 27.5528C69.1488 27.4435 69.0541 27.2775 68.9015 27.1102C68.6401 26.8048 68.3261 26.6442 67.8688 26.5822L67.8715 26.5508Z" fill="#231F20"/>
<path fill-rule="evenodd" clip-rule="evenodd" d="M64.7788 21.4258C64.8408 21.4298 64.7622 21.4965 64.5975 21.6025C64.5442 21.6365 64.3742 21.7185 64.3468 21.7225C64.2922 21.7298 64.2395 21.7365 64.2008 21.7358C64.1768 21.7358 64.0235 21.6232 63.9648 21.5878C63.9082 21.5538 63.8788 21.5065 63.8542 21.4565C63.8048 21.3552 63.7462 21.2585 63.6955 21.1578C63.6835 21.1352 63.6808 21.1085 63.6848 21.0785C63.7008 20.9758 63.6662 20.8972 63.6148 20.8265C63.6062 20.8145 63.6042 20.7992 63.5722 20.7992C63.5195 20.7998 63.4188 20.5892 63.4262 20.5518C63.4442 20.4598 63.4422 20.3772 63.4488 20.2898C63.4502 20.2778 63.4348 20.2725 63.4615 20.2485C63.5228 20.1932 63.5008 20.1785 63.4962 20.1545C63.4895 20.1218 63.4868 20.0878 63.4962 20.0472C63.5008 20.0272 63.5348 19.9932 63.5602 19.9632C63.5835 19.9365 63.6928 19.8912 63.7062 19.8898C63.7462 19.8865 63.7915 19.8518 63.8342 19.8285C63.8488 19.8212 63.8682 19.8112 63.8808 19.8058C63.9082 19.7945 64.1742 19.8698 64.1822 19.8885C64.1842 19.8932 64.3642 20.1058 64.3922 20.1265C64.4062 20.1372 64.3968 20.1598 64.3942 20.1792C64.3928 20.1878 64.5522 20.3505 64.5548 20.3592C64.5668 20.4025 64.6155 20.4292 64.5715 20.4998C64.5628 20.5138 64.5708 20.5205 64.5762 20.5278C64.6222 20.5912 64.6328 20.6712 64.6522 20.7478C64.6615 20.7865 64.6888 20.8172 64.7062 20.8525C64.7095 20.8585 64.7028 20.8698 64.7015 20.8785C64.7002 20.8885 64.6955 20.9012 64.7002 20.9092C64.7508 20.9878 64.7568 21.0885 64.8295 21.1565C64.8468 21.1718 64.8148 21.3012 64.8362 21.3178C64.8488 21.3278 64.7535 21.4245 64.7788 21.4258Z" fill="#231F20"/>
<path fill-rule="evenodd" clip-rule="evenodd" d="M68.6148 30.7569C68.6774 30.7609 68.5981 30.8276 68.4334 30.9336C68.3801 30.9676 68.2101 31.0496 68.1828 31.0536C68.1281 31.0609 68.0754 31.0676 68.0368 31.0669C68.0128 31.0669 67.8594 30.9542 67.8008 30.9189C67.7441 30.8849 67.7148 30.8376 67.6901 30.7876C67.6408 30.6862 67.5828 30.5896 67.5314 30.4889C67.5201 30.4662 67.5168 30.4396 67.5214 30.4096C67.5368 30.3069 67.5021 30.2282 67.4508 30.1576C67.4421 30.1456 67.4401 30.1302 67.4081 30.1302C67.3554 30.1309 67.2548 29.9202 67.2621 29.8829C67.2801 29.7909 67.2781 29.7082 67.2848 29.6209C67.2861 29.6089 67.2708 29.6036 67.2974 29.5796C67.3588 29.5242 67.3368 29.5096 67.3321 29.4856C67.3254 29.4529 67.3228 29.4189 67.3321 29.3782C67.3368 29.3582 67.3708 29.3242 67.3961 29.2942C67.4194 29.2676 67.5288 29.2222 67.5428 29.2209C67.5821 29.2176 67.6274 29.1829 67.6701 29.1596C67.6848 29.1522 67.7048 29.1422 67.7168 29.1369C67.7441 29.1256 68.0108 29.2009 68.0181 29.2196C68.0201 29.2242 68.2001 29.4369 68.2281 29.4576C68.2428 29.4682 68.2334 29.4909 68.2301 29.5102C68.2288 29.5196 68.3881 29.6816 68.3908 29.6902C68.4028 29.7336 68.4514 29.7602 68.4074 29.8309C68.3988 29.8449 68.4068 29.8516 68.4121 29.8589C68.4588 29.9222 68.4688 30.0022 68.4881 30.0789C68.4974 30.1182 68.5248 30.1482 68.5421 30.1836C68.5454 30.1896 68.5388 30.2009 68.5374 30.2096C68.5361 30.2202 68.5314 30.2322 68.5361 30.2402C68.5868 30.3189 68.5928 30.4196 68.6661 30.4876C68.6828 30.5029 68.6508 30.6322 68.6728 30.6489C68.6848 30.6589 68.5894 30.7556 68.6148 30.7569Z" fill="#231F20"/>
<path fill-rule="evenodd" clip-rule="evenodd" d="M36.133 38.1923C35.4057 38.0689 34.4717 38.3029 33.463 38.3763C33.089 38.3976 32.687 38.4309 32.2583 38.3229C31.8897 38.2389 31.3923 37.9589 31.2023 37.4549C31.037 36.9636 31.1543 36.5436 31.2857 36.2136C31.5737 35.5489 32.011 35.0629 32.4757 34.6169C32.8937 34.2276 33.341 33.8703 33.8377 33.5783C34.1583 33.3936 34.5057 33.2343 34.8897 33.1489C35.2697 33.0636 35.709 33.0716 36.089 33.2569C36.329 33.3809 36.1677 33.5589 35.9417 33.7183C35.705 33.8763 35.4763 34.0783 35.203 34.1489C34.1883 34.4429 33.053 35.3109 32.373 36.2869C32.1697 36.5703 32.087 36.9396 32.1503 37.0723C32.167 37.1889 32.435 37.3076 32.8077 37.3369C33.6123 37.4096 34.563 37.1409 35.5783 37.1116C36.193 37.0903 36.9383 37.2056 37.4737 37.6769C37.6817 37.8436 37.8263 38.0569 37.977 38.2636C38.043 38.3789 38.0917 38.5156 38.147 38.6416C38.199 38.7696 38.195 38.9336 38.2117 39.0776C38.2043 39.2243 38.1577 39.3736 38.1183 39.5149C38.0497 39.6356 37.9837 39.7669 37.903 39.8736C37.815 39.9689 37.729 40.0716 37.637 40.1576L37.3503 40.3909C36.7383 40.8136 36.1197 41.1503 35.4683 41.4123C35.3257 41.4703 35.1877 41.5309 35.041 41.5809C34.495 41.7529 34.3037 41.7143 34.1123 41.4489C34.0683 41.3876 34.0163 41.3296 33.9837 41.2656C33.871 41.0503 34.047 40.8043 34.4117 40.6323C34.9497 40.3816 35.4757 40.1363 36.007 39.8883C36.2663 39.7683 36.4997 39.6343 36.715 39.4996C36.8963 39.3636 37.091 39.2063 37.115 39.1229C37.1463 39.0863 37.1177 39.0756 37.1517 39.0536C37.1297 39.0263 37.157 39.0136 37.143 38.9696C37.113 38.9216 37.1143 38.8783 37.0757 38.8183C37.025 38.7569 36.9777 38.6943 36.9323 38.6283C36.735 38.3916 36.4883 38.2676 36.131 38.2189L36.133 38.1923Z" fill="#231F20"/>
<path fill-rule="evenodd" clip-rule="evenodd" d="M33.6878 34.0757C33.7391 34.0777 33.6731 34.1323 33.5351 34.2203C33.4911 34.2483 33.3491 34.3163 33.3264 34.3203C33.2811 34.327 33.2378 34.333 33.2051 34.333C33.1858 34.3337 33.0611 34.245 33.0131 34.2177C32.9664 34.191 32.9431 34.1537 32.9238 34.1137C32.8838 34.033 32.8371 33.9557 32.7964 33.8757C32.7871 33.8577 32.7851 33.8363 32.7891 33.8123C32.8031 33.729 32.7758 33.6663 32.7344 33.6103C32.7278 33.601 32.7264 33.589 32.6998 33.5897C32.6564 33.5903 32.5758 33.423 32.5824 33.393C32.5984 33.3183 32.5984 33.2517 32.6051 33.1817C32.6064 33.1717 32.5938 33.1677 32.6164 33.1483C32.6678 33.103 32.6498 33.091 32.6464 33.0723C32.6411 33.0463 32.6391 33.0183 32.6478 32.9857C32.6524 32.9697 32.6804 32.9417 32.7018 32.9177C32.7211 32.895 32.8124 32.8577 32.8238 32.8563C32.8564 32.8537 32.8944 32.8243 32.9304 32.8057C32.9424 32.799 32.9591 32.791 32.9691 32.7863C32.9918 32.7763 33.2111 32.8337 33.2171 32.8483C33.2184 32.8523 33.3638 33.0203 33.3864 33.0363C33.3984 33.045 33.3904 33.063 33.3878 33.079C33.3864 33.0863 33.5158 33.2143 33.5178 33.221C33.5271 33.2563 33.5671 33.277 33.5298 33.3343C33.5224 33.3457 33.5291 33.351 33.5331 33.3563C33.5704 33.407 33.5778 33.471 33.5924 33.5323C33.6004 33.563 33.6218 33.5877 33.6358 33.6157C33.6384 33.6203 33.6324 33.6297 33.6318 33.6363C33.6304 33.645 33.6264 33.655 33.6304 33.661C33.6711 33.7237 33.6744 33.8043 33.7338 33.8583C33.7471 33.8703 33.7191 33.975 33.7371 33.9883C33.7471 33.9957 33.6671 34.075 33.6878 34.0757Z" fill="#231F20"/>
<path fill-rule="evenodd" clip-rule="evenodd" d="M36.7463 41.5102C36.7976 41.5122 36.7316 41.5669 36.5936 41.6549C36.5496 41.6829 36.4076 41.7509 36.3849 41.7549C36.3396 41.7616 36.2963 41.7676 36.2643 41.7676C36.2443 41.7682 36.1196 41.6796 36.0716 41.6522C36.0249 41.6256 36.0016 41.5882 35.9823 41.5482C35.9423 41.4676 35.8956 41.3902 35.8549 41.3102C35.8456 41.2922 35.8436 41.2709 35.8476 41.2469C35.8616 41.1636 35.8343 41.1009 35.7929 41.0449C35.7863 41.0356 35.7849 41.0236 35.7589 41.0242C35.7149 41.0249 35.6349 40.8576 35.6409 40.8276C35.6569 40.7529 35.6569 40.6862 35.6636 40.6162C35.6649 40.6062 35.6529 40.6022 35.6749 40.5829C35.7263 40.5376 35.7083 40.5256 35.7049 40.5069C35.6996 40.4809 35.6983 40.4529 35.7063 40.4202C35.7109 40.4042 35.7389 40.3762 35.7603 40.3522C35.7796 40.3296 35.8709 40.2922 35.8823 40.2909C35.9149 40.2882 35.9529 40.2589 35.9889 40.2402C36.0016 40.2336 36.0176 40.2256 36.0276 40.2209C36.0503 40.2109 36.2696 40.2682 36.2756 40.2829C36.2769 40.2869 36.4229 40.4549 36.4456 40.4709C36.4576 40.4796 36.4489 40.4976 36.4463 40.5129C36.4449 40.5209 36.5743 40.6489 36.5763 40.6556C36.5856 40.6909 36.6256 40.7116 36.5883 40.7689C36.5809 40.7802 36.5876 40.7856 36.5916 40.7909C36.6289 40.8409 36.6363 40.9056 36.6509 40.9669C36.6589 40.9976 36.6809 41.0222 36.6943 41.0502C36.6969 41.0549 36.6909 41.0642 36.6903 41.0709C36.6896 41.0796 36.6849 41.0896 36.6889 41.0956C36.7296 41.1582 36.7329 41.2389 36.7923 41.2929C36.8056 41.3049 36.7776 41.4096 36.7956 41.4229C36.8056 41.4302 36.7256 41.5096 36.7463 41.5102Z" fill="#231F20"/>
</svg>
