<svg width="100" height="100" viewBox="0 0 100 100" fill="none" xmlns="http://www.w3.org/2000/svg">
<rect width="100" height="100" rx="1.33333" stroke="#E4E4E7"/>
<path fill-rule="evenodd" clip-rule="evenodd" d="M54.0404 24.8816C62.2709 23.8399 71.379 26.558 76.1239 33.3634C80.6476 39.8516 78.2639 48.4384 75.6759 55.9126C73.5026 62.1893 69.1098 66.9942 63.3397 70.2846C56.8653 73.9767 49.8093 76.5669 42.5708 74.7913C32.679 72.3648 19.3402 69.2889 18.08 59.1821C16.824 49.1091 30.6615 45.1945 38.0069 38.1881C43.2944 33.1447 46.7911 25.7992 54.0404 24.8816Z" fill="#B6D3E1"/>
<path fill-rule="evenodd" clip-rule="evenodd" d="M20.6741 45.7386C20.6995 45.474 20.9341 45.2786 21.1995 45.304C22.5121 45.4266 20.5448 47.118 20.6741 45.7386Z" stroke="#231F20" stroke-width="0.333333"/>
<path fill-rule="evenodd" clip-rule="evenodd" d="M41.5808 45.0789C39.9848 45.0935 38.3835 45.0615 36.7728 44.9262C35.1575 44.7929 33.5508 44.5522 31.8948 43.9449C31.6581 43.8735 31.4135 43.7329 31.1808 43.6109C30.9315 43.4955 30.7621 43.3182 30.4161 43.0522C30.2348 42.8222 30.1015 42.5389 30.0321 42.2509C29.9795 42.0082 29.9548 41.8495 29.9261 41.6582C29.8728 41.2915 29.8361 40.9382 29.8055 40.5835C29.5061 36.4942 29.4181 32.4622 29.1855 28.4149C29.0935 26.6215 28.9535 24.8215 28.7781 23.0515C28.5481 20.7749 28.2368 18.5115 28.1515 16.2282C28.1195 15.5175 28.3421 15.5675 28.7221 16.1202C28.9148 16.3962 29.1415 16.7982 29.3795 17.2949C29.5988 17.7929 29.7781 18.3915 29.8908 19.0495C30.5941 23.7269 30.8181 28.4162 30.9055 33.1402C30.9308 34.5522 31.0068 35.9895 31.1048 37.4302C31.2095 38.8609 31.3108 40.3389 31.4975 41.6875L31.5415 41.9302C31.5528 41.9695 31.5595 42.0202 31.6001 42.0415C31.6301 42.0589 31.7388 42.1609 31.8608 42.2462C31.9975 42.3182 32.1301 42.3949 32.2608 42.4802C32.3928 42.5635 32.5555 42.6182 32.7028 42.6895C32.8521 42.7569 33.0021 42.8329 33.1715 42.8709C33.4975 42.9702 33.8281 43.0635 34.1741 43.1269C34.5128 43.2069 34.8628 43.2595 35.2135 43.3115C36.6161 43.5162 38.0581 43.5929 39.5008 43.6209C41.4355 43.6535 43.3808 43.5949 45.3215 43.4795C48.2628 43.3042 51.2195 43.0395 54.1288 42.6722C56.3908 42.3849 58.5921 41.9855 60.8195 41.6175C61.3108 41.5342 61.7915 41.4529 62.2861 41.3695C63.2068 41.2255 63.8221 41.1809 64.2681 41.2389C64.7101 41.2822 64.9775 41.3815 65.1921 41.5402C65.2915 41.6155 65.4148 41.6869 65.4695 41.7609C65.5595 41.8882 65.4188 42.0122 65.1095 42.1455C64.7908 42.2795 64.2901 42.4582 63.6281 42.6202C59.6795 43.4035 55.4508 44.0415 51.1815 44.4835C48.0101 44.8182 44.8055 45.0422 41.5855 45.1155L41.5808 45.0789Z" fill="#231F20"/>
<path fill-rule="evenodd" clip-rule="evenodd" d="M65.2285 31.0481L65.2965 28.2461C65.3005 27.9054 65.2605 27.5661 65.2692 27.2254C65.2938 26.0221 65.3305 24.8167 65.3165 23.6141C65.3185 23.0801 65.2505 22.5481 65.2225 22.0201C65.1678 21.3447 65.0812 20.6667 65.1512 19.9874C65.1738 19.7747 65.4192 19.7714 65.6918 19.9227C65.9625 20.0741 66.2792 20.3841 66.3545 20.7741C66.6532 22.1567 66.7032 23.5507 66.6292 24.9647C66.5818 25.8094 66.7072 26.6781 66.7378 27.5374C66.7678 28.4821 66.7865 29.4287 66.7838 30.3754L66.7765 32.1234C66.7798 33.0061 66.7532 33.8927 66.7798 34.7701C66.8038 35.4527 66.9105 36.1227 66.9572 36.8121C66.9672 36.9641 66.9918 37.1134 66.9925 37.2667C66.9532 37.8401 66.8052 38.0234 66.3992 38.0934C66.3058 38.1101 66.2125 38.1347 66.1212 38.1387C65.8145 38.1514 65.5752 37.9001 65.4865 37.5154C65.2365 36.3567 65.2232 35.1161 65.1998 33.8621C65.1965 32.9274 65.1932 31.9881 65.1892 31.0507L65.2285 31.0481Z" fill="#231F20"/>
<path fill-rule="evenodd" clip-rule="evenodd" d="M51.0128 13.6207C49.2808 13.7114 47.5414 13.8154 45.7994 13.9467C45.1641 13.9954 44.5314 14.0827 43.8948 14.126C41.6481 14.2834 39.3901 14.3954 37.1254 14.4114C36.1214 14.42 35.1114 14.4407 34.1114 14.4247C33.4701 14.4194 32.8234 14.3967 32.1781 14.342C31.5334 14.26 30.8921 14.1314 30.2714 13.9214C29.8834 13.7907 29.9827 13.6467 30.3481 13.5247C30.7134 13.4127 31.3387 13.2594 32.0501 13.246C34.5647 13.3794 37.1281 13.2254 39.7241 13.1447C41.2801 13.1027 42.8914 12.8767 44.4821 12.72C46.2327 12.5527 47.9894 12.3907 49.7521 12.266C50.8368 12.188 51.9254 12.132 53.0127 12.078C54.6614 12.002 56.3214 11.9954 57.9641 12.0034C59.2408 11.9987 60.5007 11.9894 61.7774 12.0534C62.0574 12.076 62.3348 12.082 62.6168 12.118C63.6621 12.2534 63.9741 12.4447 64.1161 12.86C64.1481 12.9567 64.1961 13.0554 64.2067 13.148C64.2407 13.4594 63.7808 13.6314 63.0441 13.598C60.8521 13.5234 58.5641 13.436 56.2354 13.4587C54.5081 13.4794 52.7628 13.5394 51.0174 13.6567L51.0128 13.6207Z" fill="#231F20"/>
<path fill-rule="evenodd" clip-rule="evenodd" d="M58.9466 24.2492C57.5073 26.0078 56.1413 27.8458 54.8486 29.7392C54.3773 30.4312 53.9666 31.1612 53.506 31.8598L52.2986 33.7185L51.7046 34.6558L51.41 35.1272L50.9413 35.9098C50.784 36.1558 50.6406 36.4538 50.4753 36.6505L50.2353 36.9698C50.1953 37.0178 50.156 37.0858 50.116 37.1178L49.9966 37.2012L49.76 37.3652L49.5506 37.4738C49.3353 37.4998 49.204 37.3625 49.038 37.2665C48.7173 37.0618 48.3753 36.6078 48.0853 36.0918C47.7953 35.6145 47.4666 34.9892 47.3353 34.7445C46.71 33.5858 46.018 32.4672 45.276 31.4185C44.798 30.7472 44.2973 30.0952 43.7726 29.4872C43.2473 28.8878 42.7046 28.2952 42.1153 27.9078C41.7693 27.7052 41.8266 27.3605 42.4226 27.2072C43.0133 27.0632 44.0846 27.3312 44.854 28.0658C46.2206 29.3538 47.2486 30.8098 48.1873 32.2972C48.422 32.6692 48.6493 33.0432 48.8713 33.4178L49.2 33.9805C49.2386 34.0458 49.2246 34.0292 49.228 34.0398L49.23 34.0592L49.2373 34.1038C49.2486 34.1672 49.2686 34.2532 49.3066 34.3645C49.32 34.4018 49.3593 34.5245 49.3853 34.4892C49.41 34.4798 49.438 34.4645 49.47 34.4438C49.5086 34.4185 49.552 34.3772 49.5966 34.3265L49.6646 34.2432L49.6993 34.1965L49.7173 34.1732L49.7673 34.0898C50.038 33.6318 50.3093 33.1718 50.582 32.7105C51.1226 31.7845 51.6606 30.8485 52.24 29.9485C53.5126 27.9685 54.8593 26.0325 56.288 24.1552C57.1686 23.0005 58.078 21.8665 59.0253 20.7625C60.456 19.0858 62.0206 17.5072 63.6593 16.0258C64.9433 14.8872 66.2313 13.7485 67.798 12.8772C68.136 12.6765 68.4833 12.4978 68.864 12.3558C70.28 11.8338 70.8513 11.9938 71.2113 12.5272C71.2953 12.6505 71.3966 12.7712 71.4466 12.8992C71.53 13.1158 71.4413 13.3385 71.24 13.5412C71.0373 13.7465 70.7226 13.9072 70.318 14.1118C67.9393 15.2432 65.6493 17.0738 63.5093 19.1945C61.926 20.7712 60.404 22.4765 58.992 24.2798L58.9466 24.2492Z" fill="#231F20"/>
<path fill-rule="evenodd" clip-rule="evenodd" d="M40.2949 45.8471C38.8269 45.8198 37.3542 45.7351 35.8849 45.5318C34.4149 45.3284 32.9502 44.9971 31.5275 44.4038C31.2715 44.2818 31.0069 44.1804 30.7615 44.0311L30.3955 43.7991L30.2069 43.6791C30.1309 43.6464 30.0469 43.5278 29.9689 43.4544C29.6755 43.0891 29.6175 42.8004 29.5302 42.5204C29.4462 42.2358 29.3969 41.9664 29.3482 41.6938C29.0455 39.7898 28.9642 37.9318 28.8555 36.0624L28.5875 30.4744C28.5082 28.8238 28.3962 27.1664 28.2502 25.5358C28.0615 23.4391 27.7982 21.3531 27.6569 19.2578C27.6089 18.6051 27.7689 18.6611 28.0569 19.1784C28.2042 19.4371 28.3762 19.8118 28.5602 20.2731C28.7282 20.7351 28.8715 21.2871 28.9655 21.8931C29.5655 26.1971 29.7195 30.5118 29.8422 34.8464C29.8795 36.1418 29.9569 37.4618 30.0755 38.7784C30.1349 39.4371 30.2075 40.0944 30.2969 40.7424C30.3889 41.3804 30.4975 42.0504 30.6882 42.5658C30.7102 42.6431 30.7475 42.6798 30.7622 42.7238C30.7882 42.7558 30.7929 42.7698 30.8315 42.7998L31.2435 43.0678C31.5315 43.2404 31.8382 43.4011 32.1482 43.5538C32.4689 43.6904 32.7875 43.8324 33.1309 43.9224C33.4655 44.0311 33.8069 44.1258 34.1562 44.1998C35.5429 44.5211 36.9815 44.6791 38.4235 44.7618C40.2002 44.8611 41.9909 44.8498 43.7769 44.7671C46.4835 44.6384 49.2035 44.3964 51.8782 44.0498C53.9589 43.7831 55.9842 43.4204 58.0362 43.0904C58.4889 43.0171 58.9322 42.9458 59.3882 42.8724C61.0855 42.6124 61.6762 42.7558 62.0542 42.9671C62.1409 43.0224 62.2515 43.0771 62.2975 43.1304C62.4429 43.3111 61.7955 43.4451 60.5775 43.7258C56.9462 44.3624 53.0615 45.0031 49.1329 45.4018C46.2142 45.6991 43.2635 45.9024 40.2982 45.8731L40.2949 45.8471Z" fill="#231F20"/>
<path fill-rule="evenodd" clip-rule="evenodd" d="M42.2449 85.7325C40.6489 85.7472 39.0475 85.7145 37.4362 85.5798C35.8215 85.4465 34.2149 85.2058 32.5589 84.5985C32.2562 84.5005 31.9489 84.3198 31.6549 84.1585L31.1662 83.7752C31.0702 83.6945 30.9709 83.6185 30.9349 83.4918C30.8609 83.3925 30.8242 83.2718 30.7762 83.1572C30.7242 83.0472 30.6949 82.9118 30.6775 82.8165C30.6622 82.7358 30.6415 82.6485 30.6309 82.5738L30.5635 82.1192C30.5242 81.8218 30.4942 81.5285 30.4695 81.2372C30.1702 77.1478 30.0815 73.1158 29.8495 69.0685C29.7569 67.2752 29.6175 65.4752 29.4422 63.7045C29.2122 61.4285 28.9009 59.1652 28.8155 56.8818C28.7835 56.1705 29.0062 56.2212 29.3855 56.7732C29.5789 57.0492 29.8055 57.4518 30.0429 57.9478C30.2622 58.4465 30.4415 59.0445 30.5549 59.7032C31.2582 64.3798 31.4822 69.0698 31.5689 73.7932C31.5942 75.2058 31.6702 76.6432 31.7682 78.0838C31.8729 79.5145 31.9749 80.9918 32.1609 82.3412C32.2329 82.7378 32.1749 82.6072 32.4429 82.8405C32.7162 83.0065 33.0002 83.1965 33.3402 83.3312C33.9955 83.6345 34.7549 83.7738 35.5075 83.9078C37.0249 84.1552 38.5949 84.2438 40.1649 84.2738C42.0989 84.3065 44.0442 84.2478 45.9855 84.1332C48.9269 83.9572 51.8835 83.6932 54.7922 83.3258C57.0549 83.0385 59.2562 82.6392 61.4835 82.2705C61.9749 82.1878 62.4549 82.1065 62.9502 82.0232C63.8702 81.8792 64.4855 81.8345 64.9322 81.8925C65.3735 81.9358 65.6415 82.0345 65.8562 82.1938C65.9549 82.2685 66.0789 82.3405 66.1329 82.4145C66.2229 82.5418 66.0829 82.6658 65.7735 82.7985C65.4549 82.9332 64.9542 83.1112 64.2922 83.2738C60.3435 84.0572 56.1149 84.6952 51.8449 85.1365C48.6735 85.4712 45.4695 85.6952 42.2495 85.7692L42.2449 85.7325Z" fill="#231F20"/>
<path fill-rule="evenodd" clip-rule="evenodd" d="M65.8928 71.7024L65.9608 68.9004C65.9648 68.5597 65.9248 68.221 65.9335 67.8797C65.9575 66.6764 65.9948 65.471 65.9808 64.269C65.9828 63.7344 65.9142 63.2024 65.8862 62.6744C65.8322 61.999 65.7455 61.321 65.8148 60.6417C65.8382 60.429 66.0835 60.4257 66.3555 60.577C66.6268 60.7284 66.9428 61.0384 67.0188 61.4284C67.3168 62.811 67.3675 64.205 67.2935 65.619C67.2462 66.4637 67.3715 67.3324 67.4022 68.1917C67.4322 69.137 67.4508 70.083 67.4482 71.0297L67.4408 72.7777C67.4442 73.6604 67.4175 74.547 67.4442 75.4244C67.4682 76.107 67.5742 76.777 67.6215 77.4664C67.6308 77.6184 67.6562 77.7677 67.6568 77.9217C67.6175 78.4944 67.4695 78.6777 67.0635 78.7477C66.9702 78.7644 66.8768 78.789 66.7855 78.793C66.4788 78.8057 66.2395 78.5544 66.1508 78.1697C65.9008 77.011 65.8868 75.7704 65.8642 74.5164C65.8608 73.5817 65.8568 72.6424 65.8535 71.705L65.8928 71.7024Z" fill="#231F20"/>
<path fill-rule="evenodd" clip-rule="evenodd" d="M51.6729 54.2748C49.9409 54.3654 48.2016 54.4694 46.4596 54.6014C45.8242 54.6494 45.1922 54.7368 44.5549 54.7801C42.3082 54.9374 40.0502 55.0494 37.7862 55.0654C36.7822 55.0748 35.7722 55.0948 34.7722 55.0794C34.1302 55.0734 33.4836 55.0508 32.8382 54.9968C32.1942 54.9141 31.5522 54.7854 30.9316 54.5754C30.5436 54.4454 30.6429 54.3014 31.0082 54.1788C31.3742 54.0674 31.9989 53.9141 32.7102 53.9001C35.2249 54.0334 37.7882 53.8794 40.3842 53.7988C41.9402 53.7568 43.5516 53.5308 45.1422 53.3741C46.8929 53.2068 48.6502 53.0448 50.4129 52.9201C51.4976 52.8421 52.5856 52.7861 53.6729 52.7321C55.3216 52.6561 56.9816 52.6494 58.6242 52.6581C59.9016 52.6528 61.1609 52.6434 62.4376 52.7074C62.7182 52.7301 62.9949 52.7368 63.2769 52.7721C64.3222 52.9081 64.6342 53.0994 64.7762 53.5141C64.8089 53.6108 64.8562 53.7094 64.8669 53.8021C64.9009 54.1134 64.4416 54.2861 63.7049 54.2521C61.5122 54.1774 59.2249 54.0901 56.8956 54.1128C55.1682 54.1334 53.4229 54.1934 51.6782 54.3108L51.6729 54.2748Z" fill="#231F20"/>
<path fill-rule="evenodd" clip-rule="evenodd" d="M59.611 64.9024C58.171 66.6617 56.8057 68.4997 55.513 70.393C55.041 71.0844 54.631 71.8144 54.1697 72.513L52.8077 74.6157L52.139 75.677L51.127 77.363C50.8464 77.7497 50.5464 77.9617 50.3064 78.0797C50.2504 78.1037 50.1864 78.1677 50.085 78.127C50.0044 78.1037 49.9384 78.0677 49.8684 78.027C49.7317 77.9464 49.593 77.849 49.449 77.711C49.1584 77.4457 48.887 76.9844 48.6337 76.5477C48.507 76.3277 48.379 76.1084 48.2617 75.8864L47.9997 75.3977C47.3744 74.2397 46.6824 73.1203 45.9397 72.0723C45.4624 71.4004 44.9617 70.7484 44.437 70.1404C43.9117 69.541 43.369 68.949 42.779 68.561C42.4337 68.3583 42.4904 68.0137 43.087 67.8604C43.6777 67.7164 44.749 67.9844 45.5177 68.719C46.885 70.007 47.913 71.463 48.851 72.951C49.0857 73.3224 49.3137 73.6964 49.5357 74.071L49.8644 74.6344C49.903 74.699 49.889 74.6824 49.8924 74.6937L49.8944 74.7123L49.901 74.757C49.913 74.821 49.9324 74.9063 49.9704 75.0177C49.9844 75.055 50.0237 75.1777 50.049 75.1423C50.0737 75.133 50.1017 75.1184 50.1344 75.097C50.151 75.0857 50.1677 75.0717 50.1857 75.055C50.2264 75.021 50.2684 74.9724 50.3117 74.9177L50.3777 74.8317L50.5637 74.523C50.819 74.089 51.075 73.653 51.3324 73.2157C51.8444 72.339 52.3557 71.4543 52.9037 70.6024C54.1764 68.6223 55.5237 66.6863 56.9524 64.8083C57.8324 63.6537 58.7424 62.5197 59.689 61.4164C61.1203 59.739 62.685 58.1604 64.3237 56.6797C65.607 55.5404 66.8957 54.4017 68.4624 53.5304C68.8004 53.3297 69.1477 53.151 69.5283 53.0097C70.9443 52.487 71.5157 52.647 71.8757 53.1804C71.9597 53.3044 72.061 53.4244 72.1103 53.5524C72.1943 53.769 72.1057 53.9924 71.9044 54.195C71.7017 54.3997 71.387 54.5604 70.9824 54.765C68.6037 55.8964 66.3137 57.727 64.1737 59.8477C62.5904 61.4244 61.0684 63.1304 59.6557 64.933L59.611 64.9024Z" fill="#231F20"/>
<path fill-rule="evenodd" clip-rule="evenodd" d="M41.8841 86.4275C38.8828 86.4135 35.8355 86.2921 32.8621 85.3088C32.3155 85.1421 31.7855 84.8961 31.2768 84.5928L30.8988 84.3548C30.8228 84.3201 30.7368 84.2261 30.6561 84.1388C30.5655 84.0555 30.5015 83.9615 30.4588 83.8708C30.2728 83.5275 30.2148 83.2521 30.1348 82.9615C29.7288 80.9835 29.6575 79.0888 29.5268 77.1668L29.2288 71.4335C29.1428 69.7395 29.0248 68.0388 28.8741 66.3661C28.6768 64.2148 28.4101 62.0728 28.2595 59.9241C28.2081 59.2541 28.3688 59.3128 28.6595 59.8441C28.8075 60.1095 28.9815 60.4955 29.1668 60.9681C29.3368 61.4428 29.4815 62.0095 29.5781 62.6308C30.1915 67.0455 30.3568 71.4708 30.5048 75.9161C30.5495 77.2448 30.6388 78.5975 30.7741 79.9455C30.8448 80.6181 30.9261 81.2915 31.0381 81.9461C31.0961 82.2701 31.1575 82.5981 31.2448 82.8921C31.2828 83.0448 31.3368 83.1788 31.3848 83.2928C31.4155 83.3361 31.4255 83.3921 31.4488 83.4008C31.4668 83.4228 31.4715 83.4401 31.5441 83.4795C32.6775 84.2375 34.0855 84.7268 35.5308 84.9608C36.9755 85.2195 38.4568 85.3348 39.9408 85.3848C41.7688 85.4401 43.6061 85.3955 45.4395 85.2888C48.2168 85.1301 51.0055 84.8528 53.7488 84.4895C55.8835 84.2061 57.9601 83.8308 60.0655 83.4888C60.5301 83.4135 60.9848 83.3388 61.4528 83.2628C63.1928 82.9935 63.7975 83.1328 64.1861 83.3428C64.2755 83.3981 64.3888 83.4515 64.4361 83.5055C64.5168 83.5961 64.3761 83.6808 64.0795 83.7635C63.7735 83.8555 63.2981 83.9788 62.6721 84.1095C58.9448 84.7668 54.9628 85.4308 50.9375 85.8648C47.9468 86.1948 44.9241 86.4215 41.8881 86.4535L41.8841 86.4275Z" fill="#231F20"/>
<path fill-rule="evenodd" clip-rule="evenodd" d="M75.2562 18.22C75.2808 17.9553 75.5162 17.7606 75.7808 17.7853C77.0942 17.908 75.1268 19.5993 75.2562 18.22Z" stroke="#231F20" stroke-width="0.333333"/>
<path fill-rule="evenodd" clip-rule="evenodd" d="M76.2405 64.247C76.2652 63.9823 76.5005 63.787 76.7652 63.8117C78.0785 63.935 76.1112 65.6263 76.2405 64.247Z" stroke="#231F20" stroke-width="0.333333"/>
<path fill-rule="evenodd" clip-rule="evenodd" d="M69.7507 26.0683C69.9607 26.1503 70.0647 26.3869 69.9834 26.5963C69.578 27.6376 68.6574 25.6429 69.7507 26.0683Z" fill="#231F20"/>
</svg>
