<svg width="36" height="36" viewBox="0 0 36 36" fill="none" xmlns="http://www.w3.org/2000/svg">
<path d="M11.8597 16.5498C11.12 16.5523 10.3933 16.7452 9.74969 17.1098C10.6558 14.7643 12.1587 12.6961 14.1097 11.1098C14.2213 11.0179 14.3137 10.9049 14.3817 10.7772C14.4496 10.6496 14.4918 10.5098 14.5057 10.3659C14.5196 10.222 14.5051 10.0767 14.4629 9.93839C14.4207 9.80009 14.3516 9.67145 14.2597 9.55983C14.1678 9.4482 14.0548 9.35578 13.9271 9.28783C13.7995 9.21988 13.6597 9.17774 13.5158 9.16381C13.3718 9.14988 13.2266 9.16444 13.0883 9.20665C12.9499 9.24886 12.8213 9.3179 12.7097 9.40983C8.70969 12.6598 6.92969 17.1598 6.92969 19.9498C6.93658 20.9363 7.23056 21.8995 7.77573 22.7217C8.3209 23.5438 9.09367 24.1895 9.99969 24.5798C10.586 24.8639 11.2282 25.0142 11.8797 25.0198C12.4531 25.0477 13.0263 24.9588 13.5644 24.7586C14.1025 24.5583 14.5943 24.2509 15.01 23.8549C15.4257 23.4589 15.7567 22.9826 15.9828 22.4548C16.2089 21.9271 16.3255 21.359 16.3255 20.7848C16.3255 20.2107 16.2089 19.6425 15.9828 19.1148C15.7567 18.5871 15.4257 18.1108 15.01 17.7148C14.5943 17.3188 14.1025 17.0113 13.5644 16.8111C13.0263 16.6108 12.4531 16.522 11.8797 16.5498H11.8597Z" fill="#0B1F2A"/>
<path d="M23.0003 16.55C22.2605 16.5516 21.5336 16.7445 20.8903 17.11C21.7961 14.767 23.2951 12.6995 25.2403 11.11C25.3621 11.0223 25.4646 10.9105 25.5415 10.7816C25.6185 10.6528 25.6682 10.5095 25.6878 10.3607C25.7073 10.2119 25.6961 10.0607 25.655 9.91633C25.6139 9.77198 25.5437 9.63758 25.4487 9.52139C25.3537 9.40519 25.2359 9.30967 25.1026 9.2407C24.9693 9.17173 24.8233 9.13077 24.6736 9.12034C24.5238 9.1099 24.3736 9.13022 24.232 9.18004C24.0904 9.22986 23.9605 9.30812 23.8503 9.41002C19.8503 12.66 18.0703 17.16 18.0703 19.95C18.0751 20.9253 18.3605 21.8787 18.8924 22.6962C19.4244 23.5136 20.1805 24.1607 21.0703 24.56C21.6715 24.8524 22.3318 25.0029 23.0003 25C23.5738 25.0279 24.1469 24.939 24.685 24.7388C25.2231 24.5385 25.7149 24.2311 26.1306 23.8351C26.5463 23.4391 26.8773 22.9628 27.1034 22.435C27.3296 21.9073 27.4462 21.3392 27.4462 20.765C27.4462 20.1909 27.3296 19.6227 27.1034 19.095C26.8773 18.5673 26.5463 18.091 26.1306 17.695C25.7149 17.299 25.2231 16.9915 24.685 16.7913C24.1469 16.591 23.5738 16.5021 23.0003 16.53V16.55Z" fill="#0B1F2A"/>
</svg>
